<svg width="349" height="191" viewBox="0 0 349 191" fill="none" xmlns="http://www.w3.org/2000/svg">
<rect x="349" width="191" height="348.999" transform="rotate(90 349 0)" fill="url(#paint0_linear_192_359)"/>
<path d="M200.416 63.6666H274.708V127.333L200.416 63.6666Z" fill="url(#paint1_linear_192_359)" fill-opacity="0.6"/>
<path d="M51.832 127.333H126.124V63.6666L51.832 127.333Z" fill="url(#paint2_linear_192_359)" fill-opacity="0.6"/>
<path d="M274.708 63.6666H349V127.333L274.708 63.6666Z" fill="url(#paint3_linear_192_359)" fill-opacity="0.6"/>
<path d="M126.124 127.333H200.416V63.6666L126.124 127.333Z" fill="url(#paint4_linear_192_359)" fill-opacity="0.6"/>
<mask id="mask0_192_359" style="mask-type:alpha" maskUnits="userSpaceOnUse" x="0" y="0" width="349" height="191">
<rect x="349" width="191" height="348.999" transform="rotate(90 349 0)" fill="url(#paint5_linear_192_359)"/>
</mask>
<g mask="url(#mask0_192_359)">
<path d="M200.416 0H274.708V63.6667L200.416 0Z" fill="url(#paint6_linear_192_359)" fill-opacity="0.6"/>
<path d="M51.8315 63.6667H126.124V0L51.8315 63.6667Z" fill="url(#paint7_linear_192_359)" fill-opacity="0.6"/>
<path d="M274.708 0H349V63.6667L274.708 0Z" fill="url(#paint8_linear_192_359)" fill-opacity="0.6"/>
<path d="M126.124 63.6667H200.416V0L126.124 63.6667Z" fill="url(#paint9_linear_192_359)" fill-opacity="0.6"/>
<path d="M200.416 127.333H274.708V191L200.416 127.333Z" fill="url(#paint10_linear_192_359)" fill-opacity="0.6"/>
<path d="M51.8315 191H126.124V127.333L51.8315 191Z" fill="url(#paint11_linear_192_359)" fill-opacity="0.6"/>
<path d="M274.708 127.333H349V191L274.708 127.333Z" fill="url(#paint12_linear_192_359)" fill-opacity="0.6"/>
<path d="M126.124 191H200.416V127.333L126.124 191Z" fill="url(#paint13_linear_192_359)" fill-opacity="0.6"/>
</g>
<defs>
<linearGradient id="paint0_linear_192_359" x1="444.499" y1="0" x2="444.499" y2="348.999" gradientUnits="userSpaceOnUse">
<stop stop-color="#37969C"/>
<stop offset="0.552083" stop-color="#2E446E"/>
</linearGradient>
<linearGradient id="paint1_linear_192_359" x1="200.416" y1="63.6666" x2="200.416" y2="127.333" gradientUnits="userSpaceOnUse">
<stop stop-color="white" stop-opacity="0.5"/>
<stop offset="1" stop-color="white" stop-opacity="0.1"/>
</linearGradient>
<linearGradient id="paint2_linear_192_359" x1="200.416" y1="63.6666" x2="200.416" y2="127.333" gradientUnits="userSpaceOnUse">
<stop stop-color="white" stop-opacity="0.5"/>
<stop offset="1" stop-color="white" stop-opacity="0.1"/>
</linearGradient>
<linearGradient id="paint3_linear_192_359" x1="200.416" y1="63.6666" x2="200.416" y2="127.333" gradientUnits="userSpaceOnUse">
<stop stop-color="white" stop-opacity="0.5"/>
<stop offset="1" stop-color="white" stop-opacity="0.1"/>
</linearGradient>
<linearGradient id="paint4_linear_192_359" x1="200.416" y1="63.6666" x2="200.416" y2="127.333" gradientUnits="userSpaceOnUse">
<stop stop-color="white" stop-opacity="0.5"/>
<stop offset="1" stop-color="white" stop-opacity="0.1"/>
</linearGradient>
<linearGradient id="paint5_linear_192_359" x1="444.499" y1="0" x2="444.499" y2="348.999" gradientUnits="userSpaceOnUse">
<stop stop-color="#E42C64"/>
<stop offset="1" stop-color="#614AD3"/>
</linearGradient>
<linearGradient id="paint6_linear_192_359" x1="200.416" y1="0" x2="200.416" y2="63.6667" gradientUnits="userSpaceOnUse">
<stop stop-color="white" stop-opacity="0.5"/>
<stop offset="1" stop-color="white" stop-opacity="0.1"/>
</linearGradient>
<linearGradient id="paint7_linear_192_359" x1="200.416" y1="0" x2="200.416" y2="63.6667" gradientUnits="userSpaceOnUse">
<stop stop-color="white" stop-opacity="0.5"/>
<stop offset="1" stop-color="white" stop-opacity="0.1"/>
</linearGradient>
<linearGradient id="paint8_linear_192_359" x1="200.416" y1="0" x2="200.416" y2="63.6667" gradientUnits="userSpaceOnUse">
<stop stop-color="white" stop-opacity="0.5"/>
<stop offset="1" stop-color="white" stop-opacity="0.1"/>
</linearGradient>
<linearGradient id="paint9_linear_192_359" x1="200.416" y1="0" x2="200.416" y2="63.6667" gradientUnits="userSpaceOnUse">
<stop stop-color="white" stop-opacity="0.5"/>
<stop offset="1" stop-color="white" stop-opacity="0.1"/>
</linearGradient>
<linearGradient id="paint10_linear_192_359" x1="200.416" y1="127.333" x2="200.416" y2="191" gradientUnits="userSpaceOnUse">
<stop stop-color="white" stop-opacity="0.5"/>
<stop offset="1" stop-color="white" stop-opacity="0.1"/>
</linearGradient>
<linearGradient id="paint11_linear_192_359" x1="200.416" y1="127.333" x2="200.416" y2="191" gradientUnits="userSpaceOnUse">
<stop stop-color="white" stop-opacity="0.5"/>
<stop offset="1" stop-color="white" stop-opacity="0.1"/>
</linearGradient>
<linearGradient id="paint12_linear_192_359" x1="200.416" y1="127.333" x2="200.416" y2="191" gradientUnits="userSpaceOnUse">
<stop stop-color="white" stop-opacity="0.5"/>
<stop offset="1" stop-color="white" stop-opacity="0.1"/>
</linearGradient>
<linearGradient id="paint13_linear_192_359" x1="200.416" y1="127.333" x2="200.416" y2="191" gradientUnits="userSpaceOnUse">
<stop stop-color="white" stop-opacity="0.5"/>
<stop offset="1" stop-color="white" stop-opacity="0.1"/>
</linearGradient>
</defs>
</svg>
