<svg width="140" height="39" viewBox="0 0 140 39" fill="none" xmlns="http://www.w3.org/2000/svg">
<path fill-rule="evenodd" clip-rule="evenodd" d="M14.7883 31.9747C14.0985 32.7076 13.1598 33.1193 12.1805 33.1193V33.122H10.2949C9.32647 33.122 8.38235 32.8174 7.5789 32.2492C6.77545 31.681 6.15055 30.8713 5.77993 29.9271C5.40932 28.9829 5.31193 27.9399 5.50129 26.938C5.68795 25.9362 6.15325 25.0139 6.83497 24.2921C6.83767 24.2893 6.83767 24.2866 6.83497 24.2838C6.83226 24.2811 6.83226 24.2783 6.83497 24.2756L23.6939 6.43447C24.3837 5.70161 25.3224 5.28989 26.3017 5.28989H28.1873C29.153 5.28989 30.0971 5.59456 30.9006 6.16273C31.7067 6.73091 32.3316 7.54062 32.7023 8.48483C33.0729 9.42903 33.1703 10.4721 32.9809 11.4739C32.7942 12.4757 32.3289 13.398 31.6472 14.1199C31.6445 14.1199 31.6445 14.1254 31.6472 14.1254C31.6499 14.1281 31.6499 14.1309 31.6472 14.1336L14.7883 31.9747ZM0.51828 0.700607C0.51828 0.379466 0.76716 0.115967 1.07285 0.115967H28.1873C30.1188 0.115967 32.0097 0.722565 33.6139 1.8644C35.2208 3.00074 36.476 4.61742 37.2146 6.50858C37.9558 8.39974 38.1479 10.4803 37.7718 12.4895C37.3985 14.4685 36.4896 16.2883 35.1532 17.7265V17.732C35.1559 17.732 35.1559 17.7348 35.1532 17.7375L26.9158 26.4577C24.592 28.917 26.2368 33.122 29.5236 33.122H37.4066C37.715 33.122 37.9612 33.3828 37.9612 33.7067V37.7086C37.9612 38.0325 37.7123 38.2932 37.4066 38.2932H10.2922C8.36071 38.2932 6.46976 37.6839 4.86286 36.5475C3.25596 35.4112 2.00344 33.7945 1.26222 31.9034C0.520985 30.0095 0.328915 27.9289 0.70494 25.9225C1.07826 23.9435 1.98721 22.1209 3.32359 20.6854C3.3263 20.6854 3.3263 20.6827 3.32359 20.6799C3.32089 20.6772 3.32089 20.6744 3.32359 20.6717L11.5637 11.9515C13.8902 9.49216 12.2427 5.28715 8.95586 5.28715H1.07285C0.76716 5.28715 0.51828 5.02365 0.51828 4.70251V0.700607ZM129.129 22.5903C129.129 21.5857 129.472 20.7678 130.154 20.1282C130.855 19.4695 131.672 19.1428 132.608 19.1401C133.525 19.1401 134.326 19.4503 135.007 20.0706C135.708 20.6909 136.06 21.5308 136.06 22.5876C136.06 23.6251 135.716 24.465 135.034 25.1045C134.35 25.7249 133.541 26.035 132.608 26.035C131.672 26.035 130.855 25.7166 130.154 25.0798C129.47 24.4238 129.129 23.5922 129.129 22.5903ZM136.057 27.3498V28.9857H139.346V16.2114H136.057V17.7979C135.643 17.1611 135.059 16.6945 134.304 16.4036C133.568 16.0961 132.849 15.9397 132.148 15.9397C130.406 15.9397 128.896 16.56 127.619 17.8006C126.359 19.0221 125.731 20.6195 125.731 22.5876C125.731 24.5583 126.37 26.1613 127.646 27.4019C128.921 28.6234 130.422 29.2354 132.148 29.2354C132.849 29.2354 133.576 29.0735 134.331 28.7441C135.105 28.4175 135.678 27.9509 136.057 27.3498ZM118.982 28.9911V24.476C118.982 20.8666 120.034 19.0605 122.133 19.0605C122.891 19.0605 123.526 19.1785 124.048 19.4146L124.614 16.4063C124.04 16.0989 123.348 15.9424 122.539 15.9424C121.768 15.9424 121.056 16.2169 120.41 16.7631C119.763 17.3121 119.287 18.13 118.982 19.2252V16.2169H115.692V28.9911H118.982ZM101.749 22.5903C101.749 21.5857 102.09 20.7678 102.772 20.1282C103.473 19.4695 104.292 19.1428 105.223 19.1401C106.14 19.1401 106.941 19.4503 107.622 20.0706C108.323 20.6909 108.675 21.5308 108.675 22.5876C108.675 23.6251 108.334 24.465 107.652 25.1045C106.968 25.7249 106.159 26.035 105.226 26.035C104.292 26.035 103.473 25.7166 102.772 25.0798C102.09 24.4238 101.749 23.5922 101.749 22.5903ZM108.677 27.3498V28.9857H111.967V16.2114H108.677V17.7979C108.263 17.1611 107.679 16.6945 106.924 16.4036C106.189 16.0961 105.469 15.9397 104.768 15.9397C103.026 15.9397 101.517 16.56 100.24 17.8006C98.9792 19.0221 98.3516 20.6195 98.3516 22.5876C98.3516 24.5583 98.99 26.1613 100.267 27.4019C101.541 28.6234 103.042 29.2354 104.768 29.2354C105.469 29.2354 106.197 29.0735 106.951 28.7441C107.725 28.4175 108.299 27.9509 108.677 27.3498ZM86.5974 28.9911V22.1786C86.5974 21.1575 86.895 20.4109 87.4874 19.9333C88.0988 19.442 88.8103 19.195 89.6191 19.195C90.336 19.195 90.9555 19.4503 91.4776 19.9608C92.016 20.4713 92.2865 21.1658 92.2865 22.0413V28.9911H95.576V21.8794C95.576 19.9992 95.1351 18.5417 94.2532 17.5015C93.374 16.4612 92.1242 15.9424 90.5064 15.9424C89.7706 15.9424 88.9969 16.1401 88.1881 16.5435C87.3981 16.9278 86.8679 17.474 86.5974 18.1849V9.2671H83.3079V28.9911H86.5974ZM78.1706 16.2142V11.3449H74.9082V16.2169H72.6168V18.8958H74.9082V28.9884H78.1706V18.8931H80.8407V16.2142H78.1706ZM66.3948 11.2653C66.3948 11.8307 66.6004 12.3138 67.0143 12.7146C67.4282 13.0961 67.9314 13.2882 68.5238 13.2882C69.1001 13.2882 69.5843 13.0961 69.9792 12.7146C70.3904 12.3138 70.5987 11.8307 70.5987 11.2653C70.5987 10.6999 70.3932 10.2278 69.9792 9.84351C69.5843 9.46198 69.1001 9.26985 68.5238 9.26985C67.9476 9.26985 67.4445 9.46198 67.0143 9.84351C66.6004 10.225 66.3948 10.6999 66.3948 11.2653ZM66.8791 28.9911H70.1416V16.2169H66.8791V28.9911ZM59.2801 13.2882L50.3285 26.2546V28.9911H63.7275V25.8429H54.6948L63.7275 12.9067V10.1427H50.6802V13.2882H59.2801Z" fill="white"/>
</svg>
