<svg width="18" height="19" viewBox="0 0 18 19" fill="none" xmlns="http://www.w3.org/2000/svg">
<path d="M14.0298 1.75276L14.0299 1.7528C14.5489 2.04299 14.8259 2.4862 14.9222 3.01694C15.2747 2.9046 15.6338 2.89445 15.9974 2.98904L15.9974 2.98904C16.802 3.19844 17.3033 3.88658 17.307 4.73214V4.73221C17.3098 5.42981 17.3092 6.12775 17.3087 6.82497C17.3084 7.11182 17.3082 7.39854 17.3082 7.68508C17.3082 7.89458 17.3079 8.10373 17.3076 8.31269C17.307 8.75958 17.3064 9.20556 17.3086 9.65209C17.3086 9.65211 17.3086 9.65213 17.3086 9.65215L17.0586 9.65338C17.0666 11.2043 16.6073 12.6106 15.8153 13.9308L14.0298 1.75276ZM14.0298 1.75276C13.4916 1.45212 12.9628 1.49123 12.4747 1.70445C12.3596 1.38615 12.1892 1.13422 11.9771 0.943937C11.7022 0.697376 11.3719 0.567564 11.0375 0.519447C10.3768 0.42428 9.78694 0.723461 9.39209 1.28107C9.01107 1.04917 8.58603 0.961523 8.12474 1.05998L8.1245 1.06003C7.29499 1.23792 6.74433 1.92488 6.73047 2.78581L6.73046 2.78587C6.71976 3.45948 6.71893 4.13381 6.7181 4.80599C6.7178 5.04439 6.71751 5.28252 6.71677 5.52026C6.71565 5.85153 6.7159 6.18291 6.71616 6.51237C6.71618 6.54991 6.71621 6.58742 6.71624 6.62491C6.49488 6.57699 6.26902 6.52829 6.04824 6.50191L6.04817 6.5019C4.76337 6.34877 3.56414 6.63132 2.43732 7.20822L2.43723 7.20827C1.77962 7.5453 1.27815 8.05195 1.04963 8.79082L1.28847 8.86469L14.0298 1.75276ZM2.84174 7.96953C2.4259 8.17725 2.1097 8.481 1.91886 8.90688M2.84174 7.96953L2.95338 8.19322C2.60401 8.36775 2.34293 8.61218 2.17644 8.94681C2.2394 8.9468 2.30053 8.94713 2.36111 8.9482M2.84174 7.96953L2.95345 8.19318M2.84174 7.96953C4.22545 7.27888 5.64172 7.07478 7.11583 7.67021L2.95345 8.19318M1.91886 8.90688L2.09726 9.19696C2.18778 9.19665 2.27229 9.19667 2.35679 9.19817M1.91886 8.90688C1.9129 8.92014 1.90761 8.93371 1.90278 8.94769L1.91886 8.90688ZM2.36111 8.9482L2.35679 9.19817M2.36111 8.9482C2.36114 8.9482 2.36118 8.94821 2.36121 8.94821L2.35679 9.19817M2.36111 8.9482C2.55162 8.95149 2.74532 8.95231 2.94089 8.95313C3.42228 8.95515 3.91502 8.95723 4.39948 8.99639L4.3996 8.9964C4.99292 9.04465 5.58902 9.26099 5.98823 9.81061C6.51583 10.537 7.10385 11.2105 7.7471 11.8371L7.74713 11.8372C8.48017 12.5515 9.24096 13.217 10.0865 13.7755C10.2509 13.8839 10.407 13.9346 10.6004 13.933H10.6004C11.9054 13.9226 13.2119 13.9193 14.5181 13.9358C14.6154 13.9371 14.6771 13.9209 14.7221 13.8981C14.7671 13.8752 14.8134 13.8365 14.8657 13.7646L14.8658 13.7645C15.6812 12.6466 16.1415 11.3924 16.1856 10.0294C16.2266 8.75843 16.2164 7.48823 16.2061 6.21215C16.2021 5.70807 16.198 5.20307 16.1971 4.69674L2.35679 9.19817M2.95345 8.19318C4.28983 7.52617 5.63014 7.33973 7.02219 7.90201C7.20662 7.97651 7.41917 7.98369 7.59041 7.85249C7.75391 7.72721 7.81348 7.52522 7.81501 7.32946L7.81501 7.32934C7.82004 6.64708 7.82428 5.9648 7.82851 5.28264C7.83106 4.87371 7.8336 4.46484 7.83631 4.05605C7.8372 3.93261 7.83758 3.8101 7.83795 3.68821C7.83892 3.36896 7.83987 3.05396 7.85024 2.73776L7.85024 2.73767C7.85869 2.47684 8.04412 2.24159 8.29506 2.16298L8.29516 2.16294C8.54586 2.08428 8.80614 2.1631 8.96812 2.37817C9.01638 2.44282 9.04953 2.52904 9.09727 2.65579L9.09731 2.65587C9.13864 2.76548 9.20559 2.87997 9.31662 2.95984C9.43459 3.04469 9.57531 3.07105 9.72058 3.0469L9.72076 3.04686C9.85464 3.0245 9.98256 2.96325 10.0725 2.84785C10.1614 2.73366 10.1906 2.59534 10.1844 2.46093L10.1844 2.46079C10.1756 2.27217 10.197 2.11818 10.251 1.99556C10.3026 1.87842 10.3899 1.77562 10.5426 1.69418L10.5426 1.69415C10.9515 1.47587 11.4436 1.76274 11.4538 2.23215M2.95345 8.19318L11.4538 2.23215M8.43162 13.9395C8.26437 13.8028 8.10113 13.6675 7.94172 13.5294L7.94169 13.5294C6.90264 12.6291 5.9374 11.6481 5.12708 10.5165L5.12704 10.5164C4.966 10.2914 4.7308 10.1671 4.4529 10.1316L4.45288 10.1316C4.01677 10.0758 3.57234 10.0579 3.11841 10.0431C2.92907 10.0369 2.73824 10.0407 2.53966 10.0448L2.5365 10.0448C2.34115 10.0488 2.13819 10.0529 1.93454 10.0463C1.9345 10.0463 1.93445 10.0463 1.93441 10.0463L1.94256 9.79641L8.43162 13.9395ZM8.43162 13.9395C7.68285 14.0148 7.0198 14.5728 6.88188 15.335L6.88187 15.3351C6.82753 15.6359 6.83008 15.9503 6.83239 16.2343C6.83284 16.2902 6.83329 16.3448 6.83329 16.398C6.83329 17.3844 7.6058 18.1915 8.59834 18.1948C10.969 18.2029 13.3392 18.2013 15.7095 18.1952L8.43162 13.9395ZM15.7416 4.07129L15.7414 4.07127C15.5095 4.03416 15.3648 4.02923 15.2644 4.06102C15.1903 4.08451 15.1127 4.13665 15.0455 4.31571L15.0454 4.31602C15.0095 4.41116 14.944 4.48939 14.8817 4.54522C14.8184 4.6019 14.7379 4.65393 14.6503 4.68243C14.6502 4.68246 14.6501 4.68249 14.65 4.68252L14.5728 4.44475L15.7416 4.07129ZM15.7416 4.07129C15.9789 4.10912 16.1964 4.37267 16.1971 4.69671L15.7416 4.07129ZM11.4538 2.23215C11.4538 2.23221 11.4538 2.23227 11.4538 2.23232L11.7037 2.22695L11.4538 2.23215ZM11.9146 17.0861H12.1646C12.5055 17.0861 12.8463 17.0863 13.1871 17.0865C14.0044 17.0869 14.8213 17.0873 15.6385 17.0853L15.6386 17.0853C16.0594 17.0844 16.3457 16.8213 16.3771 16.434C16.3965 16.1951 16.3961 15.9518 16.376 15.7133C16.3567 15.4866 16.2715 15.3236 16.1515 15.2164C16.0308 15.1086 15.8544 15.0392 15.6211 15.0389C15.3861 15.0386 15.152 15.0377 14.9182 15.0368C14.4908 15.0352 14.0647 15.0336 13.6375 15.0357L13.6374 15.0357C13.2814 15.0372 12.9211 15.0413 12.5599 15.0453C12.1033 15.0504 11.645 15.0555 11.1917 15.0558C10.679 15.0562 10.1642 15.0517 9.65086 15.0471C9.31975 15.0442 8.98924 15.0412 8.66027 15.0397L8.66021 15.0397C8.29118 15.0378 8.02625 15.2484 7.96318 15.5918L7.96316 15.5919C7.93105 15.7663 7.93297 15.9435 7.93518 16.1469C7.9358 16.2045 7.93645 16.2642 7.93635 16.3265V16.3266C7.93586 16.5775 8.01715 16.7622 8.14091 16.8841C8.26511 17.0064 8.45445 17.0873 8.71039 17.0873L11.9146 17.0861ZM11.9146 17.0861V17.0873M11.9146 17.0861V17.0873M11.9146 17.0873C11.6141 17.0873 11.3136 17.0873 11.0131 17.0873C10.2455 17.0872 9.47788 17.0871 8.71048 17.0873L11.9146 17.0873ZM17.4858 15.6284C17.4397 14.7995 16.8741 14.1609 16.0781 13.9779L15.7097 18.1952C16.593 18.1933 17.33 17.5581 17.4571 16.6788C17.508 16.3266 17.5046 15.9678 17.4858 15.6284ZM13.8237 3.17218C13.8647 3.50295 13.9071 3.83471 13.9522 4.16595L12.3156 3.24866L12.5636 3.28012C12.5636 3.28009 12.5636 3.28006 12.5636 3.28002C12.5966 3.02059 12.7058 2.84867 12.8405 2.7535C12.974 2.65917 13.1628 2.61862 13.4007 2.67996L13.4008 2.67999C13.4816 2.7008 13.5833 2.76589 13.6721 2.86867C13.7606 2.97112 13.8128 3.084 13.8237 3.17207L13.8237 3.17218Z" fill="#FEF000" stroke="#FEF000" stroke-width="0.5"/>
</svg>
