<svg width="67" height="36" viewBox="0 0 67 36" fill="none" xmlns="http://www.w3.org/2000/svg">
<path d="M14.0298 7.75276L14.0299 7.7528C14.5489 8.04299 14.8259 8.4862 14.9222 9.01694C15.2747 8.9046 15.6338 8.89445 15.9974 8.98904L15.9974 8.98904C16.802 9.19844 17.3033 9.88658 17.307 10.7321V10.7322C17.3098 11.4298 17.3092 12.1277 17.3087 12.825C17.3084 13.1118 17.3082 13.3985 17.3082 13.6851C17.3082 13.8946 17.3079 14.1037 17.3076 14.3127C17.307 14.7596 17.3064 15.2056 17.3086 15.6521C17.3086 15.6521 17.3086 15.6521 17.3086 15.6522L17.0586 15.6534C17.0666 17.2043 16.6073 18.6106 15.8153 19.9308L14.0298 7.75276ZM14.0298 7.75276C13.4916 7.45212 12.9628 7.49123 12.4747 7.70445C12.3596 7.38615 12.1892 7.13422 11.9771 6.94394C11.7022 6.69738 11.3719 6.56756 11.0375 6.51945C10.3768 6.42428 9.78694 6.72346 9.39209 7.28107C9.01107 7.04917 8.58603 6.96152 8.12474 7.05998L8.1245 7.06003C7.29499 7.23792 6.74433 7.92488 6.73047 8.78581L6.73046 8.78587C6.71976 9.45948 6.71893 10.1338 6.7181 10.806C6.7178 11.0444 6.71751 11.2825 6.71677 11.5203C6.71565 11.8515 6.7159 12.1829 6.71616 12.5124C6.71618 12.5499 6.71621 12.5874 6.71624 12.6249C6.49488 12.577 6.26902 12.5283 6.04824 12.5019L6.04817 12.5019C4.76337 12.3488 3.56414 12.6313 2.43732 13.2082L2.43723 13.2083C1.77962 13.5453 1.27815 14.0519 1.04963 14.7908L1.28847 14.8647L14.0298 7.75276ZM2.84174 13.9695C2.4259 14.1773 2.1097 14.481 1.91886 14.9069M2.84174 13.9695L2.95338 14.1932C2.60401 14.3678 2.34293 14.6122 2.17644 14.9468C2.2394 14.9468 2.30053 14.9471 2.36111 14.9482M2.84174 13.9695L2.95345 14.1932M2.84174 13.9695C4.22545 13.2789 5.64172 13.0748 7.11583 13.6702L2.95345 14.1932M1.91886 14.9069L2.09726 15.197C2.18778 15.1967 2.27229 15.1967 2.35679 15.1982M1.91886 14.9069C1.9129 14.9201 1.90761 14.9337 1.90278 14.9477L1.91886 14.9069ZM2.36111 14.9482L2.35679 15.1982M2.36111 14.9482C2.36114 14.9482 2.36118 14.9482 2.36121 14.9482L2.35679 15.1982M2.36111 14.9482C2.55162 14.9515 2.74532 14.9523 2.94089 14.9531C3.42228 14.9552 3.91502 14.9572 4.39948 14.9964L4.3996 14.9964C4.99292 15.0446 5.58902 15.261 5.98823 15.8106C6.51583 16.537 7.10385 17.2105 7.7471 17.8371L7.74713 17.8372C8.48017 18.5515 9.24096 19.217 10.0865 19.7755C10.2509 19.8839 10.407 19.9346 10.6004 19.933H10.6004C11.9054 19.9226 13.2119 19.9193 14.5181 19.9358C14.6154 19.9371 14.6771 19.9209 14.7221 19.8981C14.7671 19.8752 14.8134 19.8365 14.8657 19.7646L14.8658 19.7645C15.6812 18.6466 16.1415 17.3924 16.1856 16.0294C16.2266 14.7584 16.2164 13.4882 16.2061 12.2122C16.2021 11.7081 16.198 11.2031 16.1971 10.6967L2.35679 15.1982M2.95345 14.1932C4.28983 13.5262 5.63014 13.3397 7.02219 13.902C7.20662 13.9765 7.41917 13.9837 7.59041 13.8525C7.75391 13.7272 7.81348 13.5252 7.81501 13.3295L7.81501 13.3293C7.82004 12.6471 7.82428 11.9648 7.82851 11.2826C7.83106 10.8737 7.8336 10.4648 7.83631 10.056C7.8372 9.93261 7.83758 9.8101 7.83795 9.68821C7.83892 9.36896 7.83987 9.05396 7.85024 8.73776L7.85024 8.73767C7.85869 8.47684 8.04412 8.24159 8.29506 8.16298L8.29516 8.16294C8.54586 8.08428 8.80614 8.1631 8.96812 8.37817C9.01638 8.44282 9.04953 8.52904 9.09727 8.65579L9.09731 8.65587C9.13864 8.76548 9.20559 8.87997 9.31662 8.95984C9.43459 9.04469 9.57531 9.07105 9.72058 9.0469L9.72076 9.04686C9.85464 9.0245 9.98256 8.96325 10.0725 8.84785C10.1614 8.73366 10.1906 8.59534 10.1844 8.46093L10.1844 8.46079C10.1756 8.27217 10.197 8.11818 10.251 7.99556C10.3026 7.87842 10.3899 7.77562 10.5426 7.69418L10.5426 7.69415C10.9515 7.47587 11.4436 7.76274 11.4538 8.23215M2.95345 14.1932L11.4538 8.23215M8.43162 19.9395C8.26437 19.8028 8.10113 19.6675 7.94172 19.5294L7.94169 19.5294C6.90264 18.6291 5.9374 17.6481 5.12708 16.5165L5.12704 16.5164C4.966 16.2914 4.7308 16.1671 4.4529 16.1316L4.45288 16.1316C4.01677 16.0758 3.57234 16.0579 3.11841 16.0431C2.92907 16.0369 2.73824 16.0407 2.53966 16.0448L2.5365 16.0448C2.34115 16.0488 2.13819 16.0529 1.93454 16.0463C1.9345 16.0463 1.93445 16.0463 1.93441 16.0463L1.94256 15.7964L8.43162 19.9395ZM8.43162 19.9395C7.68285 20.0148 7.0198 20.5728 6.88188 21.335L6.88187 21.3351C6.82753 21.6359 6.83008 21.9503 6.83239 22.2343C6.83284 22.2902 6.83329 22.3448 6.83329 22.398C6.83329 23.3844 7.6058 24.1915 8.59834 24.1948C10.969 24.2029 13.3392 24.2013 15.7095 24.1952L8.43162 19.9395ZM15.7416 10.0713L15.7414 10.0713C15.5095 10.0342 15.3648 10.0292 15.2644 10.061C15.1903 10.0845 15.1127 10.1366 15.0455 10.3157L15.0454 10.316C15.0095 10.4112 14.944 10.4894 14.8817 10.5452C14.8184 10.6019 14.7379 10.6539 14.6503 10.6824C14.6502 10.6825 14.6501 10.6825 14.65 10.6825L14.5728 10.4448L15.7416 10.0713ZM15.7416 10.0713C15.9789 10.1091 16.1964 10.3727 16.1971 10.6967L15.7416 10.0713ZM11.4538 8.23215C11.4538 8.23221 11.4538 8.23227 11.4538 8.23232L11.7037 8.22695L11.4538 8.23215ZM11.9146 23.0861H12.1646C12.5055 23.0861 12.8463 23.0863 13.1871 23.0865C14.0044 23.0869 14.8213 23.0873 15.6385 23.0853L15.6386 23.0853C16.0594 23.0844 16.3457 22.8213 16.3771 22.434C16.3965 22.1951 16.3961 21.9518 16.376 21.7133C16.3567 21.4866 16.2715 21.3236 16.1515 21.2164C16.0308 21.1086 15.8544 21.0392 15.6211 21.0389C15.3861 21.0386 15.152 21.0377 14.9182 21.0368C14.4908 21.0352 14.0647 21.0336 13.6375 21.0357L13.6374 21.0357C13.2814 21.0372 12.9211 21.0413 12.5599 21.0453C12.1033 21.0504 11.645 21.0555 11.1917 21.0558C10.679 21.0562 10.1642 21.0517 9.65086 21.0471C9.31975 21.0442 8.98924 21.0412 8.66027 21.0397L8.66021 21.0397C8.29118 21.0378 8.02625 21.2484 7.96318 21.5918L7.96316 21.5919C7.93105 21.7663 7.93297 21.9435 7.93518 22.1469C7.9358 22.2045 7.93645 22.2642 7.93635 22.3265V22.3266C7.93586 22.5775 8.01715 22.7622 8.14091 22.8841C8.26511 23.0064 8.45445 23.0873 8.71039 23.0873L11.9146 23.0861ZM11.9146 23.0861V23.0873M11.9146 23.0861V23.0873M11.9146 23.0873C11.6141 23.0873 11.3136 23.0873 11.0131 23.0873C10.2455 23.0872 9.47788 23.0871 8.71048 23.0873L11.9146 23.0873ZM17.4858 21.6284C17.4397 20.7995 16.8741 20.1609 16.0781 19.9779L15.7097 24.1952C16.593 24.1933 17.33 23.5581 17.4571 22.6788C17.508 22.3266 17.5046 21.9678 17.4858 21.6284ZM13.8237 9.17218C13.8647 9.50295 13.9071 9.83471 13.9522 10.1659L12.3156 9.24866L12.5636 9.28012C12.5636 9.28009 12.5636 9.28006 12.5636 9.28002C12.5966 9.02059 12.7058 8.84867 12.8405 8.7535C12.974 8.65917 13.1628 8.61862 13.4007 8.67996L13.4008 8.67999C13.4816 8.7008 13.5833 8.76589 13.6721 8.86867C13.7606 8.97112 13.8128 9.084 13.8237 9.17207L13.8237 9.17218Z" fill="#FEF000" stroke="#FEF000" stroke-width="0.5"/>
<path d="M41.9416 18.6071C41.9416 20.4071 40.3816 21.9971 37.7716 21.9971C36.3016 21.9971 34.8616 21.0071 34.0516 19.5671C33.8116 19.7471 31.2016 21.3071 30.9616 21.4871C32.3716 24.0071 35.0116 25.6271 37.7716 25.6271C42.5116 25.6271 45.6016 22.7771 45.6016 18.6071C45.6016 14.3471 42.6916 12.0671 39.0916 12.0671C37.8316 12.0671 36.2716 12.3971 35.4616 13.1171L36.1516 9.09715H44.3716V5.70715H33.2116L31.5616 15.9371L33.6616 17.1971C35.1016 15.6371 36.8116 15.2171 38.1616 15.2171C40.2316 15.2171 41.9416 16.3271 41.9416 18.6071ZM53.0725 17.8571L57.4225 11.0171V17.8571H53.0725ZM63.6925 21.0671V17.8571H61.0825V5.70715H57.5125L47.7325 21.0671H57.4225V25.3271H61.0825V21.0671H63.6925Z" fill="#2E446E"/>
</svg>
