<?xml version="1.0" encoding="utf-8"?>
<!-- Generator: Adobe Illustrator 24.2.1, SVG Export Plug-In . SVG Version: 6.00 Build 0)  -->
<svg version="1.1" id="Layer_1" xmlns="http://www.w3.org/2000/svg" xmlns:xlink="http://www.w3.org/1999/xlink" x="0px" y="0px"
	 viewBox="0 0 28 27" style="enable-background:new 0 0 28 27;" xml:space="preserve">
<style type="text/css">
	.st0{clip-path:url(#SVGID_2_);fill:#FFFFFF;}
</style>
<g>
	<g>
		<defs>
			<rect id="SVGID_1_" x="0.5" y="0.3" width="27" height="26.4"/>
		</defs>
		<clipPath id="SVGID_2_">
			<use xlink:href="#SVGID_1_"  style="overflow:visible;"/>
		</clipPath>
		<path class="st0" d="M13.7,17.9c-1,0.8-1.9,1.5-2.8,2.3l0.2,0.2c0.9-0.7,1.9-1.5,2.8-2.3L13.7,17.9z M16.7,19.9
			c-0.9-0.7-1.8-1.3-2.8-2l-0.2,0.2c0.9,0.7,1.9,1.3,2.8,2L16.7,19.9z M17.6,20.5c-0.3-0.2-0.6-0.4-0.9-0.6l-0.2,0.2
			c0.3,0.2,0.6,0.4,0.9,0.6L17.6,20.5z M18.5,20.5c-0.2,0.1-0.3,0.2-0.4,0.2c-0.1,0-0.3,0-0.4-0.2l-0.2,0.2c0.2,0.1,0.4,0.2,0.6,0.2
			c0.2,0,0.4-0.1,0.6-0.2L18.5,20.5z M20.2,19.3c-0.6,0.4-1.2,0.8-1.7,1.2l0.2,0.2c0.6-0.4,1.2-0.8,1.7-1.2L20.2,19.3z M16.2,23
			c2.3-0.3,3.8-2.1,4.2-3.5l-0.3-0.1c-0.4,1.3-1.8,3-3.9,3.3L16.2,23z M10.9,20.3c0.9,1.7,3,3,5.4,2.6l0-0.3
			C14,23,12,21.8,11.1,20.2L10.9,20.3z M10.5,15.9c-0.3,0.9-0.4,1.8-0.3,2.8l0.3-0.1c-0.2-0.9-0.1-1.8,0.2-2.6L10.5,15.9z
			 M15.9,12.5c-2.4-0.2-4.6,1.2-5.5,3.4l0.3,0.1c0.8-2.1,2.9-3.4,5.1-3.2L15.9,12.5z M20.7,16.8c-0.5-2.3-2.4-4.1-4.7-4.3l0,0.3
			c2.2,0.2,4,1.9,4.4,4.1L20.7,16.8z M20.4,17.5c0.1-0.1,0.2-0.2,0.3-0.3c0.1-0.1,0-0.3,0-0.4l-0.3,0.1c0,0.1,0,0.2,0,0.2
			c0,0.1-0.1,0.1-0.2,0.2L20.4,17.5z M18.3,18.9c0.7-0.5,1.4-1,2.1-1.4l-0.2-0.2c-0.7,0.5-1.4,1-2.1,1.5L18.3,18.9z M17.7,18.9
			C17.8,19,17.9,19,18,19c0.1,0,0.2,0,0.3-0.1l-0.2-0.2c-0.1,0-0.1,0-0.1,0c0,0,0,0-0.1-0.1L17.7,18.9z M14.3,16.5
			c1.1,0.8,2.3,1.6,3.4,2.4l0.2-0.2c-1.1-0.8-2.3-1.6-3.4-2.4L14.3,16.5z M13.2,16.6c0.2-0.2,0.4-0.3,0.6-0.3c0.2,0,0.3,0.1,0.6,0.2
			l0.2-0.2C14.3,16.1,14,16,13.8,16c-0.3,0-0.5,0.1-0.7,0.3L13.2,16.6z M10.5,18.7c0.9-0.7,1.8-1.5,2.7-2.2L13,16.3
			c-0.9,0.7-1.8,1.4-2.7,2.2L10.5,18.7z M2.3,16.7c-0.2,1.1-0.1,2.2-0.2,3.3l0.3,0c0.1-1.1,0-2.2,0.2-3.3L2.3,16.7z M6.4,12.9
			c-2,0.3-3.7,1.8-4,3.8l0.3,0.1c0.3-1.9,1.9-3.2,3.8-3.5L6.4,12.9z M10.5,12.6c-1.4,0-2.8,0.1-4.2,0.3l0,0.3
			c1.4-0.2,2.7-0.3,4.1-0.3L10.5,12.6z M10.8,12.6c-0.1,0-0.2,0-0.3,0l0,0.3c0.1,0,0.1,0,0.2,0L10.8,12.6z M10.7,13
			c0,0,0.1-0.1,0.1-0.2l-0.2-0.2c-0.1,0.1-0.1,0.1-0.1,0.2L10.7,13z M9,19.5C8.4,17,9,14.9,10.7,13l-0.2-0.2
			c-1.8,1.9-2.4,4.2-1.8,6.8L9,19.5z M8.6,20.2c0.3,0,0.6-0.3,0.5-0.7l-0.3,0.1c0,0.1-0.1,0.3-0.2,0.3L8.6,20.2z M8.4,20.2
			c0,0,0.1,0,0.2,0l0-0.3c0,0,0,0-0.1,0V20.2z M2.5,20.2c2,0,3.9,0,5.9,0l0-0.3c-2,0-3.9,0-5.9,0L2.5,20.2z M2.3,20.2
			c0.1,0,0.2,0,0.3,0v-0.3c-0.1,0-0.1,0-0.3,0L2.3,20.2z M27.2,13.8C27.2,13.8,27.2,13.8,27.2,13.8C27.2,13.8,27.2,13.8,27.2,13.8
			C27.2,13.8,27.2,13.8,27.2,13.8C27.2,13.8,27.2,13.8,27.2,13.8C27.2,13.8,27.2,13.8,27.2,13.8C27.2,13.8,27.2,13.8,27.2,13.8
			C27.2,13.8,27.2,13.8,27.2,13.8C27.2,13.8,27.2,13.8,27.2,13.8C27.2,13.8,27.2,13.8,27.2,13.8C27.2,13.8,27.2,13.8,27.2,13.8
			C27.2,13.8,27.2,13.8,27.2,13.8C27.2,13.8,27.2,13.8,27.2,13.8C27.2,13.8,27.2,13.8,27.2,13.8C27.2,13.8,27.2,13.8,27.2,13.8
			C27.2,13.8,27.2,13.8,27.2,13.8C27.2,13.8,27.2,13.8,27.2,13.8C27.2,13.8,27.2,13.8,27.2,13.8C27.2,13.8,27.2,13.8,27.2,13.8
			C27.2,13.8,27.2,13.8,27.2,13.8C27.2,13.8,27.2,13.8,27.2,13.8C27.2,13.8,27.2,13.8,27.2,13.8C27.2,13.8,27.2,13.8,27.2,13.8
			C27.2,13.8,27.2,13.8,27.2,13.8C27.2,13.8,27.2,13.8,27.2,13.8C27.2,13.8,27.2,13.8,27.2,13.8C27.2,13.8,27.2,13.8,27.2,13.8
			C27.2,13.8,27.2,13.8,27.2,13.8C27.2,13.8,27.2,13.8,27.2,13.8C27.2,13.8,27.2,13.8,27.2,13.8C27.2,13.8,27.2,13.8,27.2,13.8
			C27.2,13.8,27.2,13.8,27.2,13.8C27.2,13.8,27.2,13.8,27.2,13.8C27.2,13.8,27.2,13.8,27.2,13.8C27.2,13.8,27.2,13.8,27.2,13.8
			C27.2,13.8,27.2,13.8,27.2,13.8C27.2,13.8,27.2,13.8,27.2,13.8C27.2,13.8,27.2,13.8,27.2,13.8C27.2,13.8,27.2,13.8,27.2,13.8
			C27.2,13.8,27.2,13.8,27.2,13.8C27.2,13.8,27.2,13.8,27.2,13.8C27.2,13.8,27.2,13.8,27.2,13.8C27.2,13.8,27.2,13.8,27.2,13.8
			C27.2,13.8,27.2,13.8,27.2,13.8C27.2,13.8,27.2,13.8,27.2,13.8C27.2,13.8,27.2,13.8,27.2,13.8C27.2,13.8,27.2,13.8,27.2,13.8
			C27.2,13.8,27.2,13.8,27.2,13.8C27.2,13.8,27.2,13.8,27.2,13.8C27.2,13.8,27.2,13.8,27.2,13.8C27.2,13.8,27.2,13.8,27.2,13.8
			C27.2,13.8,27.2,13.8,27.2,13.8C27.2,13.8,27.2,13.8,27.2,13.8C27.2,13.8,27.2,13.8,27.2,13.8C27.2,13.8,27.2,13.8,27.2,13.8
			C27.2,13.8,27.2,13.8,27.2,13.8C27.2,13.8,27.2,13.8,27.2,13.8C27.2,13.8,27.2,13.8,27.2,13.8C27.2,13.8,27.2,13.8,27.2,13.8
			C27.2,13.8,27.2,13.8,27.2,13.8C27.2,13.8,27.2,13.8,27.2,13.8C27.2,13.8,27.2,13.8,27.2,13.8C27.2,13.8,27.2,13.8,27.2,13.8
			C27.2,13.8,27.2,13.8,27.2,13.8C27.2,13.8,27.2,13.8,27.2,13.8C27.2,13.8,27.2,13.8,27.2,13.8C27.2,13.8,27.2,13.8,27.2,13.8
			C27.2,13.8,27.2,13.8,27.2,13.8C27.2,13.8,27.2,13.8,27.2,13.8C27.2,13.8,27.2,13.8,27.2,13.8C27.2,13.8,27.2,13.8,27.2,13.8
			C27.2,13.8,27.2,13.8,27.2,13.8C27.2,13.8,27.2,13.8,27.2,13.8C27.2,13.8,27.2,13.8,27.2,13.8C27.2,13.8,27.2,13.8,27.2,13.8
			C27.2,13.8,27.2,13.8,27.2,13.8C27.2,13.8,27.2,13.8,27.2,13.8C27.2,13.8,27.2,13.8,27.2,13.8C27.2,13.8,27.2,13.8,27.2,13.8
			C27.2,13.8,27.2,13.8,27.2,13.8C27.2,13.8,27.2,13.8,27.2,13.8C27.2,13.8,27.2,13.8,27.2,13.8C27.2,13.8,27.2,13.8,27.2,13.8
			C27.2,13.8,27.2,13.8,27.2,13.8C27.2,13.8,27.2,13.8,27.2,13.8C27.2,13.8,27.2,13.8,27.2,13.8C27.2,13.8,27.2,13.8,27.2,13.8
			C27.2,13.8,27.2,13.8,27.2,13.8C27.2,13.8,27.2,13.8,27.2,13.8C27.2,13.8,27.2,13.8,27.2,13.8C27.2,13.8,27.2,13.8,27.2,13.8
			C27.2,13.8,27.2,13.8,27.2,13.8C27.2,13.8,27.2,13.8,27.2,13.8C27.2,13.8,27.2,13.8,27.2,13.8C27.2,13.8,27.2,13.8,27.2,13.8
			C27.2,13.8,27.2,13.8,27.2,13.8C27.2,13.8,27.2,13.8,27.2,13.8C27.2,13.8,27.2,13.8,27.2,13.8C27.2,13.8,27.2,13.8,27.2,13.8
			C27.2,13.8,27.2,13.8,27.2,13.8C27.2,13.8,27.2,13.8,27.2,13.8C27.2,13.8,27.2,13.8,27.2,13.8C27.2,13.8,27.2,13.8,27.2,13.8
			C27.2,13.8,27.2,13.8,27.2,13.8C27.2,13.8,27.2,13.8,27.2,13.8C27.2,13.8,27.2,13.8,27.2,13.8C27.2,13.8,27.2,13.8,27.2,13.8
			C27.2,13.8,27.2,13.8,27.2,13.8C27.2,13.8,27.2,13.8,27.2,13.8C27.2,13.8,27.2,13.8,27.2,13.8C27.2,13.8,27.2,13.8,27.2,13.8
			C27.2,13.8,27.2,13.8,27.2,13.8C27.2,13.8,27.2,13.8,27.2,13.8C27.2,13.9,27.2,13.9,27.2,13.8C27.2,13.9,27.2,13.9,27.2,13.8
			C27.2,13.9,27.2,13.9,27.2,13.8C27.2,13.9,27.2,13.9,27.2,13.8C27.2,13.9,27.2,13.9,27.2,13.8C27.2,13.9,27.2,13.9,27.2,13.8
			C27.2,13.9,27.2,13.9,27.2,13.8C27.2,13.9,27.2,13.9,27.2,13.8C27.2,13.9,27.2,13.9,27.2,13.8C27.2,13.9,27.2,13.9,27.2,13.8
			c0,0.1,0,0.1,0,0.1s0,0,0,0s0,0,0,0c0,0,0,0,0,0c0,0,0,0,0,0c0,0,0,0,0,0c0,0,0,0,0,0s0,0,0,0c0,0,0,0,0,0s0,0,0,0c0,0,0,0,0,0
			c0,0,0,0,0,0c0,0,0,0,0,0s0,0,0,0s0,0,0,0s0,0,0,0c0,0,0,0,0,0c0,0,0,0,0,0c0,0,0,0,0,0c0,0,0,0,0,0c0,0,0,0,0,0c0,0,0,0,0,0
			c0,0,0,0,0,0c0,0,0,0,0,0c0,0,0,0,0,0c0,0,0,0,0,0c0,0,0,0,0,0c0,0,0,0,0,0c0,0,0,0,0,0c0,0,0,0,0,0c0,0,0,0,0,0s0,0,0,0s0,0,0,0
			s0,0,0,0s0,0,0,0s0,0,0,0s0,0,0,0s0,0,0,0c0,0,0,0,0,0s0,0,0,0s0,0,0,0c0,0,0,0,0,0c0,0,0,0,0,0c0,0,0,0,0,0c0,0,0,0,0,0
			c0,0,0,0,0,0c0,0,0,0,0,0c0,0,0,0,0,0c0,0,0,0,0,0c0,0,0,0,0,0c0,0,0,0,0,0c0,0,0,0,0,0s0,0,0,0c0,0,0,0,0,0c0,0,0,0,0,0
			c0,0,0,0,0,0c0,0,0,0,0,0c0,0,0,0,0,0c0,0,0,0,0,0c0,0,0,0,0,0c0,0,0,0,0,0c0,0,0,0,0,0c0,0,0,0,0,0c0,0,0,0,0,0c0,0,0,0,0,0
			c0,0,0,0,0,0c0,0,0,0,0,0c0,0,0,0,0,0s0,0,0,0s0,0,0,0s0,0,0,0s0,0,0,0s0,0,0,0s0,0,0,0c0,0,0,0,0,0c0,0,0,0,0,0s0,0,0,0s0,0,0,0
			s0,0,0,0c0,0,0,0,0,0c0,0,0,0,0,0c0,0,0,0,0,0c0,0,0,0,0,0c0,0,0,0,0,0c0,0,0,0,0,0c0,0,0,0,0,0c0,0,0,0,0,0s0,0,0,0s0,0,0,0
			c0,0,0,0,0,0c0,0,0,0,0,0c0,0,0,0,0,0c0,0,0,0,0,0c0,0,0,0,0,0c0,0,0,0,0,0s0,0,0,0s0,0,0,0s0,0,0,0c0,0,0,0,0,0s0,0,0,0s0,0,0,0
			c0,0,0,0,0,0c0,0,0,0,0,0c0,0,0,0,0,0c0,0,0,0,0,0c0,0,0,0,0,0s0,0,0,0c0,0,0,0,0,0c0,0,0,0,0,0c0,0,0,0,0,0c0,0,0,0,0,0
			c0,0,0,0,0,0s0,0,0,0s0,0,0,0s0,0,0,0s0,0,0,0c0,0,0,0,0,0c0,0,0,0,0,0s0,0,0,0c0,0,0,0,0,0s0,0,0,0c0,0,0,0,0,0c0,0,0,0,0,0
			c0,0,0,0,0,0c0,0,0,0,0,0s0,0,0,0s0,0,0,0s0,0,0,0s0,0,0,0c0,0,0,0,0,0c0,0,0,0,0,0c0,0,0,0,0,0s0,0,0,0c0,0,0,0,0,0c0,0,0,0,0,0
			c0,0,0,0,0,0s0,0,0,0c0,0,0,0,0,0s0,0,0,0s0,0,0,0c0,0,0,0,0,0c0,0,0,0,0,0c0,0,0,0,0,0s0,0,0,0c0,0,0,0,0,0c0,0,0,0,0,0
			c0,0,0,0,0,0s0,0,0,0s0,0,0,0s0,0,0,0c0,0,0,0,0,0c0,0,0,0,0,0c0,0,0,0,0,0s0,0,0,0c0,0,0,0,0,0c0,0,0,0,0,0c0,0,0,0,0,0s0,0,0,0
			c0,0,0,0,0,0s0,0,0,0c0,0,0,0,0,0c0,0,0,0,0,0c0,0,0,0,0,0s0,0,0,0c0,0,0,0,0,0c0,0,0,0,0,0s0,0,0,0s0,0,0,0s0,0,0,0c0,0,0,0,0,0
			c0,0,0,0,0,0c0,0,0,0,0,0c0,0,0,0,0,0c0,0,0,0,0,0c0,0,0,0,0,0s0,0,0,0s0,0,0,0s0,0,0,0c0,0,0,0,0,0c0,0,0,0,0,0c0,0,0,0,0,0
			s0,0,0,0c0,0,0,0,0,0c0,0,0,0,0,0s0,0,0,0s0,0,0,0c0,0,0,0,0,0c0,0,0,0,0,0s0,0,0,0s0,0,0,0c0,0,0,0,0,0c0,0,0,0,0,0s0,0,0,0
			s0,0,0,0s0,0,0,0s0,0,0,0c0,0,0,0,0,0c0,0,0,0,0,0s0,0,0,0c0,0,0,0,0,0c0,0,0,0,0,0s0,0,0,0c0,0,0,0,0,0s0,0,0,0c0,0,0,0,0,0
			c0,0,0,0,0,0s0,0,0,0c0,0,0,0,0,0c0,0,0,0,0,0c0,0,0,0,0,0c0,0,0,0,0,0s0,0,0,0c0,0,0,0,0,0c0,0,0,0,0,0s0,0,0,0c0,0,0,0,0,0
			c0,0,0,0,0,0c0,0,0,0,0,0s0,0,0,0s0,0,0,0s0,0,0,0c0,0,0,0,0,0c0,0,0,0,0,0s0,0,0,0c0,0,0,0,0,0c0,0,0,0,0,0s0,0,0,0s0,0,0,0
			s0,0,0,0c0,0,0,0,0,0c0,0,0,0,0,0s0,0,0,0c0,0,0,0,0,0c0,0,0,0,0,0s0,0,0,0s0,0,0,0s0,0,0,0c0,0,0,0,0,0c0,0,0,0,0,0s0,0,0,0
			c0,0,0,0,0,0c0,0,0,0,0,0s0,0,0,0s0,0,0,0s0,0,0,0c0,0,0,0,0,0c0,0,0,0,0,0c0,0,0,0,0,0s0,0,0,0c0,0,0,0,0,0c0,0,0,0,0,0s0,0,0,0
			s0,0,0,0s0,0,0,0c0,0,0,0,0,0c0,0,0,0,0,0s0,0,0,0c0,0,0,0,0,0c0,0,0,0,0,0s0,0,0,0s0,0,0,0c0,0,0,0,0,0s0,0,0,0s0,0,0,0
			c0,0,0,0,0,0s0,0,0,0c0,0,0,0,0,0c0,0,0,0,0,0s0,0,0,0s0,0,0,0s0,0,0,0s0,0,0,0c0,0,0,0,0,0c0,0,0,0,0,0s0,0,0,0c0,0,0,0,0,0
			c0,0,0,0,0,0c0,0,0,0,0,0s0,0,0,0s0,0,0,0s0,0,0,0c0,0,0,0,0,0c0,0,0,0,0,0c0,0,0,0,0,0s0,0,0,0c0,0,0,0,0,0c0,0,0,0,0,0s0,0,0,0
			s0,0,0,0s0,0,0,0s0,0,0,0s0,0,0,0c0,0,0,0,0,0c0,0,0,0,0,0s0,0,0,0c0,0,0,0,0,0c0,0,0,0,0,0s0,0,0,0s0,0,0,0s0,0,0,0s0,0,0,0
			c0,0,0,0,0,0c0,0,0,0,0,0c0,0,0,0,0,0s0,0,0,0s0,0,0,0c0,0,0,0,0,0c0,0,0,0,0,0c0,0,0,0,0,0s0,0,0,0c0,0,0,0,0,0s0,0,0,0s0,0,0,0
			c0,0,0,0,0,0c0,0,0,0,0,0c0,0,0,0,0,0s0,0,0,0c0,0,0,0,0,0c0,0,0,0,0,0c0,0,0,0,0,0c0,0,0,0,0,0s0,0,0,0s0,0,0,0s0,0,0,0
			c0,0,0,0,0,0s0,0,0,0c0,0,0,0,0,0c0,0,0,0,0,0c0,0,0,0,0,0s0,0,0,0s0,0,0,0c0,0,0,0,0,0c0,0,0,0,0,0c0,0,0,0,0,0c0,0,0,0,0,0
			c0,0,0,0,0,0c0,0,0,0,0,0s0,0,0,0s0,0,0,0s0,0,0,0s0,0,0,0c0,0,0,0,0,0c0,0,0,0,0,0c0,0,0,0,0,0c0,0,0,0,0,0c0,0,0,0,0,0
			c0,0,0,0,0,0s0,0,0,0s0,0,0,0s0,0,0,0c0,0,0,0,0,0c0,0,0,0,0,0c0,0,0,0,0,0c0,0,0,0,0,0c0,0,0,0,0,0c0,0,0,0,0,0s0,0,0,0s0,0,0,0
			s0,0,0,0s0,0,0,0s0,0,0,0s0,0,0,0s0,0,0,0s0,0,0,0s0,0,0,0c0,0,0,0,0,0s0,0,0,0c0,0,0,0,0,0c0,0,0,0,0,0c0,0,0,0,0,0c0,0,0,0,0,0
			c0,0,0,0,0,0s0,0,0,0c0,0,0,0,0,0c0,0,0,0,0,0c0,0,0,0,0,0c0,0,0,0,0,0c0,0,0,0,0,0c0,0,0,0,0,0c0,0,0,0,0,0c0,0,0,0,0,0
			c0,0,0,0,0,0c0,0,0,0,0,0c0,0,0,0,0,0c0,0,0,0,0,0c0,0,0,0,0,0c0,0,0,0,0,0c0,0,0,0,0,0s0,0,0,0c0,0,0,0,0,0h0.3c0,0,0,0,0,0
			c0,0,0,0,0,0s0,0,0,0c0,0,0,0,0,0c0,0,0,0,0,0c0,0,0,0,0,0c0,0,0,0,0,0c0,0,0,0,0,0c0,0,0,0,0,0c0,0,0,0,0,0c0,0,0,0,0,0
			c0,0,0,0,0,0c0,0,0,0,0,0c0,0,0,0,0,0c0,0,0,0,0,0c0,0,0,0,0,0c0,0,0,0,0,0c0,0,0,0,0,0s0,0,0,0c0,0,0,0,0,0c0,0,0,0,0,0
			c0,0,0,0,0,0c0,0,0,0,0,0c0,0,0,0,0,0s0,0,0,0c0,0,0,0,0,0s0,0,0,0s0,0,0,0s0,0,0,0s0,0,0,0s0,0,0,0s0,0,0,0s0,0,0,0s0,0,0,0
			s0,0,0,0c0,0,0,0,0,0c0,0,0,0,0,0c0,0,0,0,0,0c0,0,0,0,0,0c0,0,0,0,0,0c0,0,0,0,0,0s0,0,0,0s0,0,0,0s0,0,0,0c0,0,0,0,0,0
			c0,0,0,0,0,0c0,0,0,0,0,0c0,0,0,0,0,0c0,0,0,0,0,0c0,0,0,0,0,0s0,0,0,0s0,0,0,0s0,0,0,0s0,0,0,0c0,0,0,0,0,0c0,0,0,0,0,0
			c0,0,0,0,0,0c0,0,0,0,0,0c0,0,0,0,0,0c0,0,0,0,0,0s0,0,0,0s0,0,0,0c0,0,0,0,0,0c0,0,0,0,0,0c0,0,0,0,0,0s0,0,0,0c0,0,0,0,0,0
			s0,0,0,0s0,0,0,0s0,0,0,0c0,0,0,0,0,0c0,0,0,0,0,0c0,0,0,0,0,0c0,0,0,0,0,0s0,0,0,0c0,0,0,0,0,0c0,0,0,0,0,0c0,0,0,0,0,0s0,0,0,0
			s0,0,0,0c0,0,0,0,0,0s0,0,0,0c0,0,0,0,0,0c0,0,0,0,0,0c0,0,0,0,0,0s0,0,0,0s0,0,0,0c0,0,0,0,0,0c0,0,0,0,0,0c0,0,0,0,0,0s0,0,0,0
			s0,0,0,0s0,0,0,0s0,0,0,0c0,0,0,0,0,0c0,0,0,0,0,0s0,0,0,0c0,0,0,0,0,0c0,0,0,0,0,0s0,0,0,0s0,0,0,0s0,0,0,0s0,0,0,0s0,0,0,0
			c0,0,0,0,0,0c0,0,0,0,0,0s0,0,0,0c0,0,0,0,0,0c0,0,0,0,0,0c0,0,0,0,0,0s0,0,0,0s0,0,0,0s0,0,0,0c0,0,0,0,0,0c0,0,0,0,0,0
			c0,0,0,0,0,0s0,0,0,0c0,0,0,0,0,0c0,0,0,0,0,0s0,0,0,0s0,0,0,0s0,0,0,0s0,0,0,0c0,0,0,0,0,0c0,0,0,0,0,0s0,0,0,0c0,0,0,0,0,0
			s0,0,0,0s0,0,0,0c0,0,0,0,0,0s0,0,0,0s0,0,0,0c0,0,0,0,0,0c0,0,0,0,0,0s0,0,0,0c0,0,0,0,0,0c0,0,0,0,0,0s0,0,0,0s0,0,0,0s0,0,0,0
			c0,0,0,0,0,0c0,0,0,0,0,0s0,0,0,0c0,0,0,0,0,0c0,0,0,0,0,0c0,0,0,0,0,0s0,0,0,0s0,0,0,0s0,0,0,0c0,0,0,0,0,0c0,0,0,0,0,0s0,0,0,0
			c0,0,0,0,0,0c0,0,0,0,0,0s0,0,0,0s0,0,0,0s0,0,0,0c0,0,0,0,0,0c0,0,0,0,0,0s0,0,0,0c0,0,0,0,0,0c0,0,0,0,0,0s0,0,0,0s0,0,0,0
			s0,0,0,0c0,0,0,0,0,0c0,0,0,0,0,0s0,0,0,0c0,0,0,0,0,0c0,0,0,0,0,0s0,0,0,0s0,0,0,0s0,0,0,0c0,0,0,0,0,0c0,0,0,0,0,0c0,0,0,0,0,0
			s0,0,0,0c0,0,0,0,0,0c0,0,0,0,0,0s0,0,0,0c0,0,0,0,0,0c0,0,0,0,0,0c0,0,0,0,0,0c0,0,0,0,0,0s0,0,0,0c0,0,0,0,0,0c0,0,0,0,0,0
			s0,0,0,0c0,0,0,0,0,0s0,0,0,0c0,0,0,0,0,0c0,0,0,0,0,0s0,0,0,0c0,0,0,0,0,0c0,0,0,0,0,0s0,0,0,0s0,0,0,0s0,0,0,0s0,0,0,0
			c0,0,0,0,0,0c0,0,0,0,0,0s0,0,0,0s0,0,0,0c0,0,0,0,0,0c0,0,0,0,0,0s0,0,0,0s0,0,0,0c0,0,0,0,0,0c0,0,0,0,0,0s0,0,0,0c0,0,0,0,0,0
			c0,0,0,0,0,0c0,0,0,0,0,0s0,0,0,0s0,0,0,0s0,0,0,0c0,0,0,0,0,0c0,0,0,0,0,0c0,0,0,0,0,0c0,0,0,0,0,0c0,0,0,0,0,0c0,0,0,0,0,0
			s0,0,0,0s0,0,0,0s0,0,0,0c0,0,0,0,0,0c0,0,0,0,0,0s0,0,0,0c0,0,0,0,0,0c0,0,0,0,0,0c0,0,0,0,0,0s0,0,0,0c0,0,0,0,0,0s0,0,0,0
			c0,0,0,0,0,0c0,0,0,0,0,0c0,0,0,0,0,0s0,0,0,0c0,0,0,0,0,0c0,0,0,0,0,0c0,0,0,0,0,0s0,0,0,0s0,0,0,0s0,0,0,0c0,0,0,0,0,0
			c0,0,0,0,0,0c0,0,0,0,0,0s0,0,0,0c0,0,0,0,0,0c0,0,0,0,0,0c0,0,0,0,0,0s0,0,0,0s0,0,0,0c0,0,0,0,0,0s0,0,0,0c0,0,0,0,0,0
			c0,0,0,0,0,0c0,0,0,0,0,0s0,0,0,0c0,0,0,0,0,0c0,0,0,0,0,0c0,0,0,0,0,0s0,0,0,0s0,0,0,0s0,0,0,0s0,0,0,0c0,0,0,0,0,0c0,0,0,0,0,0
			c0,0,0,0,0,0c0,0,0,0,0,0s0,0,0,0c0,0,0,0,0,0s0,0,0,0c0,0,0,0,0,0c0,0,0,0,0,0s0,0,0,0s0,0,0,0s0,0,0,0s0,0,0,0c0,0,0,0,0,0
			c0,0,0,0,0,0c0,0,0,0,0,0c0,0,0,0,0,0c0,0,0,0,0,0s0,0,0,0c0,0,0,0,0,0c0,0,0,0,0,0c0,0,0,0,0,0c0,0,0,0,0,0c0,0,0,0,0,0s0,0,0,0
			s0,0,0,0c0,0,0,0,0,0s0,0,0,0s0,0,0,0s0,0,0,0c0,0,0,0,0,0c0,0,0,0,0,0c0,0,0,0,0,0c0,0,0,0,0,0c0,0,0,0,0,0c0,0,0,0,0,0s0,0,0,0
			s0,0,0,0c0,0,0,0,0,0c0,0,0,0,0,0c0,0,0,0,0,0c0,0,0,0,0,0c0,0,0,0,0,0c0,0,0,0,0,0c0,0,0,0,0,0c0,0,0,0,0,0s0,0,0,0s0,0,0,0
			s0,0,0,0c0,0,0,0,0,0c0,0,0,0,0,0s0,0,0,0s0,0,0,0s0,0,0,0s0,0,0,0s0,0,0,0s0,0,0,0c0,0,0,0,0,0c0,0,0,0,0,0c0,0,0,0,0,0
			c0,0,0,0,0,0c0,0,0,0,0,0c0,0,0,0,0,0c0,0,0,0,0,0c0,0,0,0,0,0c0,0,0,0,0,0c0,0,0,0,0,0c0,0,0,0,0,0c0,0,0,0,0,0c0,0,0,0,0,0
			c0,0,0,0,0,0c0,0,0,0,0,0s0,0,0,0c0,0,0,0,0,0c0,0,0,0,0,0c0,0,0,0,0,0c0,0,0,0,0,0c0,0,0,0,0,0c0,0,0,0,0,0c0,0,0,0,0,0
			c0,0,0,0,0,0c0,0,0,0,0,0c0,0,0,0,0,0c0,0,0,0,0,0s0,0,0,0s0,0,0,0c0,0,0,0,0,0s0,0,0,0s0,0,0,0s0,0,0,0s0,0,0,0s0,0,0,0s0,0,0,0
			s0,0,0,0c0,0,0,0,0,0c0,0,0,0,0,0c0,0,0,0,0,0c0,0,0,0,0,0c0,0,0,0,0,0c0,0,0,0,0,0c0,0,0,0,0,0c0,0,0,0,0,0c0,0,0,0,0,0
			c0,0,0,0,0,0c0,0,0,0,0,0c0,0,0,0,0,0c0,0,0,0,0,0c0,0,0,0,0,0c0,0,0,0,0,0s0,0,0,0s0,0,0,0s0,0,0,0c0,0,0,0,0,0c0,0,0,0,0,0
			c0,0,0,0,0,0s0,0,0,0c0,0,0,0,0,0s0,0,0,0c0,0,0,0,0,0c0,0,0,0,0,0c0,0,0,0,0,0c0,0,0,0,0,0s0,0,0,0s0,0,0,0c0,0,0,0,0,0
			c0,0,0,0,0,0c0,0,0,0,0,0c0,0,0,0,0,0s0,0,0,0c0,0,0,0,0,0c0,0,0,0,0,0c0,0,0,0,0,0s0,0,0,0s0,0,0,0c0,0,0,0,0,0c0,0,0,0,0,0
			c0,0,0,0,0,0c0,0,0,0,0,0c0,0,0,0,0,0c0,0,0,0,0,0c0,0,0,0,0,0s0,0,0,0s0,0,0,0c0,0,0,0,0,0c0,0,0,0,0,0s0,0,0,0c0,0,0,0,0,0
			c0,0,0,0,0,0s0,0,0,0s0,0,0,0c0,0,0,0,0,0c0,0,0,0,0,0s0,0,0,0c0,0,0,0,0,0c0,0,0,0,0,0s0,0,0,0c0,0,0,0,0,0c0,0,0,0,0,0
			c0,0,0,0,0,0c0,0,0,0,0,0c0,0,0,0,0,0s0,0,0,0c0,0,0,0,0,0c0,0,0,0,0,0s0,0,0,0c0,0,0,0,0,0c0,0,0,0,0,0c0,0,0,0,0,0c0,0,0,0,0,0
			c0,0,0,0,0,0c0,0,0,0,0,0c0,0,0,0,0,0s0,0,0,0c0,0,0,0,0,0c0,0,0,0,0,0c0,0,0,0,0,0c0,0,0,0,0,0s0,0,0,0c0,0,0,0,0,0c0,0,0,0,0,0
			c0,0,0,0,0,0c0,0,0,0,0,0s0,0,0,0c0,0,0,0,0,0s0,0,0,0c0,0,0,0,0,0s0,0,0,0c0,0,0,0,0,0c0,0,0,0,0,0c0,0,0,0,0,0c0,0,0,0,0,0
			s0,0,0,0c0,0,0,0,0,0c0,0,0,0,0,0c0,0,0,0,0,0c0,0,0,0,0,0c0,0,0,0,0,0c0,0,0,0,0,0c0,0,0,0,0,0c0,0,0,0,0,0c0,0,0,0,0,0
			c0,0,0,0,0,0s0,0,0,0c0,0,0,0,0,0s0,0,0,0c0,0,0,0,0,0c0,0,0,0,0,0c0,0,0,0,0,0c0,0,0,0,0,0c0,0,0,0,0,0c0,0,0,0,0,0s0,0,0,0
			c0,0,0,0,0,0c0,0,0,0,0,0s0,0,0,0c0,0,0,0,0,0s0,0,0,0c0,0,0,0,0,0c0,0,0,0,0,0c0,0,0,0,0,0c0,0,0,0,0,0c0,0,0,0,0,0c0,0,0,0,0,0
			c0,0,0,0,0,0s0,0,0,0c0,0,0,0,0,0c0,0,0,0,0,0s0,0,0,0c0,0,0,0,0,0c0,0,0,0,0,0c0,0,0,0,0,0c0,0,0,0,0,0c0,0,0,0,0,0c0,0,0,0,0,0
			c0,0,0,0,0,0s0,0,0,0c0,0,0,0,0,0c0,0,0,0,0,0s0,0,0,0c0,0,0,0,0,0c0,0,0,0,0,0c0,0,0,0,0,0c0,0,0,0,0,0s0,0,0,0c0,0,0,0,0,0
			c0,0,0,0,0,0H27.2z M26.6,13.3c0.3,0,0.5,0.2,0.6,0.5l0.3-0.1c-0.1-0.4-0.4-0.7-0.9-0.7L26.6,13.3z M23,13
			c1.2,0.1,2.4,0.1,3.6,0.2l0-0.3c-1.2-0.1-2.4-0.2-3.6-0.2L23,13z M22.3,13.7c0-0.4,0.3-0.7,0.7-0.6l0-0.3c-0.5,0-1,0.4-1,0.9
			L22.3,13.7z M23,14.4c-0.4,0-0.6-0.4-0.6-0.7l-0.3,0c0,0.5,0.4,1,0.9,1L23,14.4z M23.5,14.4c-0.2,0-0.4,0-0.5,0l0,0.3
			c0.2,0,0.4,0,0.6,0L23.5,14.4z M24.1,14.5c-0.2,0-0.4,0-0.6,0l0,0.3c0.2,0,0.4,0,0.6,0L24.1,14.5z M24.2,14.7
			C24.2,14.7,24.2,14.7,24.2,14.7C24.2,14.6,24.2,14.6,24.2,14.7l-0.3,0c0,0,0,0,0,0c0,0,0,0,0,0L24.2,14.7z M22.2,16.2
			c0.7-0.5,1.3-0.9,2-1.4L24,14.6c-0.7,0.5-1.3,0.9-2,1.4L22.2,16.2z M21.9,15.9c0,0.1,0,0.1,0.1,0.2l0.3-0.1c0-0.1-0.1-0.1-0.1-0.2
			L21.9,15.9z M13.6,11.3c3.6-1,7.2,1,8.3,4.6l0.3-0.1c-1.1-3.8-4.9-5.8-8.7-4.8L13.6,11.3z M13.2,11.4c0.1,0,0.2,0,0.3,0l-0.1-0.3
			c-0.1,0-0.2,0-0.2,0L13.2,11.4z M11.1,11.2c0.7,0,1.4,0.1,2.1,0.1l0-0.3c-0.7,0-1.4-0.1-2.1-0.1L11.1,11.2z M5.8,11.6
			c1.8-0.4,3.5-0.4,5.3-0.4l0-0.3c-1.8-0.1-3.6,0-5.4,0.4L5.8,11.6z M0.9,17.1c0.2-2.7,2.3-4.9,4.9-5.5l-0.1-0.3
			c-2.8,0.6-4.9,2.9-5.2,5.7L0.9,17.1z M0.8,20.9c0-1.3-0.1-2.6,0-3.8l-0.3,0c-0.1,1.3-0.1,2.6,0,3.9L0.8,20.9z M1,21.3
			c-0.1-0.1-0.2-0.3-0.2-0.4l-0.3,0c0,0.2,0.1,0.4,0.2,0.6L1,21.3z M1.7,21.6c-0.3,0-0.5,0-0.7-0.2l-0.2,0.2
			c0.2,0.3,0.6,0.3,0.9,0.3L1.7,21.6z M9.6,21.6c-2.7,0-5.3,0-8,0l0,0.3c2.7,0,5.3,0,8,0L9.6,21.6z M10.2,21.8
			c-0.1-0.1-0.2-0.2-0.2-0.2c-0.1,0-0.2-0.1-0.3-0.1l0,0.3c0.1,0,0.1,0,0.2,0c0,0,0.1,0,0.1,0.1L10.2,21.8z M19.3,23.1
			c-2.9,2.1-6.9,1.5-9.2-1.3L9.9,22c2.3,3,6.5,3.6,9.6,1.4L19.3,23.1z M19.6,23c-0.1,0.1-0.1,0.1-0.2,0.2l0.2,0.2
			c0.1,0,0.1-0.1,0.2-0.1L19.6,23z M21.7,25c-0.6-0.6-1.3-1.3-1.9-2l-0.2,0.2c0.7,0.7,1.3,1.3,1.9,2L21.7,25z M22.9,26.2
			c-0.4-0.4-0.8-0.8-1.2-1.2l-0.2,0.2c0.4,0.4,0.8,0.8,1.2,1.2L22.9,26.2z M23.7,26.3c-0.3,0.1-0.6,0.1-0.8-0.1l-0.2,0.2
			c0.3,0.3,0.8,0.4,1.2,0.2L23.7,26.3z M24.1,25.6c0.1,0.3-0.1,0.6-0.3,0.7l0.1,0.3c0.4-0.2,0.6-0.6,0.5-1.1L24.1,25.6z M23.8,25.1
			c0.1,0.1,0.2,0.3,0.3,0.5l0.3-0.1c-0.1-0.2-0.2-0.4-0.4-0.6L23.8,25.1z M21.2,22.5c0.9,0.9,1.8,1.8,2.6,2.6l0.2-0.2
			c-0.9-0.9-1.8-1.8-2.6-2.6L21.2,22.5z M20.7,22.1c0.1,0.1,0.3,0.2,0.4,0.4l0.2-0.2c-0.2-0.1-0.3-0.3-0.5-0.4L20.7,22.1z
			 M20.7,21.8C20.7,21.8,20.7,21.8,20.7,21.8c0,0.1,0,0.1-0.1,0.1l0.3,0.1c0,0,0-0.1,0-0.1c0,0,0,0,0,0L20.7,21.8z M22.1,18.1
			c-0.1,1.4-0.5,2.6-1.4,3.6L21,22c0.8-1.1,1.3-2.4,1.4-3.8L22.1,18.1z M22.3,17.8c-0.1,0-0.1,0.1-0.1,0.1c0,0.1-0.1,0.1-0.1,0.2
			l0.3,0c0,0,0,0,0,0c0,0,0,0,0,0c0,0,0,0,0,0c0,0,0-0.1,0.1-0.1L22.3,17.8z M23.7,16.8c-0.5,0.3-0.9,0.6-1.4,1l0.2,0.2
			c0.5-0.3,0.9-0.7,1.4-1L23.7,16.8z M25.3,15.7c-0.6,0.4-1.1,0.7-1.6,1.1l0.2,0.2c0.5-0.4,1-0.7,1.6-1.1L25.3,15.7z M25.3,17.2
			c0.1-0.4,0.1-0.8,0.2-1.3l-0.3-0.1c-0.1,0.5-0.2,0.9-0.2,1.3L25.3,17.2z M25.8,18.1c-0.2,0-0.4-0.1-0.5-0.3
			c-0.1-0.1-0.1-0.4-0.1-0.6L25,17.1c-0.1,0.3,0,0.6,0.1,0.8c0.1,0.2,0.4,0.4,0.7,0.4L25.8,18.1z M26.6,17.4c0,0.2-0.1,0.4-0.3,0.5
			c-0.1,0.1-0.3,0.2-0.5,0.1l0,0.3c0.3,0,0.5,0,0.7-0.2c0.2-0.2,0.3-0.4,0.4-0.7L26.6,17.4z M26.9,15.8c-0.1,0.5-0.2,1.1-0.3,1.6
			l0.3,0.1c0.1-0.6,0.2-1.1,0.3-1.6L26.9,15.8z M27.2,14.1c-0.1,0.5-0.2,1.1-0.3,1.6l0.3,0.1c0.1-0.5,0.2-1.1,0.3-1.6L27.2,14.1z
			 M13.8,18l0.1-0.1l-0.1-0.1l-0.1,0.1L13.8,18z M16.6,20l-0.1,0.1l0,0L16.6,20z M17.5,20.6l-0.1,0.1l0,0L17.5,20.6z M18.5,20.6
			l-0.1-0.1l0,0L18.5,20.6z M20.3,19.4l0.1,0l0.1-0.4l-0.3,0.2L20.3,19.4z M16.2,22.8l0-0.1l0,0L16.2,22.8z M11,20.3l-0.1-0.1
			l-0.1,0.1l0.1,0.1L11,20.3z M10.6,15.9l-0.1-0.1l0,0L10.6,15.9z M15.9,12.6l0,0.1h0L15.9,12.6z M20.5,16.8l0.1,0l0,0L20.5,16.8z
			 M20.3,17.4l-0.1-0.1l0,0L20.3,17.4z M18.2,18.8l-0.1-0.1l0,0L18.2,18.8z M17.8,18.8l-0.1,0.1l0,0L17.8,18.8z M14.4,16.4l-0.1,0.1
			l0,0L14.4,16.4z M13.1,16.4l0.1,0.1l0,0L13.1,16.4z M10.4,18.6l-0.1,0l0,0.2l0.2-0.2L10.4,18.6z M2.5,16.7l-0.1,0L2.5,16.7z
			 M6.4,13l0-0.1l0,0L6.4,13z M10.5,12.7l0,0.1h0L10.5,12.7z M10.8,12.8l0.1,0.1l0.2-0.2l-0.3,0L10.8,12.8z M10.6,12.9l0.1,0.1l0,0
			L10.6,12.9z M8.9,19.6l0.1,0l0,0L8.9,19.6z M8.5,20l0,0.1l0,0L8.5,20z M8.4,20v-0.2h0L8.4,20z M2.5,20l0-0.1h0V20z M2.3,20l-0.1,0
			l0,0.1l0.1,0L2.3,20z M27.4,13.8h0.1v0l0,0L27.4,13.8z M26.6,13.1l0-0.1h0L26.6,13.1z M23,12.9l0,0.1h0L23,12.9z M22.2,13.7
			l-0.1,0l0,0L22.2,13.7z M22.9,14.5l0,0.1l0,0L22.9,14.5z M23.5,14.6l0-0.1h0L23.5,14.6z M24,14.6l0.1,0l0-0.1l-0.1,0L24,14.6z
			 M24.1,14.7l0.1,0.1l0.1,0l0-0.1L24.1,14.7z M22.1,16.1l-0.1,0l0.1,0.2l0.2-0.1L22.1,16.1z M22,15.9l0.1,0l0,0L22,15.9z
			 M13.5,11.2l0-0.1l0,0L13.5,11.2z M13.3,11.2l0-0.1l0,0L13.3,11.2z M11.1,11.1l0,0.1l0,0L11.1,11.1z M5.8,11.5l0,0.1h0L5.8,11.5z
			 M0.7,17.1l-0.1,0v0L0.7,17.1z M0.7,20.9l0.1,0v0L0.7,20.9z M0.9,21.4L1,21.3l0,0L0.9,21.4z M1.7,21.7l0-0.1h0L1.7,21.7z
			 M9.7,21.7l0-0.1h0L9.7,21.7z M10.1,21.9L9.9,22l0,0L10.1,21.9z M19.4,23.3l-0.1-0.1l0,0L19.4,23.3z M19.6,23.1l0.1-0.1l-0.1-0.1
			L19.6,23L19.6,23.1z M21.6,25.1l-0.1,0.1l0,0L21.6,25.1z M22.8,26.3l0.1-0.1l0,0L22.8,26.3z M23.8,26.4l0.1,0.1l0,0L23.8,26.4z
			 M24.2,25.5l0.1,0l0,0L24.2,25.5z M23.9,25l0.1-0.1l0,0L23.9,25z M21.3,22.4l-0.1,0.1l0,0L21.3,22.4z M20.8,22l-0.1-0.1L20.6,22
			l0.1,0.1L20.8,22z M20.9,21.9L21,22l0,0L20.9,21.9z M22.3,18.1l-0.1,0l0,0L22.3,18.1z M22.4,17.9l0.1,0.1l0,0L22.4,17.9z
			 M23.8,16.9l0.1,0.1l0,0L23.8,16.9z M25.4,15.8l0.1,0l0.1-0.4l-0.3,0.2L25.4,15.8z M25.1,17.2l-0.1,0l0,0L25.1,17.2z M25.8,18.2
			l0,0.1l0,0L25.8,18.2z M26.8,17.5l0.1,0v0L26.8,17.5z M27,15.8l0.1,0l0,0L27,15.8z M27.4,14.2l0.1,0l0,0v0H27.4z"/>
		<path class="st0" d="M11,20.3c0.9,1.7,2.9,2.9,5.2,2.6c2.2-0.3,3.7-2.1,4.1-3.4c-0.6,0.4-1.2,0.8-1.7,1.2c-0.4,0.3-0.7,0.3-1.1,0
			c-0.3-0.2-0.6-0.4-0.9-0.6c-0.9-0.7-1.8-1.3-2.8-2C12.9,18.8,11.9,19.5,11,20.3z M10.4,18.6c0.9-0.7,1.8-1.5,2.7-2.2
			c0.5-0.4,0.8-0.4,1.3,0c1.1,0.8,2.3,1.6,3.4,2.4c0.1,0.1,0.2,0.1,0.4,0c0.7-0.5,1.4-1,2.1-1.5c0.2-0.2,0.3-0.3,0.2-0.6
			c-0.5-2.3-2.3-4-4.6-4.2c-2.4-0.2-4.5,1.1-5.3,3.3C10.3,16.8,10.2,17.7,10.4,18.6z M2.3,20c0.2,0,0.2,0,0.3,0c2,0,3.9,0,5.9,0
			c0,0,0.1,0,0.1,0c0.2,0,0.4-0.3,0.4-0.5c-0.6-2.5,0-4.7,1.7-6.6c0,0,0.1-0.1,0.1-0.2c-0.1,0-0.2,0-0.2,0c-1.4,0-2.8,0.1-4.2,0.3
			c-2,0.3-3.6,1.7-3.9,3.7C2.3,17.8,2.3,18.9,2.3,20z M27.4,14.2c-0.1,0.5-0.2,1.1-0.3,1.6c-0.1,0.5-0.2,1.1-0.3,1.6
			c-0.1,0.5-0.5,0.8-1,0.8c-0.5-0.1-0.8-0.5-0.7-1.1c0.1-0.4,0.1-0.8,0.2-1.3c-0.6,0.4-1.1,0.7-1.6,1.1c-0.5,0.3-0.9,0.6-1.4,1
			c-0.1,0.1-0.2,0.2-0.2,0.2c-0.1,1.4-0.6,2.6-1.4,3.7c0,0,0,0-0.1,0.1c0.1,0.1,0.3,0.3,0.4,0.4c0.9,0.9,1.8,1.8,2.6,2.6
			c0.1,0.1,0.3,0.3,0.3,0.5c0.1,0.4-0.1,0.7-0.4,0.9c-0.3,0.2-0.7,0.1-1-0.1c-0.4-0.4-0.8-0.8-1.2-1.2c-0.6-0.6-1.3-1.3-1.9-2
			c-0.1,0.1-0.1,0.1-0.2,0.1c-3,2.1-7.1,1.6-9.4-1.4c-0.1-0.2-0.2-0.2-0.4-0.2c-2.7,0-5.3,0-8,0c-0.3,0-0.6,0-0.8-0.3
			c-0.1-0.1-0.2-0.3-0.2-0.5c0-1.3-0.1-2.6,0-3.9c0.2-2.8,2.3-5.1,5-5.6c1.8-0.4,3.6-0.4,5.4-0.4c0.7,0,1.4,0.1,2.1,0.1
			c0.1,0,0.2,0,0.3,0c3.7-1,7.4,1,8.5,4.7c0,0.1,0,0.1,0.1,0.2c0.7-0.5,1.3-0.9,2-1.4c0,0,0,0,0-0.1c-0.2,0-0.4,0-0.6,0
			c-0.2,0-0.4,0-0.5,0c-0.4-0.1-0.8-0.4-0.7-0.9c0-0.4,0.4-0.8,0.8-0.8c1.2,0.1,2.4,0.1,3.6,0.2c0.4,0,0.6,0.3,0.7,0.6
			C27.4,13.9,27.4,14,27.4,14.2z"/>
		<path class="st0" d="M13.5,5.2c0-1.8-1.5-3.2-3.2-3.2l0,0.3c1.6,0,2.9,1.3,2.9,2.9L13.5,5.2z M10.3,8.4c1.8,0,3.2-1.4,3.2-3.2
			l-0.3,0c0,1.6-1.3,2.9-2.9,2.9L10.3,8.4z M7.1,5.2c0,1.8,1.4,3.2,3.2,3.2l0-0.3c-1.6,0-2.9-1.3-2.9-2.9L7.1,5.2z M10.3,2
			C8.5,2,7.1,3.4,7.1,5.2l0.3,0c0-1.6,1.3-2.9,2.9-2.9L10.3,2z M5.7,5.2c0-2.5,2.1-4.6,4.6-4.6l0-0.3c-2.7,0-4.9,2.2-4.9,4.9
			L5.7,5.2z M10.3,9.8c-2.5,0-4.6-2.1-4.6-4.6l-0.3,0c0,2.7,2.2,4.9,4.9,4.9L10.3,9.8z M14.9,5.2c0,2.5-2.1,4.6-4.6,4.6l0,0.3
			c2.7,0,4.9-2.2,4.9-4.9L14.9,5.2z M10.3,0.6c2.5,0,4.6,2.1,4.6,4.6l0.3,0c0-2.7-2.2-4.9-4.9-4.9L10.3,0.6z M13.4,5.2l0.2,0
			L13.4,5.2z M10.3,8.3l0,0.1h0L10.3,8.3z M7.2,5.2l-0.2,0v0L7.2,5.2z M5.6,5.2l0.1,0v0L5.6,5.2z M10.3,10l0-0.1h0L10.3,10z M15,5.2
			l0.1,0v0L15,5.2z M10.3,0.5l0,0.1L10.3,0.5z"/>
		<path class="st0" d="M10.3,2.1c-1.7,0-3.1,1.4-3.1,3.1c0,1.7,1.4,3.1,3.1,3.1c1.7,0,3.1-1.4,3.1-3.1C13.4,3.5,12,2.1,10.3,2.1z
			 M10.3,0.5c2.6,0,4.8,2.1,4.7,4.8c0,2.6-2.1,4.7-4.8,4.7c-2.6,0-4.7-2.1-4.7-4.8C5.6,2.6,7.7,0.5,10.3,0.5z"/>
	</g>
</g>
</svg>
