<svg width="30" height="27" viewBox="0 0 30 27" fill="none" xmlns="http://www.w3.org/2000/svg">
<path d="M0.000534611 15.6419C0.0454419 15.4647 0.0874088 15.2864 0.135256 15.11C0.596893 13.4139 2.15154 12.2017 3.91121 12.1908C4.63213 12.1862 5.36482 12.1581 6.07184 12.2688C7.26322 12.4557 8.16244 13.1349 8.78339 14.1723C8.83738 14.2626 8.88764 14.3554 8.93468 14.4388C9.36504 14.0908 9.76841 13.7227 10.2124 13.4134C11.3642 12.6115 12.6556 12.1974 14.0576 12.1945C15.0509 12.1926 16.0541 12.1857 17.0359 12.3121C18.5122 12.5024 19.7605 13.2177 20.8207 14.2592C20.8763 14.314 20.9303 14.3704 20.9872 14.4238C20.9995 14.4353 21.022 14.4364 21.0594 14.4487C21.3748 13.8256 21.8081 13.2963 22.3903 12.8964C23.0519 12.4418 23.7835 12.1846 24.5849 12.1932C25.3726 12.2014 26.1791 12.1646 26.9438 12.3167C28.7153 12.6687 29.9823 14.2832 29.9925 16.0878C30.0045 18.2065 29.9999 20.3254 29.9938 22.444C29.9909 23.4849 29.2186 24.2486 28.1702 24.2524C26.5301 24.2583 24.8896 24.254 23.2491 24.254C23.1425 24.254 23.0361 24.254 22.9142 24.254C22.884 24.3892 22.8621 24.5127 22.8287 24.633C22.5881 25.4935 21.8049 26.1219 20.9073 26.124C16.9726 26.1323 13.0375 26.1323 9.10282 26.1246C8.14265 26.1227 7.34796 25.4464 7.13919 24.5039C7.12235 24.428 7.10204 24.3529 7.07744 24.2542C6.97186 24.2542 6.86627 24.2542 6.76069 24.2542C5.21807 24.2542 3.67545 24.2542 2.13256 24.2542C0.875158 24.2542 0.468319 23.9859 0 22.8482C0.000534611 20.4459 0.000534611 18.0439 0.000534611 15.6419ZM14.9916 24.3713C16.8942 24.3713 18.7969 24.3719 20.6996 24.3708C21.0556 24.3705 21.1487 24.2871 21.1489 23.9559C21.15 22.3459 21.165 20.7357 21.1439 19.126C21.1115 16.6906 19.2936 14.4923 16.8956 14.0747C16.0207 13.9224 15.1092 13.9494 14.2145 13.9488C11.2073 13.9475 8.85663 16.3091 8.84781 19.3176C8.84353 20.8397 8.84674 22.362 8.84727 23.8843C8.84727 24.3066 8.91303 24.3711 9.34205 24.3711C11.2252 24.3716 13.1084 24.3713 14.9916 24.3713ZM7.09321 22.4839C7.09321 21.3484 7.05739 20.2444 7.10658 19.1444C7.13598 18.4882 7.30011 17.8384 7.40035 17.1851C7.45595 16.8237 7.54924 16.461 7.54817 16.099C7.54549 15.0624 6.79998 14.1632 5.77353 14.0033C5.22929 13.9186 4.66555 13.9469 4.11062 13.9453C2.6931 13.9411 1.7594 14.8745 1.75833 16.2859C1.757 18.2474 1.75807 20.2091 1.75807 22.1706C1.75807 22.2738 1.75807 22.3767 1.75807 22.4839C3.55115 22.4839 5.30414 22.4839 7.09321 22.4839ZM28.22 22.4884C28.2282 22.4237 28.2373 22.3866 28.2373 22.3494C28.2373 20.2516 28.2483 18.1538 28.2309 16.056C28.2229 15.0654 27.4787 14.1512 26.498 14.0164C25.7808 13.9178 25.0337 13.9111 24.3133 13.9884C23.0984 14.1188 22.0869 15.3254 22.5354 17.014C22.6627 17.4928 22.8166 17.979 22.8399 18.4673C22.8984 19.7039 22.8899 20.9434 22.9078 22.1818C22.9094 22.2837 22.9081 22.3858 22.9081 22.4879C24.7012 22.4884 26.4469 22.4884 28.22 22.4884Z" fill="#2E446E"/>
<path d="M20.095 5.08441C20.1001 7.89967 17.8093 10.1945 14.9954 10.1932C12.1945 10.1921 9.90587 7.90689 9.90186 5.10794C9.89758 2.29214 12.1871 -0.00106885 15.0012 3.73745e-07C17.8037 0.00106959 20.0902 2.28359 20.095 5.08441ZM18.3375 5.10125C18.3396 3.26727 16.844 1.76422 15.0106 1.75833C13.1764 1.75219 11.6696 3.24482 11.6599 5.07693C11.6503 6.92241 13.1566 8.43669 15.0007 8.43589C16.832 8.43482 18.3356 6.93256 18.3375 5.10125Z" fill="#2E446E"/>
<path d="M7.90827 7.00982C7.89009 8.77858 6.42232 10.2116 4.64875 10.1924C2.88026 10.1734 1.4483 8.70641 1.46648 6.93231C1.48439 5.16462 2.95216 3.73159 4.72627 3.7503C6.49583 3.76875 7.92645 5.23411 7.90827 7.00982ZM6.15101 6.95877C6.14512 6.15151 5.47766 5.49848 4.66773 5.50757C3.87276 5.51639 3.22481 6.17236 3.22374 6.96893C3.22268 7.77752 3.88399 8.43777 4.69259 8.4351C5.49958 8.43269 6.15689 7.76737 6.15101 6.95877Z" fill="#2E446E"/>
<path d="M25.3084 10.1926C23.538 10.1921 22.0873 8.74063 22.0881 6.97027C22.0887 5.1991 23.5391 3.74977 25.3102 3.75031C27.0825 3.75084 28.5307 5.19963 28.5305 6.97214C28.5299 8.74384 27.0801 10.1932 25.3084 10.1926ZM26.7729 6.96358C26.7692 6.15579 26.1041 5.50062 25.2945 5.50757C24.499 5.51425 23.8489 6.16781 23.8457 6.96412C23.8425 7.77272 24.5016 8.43537 25.3094 8.4351C26.1172 8.43483 26.7764 7.77191 26.7729 6.96358Z" fill="#2E446E"/>
</svg>
