<svg width="31" height="27" viewBox="0 0 31 27" fill="none" xmlns="http://www.w3.org/2000/svg">
<path d="M11.2912 23.0788C10.2202 23.7651 9.15907 24.4451 8.07497 25.1401C7.5236 24.4327 6.98465 23.7408 6.42209 23.0179C5.57607 23.5804 4.7431 24.1343 3.91014 24.6888C3.07468 25.2451 2.23985 25.8027 1.37456 26.3802C1.07059 25.9258 0.773459 25.4813 0.448975 24.9959C2.55999 23.5879 4.66416 22.1849 6.78574 20.7701C7.34395 21.4862 7.88973 22.1868 8.45789 22.9153C9.08323 22.5137 9.69677 22.1196 10.3258 21.7156C9.63896 20.2697 9.51836 18.7983 10.0256 17.2953C10.4191 16.1297 11.1464 15.211 12.1403 14.4887C13.9194 13.1963 17.1935 12.8557 19.5444 15.2582C20.3538 14.6938 21.1662 14.1263 22.0091 13.5382C22.7109 14.4296 23.4059 15.3136 24.1257 16.2286C24.9512 15.625 25.7631 15.0313 26.5749 14.4377C26.5687 14.4178 26.5625 14.3979 26.5563 14.3774C26.1398 14.3774 25.7233 14.3774 25.2819 14.3774C25.2819 13.8136 25.2819 13.2809 25.2819 12.7245C26.8472 12.7245 28.4149 12.7245 30.0143 12.7245C29.7756 14.2618 29.5382 15.7916 29.2945 17.363C28.7487 17.2803 28.2222 17.2002 27.6578 17.1144C27.7317 16.6084 27.8026 16.1217 27.8859 15.5473C26.496 16.563 25.1707 17.5309 23.8093 18.5254C23.1001 17.6247 22.3933 16.7259 21.671 15.8084C21.2651 16.0924 20.8778 16.3628 20.4775 16.6426C21.1469 18.1481 21.2358 19.6611 20.6521 21.1897C20.2046 22.3608 19.4313 23.2715 18.3739 23.9404C16.3934 25.1935 13.4557 25.2016 11.2912 23.0788ZM15.4138 15.1457C13.2108 15.1264 11.4006 16.9018 11.3789 19.1011C11.3571 21.2898 13.1567 23.1217 15.3423 23.1354C17.5453 23.149 19.3505 21.3749 19.3735 19.1725C19.3965 16.9751 17.6162 15.165 15.4138 15.1457Z" fill="#2E446E"/>
<path d="M20.2556 13.0764C19.7328 13.2846 19.2368 13.4816 18.7351 13.6812C18.5841 13.4288 18.4579 13.1808 18.2975 12.9558C17.7716 12.2179 17.0294 11.7797 16.1909 11.4912C14.6866 10.9734 13.1288 10.9032 11.5592 10.9684C10.5845 11.0095 9.61914 11.1326 8.68858 11.4452C7.51559 11.84 6.50981 12.4697 6.07281 13.6868C5.86395 14.2686 5.76263 14.9145 5.74522 15.5355C5.70047 17.0982 5.7303 18.6628 5.7303 20.2262C5.7303 20.3493 5.7303 20.473 5.7303 20.6203C5.17706 20.6203 4.64434 20.6203 4.10415 20.6203C4.09483 20.5979 4.07307 20.5706 4.07307 20.5426C4.07867 18.6896 4.02459 16.8334 4.1085 14.9835C4.22288 12.4653 5.57987 10.8112 7.92399 9.95521C9.63717 9.32987 11.4218 9.23352 13.222 9.30873C14.5206 9.36281 15.7986 9.54122 17.0182 10.0217C18.4865 10.6011 19.616 11.5422 20.2556 13.0764Z" fill="#2E446E"/>
<path d="M12.3928 1.4254e-05C14.8923 0.00623042 16.856 2.04265 16.8442 4.61552C16.833 7.12747 14.8333 9.14959 12.3636 9.14649C9.89203 9.14338 7.90596 7.09701 7.90845 4.55584C7.91218 2.02151 9.90757 -0.00620192 12.3928 1.4254e-05ZM12.3847 1.65724C10.8294 1.65538 9.5719 2.95829 9.5719 4.57076C9.5719 6.17764 10.8381 7.48863 12.3866 7.4849C13.922 7.4818 15.1758 6.18075 15.182 4.58444C15.1882 2.97134 13.9344 1.65849 12.3847 1.65724Z" fill="#2E446E"/>
<path fill-rule="evenodd" clip-rule="evenodd" d="M14.6274 20.5942C14.7312 20.5942 14.8307 20.5513 14.904 20.4748L16.6905 18.6112V18.6106V18.61C16.7626 18.5348 16.8124 18.4384 16.8323 18.3334C16.8522 18.2283 16.8422 18.1202 16.8031 18.0213C16.7639 17.9225 16.6974 17.8379 16.6122 17.7789C16.5271 17.7192 16.427 17.6875 16.3244 17.6875H16.1249C16.0211 17.6875 15.9216 17.7304 15.8482 17.8069L14.0617 19.6705V19.6711V19.6717C13.9896 19.7469 13.9405 19.8433 13.9206 19.9483C13.9007 20.0534 13.9107 20.1615 13.9498 20.2604C13.989 20.3592 14.0555 20.4438 14.1407 20.5028C14.2258 20.5619 14.3259 20.5936 14.4285 20.5936H14.6274V20.5942ZM13.4501 17.1467C13.4177 17.1467 13.3916 17.174 13.3916 17.2076V17.626C13.3916 17.6595 13.4177 17.6869 13.4501 17.6869H14.2855C14.6336 17.6869 14.8083 18.1264 14.5621 18.3831L13.6888 19.2938V19.2944V19.295C13.547 19.4454 13.4507 19.635 13.4109 19.842C13.3711 20.0515 13.3916 20.2691 13.4699 20.4668C13.5483 20.6644 13.6813 20.8329 13.8516 20.9516C14.0219 21.0703 14.2221 21.1337 14.4272 21.1337H17.301C17.3333 21.1337 17.3594 21.1064 17.3594 21.0728V20.6545C17.3594 20.6209 17.3333 20.5936 17.301 20.5936H16.4655C16.1174 20.5936 15.9427 20.1541 16.1889 19.8974L17.0623 18.9867V18.9861V18.9854C17.204 18.835 17.3003 18.6454 17.3401 18.4384C17.3799 18.2289 17.3594 18.0114 17.2811 17.8137C17.2028 17.616 17.0697 17.4476 16.8994 17.3288C16.7291 17.2101 16.5289 17.1467 16.3238 17.1467H13.4501Z" fill="#2E446E"/>
</svg>
