<?xml version="1.0" encoding="utf-8"?>
<!-- Generator: Adobe Illustrator 24.2.1, SVG Export Plug-In . SVG Version: 6.00 Build 0)  -->
<svg version="1.1" id="Layer_1" xmlns="http://www.w3.org/2000/svg" xmlns:xlink="http://www.w3.org/1999/xlink" x="0px" y="0px"
	 viewBox="0 0 28 27" style="enable-background:new 0 0 28 27;" xml:space="preserve">
<style type="text/css">
	.st0{clip-path:url(#SVGID_2_);fill:#2E446E;stroke:#2E446E;stroke-width:0.15;}
</style>
<g>
	<g>
		<defs>
			<rect id="SVGID_1_" x="0.5" y="0.3" width="27" height="26.4"/>
		</defs>
		<clipPath id="SVGID_2_">
			<use xlink:href="#SVGID_1_"  style="overflow:visible;"/>
		</clipPath>
		<path class="st0" d="M11,20.3c0.9,1.7,2.9,2.9,5.2,2.6c2.2-0.3,3.7-2.1,4.1-3.4c-0.6,0.4-1.2,0.8-1.7,1.2c-0.4,0.3-0.7,0.3-1.1,0
			c-0.3-0.2-0.6-0.4-0.9-0.6c-0.9-0.7-1.8-1.3-2.8-2C12.9,18.8,11.9,19.5,11,20.3z M10.4,18.6c0.9-0.7,1.8-1.5,2.7-2.2
			c0.5-0.4,0.8-0.4,1.3,0c1.1,0.8,2.3,1.6,3.4,2.4c0.1,0.1,0.2,0.1,0.4,0c0.7-0.5,1.4-1,2.1-1.5c0.2-0.2,0.3-0.3,0.2-0.6
			c-0.5-2.3-2.3-4-4.6-4.2c-2.4-0.2-4.5,1.1-5.3,3.3C10.3,16.8,10.2,17.7,10.4,18.6z M2.3,20c0.2,0,0.2,0,0.3,0c2,0,3.9,0,5.9,0
			c0,0,0.1,0,0.1,0c0.2,0,0.4-0.3,0.4-0.5c-0.6-2.5,0-4.7,1.7-6.6c0,0,0.1-0.1,0.1-0.2c-0.1,0-0.2,0-0.2,0c-1.4,0-2.8,0.1-4.2,0.3
			c-2,0.3-3.6,1.7-3.9,3.7C2.3,17.8,2.3,18.9,2.3,20z M27.4,14.2c-0.1,0.5-0.2,1.1-0.3,1.6c-0.1,0.5-0.2,1.1-0.3,1.6
			c-0.1,0.5-0.5,0.8-1,0.8c-0.5-0.1-0.8-0.5-0.7-1.1c0.1-0.4,0.1-0.8,0.2-1.3c-0.6,0.4-1.1,0.7-1.6,1.1c-0.5,0.3-0.9,0.6-1.4,1
			c-0.1,0.1-0.2,0.2-0.2,0.2c-0.1,1.4-0.6,2.6-1.4,3.7c0,0,0,0-0.1,0.1c0.1,0.1,0.3,0.3,0.4,0.4c0.9,0.9,1.8,1.8,2.6,2.6
			c0.1,0.1,0.3,0.3,0.3,0.5c0.1,0.4-0.1,0.7-0.4,0.9c-0.3,0.2-0.7,0.1-1-0.1c-0.4-0.4-0.8-0.8-1.2-1.2c-0.6-0.6-1.3-1.3-1.9-2
			c-0.1,0.1-0.1,0.1-0.2,0.1c-3,2.1-7.1,1.6-9.4-1.4c-0.1-0.2-0.2-0.2-0.4-0.2c-2.7,0-5.3,0-8,0c-0.3,0-0.6,0-0.8-0.3
			c-0.1-0.1-0.2-0.3-0.2-0.5c0-1.3-0.1-2.6,0-3.9c0.2-2.8,2.3-5.1,5-5.6c1.8-0.4,3.6-0.4,5.4-0.4c0.7,0,1.4,0.1,2.1,0.1
			c0.1,0,0.2,0,0.3,0c3.7-1,7.4,1,8.5,4.7c0,0.1,0,0.1,0.1,0.2c0.7-0.5,1.3-0.9,2-1.4c0,0,0,0,0-0.1c-0.2,0-0.4,0-0.6,0
			c-0.2,0-0.4,0-0.5,0c-0.4-0.1-0.8-0.4-0.7-0.9c0-0.4,0.4-0.8,0.8-0.8c1.2,0.1,2.4,0.1,3.6,0.2c0.4,0,0.6,0.3,0.7,0.6
			C27.4,13.9,27.4,14,27.4,14.2z"/>
		<path class="st0" d="M10.3,2.1c-1.7,0-3.1,1.4-3.1,3.1c0,1.7,1.4,3.1,3.1,3.1c1.7,0,3.1-1.4,3.1-3.1C13.4,3.5,12,2.1,10.3,2.1z
			 M10.3,0.5c2.6,0,4.8,2.1,4.7,4.8c0,2.6-2.1,4.7-4.8,4.7c-2.6,0-4.7-2.1-4.7-4.8C5.6,2.6,7.7,0.5,10.3,0.5z"/>
	</g>
</g>
</svg>
