<svg width="24" height="21" viewBox="0 0 24 21" fill="none" xmlns="http://www.w3.org/2000/svg">
<path d="M11.812 13.25C12.9166 13.25 13.812 12.3546 13.812 11.25C13.812 10.1454 12.9166 9.25 11.812 9.25C10.7074 9.25 9.81201 10.1454 9.81201 11.25C9.81201 12.3546 10.7074 13.25 11.812 13.25Z" stroke="#2E446E" stroke-width="2.5" stroke-linecap="round" stroke-linejoin="round"/>
<path d="M13.812 9.25L15.812 7.25" stroke="#2E446E" stroke-width="2.5" stroke-linecap="round" stroke-linejoin="round"/>
<path d="M5.58979 19.25C3.96551 17.9466 2.78303 16.1653 2.20621 14.153C1.62939 12.1408 1.68681 9.99722 2.37051 8.01939C3.0542 6.04156 4.33031 4.32742 6.022 3.11451C7.71368 1.9016 9.73716 1.25 11.812 1.25C13.8869 1.25 15.9103 1.9016 17.602 3.11451C19.2937 4.32742 20.5698 6.04156 21.2535 8.01939C21.9372 9.99722 21.9946 12.1408 21.4178 14.153C20.841 16.1653 19.6585 17.9466 18.0342 19.25H5.58979Z" stroke="#2E446E" stroke-width="2.5" stroke-linecap="round" stroke-linejoin="round"/>
</svg>
