<svg width="58" height="57" viewBox="0 0 58 57" fill="none" xmlns="http://www.w3.org/2000/svg">
<ellipse opacity="0.1" cx="29.3321" cy="28.5149" rx="28.5098" ry="28.2901" fill="#4BDE97"/>
<mask id="path-2-outside-1_69_1000" maskUnits="userSpaceOnUse" x="14.4918" y="13.6824" width="29" height="29" fill="black">
<rect fill="white" x="14.4918" y="13.6824" width="29" height="29"/>
<path d="M39.6009 38.3293C39.6009 39.4716 39.6009 40.577 39.6009 41.6823C39.6009 42.2283 39.4801 42.3473 38.9266 42.3473C32.53 42.3473 26.1329 42.3473 19.7364 42.3473C19.187 42.3473 19.0679 42.2277 19.0679 41.6765C19.0679 40.672 19.0679 39.668 19.0679 38.6635C19.0679 38.5633 19.0679 38.4624 19.0679 38.3293C18.9483 38.3293 18.8492 38.3293 18.7501 38.3293C17.8482 38.3293 16.9463 38.331 16.0444 38.3287C15.6592 38.3275 15.4979 38.1698 15.4979 37.7886C15.4961 35.8265 15.4821 33.8638 15.5038 31.9023C15.5149 30.9236 16.0186 30.234 16.9182 29.8522C18.1402 29.3338 19.367 28.8266 20.5955 28.324C20.782 28.2478 20.8418 28.1546 20.8641 27.9464C20.9292 27.34 20.7703 26.9249 20.2267 26.5455C19.3928 25.9637 18.9424 25.073 18.7167 24.0814C17.6617 23.8257 17.2442 23.4234 17.2583 22.6775C17.2712 21.9844 17.7174 21.5147 18.5513 21.3423C18.3648 20.9658 18.1983 20.5876 17.9966 20.2287C17.019 18.4918 18.0036 16.5619 19.6162 16.1028C19.8684 16.0306 20.0789 15.8025 20.3011 15.6354C21.1297 15.0115 22.0609 14.6754 23.0977 14.6825C23.4836 14.6854 23.8964 14.7065 24.2494 14.8432C25.0944 15.1698 25.9729 15.4753 26.7258 15.9614C28.0523 16.8182 28.4838 18.1294 28.2475 19.6499C28.8949 19.6499 29.5523 19.6499 30.158 19.6499C30.158 19.1855 30.0994 18.7181 30.1703 18.2713C30.3205 17.3225 30.8957 16.6722 31.7489 16.2458C32.1102 16.0652 32.4696 15.8694 32.7945 15.6319C33.6331 15.0214 34.5578 14.6754 35.594 14.6825C35.9799 14.6848 36.3921 14.7071 36.7457 14.8426C37.5831 15.1633 38.4416 15.4771 39.2033 15.9391C40.6394 16.8117 41.1807 18.6513 40.5661 20.2264C40.4213 20.5976 40.2577 20.9611 40.0947 21.3482C40.5304 21.4015 40.8939 21.5634 41.1484 21.917C41.3414 22.1844 41.4158 22.4834 41.3947 22.8112C41.3496 23.5091 40.8758 23.9295 39.9563 24.0685C39.8097 24.7112 39.5745 25.3334 39.1365 25.8365C38.7987 26.2247 38.3941 26.5584 37.9989 26.892C37.8728 26.9988 37.8018 27.0832 37.8118 27.2521C37.8265 27.5025 37.8259 27.7546 37.8118 28.005C37.803 28.161 37.8593 28.2302 38.003 28.2888C39.2045 28.7832 40.4019 29.2887 41.6023 29.7859C42.6977 30.2398 43.1721 30.9423 43.1721 32.1292C43.1721 33.9893 43.1727 35.8488 43.1721 37.7089C43.1721 38.1862 43.0331 38.3275 42.5629 38.3275C41.5877 38.3299 40.6125 38.3293 39.6009 38.3293ZM33.7134 28.9521C33.4179 30.207 32.7505 31.1646 31.6927 31.8495C31.634 31.8876 31.5742 31.9738 31.5719 32.0395C31.5595 32.382 31.566 32.725 31.566 33.0692C31.6551 33.0968 31.7249 33.1202 31.7964 33.1402C33.853 33.7137 35.9113 34.2796 37.9643 34.8642C38.848 35.1158 39.3816 35.7198 39.5564 36.6223C39.6068 36.882 39.6015 37.1524 39.6214 37.4157C40.5116 37.4157 41.3883 37.4157 42.2784 37.4157C42.2784 37.3031 42.2784 37.211 42.2784 37.1184C42.2784 35.4536 42.2784 33.7887 42.2784 32.1239C42.2784 31.3223 42.0187 30.9306 41.2827 30.6233C39.9639 30.0721 38.6474 29.515 37.3245 28.9744C37.0307 28.8541 36.9081 28.6747 36.9175 28.361C36.9322 27.8684 36.9328 27.3746 36.9169 26.8826C36.9076 26.5924 37.0459 26.4399 37.2735 26.2804C37.6576 26.0112 38.0411 25.7221 38.3577 25.3791C38.794 24.9059 39.0186 24.3113 39.1124 23.6703C39.1723 23.2598 39.3077 23.1513 39.7229 23.149C39.8343 23.1484 39.9469 23.1549 40.0577 23.1461C40.3187 23.125 40.4975 22.9332 40.4911 22.691C40.4846 22.4588 40.3116 22.2788 40.0624 22.26C39.9146 22.2489 39.7645 22.2618 39.6162 22.2541C39.3347 22.2395 39.1465 22.0753 39.1623 21.7979C39.1799 21.4989 39.2262 21.1939 39.3165 20.9095C39.4285 20.5571 39.6109 20.2281 39.7417 19.881C40.2325 18.578 39.683 17.1419 38.4422 16.5127C37.9461 16.2611 37.4377 16.0277 36.9199 15.8254C35.8526 15.4085 34.8035 15.49 33.8049 16.0465C33.1528 16.41 32.5922 16.905 31.8914 17.2175C31.2159 17.5189 30.945 18.1997 31.013 18.9486C31.0746 19.6247 31.3355 20.18 32.0715 20.3765C32.2304 20.4187 32.3911 20.492 32.5236 20.5888C32.9259 20.8825 33.3827 21.137 33.6964 21.5094C34.63 22.6195 34.8112 23.8855 34.2781 25.2413C34.145 25.5808 33.9937 25.9133 33.8395 26.2751C34.0166 26.2751 34.1462 26.2716 34.2758 26.2757C35.0035 26.2986 35.5788 26.8862 35.5823 27.6063C35.5852 28.3275 35.0146 28.9228 34.2898 28.9509C34.1051 28.9579 33.9198 28.9521 33.7134 28.9521ZM24.8036 26.2599C24.5643 25.7779 24.3268 25.3275 24.114 24.866C23.4179 23.3578 24.1626 21.6202 25.7313 21.0696C25.8433 21.0303 25.9576 20.9834 26.055 20.9166C26.3845 20.6914 26.71 20.4592 27.0301 20.2211C27.0999 20.1695 27.1603 20.0886 27.1949 20.0082C27.7696 18.6876 27.2289 17.1647 25.9418 16.5109C25.4621 16.2675 24.9689 16.0482 24.4722 15.8418C23.7662 15.5486 23.0367 15.4999 22.2861 15.6618C21.5426 15.8225 20.9526 16.2505 20.3692 16.7003C20.2325 16.8059 20.0766 16.9044 19.9135 16.9554C18.7055 17.333 18.1719 18.527 18.719 19.6669C18.9401 20.1273 19.2052 20.5694 19.3893 21.0438C19.4913 21.3071 19.5025 21.6208 19.4907 21.9093C19.4825 22.1187 19.299 22.2412 19.0785 22.2536C18.9207 22.2624 18.7618 22.2489 18.6047 22.2606C18.3555 22.2794 18.1836 22.4594 18.1778 22.6922C18.1719 22.935 18.3496 23.1255 18.6111 23.1461C18.7313 23.1555 18.8527 23.1484 18.9735 23.1496C19.3523 23.1531 19.4931 23.2657 19.5517 23.6433C19.7364 24.8361 20.3598 25.7221 21.4136 26.3015C21.6552 26.4346 21.7554 26.6158 21.749 26.8873C21.7384 27.3612 21.746 27.8361 21.746 28.31C21.746 28.755 21.6974 28.8295 21.2881 28.9996C19.9769 29.5449 18.6651 30.0885 17.3545 30.6351C16.6648 30.923 16.3904 31.3335 16.3898 32.0723C16.3892 33.7647 16.3892 35.4577 16.3898 37.15C16.3898 37.2397 16.398 37.3289 16.4033 37.4356C16.8607 37.4356 17.2964 37.4356 17.7321 37.4356C18.1743 37.4356 18.6158 37.4356 19.0679 37.4356C19.0679 37.2913 19.0673 37.1893 19.0679 37.0879C19.0732 35.9696 19.7077 35.1328 20.7855 34.832C21.9654 34.503 23.1476 34.1805 24.328 33.8527C25.2486 33.597 26.1687 33.3384 27.1029 33.0768C27.1029 32.7608 27.0923 32.4541 27.107 32.1486C27.1152 31.9773 27.0518 31.8859 26.9099 31.7944C26.0016 31.2062 25.3911 30.3876 25.0645 29.3567C25.0235 29.2265 24.9889 29.0946 24.9513 28.9632C24.9384 28.9902 24.925 29.0172 24.9121 29.0441C24.4986 28.9362 24.0547 28.8893 23.68 28.7034C23.2566 28.4929 23.0789 28.0601 23.0872 27.5781C23.1006 26.7683 23.6595 26.3297 24.8036 26.2599ZM38.6885 41.4407C38.6973 41.395 38.7067 41.3686 38.7067 41.3422C38.7072 39.8821 38.7143 38.4219 38.7031 36.9612C38.6984 36.3607 38.2991 35.8793 37.6922 35.7092C35.6186 35.1287 33.5422 34.5558 31.4692 33.9723C31.2992 33.9242 31.2007 33.9641 31.0846 34.0837C30.6577 34.5247 30.2196 34.9545 29.7851 35.3879C29.4303 35.7415 29.2444 35.7432 28.8961 35.3961C28.4616 34.9627 28.0223 34.5335 27.5978 34.0907C27.4723 33.96 27.3621 33.9283 27.1873 33.9776C25.1413 34.5534 23.0924 35.1205 21.0453 35.6928C20.3152 35.8969 19.9622 36.3631 19.961 37.1142C19.9599 38.4724 19.9604 39.8299 19.9604 41.188C19.9604 41.2689 19.9604 41.3499 19.9604 41.4366C20.867 41.4366 21.7437 41.4366 22.6515 41.4366C22.6515 40.2433 22.6515 39.0682 22.6515 37.8989C22.9576 37.8989 23.2332 37.8989 23.5387 37.8989C23.5387 39.0893 23.5387 40.2644 23.5387 41.4325C27.4225 41.4325 31.2751 41.4325 35.1483 41.4325C35.1483 40.2416 35.1483 39.0734 35.1483 37.903C35.4515 37.903 35.7336 37.903 36.0297 37.903C36.0297 38.5075 36.0297 39.0928 36.0297 39.6774C36.0297 40.2609 36.0297 40.8444 36.0297 41.4407C36.9269 41.4407 37.7977 41.4407 38.6885 41.4407ZM26.3722 25.195C25.7764 26.2024 25.7635 26.2487 25.7635 27.3617C25.7635 27.6127 25.7612 27.8637 25.7647 28.1147C25.7887 29.922 27.1586 31.4074 28.994 31.6179C30.6999 31.8137 32.4145 30.6333 32.7781 28.9222C32.9247 28.2326 32.859 27.4995 32.9083 26.7882C32.9528 26.1514 32.5083 25.7239 32.3125 25.1786C30.3082 26.6481 28.3466 26.6352 26.3722 25.195ZM25.3214 25.2618C25.4175 25.0718 25.4885 24.9317 25.5589 24.7915C25.6339 24.642 25.7043 24.4907 25.7834 24.3435C25.9594 24.0175 26.2203 23.953 26.5206 24.1664C26.7932 24.3605 27.0513 24.5746 27.3298 24.7599C28.193 25.3345 29.1318 25.5069 30.1492 25.2853C30.9039 25.1211 31.4874 24.6643 32.0814 24.2163C32.4626 23.9289 32.706 23.9905 32.9218 24.4168C33.0473 24.6654 33.1727 24.9141 33.3117 25.1885C33.9691 23.9231 33.7017 22.4482 32.6063 21.7C31.7185 21.0931 30.7415 20.6122 29.6426 20.4979C28.8773 20.4181 28.1625 20.6046 27.4477 21.025C28.2499 21.2942 28.8357 21.7498 29.2473 22.4606C29.0034 22.623 28.7677 22.7802 28.5225 22.9432C28.4146 22.8007 28.329 22.6682 28.2241 22.5515C27.6687 21.9334 26.978 21.6736 26.167 21.8783C25.4052 22.0706 24.9443 22.5913 24.7819 23.3601C24.6335 24.0626 24.9777 24.6344 25.3214 25.2618ZM29.3324 34.5751C29.7675 34.1388 30.1692 33.7395 30.5668 33.3349C30.6148 33.2862 30.6653 33.2135 30.6676 33.1501C30.6788 32.8839 30.6723 32.6171 30.6723 32.3204C29.7675 32.5948 28.8902 32.5807 27.9948 32.3251C27.9948 32.5796 27.9883 32.7924 27.9977 33.0053C28.0018 33.1021 28.0042 33.2276 28.0622 33.2885C28.4709 33.7178 28.8937 34.1341 29.3324 34.5751ZM24.8558 28.0531C24.8558 27.7552 24.8558 27.4743 24.8558 27.1753C24.5655 27.1823 24.2447 27.0668 24.0682 27.3729C23.9967 27.4972 23.9967 27.73 24.0676 27.8543C24.2435 28.1604 24.5643 28.0467 24.8558 28.0531ZM33.8172 27.1846C33.8172 27.4849 33.8172 27.7658 33.8172 28.0449C34.4282 28.0924 34.6892 27.9599 34.6886 27.6127C34.6868 27.2644 34.4247 27.1325 33.8172 27.1846Z"/>
</mask>
<path d="M39.6009 38.3293C39.6009 39.4716 39.6009 40.577 39.6009 41.6823C39.6009 42.2283 39.4801 42.3473 38.9266 42.3473C32.53 42.3473 26.1329 42.3473 19.7364 42.3473C19.187 42.3473 19.0679 42.2277 19.0679 41.6765C19.0679 40.672 19.0679 39.668 19.0679 38.6635C19.0679 38.5633 19.0679 38.4624 19.0679 38.3293C18.9483 38.3293 18.8492 38.3293 18.7501 38.3293C17.8482 38.3293 16.9463 38.331 16.0444 38.3287C15.6592 38.3275 15.4979 38.1698 15.4979 37.7886C15.4961 35.8265 15.4821 33.8638 15.5038 31.9023C15.5149 30.9236 16.0186 30.234 16.9182 29.8522C18.1402 29.3338 19.367 28.8266 20.5955 28.324C20.782 28.2478 20.8418 28.1546 20.8641 27.9464C20.9292 27.34 20.7703 26.9249 20.2267 26.5455C19.3928 25.9637 18.9424 25.073 18.7167 24.0814C17.6617 23.8257 17.2442 23.4234 17.2583 22.6775C17.2712 21.9844 17.7174 21.5147 18.5513 21.3423C18.3648 20.9658 18.1983 20.5876 17.9966 20.2287C17.019 18.4918 18.0036 16.5619 19.6162 16.1028C19.8684 16.0306 20.0789 15.8025 20.3011 15.6354C21.1297 15.0115 22.0609 14.6754 23.0977 14.6825C23.4836 14.6854 23.8964 14.7065 24.2494 14.8432C25.0944 15.1698 25.9729 15.4753 26.7258 15.9614C28.0523 16.8182 28.4838 18.1294 28.2475 19.6499C28.8949 19.6499 29.5523 19.6499 30.158 19.6499C30.158 19.1855 30.0994 18.7181 30.1703 18.2713C30.3205 17.3225 30.8957 16.6722 31.7489 16.2458C32.1102 16.0652 32.4696 15.8694 32.7945 15.6319C33.6331 15.0214 34.5578 14.6754 35.594 14.6825C35.9799 14.6848 36.3921 14.7071 36.7457 14.8426C37.5831 15.1633 38.4416 15.4771 39.2033 15.9391C40.6394 16.8117 41.1807 18.6513 40.5661 20.2264C40.4213 20.5976 40.2577 20.9611 40.0947 21.3482C40.5304 21.4015 40.8939 21.5634 41.1484 21.917C41.3414 22.1844 41.4158 22.4834 41.3947 22.8112C41.3496 23.5091 40.8758 23.9295 39.9563 24.0685C39.8097 24.7112 39.5745 25.3334 39.1365 25.8365C38.7987 26.2247 38.3941 26.5584 37.9989 26.892C37.8728 26.9988 37.8018 27.0832 37.8118 27.2521C37.8265 27.5025 37.8259 27.7546 37.8118 28.005C37.803 28.161 37.8593 28.2302 38.003 28.2888C39.2045 28.7832 40.4019 29.2887 41.6023 29.7859C42.6977 30.2398 43.1721 30.9423 43.1721 32.1292C43.1721 33.9893 43.1727 35.8488 43.1721 37.7089C43.1721 38.1862 43.0331 38.3275 42.5629 38.3275C41.5877 38.3299 40.6125 38.3293 39.6009 38.3293ZM33.7134 28.9521C33.4179 30.207 32.7505 31.1646 31.6927 31.8495C31.634 31.8876 31.5742 31.9738 31.5719 32.0395C31.5595 32.382 31.566 32.725 31.566 33.0692C31.6551 33.0968 31.7249 33.1202 31.7964 33.1402C33.853 33.7137 35.9113 34.2796 37.9643 34.8642C38.848 35.1158 39.3816 35.7198 39.5564 36.6223C39.6068 36.882 39.6015 37.1524 39.6214 37.4157C40.5116 37.4157 41.3883 37.4157 42.2784 37.4157C42.2784 37.3031 42.2784 37.211 42.2784 37.1184C42.2784 35.4536 42.2784 33.7887 42.2784 32.1239C42.2784 31.3223 42.0187 30.9306 41.2827 30.6233C39.9639 30.0721 38.6474 29.515 37.3245 28.9744C37.0307 28.8541 36.9081 28.6747 36.9175 28.361C36.9322 27.8684 36.9328 27.3746 36.9169 26.8826C36.9076 26.5924 37.0459 26.4399 37.2735 26.2804C37.6576 26.0112 38.0411 25.7221 38.3577 25.3791C38.794 24.9059 39.0186 24.3113 39.1124 23.6703C39.1723 23.2598 39.3077 23.1513 39.7229 23.149C39.8343 23.1484 39.9469 23.1549 40.0577 23.1461C40.3187 23.125 40.4975 22.9332 40.4911 22.691C40.4846 22.4588 40.3116 22.2788 40.0624 22.26C39.9146 22.2489 39.7645 22.2618 39.6162 22.2541C39.3347 22.2395 39.1465 22.0753 39.1623 21.7979C39.1799 21.4989 39.2262 21.1939 39.3165 20.9095C39.4285 20.5571 39.6109 20.2281 39.7417 19.881C40.2325 18.578 39.683 17.1419 38.4422 16.5127C37.9461 16.2611 37.4377 16.0277 36.9199 15.8254C35.8526 15.4085 34.8035 15.49 33.8049 16.0465C33.1528 16.41 32.5922 16.905 31.8914 17.2175C31.2159 17.5189 30.945 18.1997 31.013 18.9486C31.0746 19.6247 31.3355 20.18 32.0715 20.3765C32.2304 20.4187 32.3911 20.492 32.5236 20.5888C32.9259 20.8825 33.3827 21.137 33.6964 21.5094C34.63 22.6195 34.8112 23.8855 34.2781 25.2413C34.145 25.5808 33.9937 25.9133 33.8395 26.2751C34.0166 26.2751 34.1462 26.2716 34.2758 26.2757C35.0035 26.2986 35.5788 26.8862 35.5823 27.6063C35.5852 28.3275 35.0146 28.9228 34.2898 28.9509C34.1051 28.9579 33.9198 28.9521 33.7134 28.9521ZM24.8036 26.2599C24.5643 25.7779 24.3268 25.3275 24.114 24.866C23.4179 23.3578 24.1626 21.6202 25.7313 21.0696C25.8433 21.0303 25.9576 20.9834 26.055 20.9166C26.3845 20.6914 26.71 20.4592 27.0301 20.2211C27.0999 20.1695 27.1603 20.0886 27.1949 20.0082C27.7696 18.6876 27.2289 17.1647 25.9418 16.5109C25.4621 16.2675 24.9689 16.0482 24.4722 15.8418C23.7662 15.5486 23.0367 15.4999 22.2861 15.6618C21.5426 15.8225 20.9526 16.2505 20.3692 16.7003C20.2325 16.8059 20.0766 16.9044 19.9135 16.9554C18.7055 17.333 18.1719 18.527 18.719 19.6669C18.9401 20.1273 19.2052 20.5694 19.3893 21.0438C19.4913 21.3071 19.5025 21.6208 19.4907 21.9093C19.4825 22.1187 19.299 22.2412 19.0785 22.2536C18.9207 22.2624 18.7618 22.2489 18.6047 22.2606C18.3555 22.2794 18.1836 22.4594 18.1778 22.6922C18.1719 22.935 18.3496 23.1255 18.6111 23.1461C18.7313 23.1555 18.8527 23.1484 18.9735 23.1496C19.3523 23.1531 19.4931 23.2657 19.5517 23.6433C19.7364 24.8361 20.3598 25.7221 21.4136 26.3015C21.6552 26.4346 21.7554 26.6158 21.749 26.8873C21.7384 27.3612 21.746 27.8361 21.746 28.31C21.746 28.755 21.6974 28.8295 21.2881 28.9996C19.9769 29.5449 18.6651 30.0885 17.3545 30.6351C16.6648 30.923 16.3904 31.3335 16.3898 32.0723C16.3892 33.7647 16.3892 35.4577 16.3898 37.15C16.3898 37.2397 16.398 37.3289 16.4033 37.4356C16.8607 37.4356 17.2964 37.4356 17.7321 37.4356C18.1743 37.4356 18.6158 37.4356 19.0679 37.4356C19.0679 37.2913 19.0673 37.1893 19.0679 37.0879C19.0732 35.9696 19.7077 35.1328 20.7855 34.832C21.9654 34.503 23.1476 34.1805 24.328 33.8527C25.2486 33.597 26.1687 33.3384 27.1029 33.0768C27.1029 32.7608 27.0923 32.4541 27.107 32.1486C27.1152 31.9773 27.0518 31.8859 26.9099 31.7944C26.0016 31.2062 25.3911 30.3876 25.0645 29.3567C25.0235 29.2265 24.9889 29.0946 24.9513 28.9632C24.9384 28.9902 24.925 29.0172 24.9121 29.0441C24.4986 28.9362 24.0547 28.8893 23.68 28.7034C23.2566 28.4929 23.0789 28.0601 23.0872 27.5781C23.1006 26.7683 23.6595 26.3297 24.8036 26.2599ZM38.6885 41.4407C38.6973 41.395 38.7067 41.3686 38.7067 41.3422C38.7072 39.8821 38.7143 38.4219 38.7031 36.9612C38.6984 36.3607 38.2991 35.8793 37.6922 35.7092C35.6186 35.1287 33.5422 34.5558 31.4692 33.9723C31.2992 33.9242 31.2007 33.9641 31.0846 34.0837C30.6577 34.5247 30.2196 34.9545 29.7851 35.3879C29.4303 35.7415 29.2444 35.7432 28.8961 35.3961C28.4616 34.9627 28.0223 34.5335 27.5978 34.0907C27.4723 33.96 27.3621 33.9283 27.1873 33.9776C25.1413 34.5534 23.0924 35.1205 21.0453 35.6928C20.3152 35.8969 19.9622 36.3631 19.961 37.1142C19.9599 38.4724 19.9604 39.8299 19.9604 41.188C19.9604 41.2689 19.9604 41.3499 19.9604 41.4366C20.867 41.4366 21.7437 41.4366 22.6515 41.4366C22.6515 40.2433 22.6515 39.0682 22.6515 37.8989C22.9576 37.8989 23.2332 37.8989 23.5387 37.8989C23.5387 39.0893 23.5387 40.2644 23.5387 41.4325C27.4225 41.4325 31.2751 41.4325 35.1483 41.4325C35.1483 40.2416 35.1483 39.0734 35.1483 37.903C35.4515 37.903 35.7336 37.903 36.0297 37.903C36.0297 38.5075 36.0297 39.0928 36.0297 39.6774C36.0297 40.2609 36.0297 40.8444 36.0297 41.4407C36.9269 41.4407 37.7977 41.4407 38.6885 41.4407ZM26.3722 25.195C25.7764 26.2024 25.7635 26.2487 25.7635 27.3617C25.7635 27.6127 25.7612 27.8637 25.7647 28.1147C25.7887 29.922 27.1586 31.4074 28.994 31.6179C30.6999 31.8137 32.4145 30.6333 32.7781 28.9222C32.9247 28.2326 32.859 27.4995 32.9083 26.7882C32.9528 26.1514 32.5083 25.7239 32.3125 25.1786C30.3082 26.6481 28.3466 26.6352 26.3722 25.195ZM25.3214 25.2618C25.4175 25.0718 25.4885 24.9317 25.5589 24.7915C25.6339 24.642 25.7043 24.4907 25.7834 24.3435C25.9594 24.0175 26.2203 23.953 26.5206 24.1664C26.7932 24.3605 27.0513 24.5746 27.3298 24.7599C28.193 25.3345 29.1318 25.5069 30.1492 25.2853C30.9039 25.1211 31.4874 24.6643 32.0814 24.2163C32.4626 23.9289 32.706 23.9905 32.9218 24.4168C33.0473 24.6654 33.1727 24.9141 33.3117 25.1885C33.9691 23.9231 33.7017 22.4482 32.6063 21.7C31.7185 21.0931 30.7415 20.6122 29.6426 20.4979C28.8773 20.4181 28.1625 20.6046 27.4477 21.025C28.2499 21.2942 28.8357 21.7498 29.2473 22.4606C29.0034 22.623 28.7677 22.7802 28.5225 22.9432C28.4146 22.8007 28.329 22.6682 28.2241 22.5515C27.6687 21.9334 26.978 21.6736 26.167 21.8783C25.4052 22.0706 24.9443 22.5913 24.7819 23.3601C24.6335 24.0626 24.9777 24.6344 25.3214 25.2618ZM29.3324 34.5751C29.7675 34.1388 30.1692 33.7395 30.5668 33.3349C30.6148 33.2862 30.6653 33.2135 30.6676 33.1501C30.6788 32.8839 30.6723 32.6171 30.6723 32.3204C29.7675 32.5948 28.8902 32.5807 27.9948 32.3251C27.9948 32.5796 27.9883 32.7924 27.9977 33.0053C28.0018 33.1021 28.0042 33.2276 28.0622 33.2885C28.4709 33.7178 28.8937 34.1341 29.3324 34.5751ZM24.8558 28.0531C24.8558 27.7552 24.8558 27.4743 24.8558 27.1753C24.5655 27.1823 24.2447 27.0668 24.0682 27.3729C23.9967 27.4972 23.9967 27.73 24.0676 27.8543C24.2435 28.1604 24.5643 28.0467 24.8558 28.0531ZM33.8172 27.1846C33.8172 27.4849 33.8172 27.7658 33.8172 28.0449C34.4282 28.0924 34.6892 27.9599 34.6886 27.6127C34.6868 27.2644 34.4247 27.1325 33.8172 27.1846Z" fill="#4BDE97"/>
<path d="M39.6009 38.3293C39.6009 39.4716 39.6009 40.577 39.6009 41.6823C39.6009 42.2283 39.4801 42.3473 38.9266 42.3473C32.53 42.3473 26.1329 42.3473 19.7364 42.3473C19.187 42.3473 19.0679 42.2277 19.0679 41.6765C19.0679 40.672 19.0679 39.668 19.0679 38.6635C19.0679 38.5633 19.0679 38.4624 19.0679 38.3293C18.9483 38.3293 18.8492 38.3293 18.7501 38.3293C17.8482 38.3293 16.9463 38.331 16.0444 38.3287C15.6592 38.3275 15.4979 38.1698 15.4979 37.7886C15.4961 35.8265 15.4821 33.8638 15.5038 31.9023C15.5149 30.9236 16.0186 30.234 16.9182 29.8522C18.1402 29.3338 19.367 28.8266 20.5955 28.324C20.782 28.2478 20.8418 28.1546 20.8641 27.9464C20.9292 27.34 20.7703 26.9249 20.2267 26.5455C19.3928 25.9637 18.9424 25.073 18.7167 24.0814C17.6617 23.8257 17.2442 23.4234 17.2583 22.6775C17.2712 21.9844 17.7174 21.5147 18.5513 21.3423C18.3648 20.9658 18.1983 20.5876 17.9966 20.2287C17.019 18.4918 18.0036 16.5619 19.6162 16.1028C19.8684 16.0306 20.0789 15.8025 20.3011 15.6354C21.1297 15.0115 22.0609 14.6754 23.0977 14.6825C23.4836 14.6854 23.8964 14.7065 24.2494 14.8432C25.0944 15.1698 25.9729 15.4753 26.7258 15.9614C28.0523 16.8182 28.4838 18.1294 28.2475 19.6499C28.8949 19.6499 29.5523 19.6499 30.158 19.6499C30.158 19.1855 30.0994 18.7181 30.1703 18.2713C30.3205 17.3225 30.8957 16.6722 31.7489 16.2458C32.1102 16.0652 32.4696 15.8694 32.7945 15.6319C33.6331 15.0214 34.5578 14.6754 35.594 14.6825C35.9799 14.6848 36.3921 14.7071 36.7457 14.8426C37.5831 15.1633 38.4416 15.4771 39.2033 15.9391C40.6394 16.8117 41.1807 18.6513 40.5661 20.2264C40.4213 20.5976 40.2577 20.9611 40.0947 21.3482C40.5304 21.4015 40.8939 21.5634 41.1484 21.917C41.3414 22.1844 41.4158 22.4834 41.3947 22.8112C41.3496 23.5091 40.8758 23.9295 39.9563 24.0685C39.8097 24.7112 39.5745 25.3334 39.1365 25.8365C38.7987 26.2247 38.3941 26.5584 37.9989 26.892C37.8728 26.9988 37.8018 27.0832 37.8118 27.2521C37.8265 27.5025 37.8259 27.7546 37.8118 28.005C37.803 28.161 37.8593 28.2302 38.003 28.2888C39.2045 28.7832 40.4019 29.2887 41.6023 29.7859C42.6977 30.2398 43.1721 30.9423 43.1721 32.1292C43.1721 33.9893 43.1727 35.8488 43.1721 37.7089C43.1721 38.1862 43.0331 38.3275 42.5629 38.3275C41.5877 38.3299 40.6125 38.3293 39.6009 38.3293ZM33.7134 28.9521C33.4179 30.207 32.7505 31.1646 31.6927 31.8495C31.634 31.8876 31.5742 31.9738 31.5719 32.0395C31.5595 32.382 31.566 32.725 31.566 33.0692C31.6551 33.0968 31.7249 33.1202 31.7964 33.1402C33.853 33.7137 35.9113 34.2796 37.9643 34.8642C38.848 35.1158 39.3816 35.7198 39.5564 36.6223C39.6068 36.882 39.6015 37.1524 39.6214 37.4157C40.5116 37.4157 41.3883 37.4157 42.2784 37.4157C42.2784 37.3031 42.2784 37.211 42.2784 37.1184C42.2784 35.4536 42.2784 33.7887 42.2784 32.1239C42.2784 31.3223 42.0187 30.9306 41.2827 30.6233C39.9639 30.0721 38.6474 29.515 37.3245 28.9744C37.0307 28.8541 36.9081 28.6747 36.9175 28.361C36.9322 27.8684 36.9328 27.3746 36.9169 26.8826C36.9076 26.5924 37.0459 26.4399 37.2735 26.2804C37.6576 26.0112 38.0411 25.7221 38.3577 25.3791C38.794 24.9059 39.0186 24.3113 39.1124 23.6703C39.1723 23.2598 39.3077 23.1513 39.7229 23.149C39.8343 23.1484 39.9469 23.1549 40.0577 23.1461C40.3187 23.125 40.4975 22.9332 40.4911 22.691C40.4846 22.4588 40.3116 22.2788 40.0624 22.26C39.9146 22.2489 39.7645 22.2618 39.6162 22.2541C39.3347 22.2395 39.1465 22.0753 39.1623 21.7979C39.1799 21.4989 39.2262 21.1939 39.3165 20.9095C39.4285 20.5571 39.6109 20.2281 39.7417 19.881C40.2325 18.578 39.683 17.1419 38.4422 16.5127C37.9461 16.2611 37.4377 16.0277 36.9199 15.8254C35.8526 15.4085 34.8035 15.49 33.8049 16.0465C33.1528 16.41 32.5922 16.905 31.8914 17.2175C31.2159 17.5189 30.945 18.1997 31.013 18.9486C31.0746 19.6247 31.3355 20.18 32.0715 20.3765C32.2304 20.4187 32.3911 20.492 32.5236 20.5888C32.9259 20.8825 33.3827 21.137 33.6964 21.5094C34.63 22.6195 34.8112 23.8855 34.2781 25.2413C34.145 25.5808 33.9937 25.9133 33.8395 26.2751C34.0166 26.2751 34.1462 26.2716 34.2758 26.2757C35.0035 26.2986 35.5788 26.8862 35.5823 27.6063C35.5852 28.3275 35.0146 28.9228 34.2898 28.9509C34.1051 28.9579 33.9198 28.9521 33.7134 28.9521ZM24.8036 26.2599C24.5643 25.7779 24.3268 25.3275 24.114 24.866C23.4179 23.3578 24.1626 21.6202 25.7313 21.0696C25.8433 21.0303 25.9576 20.9834 26.055 20.9166C26.3845 20.6914 26.71 20.4592 27.0301 20.2211C27.0999 20.1695 27.1603 20.0886 27.1949 20.0082C27.7696 18.6876 27.2289 17.1647 25.9418 16.5109C25.4621 16.2675 24.9689 16.0482 24.4722 15.8418C23.7662 15.5486 23.0367 15.4999 22.2861 15.6618C21.5426 15.8225 20.9526 16.2505 20.3692 16.7003C20.2325 16.8059 20.0766 16.9044 19.9135 16.9554C18.7055 17.333 18.1719 18.527 18.719 19.6669C18.9401 20.1273 19.2052 20.5694 19.3893 21.0438C19.4913 21.3071 19.5025 21.6208 19.4907 21.9093C19.4825 22.1187 19.299 22.2412 19.0785 22.2536C18.9207 22.2624 18.7618 22.2489 18.6047 22.2606C18.3555 22.2794 18.1836 22.4594 18.1778 22.6922C18.1719 22.935 18.3496 23.1255 18.6111 23.1461C18.7313 23.1555 18.8527 23.1484 18.9735 23.1496C19.3523 23.1531 19.4931 23.2657 19.5517 23.6433C19.7364 24.8361 20.3598 25.7221 21.4136 26.3015C21.6552 26.4346 21.7554 26.6158 21.749 26.8873C21.7384 27.3612 21.746 27.8361 21.746 28.31C21.746 28.755 21.6974 28.8295 21.2881 28.9996C19.9769 29.5449 18.6651 30.0885 17.3545 30.6351C16.6648 30.923 16.3904 31.3335 16.3898 32.0723C16.3892 33.7647 16.3892 35.4577 16.3898 37.15C16.3898 37.2397 16.398 37.3289 16.4033 37.4356C16.8607 37.4356 17.2964 37.4356 17.7321 37.4356C18.1743 37.4356 18.6158 37.4356 19.0679 37.4356C19.0679 37.2913 19.0673 37.1893 19.0679 37.0879C19.0732 35.9696 19.7077 35.1328 20.7855 34.832C21.9654 34.503 23.1476 34.1805 24.328 33.8527C25.2486 33.597 26.1687 33.3384 27.1029 33.0768C27.1029 32.7608 27.0923 32.4541 27.107 32.1486C27.1152 31.9773 27.0518 31.8859 26.9099 31.7944C26.0016 31.2062 25.3911 30.3876 25.0645 29.3567C25.0235 29.2265 24.9889 29.0946 24.9513 28.9632C24.9384 28.9902 24.925 29.0172 24.9121 29.0441C24.4986 28.9362 24.0547 28.8893 23.68 28.7034C23.2566 28.4929 23.0789 28.0601 23.0872 27.5781C23.1006 26.7683 23.6595 26.3297 24.8036 26.2599ZM38.6885 41.4407C38.6973 41.395 38.7067 41.3686 38.7067 41.3422C38.7072 39.8821 38.7143 38.4219 38.7031 36.9612C38.6984 36.3607 38.2991 35.8793 37.6922 35.7092C35.6186 35.1287 33.5422 34.5558 31.4692 33.9723C31.2992 33.9242 31.2007 33.9641 31.0846 34.0837C30.6577 34.5247 30.2196 34.9545 29.7851 35.3879C29.4303 35.7415 29.2444 35.7432 28.8961 35.3961C28.4616 34.9627 28.0223 34.5335 27.5978 34.0907C27.4723 33.96 27.3621 33.9283 27.1873 33.9776C25.1413 34.5534 23.0924 35.1205 21.0453 35.6928C20.3152 35.8969 19.9622 36.3631 19.961 37.1142C19.9599 38.4724 19.9604 39.8299 19.9604 41.188C19.9604 41.2689 19.9604 41.3499 19.9604 41.4366C20.867 41.4366 21.7437 41.4366 22.6515 41.4366C22.6515 40.2433 22.6515 39.0682 22.6515 37.8989C22.9576 37.8989 23.2332 37.8989 23.5387 37.8989C23.5387 39.0893 23.5387 40.2644 23.5387 41.4325C27.4225 41.4325 31.2751 41.4325 35.1483 41.4325C35.1483 40.2416 35.1483 39.0734 35.1483 37.903C35.4515 37.903 35.7336 37.903 36.0297 37.903C36.0297 38.5075 36.0297 39.0928 36.0297 39.6774C36.0297 40.2609 36.0297 40.8444 36.0297 41.4407C36.9269 41.4407 37.7977 41.4407 38.6885 41.4407ZM26.3722 25.195C25.7764 26.2024 25.7635 26.2487 25.7635 27.3617C25.7635 27.6127 25.7612 27.8637 25.7647 28.1147C25.7887 29.922 27.1586 31.4074 28.994 31.6179C30.6999 31.8137 32.4145 30.6333 32.7781 28.9222C32.9247 28.2326 32.859 27.4995 32.9083 26.7882C32.9528 26.1514 32.5083 25.7239 32.3125 25.1786C30.3082 26.6481 28.3466 26.6352 26.3722 25.195ZM25.3214 25.2618C25.4175 25.0718 25.4885 24.9317 25.5589 24.7915C25.6339 24.642 25.7043 24.4907 25.7834 24.3435C25.9594 24.0175 26.2203 23.953 26.5206 24.1664C26.7932 24.3605 27.0513 24.5746 27.3298 24.7599C28.193 25.3345 29.1318 25.5069 30.1492 25.2853C30.9039 25.1211 31.4874 24.6643 32.0814 24.2163C32.4626 23.9289 32.706 23.9905 32.9218 24.4168C33.0473 24.6654 33.1727 24.9141 33.3117 25.1885C33.9691 23.9231 33.7017 22.4482 32.6063 21.7C31.7185 21.0931 30.7415 20.6122 29.6426 20.4979C28.8773 20.4181 28.1625 20.6046 27.4477 21.025C28.2499 21.2942 28.8357 21.7498 29.2473 22.4606C29.0034 22.623 28.7677 22.7802 28.5225 22.9432C28.4146 22.8007 28.329 22.6682 28.2241 22.5515C27.6687 21.9334 26.978 21.6736 26.167 21.8783C25.4052 22.0706 24.9443 22.5913 24.7819 23.3601C24.6335 24.0626 24.9777 24.6344 25.3214 25.2618ZM29.3324 34.5751C29.7675 34.1388 30.1692 33.7395 30.5668 33.3349C30.6148 33.2862 30.6653 33.2135 30.6676 33.1501C30.6788 32.8839 30.6723 32.6171 30.6723 32.3204C29.7675 32.5948 28.8902 32.5807 27.9948 32.3251C27.9948 32.5796 27.9883 32.7924 27.9977 33.0053C28.0018 33.1021 28.0042 33.2276 28.0622 33.2885C28.4709 33.7178 28.8937 34.1341 29.3324 34.5751ZM24.8558 28.0531C24.8558 27.7552 24.8558 27.4743 24.8558 27.1753C24.5655 27.1823 24.2447 27.0668 24.0682 27.3729C23.9967 27.4972 23.9967 27.73 24.0676 27.8543C24.2435 28.1604 24.5643 28.0467 24.8558 28.0531ZM33.8172 27.1846C33.8172 27.4849 33.8172 27.7658 33.8172 28.0449C34.4282 28.0924 34.6892 27.9599 34.6886 27.6127C34.6868 27.2644 34.4247 27.1325 33.8172 27.1846Z" stroke="#4BDE97" stroke-width="0.4" mask="url(#path-2-outside-1_69_1000)"/>
</svg>
