<svg width="58" height="57" viewBox="0 0 58 57" fill="none" xmlns="http://www.w3.org/2000/svg">
<ellipse opacity="0.1" cx="29.1092" cy="28.5149" rx="28.5098" ry="28.2901" fill="#FFB648"/>
<mask id="path-2-outside-1_69_977" maskUnits="userSpaceOnUse" x="12.5003" y="11.9027" width="33" height="33" fill="black">
<rect fill="white" x="12.5003" y="11.9027" width="33" height="33"/>
<path d="M13.5003 27.1812C13.677 26.8917 13.8176 26.5696 14.0397 26.3204C14.3224 26.0028 14.7324 25.9165 15.1532 25.9165C16.5454 25.9162 17.9375 25.9143 19.3297 25.9175C19.9582 25.9191 20.4132 26.2031 20.6921 26.7716C20.7263 26.8409 20.8071 26.9352 20.8675 26.9361C21.5737 26.9476 22.2798 26.9435 23.0476 26.9435C21.2279 24.8886 20.4921 22.5497 20.8963 19.8939C21.1925 17.947 22.1149 16.3146 23.5825 15.0007C26.5572 12.3378 31.0315 12.1988 34.2155 14.6467C37.4296 17.1175 38.599 21.9653 36.0135 25.905C36.4931 25.905 36.9417 25.9104 37.39 25.897C37.4389 25.8954 37.497 25.7919 37.5296 25.7254C37.8012 25.1679 38.2488 24.881 38.8639 24.8778C40.2762 24.871 41.6888 24.8685 43.1014 24.8781C44.0635 24.8848 44.7156 25.5564 44.7163 26.5255C44.7185 29.5939 44.7188 32.6623 44.716 35.7303C44.715 36.6978 44.0552 37.3573 43.0902 37.3621C42.2672 37.3663 41.4441 37.3653 40.621 37.3621C39.9995 37.3599 39.5515 37.072 39.302 36.5061C39.2349 36.3543 39.156 36.3195 39.0071 36.3217C38.4888 36.3291 37.9702 36.3157 37.4526 36.3307C37.3242 36.3345 37.19 36.4016 37.0724 36.4652C36.896 36.5607 36.7318 36.6786 36.6468 36.7969C36.5995 37.2209 36.5995 37.6573 36.4924 38.066C36.3749 38.5149 36.0298 38.8153 35.6185 39.0351C35.5438 39.0751 35.4543 39.1936 35.462 39.2664C35.5834 40.4193 35.3275 40.9254 34.3689 41.4478C34.3689 41.7814 34.4114 42.0977 34.3616 42.3987C34.1644 43.5889 32.9362 44.2382 31.8329 43.7413C31.2414 43.4752 30.6647 43.1764 30.0403 42.8722C29.7905 43.5484 29.2863 43.9334 28.6214 44.127C28.3977 44.127 28.1743 44.127 27.9507 44.127C27.4618 43.9615 27.0167 43.7279 26.7528 43.2601C26.6608 43.0969 26.5802 43.0662 26.3975 43.1208C25.5587 43.3713 24.758 43.0547 24.296 42.3124C24.2602 42.2549 24.2209 42.2 24.1784 42.1367C23.7042 42.3268 23.2377 42.3514 22.7709 42.1696C22.3086 41.9897 21.9791 41.659 21.7619 41.2206C21.6718 41.2488 21.6139 41.2673 21.5561 41.2852C20.4442 41.6252 19.3434 40.9459 19.2022 39.7933C19.1645 39.486 19.244 39.1485 19.3354 38.845C19.483 38.3545 19.685 37.8807 19.8732 37.3752C19.5568 37.3752 19.2853 37.3752 19.0063 37.3752C18.9836 37.4174 18.9561 37.4599 18.9367 37.5059C18.6823 38.1021 18.2302 38.3999 17.5838 38.4015C16.7412 38.4034 15.899 38.4047 15.0564 38.4002C14.509 38.3973 14.0764 38.1606 13.771 37.7113C13.6598 37.5481 13.5901 37.3567 13.5016 37.1781C13.5003 33.8461 13.5003 30.5135 13.5003 27.1812ZM32.1118 25.9162C32.1118 25.9146 32.1118 25.9133 32.1118 25.9117C32.8943 25.9117 33.6768 25.92 34.4587 25.9034C34.5865 25.9005 34.7542 25.8197 34.8319 25.7197C36.1509 24.0122 36.6557 22.0775 36.2739 19.961C35.5457 15.9296 31.7971 13.3149 27.7727 14.0885C24.8149 14.6569 22.8486 16.4734 22.0862 19.3829C21.3283 22.2749 22.1536 24.7761 24.4024 26.7751C24.5168 26.877 24.7047 26.9419 24.8599 26.9447C25.7741 26.962 26.6889 26.9495 27.603 26.962C27.8341 26.9652 28.0018 26.9099 28.1533 26.724C28.6214 26.1498 29.2431 25.906 29.9777 25.9143C30.6893 25.9226 31.4005 25.9162 32.1118 25.9162ZM23.2294 36.5812C24.5328 35.9795 25.1785 36.1457 26.0415 37.3001C26.6528 37.0732 27.2493 37.0947 27.8063 37.4711C28.3616 37.8462 28.5782 38.4066 28.6134 39.0559C29.401 39.0003 30.0036 39.269 30.4078 39.9164C30.812 40.5637 30.6938 41.2321 30.4043 41.8916C31.013 42.1872 31.5766 42.4642 32.1434 42.7352C32.6377 42.9713 33.0892 42.8432 33.2854 42.4185C33.4816 41.9936 33.2969 41.5696 32.8058 41.3296C32.4141 41.1382 32.0185 40.9542 31.6261 40.7634C31.258 40.5842 31.1309 40.3043 31.2779 40.0087C31.4191 39.725 31.7102 39.6537 32.0661 39.8221C32.4604 40.0087 32.8505 40.2036 33.2455 40.3889C33.7311 40.6164 34.1935 40.4797 34.389 40.0569C34.5811 39.6412 34.4028 39.2176 33.9312 38.9862C33.5123 38.7808 33.0892 38.5843 32.6694 38.3801C32.3003 38.2008 32.1757 37.9213 32.3272 37.6251C32.4722 37.3416 32.7588 37.2723 33.1157 37.441C33.5468 37.6446 33.9733 37.8577 34.406 38.058C34.8584 38.2673 35.3038 38.1302 35.5022 37.7318C35.7067 37.3212 35.5348 36.8777 35.0718 36.648C34.6814 36.454 34.2839 36.2735 33.8915 36.0834C33.5203 35.9035 33.3966 35.6281 33.5487 35.3312C33.6944 35.0465 33.974 34.9797 34.3328 35.1478C34.7552 35.3459 35.1706 35.56 35.5991 35.7444C36.172 35.9907 36.7858 35.5571 36.711 34.9718C36.6663 34.6232 36.44 34.4244 36.1429 34.273C34.2181 33.2911 32.2942 32.3076 30.3752 31.3145C30.1985 31.2231 30.0979 31.2423 29.9573 31.3717C29.1419 32.1207 28.3159 32.8578 27.4963 33.6023C27.0972 33.9649 26.6339 34.1848 26.0946 34.1829C25.2114 34.1797 24.5436 33.7799 24.1749 32.9754C23.8007 32.1587 23.9368 31.3829 24.5305 30.7113C25.2434 29.9045 25.9773 29.1165 26.7013 28.3196C26.7784 28.235 26.8502 28.1458 26.9643 28.0119C24.8344 28.0119 22.7767 28.0119 20.6947 28.0119C20.1927 30.7732 19.6904 33.5349 19.1827 36.3262C19.5025 36.3262 19.7965 36.316 20.0889 36.3294C20.3211 36.3399 20.5097 36.2872 20.7001 36.1371C21.0391 35.8693 21.4452 35.7837 21.8766 35.8169C22.4495 35.86 22.8879 36.1447 23.2294 36.5812ZM37.5181 26.9483C37.4095 26.9483 37.3389 26.9483 37.2686 26.9483C35.0754 26.9515 32.8818 26.9588 30.6887 26.9559C29.1681 26.954 29.3856 26.916 28.4472 27.9423C27.3989 29.0887 26.3534 30.2377 25.3137 31.3915C24.9101 31.8395 24.9226 32.4485 25.321 32.8444C25.7252 33.246 26.3131 33.247 26.7752 32.8444C26.9435 32.6977 27.1081 32.5466 27.2739 32.3967C28.4344 31.349 29.594 30.3 30.7564 29.2542C31.0449 28.9948 31.3513 28.9833 31.5648 29.2092C31.7913 29.4488 31.7495 29.7521 31.4485 30.032C31.3018 30.1684 31.1523 30.3013 30.9842 30.4537C31.0986 30.5148 31.1865 30.5627 31.2756 30.6084C33.0796 31.5347 34.883 32.4619 36.6877 33.3866C37.3983 33.7509 37.7485 34.3318 37.753 35.1267C37.7533 35.1734 37.7619 35.22 37.7664 35.2619C38.1964 35.2619 38.6042 35.2619 39.0301 35.2619C38.5246 32.483 38.0242 29.7306 37.5181 26.9483ZM43.6778 31.1113C43.6778 29.629 43.6782 28.1465 43.6778 26.6642C43.6778 26.0779 43.5203 25.9168 42.9423 25.9165C41.6629 25.9156 40.3833 25.9162 39.1039 25.9162C38.4968 25.9162 38.4048 26.028 38.5128 26.6198C39.077 29.7121 39.6426 32.8041 40.2005 35.8977C40.2554 36.2026 40.3986 36.3332 40.7111 36.3284C41.4623 36.3169 42.2138 36.3253 42.9653 36.3246C43.5091 36.3243 43.6775 36.1581 43.6778 35.6191C43.6785 34.1167 43.6778 32.614 43.6778 31.1113ZM14.5391 32.1807C14.5391 33.6934 14.5378 35.2063 14.5397 36.7189C14.5404 37.1688 14.7244 37.3605 15.1583 37.3624C15.9606 37.3656 16.7626 37.3599 17.565 37.3653C17.8241 37.3669 17.9612 37.2448 18.0053 36.9994C18.0589 36.7001 18.112 36.4007 18.1666 36.1013C18.6836 33.2582 19.2019 30.4151 19.7163 27.5713C19.8042 27.086 19.6926 26.9585 19.2057 26.9582C17.8755 26.9569 16.5454 26.9559 15.2149 26.9588C14.7145 26.9598 14.54 27.1393 14.5397 27.6426C14.5381 29.1552 14.5391 30.6681 14.5391 32.1807ZM25.1079 38.1497C25.113 37.7184 24.8635 37.403 24.4982 37.3183C24.1602 37.24 23.7774 37.4024 23.6413 37.7433C23.3032 38.5897 22.9729 39.4409 22.6805 40.3039C22.5179 40.7842 22.9543 41.2877 23.4601 41.2532C23.8196 41.2286 24.0551 41.0283 24.1813 40.6902C24.465 39.931 24.7548 39.1741 25.0389 38.4149C25.0775 38.3117 25.0951 38.2008 25.1079 38.1497ZM27.542 39.0664C27.5423 38.6217 27.2886 38.3069 26.9247 38.229C26.5633 38.1513 26.1971 38.3421 26.047 38.7213C25.745 39.4847 25.4571 40.2538 25.1696 41.0229C24.9862 41.5136 25.1523 41.9447 25.5776 42.1134C26.0169 42.2875 26.4329 42.0757 26.6285 41.568C26.909 40.8398 27.1848 40.1093 27.458 39.3783C27.5037 39.2562 27.5264 39.1259 27.542 39.0664ZM21.6587 36.8697C21.397 36.8767 21.1356 37.0244 21.0119 37.3356C20.7464 38.0047 20.4921 38.6785 20.2566 39.3585C20.1291 39.7269 20.3237 40.1116 20.6701 40.2688C21.0273 40.4311 21.4896 40.3221 21.6449 39.9614C21.9533 39.2457 22.2367 38.5159 22.4709 37.7733C22.6143 37.3196 22.213 36.8787 21.6587 36.8697ZM29.6032 40.9634C29.6084 40.5244 29.3709 40.2218 28.9987 40.1311C28.6491 40.0461 28.2775 40.2209 28.1274 40.5781C27.9312 41.0449 27.7554 41.5203 27.5848 41.9974C27.4241 42.447 27.6075 42.8697 28.0136 43.0279C28.4357 43.1921 28.8581 42.9965 29.0422 42.5358C29.2189 42.0936 29.3815 41.6459 29.5454 41.1989C29.5799 41.105 29.5937 41.004 29.6032 40.9634Z"/>
</mask>
<path d="M13.5003 27.1812C13.677 26.8917 13.8176 26.5696 14.0397 26.3204C14.3224 26.0028 14.7324 25.9165 15.1532 25.9165C16.5454 25.9162 17.9375 25.9143 19.3297 25.9175C19.9582 25.9191 20.4132 26.2031 20.6921 26.7716C20.7263 26.8409 20.8071 26.9352 20.8675 26.9361C21.5737 26.9476 22.2798 26.9435 23.0476 26.9435C21.2279 24.8886 20.4921 22.5497 20.8963 19.8939C21.1925 17.947 22.1149 16.3146 23.5825 15.0007C26.5572 12.3378 31.0315 12.1988 34.2155 14.6467C37.4296 17.1175 38.599 21.9653 36.0135 25.905C36.4931 25.905 36.9417 25.9104 37.39 25.897C37.4389 25.8954 37.497 25.7919 37.5296 25.7254C37.8012 25.1679 38.2488 24.881 38.8639 24.8778C40.2762 24.871 41.6888 24.8685 43.1014 24.8781C44.0635 24.8848 44.7156 25.5564 44.7163 26.5255C44.7185 29.5939 44.7188 32.6623 44.716 35.7303C44.715 36.6978 44.0552 37.3573 43.0902 37.3621C42.2672 37.3663 41.4441 37.3653 40.621 37.3621C39.9995 37.3599 39.5515 37.072 39.302 36.5061C39.2349 36.3543 39.156 36.3195 39.0071 36.3217C38.4888 36.3291 37.9702 36.3157 37.4526 36.3307C37.3242 36.3345 37.19 36.4016 37.0724 36.4652C36.896 36.5607 36.7318 36.6786 36.6468 36.7969C36.5995 37.2209 36.5995 37.6573 36.4924 38.066C36.3749 38.5149 36.0298 38.8153 35.6185 39.0351C35.5438 39.0751 35.4543 39.1936 35.462 39.2664C35.5834 40.4193 35.3275 40.9254 34.3689 41.4478C34.3689 41.7814 34.4114 42.0977 34.3616 42.3987C34.1644 43.5889 32.9362 44.2382 31.8329 43.7413C31.2414 43.4752 30.6647 43.1764 30.0403 42.8722C29.7905 43.5484 29.2863 43.9334 28.6214 44.127C28.3977 44.127 28.1743 44.127 27.9507 44.127C27.4618 43.9615 27.0167 43.7279 26.7528 43.2601C26.6608 43.0969 26.5802 43.0662 26.3975 43.1208C25.5587 43.3713 24.758 43.0547 24.296 42.3124C24.2602 42.2549 24.2209 42.2 24.1784 42.1367C23.7042 42.3268 23.2377 42.3514 22.7709 42.1696C22.3086 41.9897 21.9791 41.659 21.7619 41.2206C21.6718 41.2488 21.6139 41.2673 21.5561 41.2852C20.4442 41.6252 19.3434 40.9459 19.2022 39.7933C19.1645 39.486 19.244 39.1485 19.3354 38.845C19.483 38.3545 19.685 37.8807 19.8732 37.3752C19.5568 37.3752 19.2853 37.3752 19.0063 37.3752C18.9836 37.4174 18.9561 37.4599 18.9367 37.5059C18.6823 38.1021 18.2302 38.3999 17.5838 38.4015C16.7412 38.4034 15.899 38.4047 15.0564 38.4002C14.509 38.3973 14.0764 38.1606 13.771 37.7113C13.6598 37.5481 13.5901 37.3567 13.5016 37.1781C13.5003 33.8461 13.5003 30.5135 13.5003 27.1812ZM32.1118 25.9162C32.1118 25.9146 32.1118 25.9133 32.1118 25.9117C32.8943 25.9117 33.6768 25.92 34.4587 25.9034C34.5865 25.9005 34.7542 25.8197 34.8319 25.7197C36.1509 24.0122 36.6557 22.0775 36.2739 19.961C35.5457 15.9296 31.7971 13.3149 27.7727 14.0885C24.8149 14.6569 22.8486 16.4734 22.0862 19.3829C21.3283 22.2749 22.1536 24.7761 24.4024 26.7751C24.5168 26.877 24.7047 26.9419 24.8599 26.9447C25.7741 26.962 26.6889 26.9495 27.603 26.962C27.8341 26.9652 28.0018 26.9099 28.1533 26.724C28.6214 26.1498 29.2431 25.906 29.9777 25.9143C30.6893 25.9226 31.4005 25.9162 32.1118 25.9162ZM23.2294 36.5812C24.5328 35.9795 25.1785 36.1457 26.0415 37.3001C26.6528 37.0732 27.2493 37.0947 27.8063 37.4711C28.3616 37.8462 28.5782 38.4066 28.6134 39.0559C29.401 39.0003 30.0036 39.269 30.4078 39.9164C30.812 40.5637 30.6938 41.2321 30.4043 41.8916C31.013 42.1872 31.5766 42.4642 32.1434 42.7352C32.6377 42.9713 33.0892 42.8432 33.2854 42.4185C33.4816 41.9936 33.2969 41.5696 32.8058 41.3296C32.4141 41.1382 32.0185 40.9542 31.6261 40.7634C31.258 40.5842 31.1309 40.3043 31.2779 40.0087C31.4191 39.725 31.7102 39.6537 32.0661 39.8221C32.4604 40.0087 32.8505 40.2036 33.2455 40.3889C33.7311 40.6164 34.1935 40.4797 34.389 40.0569C34.5811 39.6412 34.4028 39.2176 33.9312 38.9862C33.5123 38.7808 33.0892 38.5843 32.6694 38.3801C32.3003 38.2008 32.1757 37.9213 32.3272 37.6251C32.4722 37.3416 32.7588 37.2723 33.1157 37.441C33.5468 37.6446 33.9733 37.8577 34.406 38.058C34.8584 38.2673 35.3038 38.1302 35.5022 37.7318C35.7067 37.3212 35.5348 36.8777 35.0718 36.648C34.6814 36.454 34.2839 36.2735 33.8915 36.0834C33.5203 35.9035 33.3966 35.6281 33.5487 35.3312C33.6944 35.0465 33.974 34.9797 34.3328 35.1478C34.7552 35.3459 35.1706 35.56 35.5991 35.7444C36.172 35.9907 36.7858 35.5571 36.711 34.9718C36.6663 34.6232 36.44 34.4244 36.1429 34.273C34.2181 33.2911 32.2942 32.3076 30.3752 31.3145C30.1985 31.2231 30.0979 31.2423 29.9573 31.3717C29.1419 32.1207 28.3159 32.8578 27.4963 33.6023C27.0972 33.9649 26.6339 34.1848 26.0946 34.1829C25.2114 34.1797 24.5436 33.7799 24.1749 32.9754C23.8007 32.1587 23.9368 31.3829 24.5305 30.7113C25.2434 29.9045 25.9773 29.1165 26.7013 28.3196C26.7784 28.235 26.8502 28.1458 26.9643 28.0119C24.8344 28.0119 22.7767 28.0119 20.6947 28.0119C20.1927 30.7732 19.6904 33.5349 19.1827 36.3262C19.5025 36.3262 19.7965 36.316 20.0889 36.3294C20.3211 36.3399 20.5097 36.2872 20.7001 36.1371C21.0391 35.8693 21.4452 35.7837 21.8766 35.8169C22.4495 35.86 22.8879 36.1447 23.2294 36.5812ZM37.5181 26.9483C37.4095 26.9483 37.3389 26.9483 37.2686 26.9483C35.0754 26.9515 32.8818 26.9588 30.6887 26.9559C29.1681 26.954 29.3856 26.916 28.4472 27.9423C27.3989 29.0887 26.3534 30.2377 25.3137 31.3915C24.9101 31.8395 24.9226 32.4485 25.321 32.8444C25.7252 33.246 26.3131 33.247 26.7752 32.8444C26.9435 32.6977 27.1081 32.5466 27.2739 32.3967C28.4344 31.349 29.594 30.3 30.7564 29.2542C31.0449 28.9948 31.3513 28.9833 31.5648 29.2092C31.7913 29.4488 31.7495 29.7521 31.4485 30.032C31.3018 30.1684 31.1523 30.3013 30.9842 30.4537C31.0986 30.5148 31.1865 30.5627 31.2756 30.6084C33.0796 31.5347 34.883 32.4619 36.6877 33.3866C37.3983 33.7509 37.7485 34.3318 37.753 35.1267C37.7533 35.1734 37.7619 35.22 37.7664 35.2619C38.1964 35.2619 38.6042 35.2619 39.0301 35.2619C38.5246 32.483 38.0242 29.7306 37.5181 26.9483ZM43.6778 31.1113C43.6778 29.629 43.6782 28.1465 43.6778 26.6642C43.6778 26.0779 43.5203 25.9168 42.9423 25.9165C41.6629 25.9156 40.3833 25.9162 39.1039 25.9162C38.4968 25.9162 38.4048 26.028 38.5128 26.6198C39.077 29.7121 39.6426 32.8041 40.2005 35.8977C40.2554 36.2026 40.3986 36.3332 40.7111 36.3284C41.4623 36.3169 42.2138 36.3253 42.9653 36.3246C43.5091 36.3243 43.6775 36.1581 43.6778 35.6191C43.6785 34.1167 43.6778 32.614 43.6778 31.1113ZM14.5391 32.1807C14.5391 33.6934 14.5378 35.2063 14.5397 36.7189C14.5404 37.1688 14.7244 37.3605 15.1583 37.3624C15.9606 37.3656 16.7626 37.3599 17.565 37.3653C17.8241 37.3669 17.9612 37.2448 18.0053 36.9994C18.0589 36.7001 18.112 36.4007 18.1666 36.1013C18.6836 33.2582 19.2019 30.4151 19.7163 27.5713C19.8042 27.086 19.6926 26.9585 19.2057 26.9582C17.8755 26.9569 16.5454 26.9559 15.2149 26.9588C14.7145 26.9598 14.54 27.1393 14.5397 27.6426C14.5381 29.1552 14.5391 30.6681 14.5391 32.1807ZM25.1079 38.1497C25.113 37.7184 24.8635 37.403 24.4982 37.3183C24.1602 37.24 23.7774 37.4024 23.6413 37.7433C23.3032 38.5897 22.9729 39.4409 22.6805 40.3039C22.5179 40.7842 22.9543 41.2877 23.4601 41.2532C23.8196 41.2286 24.0551 41.0283 24.1813 40.6902C24.465 39.931 24.7548 39.1741 25.0389 38.4149C25.0775 38.3117 25.0951 38.2008 25.1079 38.1497ZM27.542 39.0664C27.5423 38.6217 27.2886 38.3069 26.9247 38.229C26.5633 38.1513 26.1971 38.3421 26.047 38.7213C25.745 39.4847 25.4571 40.2538 25.1696 41.0229C24.9862 41.5136 25.1523 41.9447 25.5776 42.1134C26.0169 42.2875 26.4329 42.0757 26.6285 41.568C26.909 40.8398 27.1848 40.1093 27.458 39.3783C27.5037 39.2562 27.5264 39.1259 27.542 39.0664ZM21.6587 36.8697C21.397 36.8767 21.1356 37.0244 21.0119 37.3356C20.7464 38.0047 20.4921 38.6785 20.2566 39.3585C20.1291 39.7269 20.3237 40.1116 20.6701 40.2688C21.0273 40.4311 21.4896 40.3221 21.6449 39.9614C21.9533 39.2457 22.2367 38.5159 22.4709 37.7733C22.6143 37.3196 22.213 36.8787 21.6587 36.8697ZM29.6032 40.9634C29.6084 40.5244 29.3709 40.2218 28.9987 40.1311C28.6491 40.0461 28.2775 40.2209 28.1274 40.5781C27.9312 41.0449 27.7554 41.5203 27.5848 41.9974C27.4241 42.447 27.6075 42.8697 28.0136 43.0279C28.4357 43.1921 28.8581 42.9965 29.0422 42.5358C29.2189 42.0936 29.3815 41.6459 29.5454 41.1989C29.5799 41.105 29.5937 41.004 29.6032 40.9634Z" fill="#FFB648"/>
<path d="M13.5003 27.1812C13.677 26.8917 13.8176 26.5696 14.0397 26.3204C14.3224 26.0028 14.7324 25.9165 15.1532 25.9165C16.5454 25.9162 17.9375 25.9143 19.3297 25.9175C19.9582 25.9191 20.4132 26.2031 20.6921 26.7716C20.7263 26.8409 20.8071 26.9352 20.8675 26.9361C21.5737 26.9476 22.2798 26.9435 23.0476 26.9435C21.2279 24.8886 20.4921 22.5497 20.8963 19.8939C21.1925 17.947 22.1149 16.3146 23.5825 15.0007C26.5572 12.3378 31.0315 12.1988 34.2155 14.6467C37.4296 17.1175 38.599 21.9653 36.0135 25.905C36.4931 25.905 36.9417 25.9104 37.39 25.897C37.4389 25.8954 37.497 25.7919 37.5296 25.7254C37.8012 25.1679 38.2488 24.881 38.8639 24.8778C40.2762 24.871 41.6888 24.8685 43.1014 24.8781C44.0635 24.8848 44.7156 25.5564 44.7163 26.5255C44.7185 29.5939 44.7188 32.6623 44.716 35.7303C44.715 36.6978 44.0552 37.3573 43.0902 37.3621C42.2672 37.3663 41.4441 37.3653 40.621 37.3621C39.9995 37.3599 39.5515 37.072 39.302 36.5061C39.2349 36.3543 39.156 36.3195 39.0071 36.3217C38.4888 36.3291 37.9702 36.3157 37.4526 36.3307C37.3242 36.3345 37.19 36.4016 37.0724 36.4652C36.896 36.5607 36.7318 36.6786 36.6468 36.7969C36.5995 37.2209 36.5995 37.6573 36.4924 38.066C36.3749 38.5149 36.0298 38.8153 35.6185 39.0351C35.5438 39.0751 35.4543 39.1936 35.462 39.2664C35.5834 40.4193 35.3275 40.9254 34.3689 41.4478C34.3689 41.7814 34.4114 42.0977 34.3616 42.3987C34.1644 43.5889 32.9362 44.2382 31.8329 43.7413C31.2414 43.4752 30.6647 43.1764 30.0403 42.8722C29.7905 43.5484 29.2863 43.9334 28.6214 44.127C28.3977 44.127 28.1743 44.127 27.9507 44.127C27.4618 43.9615 27.0167 43.7279 26.7528 43.2601C26.6608 43.0969 26.5802 43.0662 26.3975 43.1208C25.5587 43.3713 24.758 43.0547 24.296 42.3124C24.2602 42.2549 24.2209 42.2 24.1784 42.1367C23.7042 42.3268 23.2377 42.3514 22.7709 42.1696C22.3086 41.9897 21.9791 41.659 21.7619 41.2206C21.6718 41.2488 21.6139 41.2673 21.5561 41.2852C20.4442 41.6252 19.3434 40.9459 19.2022 39.7933C19.1645 39.486 19.244 39.1485 19.3354 38.845C19.483 38.3545 19.685 37.8807 19.8732 37.3752C19.5568 37.3752 19.2853 37.3752 19.0063 37.3752C18.9836 37.4174 18.9561 37.4599 18.9367 37.5059C18.6823 38.1021 18.2302 38.3999 17.5838 38.4015C16.7412 38.4034 15.899 38.4047 15.0564 38.4002C14.509 38.3973 14.0764 38.1606 13.771 37.7113C13.6598 37.5481 13.5901 37.3567 13.5016 37.1781C13.5003 33.8461 13.5003 30.5135 13.5003 27.1812ZM32.1118 25.9162C32.1118 25.9146 32.1118 25.9133 32.1118 25.9117C32.8943 25.9117 33.6768 25.92 34.4587 25.9034C34.5865 25.9005 34.7542 25.8197 34.8319 25.7197C36.1509 24.0122 36.6557 22.0775 36.2739 19.961C35.5457 15.9296 31.7971 13.3149 27.7727 14.0885C24.8149 14.6569 22.8486 16.4734 22.0862 19.3829C21.3283 22.2749 22.1536 24.7761 24.4024 26.7751C24.5168 26.877 24.7047 26.9419 24.8599 26.9447C25.7741 26.962 26.6889 26.9495 27.603 26.962C27.8341 26.9652 28.0018 26.9099 28.1533 26.724C28.6214 26.1498 29.2431 25.906 29.9777 25.9143C30.6893 25.9226 31.4005 25.9162 32.1118 25.9162ZM23.2294 36.5812C24.5328 35.9795 25.1785 36.1457 26.0415 37.3001C26.6528 37.0732 27.2493 37.0947 27.8063 37.4711C28.3616 37.8462 28.5782 38.4066 28.6134 39.0559C29.401 39.0003 30.0036 39.269 30.4078 39.9164C30.812 40.5637 30.6938 41.2321 30.4043 41.8916C31.013 42.1872 31.5766 42.4642 32.1434 42.7352C32.6377 42.9713 33.0892 42.8432 33.2854 42.4185C33.4816 41.9936 33.2969 41.5696 32.8058 41.3296C32.4141 41.1382 32.0185 40.9542 31.6261 40.7634C31.258 40.5842 31.1309 40.3043 31.2779 40.0087C31.4191 39.725 31.7102 39.6537 32.0661 39.8221C32.4604 40.0087 32.8505 40.2036 33.2455 40.3889C33.7311 40.6164 34.1935 40.4797 34.389 40.0569C34.5811 39.6412 34.4028 39.2176 33.9312 38.9862C33.5123 38.7808 33.0892 38.5843 32.6694 38.3801C32.3003 38.2008 32.1757 37.9213 32.3272 37.6251C32.4722 37.3416 32.7588 37.2723 33.1157 37.441C33.5468 37.6446 33.9733 37.8577 34.406 38.058C34.8584 38.2673 35.3038 38.1302 35.5022 37.7318C35.7067 37.3212 35.5348 36.8777 35.0718 36.648C34.6814 36.454 34.2839 36.2735 33.8915 36.0834C33.5203 35.9035 33.3966 35.6281 33.5487 35.3312C33.6944 35.0465 33.974 34.9797 34.3328 35.1478C34.7552 35.3459 35.1706 35.56 35.5991 35.7444C36.172 35.9907 36.7858 35.5571 36.711 34.9718C36.6663 34.6232 36.44 34.4244 36.1429 34.273C34.2181 33.2911 32.2942 32.3076 30.3752 31.3145C30.1985 31.2231 30.0979 31.2423 29.9573 31.3717C29.1419 32.1207 28.3159 32.8578 27.4963 33.6023C27.0972 33.9649 26.6339 34.1848 26.0946 34.1829C25.2114 34.1797 24.5436 33.7799 24.1749 32.9754C23.8007 32.1587 23.9368 31.3829 24.5305 30.7113C25.2434 29.9045 25.9773 29.1165 26.7013 28.3196C26.7784 28.235 26.8502 28.1458 26.9643 28.0119C24.8344 28.0119 22.7767 28.0119 20.6947 28.0119C20.1927 30.7732 19.6904 33.5349 19.1827 36.3262C19.5025 36.3262 19.7965 36.316 20.0889 36.3294C20.3211 36.3399 20.5097 36.2872 20.7001 36.1371C21.0391 35.8693 21.4452 35.7837 21.8766 35.8169C22.4495 35.86 22.8879 36.1447 23.2294 36.5812ZM37.5181 26.9483C37.4095 26.9483 37.3389 26.9483 37.2686 26.9483C35.0754 26.9515 32.8818 26.9588 30.6887 26.9559C29.1681 26.954 29.3856 26.916 28.4472 27.9423C27.3989 29.0887 26.3534 30.2377 25.3137 31.3915C24.9101 31.8395 24.9226 32.4485 25.321 32.8444C25.7252 33.246 26.3131 33.247 26.7752 32.8444C26.9435 32.6977 27.1081 32.5466 27.2739 32.3967C28.4344 31.349 29.594 30.3 30.7564 29.2542C31.0449 28.9948 31.3513 28.9833 31.5648 29.2092C31.7913 29.4488 31.7495 29.7521 31.4485 30.032C31.3018 30.1684 31.1523 30.3013 30.9842 30.4537C31.0986 30.5148 31.1865 30.5627 31.2756 30.6084C33.0796 31.5347 34.883 32.4619 36.6877 33.3866C37.3983 33.7509 37.7485 34.3318 37.753 35.1267C37.7533 35.1734 37.7619 35.22 37.7664 35.2619C38.1964 35.2619 38.6042 35.2619 39.0301 35.2619C38.5246 32.483 38.0242 29.7306 37.5181 26.9483ZM43.6778 31.1113C43.6778 29.629 43.6782 28.1465 43.6778 26.6642C43.6778 26.0779 43.5203 25.9168 42.9423 25.9165C41.6629 25.9156 40.3833 25.9162 39.1039 25.9162C38.4968 25.9162 38.4048 26.028 38.5128 26.6198C39.077 29.7121 39.6426 32.8041 40.2005 35.8977C40.2554 36.2026 40.3986 36.3332 40.7111 36.3284C41.4623 36.3169 42.2138 36.3253 42.9653 36.3246C43.5091 36.3243 43.6775 36.1581 43.6778 35.6191C43.6785 34.1167 43.6778 32.614 43.6778 31.1113ZM14.5391 32.1807C14.5391 33.6934 14.5378 35.2063 14.5397 36.7189C14.5404 37.1688 14.7244 37.3605 15.1583 37.3624C15.9606 37.3656 16.7626 37.3599 17.565 37.3653C17.8241 37.3669 17.9612 37.2448 18.0053 36.9994C18.0589 36.7001 18.112 36.4007 18.1666 36.1013C18.6836 33.2582 19.2019 30.4151 19.7163 27.5713C19.8042 27.086 19.6926 26.9585 19.2057 26.9582C17.8755 26.9569 16.5454 26.9559 15.2149 26.9588C14.7145 26.9598 14.54 27.1393 14.5397 27.6426C14.5381 29.1552 14.5391 30.6681 14.5391 32.1807ZM25.1079 38.1497C25.113 37.7184 24.8635 37.403 24.4982 37.3183C24.1602 37.24 23.7774 37.4024 23.6413 37.7433C23.3032 38.5897 22.9729 39.4409 22.6805 40.3039C22.5179 40.7842 22.9543 41.2877 23.4601 41.2532C23.8196 41.2286 24.0551 41.0283 24.1813 40.6902C24.465 39.931 24.7548 39.1741 25.0389 38.4149C25.0775 38.3117 25.0951 38.2008 25.1079 38.1497ZM27.542 39.0664C27.5423 38.6217 27.2886 38.3069 26.9247 38.229C26.5633 38.1513 26.1971 38.3421 26.047 38.7213C25.745 39.4847 25.4571 40.2538 25.1696 41.0229C24.9862 41.5136 25.1523 41.9447 25.5776 42.1134C26.0169 42.2875 26.4329 42.0757 26.6285 41.568C26.909 40.8398 27.1848 40.1093 27.458 39.3783C27.5037 39.2562 27.5264 39.1259 27.542 39.0664ZM21.6587 36.8697C21.397 36.8767 21.1356 37.0244 21.0119 37.3356C20.7464 38.0047 20.4921 38.6785 20.2566 39.3585C20.1291 39.7269 20.3237 40.1116 20.6701 40.2688C21.0273 40.4311 21.4896 40.3221 21.6449 39.9614C21.9533 39.2457 22.2367 38.5159 22.4709 37.7733C22.6143 37.3196 22.213 36.8787 21.6587 36.8697ZM29.6032 40.9634C29.6084 40.5244 29.3709 40.2218 28.9987 40.1311C28.6491 40.0461 28.2775 40.2209 28.1274 40.5781C27.9312 41.0449 27.7554 41.5203 27.5848 41.9974C27.4241 42.447 27.6075 42.8697 28.0136 43.0279C28.4357 43.1921 28.8581 42.9965 29.0422 42.5358C29.2189 42.0936 29.3815 41.6459 29.5454 41.1989C29.5799 41.105 29.5937 41.004 29.6032 40.9634Z" stroke="#FFAC32" stroke-width="0.4" mask="url(#path-2-outside-1_69_977)"/>
<path d="M27.4513 21.6129C28.1105 20.8815 28.7211 20.2048 29.331 19.5277C29.9087 18.8864 30.4791 18.2388 31.0651 17.6051C31.5111 17.1227 32.068 16.9552 32.6988 17.1556C33.3155 17.3511 33.6759 17.7946 33.7737 18.433C33.8532 18.951 33.6621 19.3855 33.3177 19.767C31.9978 21.2292 30.6807 22.6938 29.3623 24.1573C29.138 24.4062 28.9201 24.6615 28.6866 24.9011C28.0494 25.5552 27.1142 25.5798 26.4534 24.9474C25.9179 24.4349 25.3942 23.9099 24.8804 23.3757C24.2743 22.745 24.273 21.8075 24.8587 21.2062C25.4476 20.6016 26.4183 20.5741 27.0602 21.1547C27.2021 21.2825 27.3113 21.4464 27.4513 21.6129ZM32.7582 18.7053C32.7301 18.4004 32.6195 18.2215 32.3757 18.1467C32.0981 18.0614 31.9156 18.21 31.7437 18.4014C30.4957 19.7913 29.2454 21.179 27.9951 22.5667C27.6602 22.9383 27.3973 22.9469 27.0442 22.5993C26.8343 22.3929 26.6295 22.181 26.4186 21.9759C26.1412 21.7059 25.8422 21.6842 25.6153 21.9117C25.3849 22.143 25.4067 22.4302 25.6866 22.7127C26.1579 23.1888 26.632 23.6623 27.1084 24.1336C27.4219 24.4439 27.7002 24.4448 27.9951 24.1189C29.5199 22.4318 31.0411 20.7419 32.5582 19.0481C32.655 18.9398 32.708 18.7928 32.7582 18.7053Z" fill="#FFB648"/>
</svg>
