<svg width="58" height="57" viewBox="0 0 58 57" fill="none" xmlns="http://www.w3.org/2000/svg">
<ellipse opacity="0.1" cx="29.1598" cy="28.5149" rx="28.5098" ry="28.2901" fill="#5F2EEA"/>
<path d="M14.5996 38.7949C14.8348 38.3109 15.2247 38.1373 15.7533 38.1702C16.2133 38.1991 16.677 38.1762 17.1711 38.1762C17.1711 38.0279 17.1711 37.9077 17.1711 37.7875C17.1711 33.9012 17.1711 30.0145 17.1711 26.1282C17.1711 25.3348 17.474 25.0354 18.2759 25.0354C19.6885 25.0354 21.1006 25.0354 22.5132 25.0354C23.3115 25.0354 23.6024 25.3292 23.6024 26.1363C23.6024 30.0133 23.6024 33.8904 23.6024 37.7671C23.6024 37.8889 23.6024 38.0107 23.6024 38.1542C24.3854 38.1542 25.146 38.1542 25.9435 38.1542C25.9435 38.0195 25.9435 37.8901 25.9435 37.7611C25.9435 33.0877 25.9435 28.4144 25.9435 23.7415C25.9435 23.6373 25.9403 23.5327 25.9459 23.4289C25.9735 22.912 26.2945 22.5713 26.8143 22.5677C28.3783 22.5565 29.9424 22.5565 31.5064 22.5677C32.0274 22.5713 32.346 22.9092 32.3748 23.4289C32.3804 23.5327 32.3772 23.6373 32.3772 23.7415C32.3772 28.4052 32.3772 33.0689 32.3772 37.7326C32.3772 37.8648 32.3772 37.9971 32.3772 38.153C33.155 38.153 33.9168 38.153 34.7183 38.153C34.7183 38.0356 34.7183 37.9157 34.7183 37.7959C34.7183 34.2034 34.7183 30.6108 34.7183 27.0183C34.7183 26.236 35.0148 25.9415 35.8003 25.9415C37.2505 25.9411 38.7007 25.9407 40.1514 25.9419C40.8118 25.9423 41.1488 26.2777 41.1488 26.9405C41.15 30.5519 41.1496 34.1637 41.1496 37.7751C41.1496 37.8965 41.1496 38.0183 41.1496 38.177C41.6329 38.177 42.0937 38.177 42.5546 38.177C42.6684 38.177 42.7826 38.1714 42.8956 38.1794C43.3757 38.2127 43.7351 38.599 43.7195 39.0602C43.7043 39.5183 43.3476 39.8633 42.8692 39.8813C42.7838 39.8845 42.6984 39.8829 42.6131 39.8829C33.6459 39.8829 24.6784 39.8801 15.7112 39.8905C15.1862 39.8909 14.814 39.7347 14.5996 39.2498C14.5996 39.0983 14.5996 38.9464 14.5996 38.7949ZM30.6461 38.1646C30.6461 33.5253 30.6461 28.9153 30.6461 24.2901C29.6486 24.2901 28.6692 24.2901 27.6794 24.2901C27.6794 28.9237 27.6794 33.5394 27.6794 38.1646C28.6749 38.1646 29.6478 38.1646 30.6461 38.1646ZM18.9006 26.7538C18.9006 30.5675 18.9006 34.3605 18.9006 38.1598C19.9013 38.1598 20.8822 38.1598 21.872 38.1598C21.872 34.3512 21.872 30.5587 21.872 26.7538C20.8798 26.7538 19.9069 26.7538 18.9006 26.7538ZM39.4144 38.1662C39.4144 34.6438 39.4144 31.1538 39.4144 27.669C38.409 27.669 37.4276 27.669 36.4514 27.669C36.4514 31.1795 36.4514 34.6702 36.4514 38.1662C37.4489 38.1662 38.4234 38.1662 39.4144 38.1662Z" fill="#5F2EEA"/>
<path d="M40.0392 20.6314C39.7759 20.5677 39.5683 20.52 39.362 20.4675C38.8166 20.3276 38.5292 19.884 38.6599 19.3875C38.7817 18.9251 39.2389 18.6818 39.7639 18.808C40.6379 19.0184 41.5115 19.2296 42.3835 19.4476C42.9301 19.5843 43.1801 19.9894 43.0651 20.536C42.882 21.4064 42.6992 22.2772 42.5105 23.1464C42.3983 23.6637 42.0761 23.9274 41.6012 23.9057C41.1228 23.8841 40.7777 23.5291 40.8122 23.0502C40.8342 22.742 40.914 22.4383 40.9741 22.0956C40.8799 22.1469 40.8086 22.1818 40.7413 22.2231C39.9751 22.6939 39.2053 23.1596 38.4451 23.6401C38.0588 23.8841 37.6977 23.8841 37.3006 23.6569C34.6141 22.1189 31.9216 20.5913 29.2339 19.0549C29.0696 18.9611 28.9434 18.9515 28.7666 19.0353C26.1058 20.2923 23.4393 21.5374 20.7777 22.7933C20.3966 22.9732 20.064 22.9504 19.7081 22.7252C18.316 21.8444 16.9154 20.9764 15.5165 20.106C15.2091 19.9149 15.0364 19.648 15.0612 19.2825C15.0845 18.9415 15.2688 18.6966 15.5802 18.5604C15.8968 18.4221 16.1861 18.5075 16.4674 18.6838C17.6864 19.4492 18.9106 20.2058 20.1269 20.976C20.2928 21.081 20.4178 21.0794 20.5897 20.998C23.2257 19.7546 25.8673 18.5235 28.5005 17.2748C28.9005 17.0853 29.2451 17.0921 29.6266 17.3105C32.2798 18.8305 34.9403 20.3376 37.5931 21.8584C37.7859 21.969 37.9173 21.9702 38.1017 21.85C38.6491 21.4937 39.2109 21.1595 39.7663 20.8153C39.8432 20.768 39.9166 20.7143 40.0392 20.6314Z" fill="#5F2EEA"/>
</svg>
