<svg width="30" height="21" viewBox="0 0 30 21" fill="none" xmlns="http://www.w3.org/2000/svg">
<path d="M29.9266 7.77342C26.5242 7.77125 23.1226 7.76907 19.7203 7.76762C19.6739 7.76762 19.6276 7.77559 19.55 7.78356C19.55 9.23477 19.55 10.6744 19.55 12.0807C17.5975 10.1462 15.6449 8.21248 13.7083 6.29396C15.6398 4.37327 17.5909 2.43446 19.5377 0.5C19.5377 1.88455 19.5377 3.32779 19.5377 4.8029C19.708 4.8029 19.8311 4.8029 19.9543 4.8029C23.1538 4.8029 26.354 4.8029 29.5534 4.80363C29.678 4.80363 29.8027 4.81594 29.9273 4.82247C29.9266 5.80636 29.9266 6.78953 29.9266 7.77342Z" fill="#2E446E"/>
<path d="M10.6957 16.6487C7.20862 16.6487 3.77876 16.6487 0.328613 16.6487C0.328613 15.659 0.328613 14.6904 0.328613 13.684C3.77079 13.684 7.21442 13.684 10.6914 13.684C10.6914 12.2074 10.6914 10.7678 10.6914 9.34778C12.6526 11.2902 14.6067 13.2261 16.5513 15.1519C14.6001 17.0914 12.649 19.0317 10.6957 20.9734C10.6957 19.5671 10.6957 18.1267 10.6957 16.6487Z" fill="#2E446E"/>
</svg>
