<svg width="26" height="29" viewBox="0 0 26 29" fill="none" xmlns="http://www.w3.org/2000/svg">
<path d="M16.9489 0.9L16.9654 0.906006C17.0007 0.918829 17.0347 0.931631 17.0681 0.944184C17.1367 0.970027 17.2025 0.994813 17.2712 1.01656L17.2713 1.01658C17.9326 1.22627 18.3132 1.88389 18.1231 2.55802L18.1231 2.55802C18.0043 2.97949 17.8557 3.39243 17.7032 3.7992C17.5796 4.12934 17.3613 4.37581 17.0837 4.51618C16.8063 4.65644 16.4763 4.68745 16.1344 4.5989C15.4543 4.42277 15.0522 3.82054 15.1668 3.1209C15.1988 2.92586 15.2381 2.73249 15.2777 2.54109C15.2814 2.5231 15.2851 2.50513 15.2888 2.48719C15.3248 2.31355 15.3604 2.14155 15.391 1.96878L16.9489 0.9ZM16.9489 0.9H16.9313M16.9489 0.9H16.9313M16.9313 0.9H16.9301H16.929H16.9268H16.9223H16.9133H16.8952H16.8772H16.8592H16.8412H16.8322H16.8232H16.8142H16.8052H16.7872H16.7691H16.7511H16.7466H16.7421H16.7376H16.7354H16.7342H16.7331H16.7151H16.6971H16.6791H16.6611H16.6566H16.6543H16.6532H16.6521H16.6431H16.3551H16.3343M16.9313 0.9H16.3343M16.3343 0.9L16.3152 0.908283M16.3343 0.9L16.3152 0.908283M16.3152 0.908283C15.8542 1.10861 15.4888 1.41695 15.3911 1.96876L16.3152 0.908283ZM16.6781 1.89293L16.6781 1.89293C16.6055 1.88549 16.5445 1.90245 16.4978 1.93689C16.451 1.97137 16.4111 2.02891 16.3914 2.11565L16.3914 2.11566C16.3337 2.36881 16.2842 2.62268 16.2344 2.87838C16.2112 2.99739 16.188 3.11681 16.1638 3.23673L16.6781 1.89293ZM16.6781 1.89293C16.935 1.91924 17.0593 1.98398 17.1125 2.06684C17.1657 2.14955 17.1727 2.28889 17.0891 2.53247L17.0891 2.53248M16.6781 1.89293L17.0891 2.53248M17.0891 2.53248C17.063 2.60858 17.0371 2.68455 17.0113 2.76039C16.9364 2.98031 16.8619 3.19911 16.7829 3.41665L17.0891 2.53248ZM16.3705 3.62626C16.4907 3.66013 16.5719 3.6534 16.6293 3.62447L16.3705 3.62626ZM16.3705 3.62626C16.273 3.59876 16.2156 3.55207 16.1846 3.49548M16.3705 3.62626L16.1846 3.49548M16.1846 3.49548C16.1526 3.43728 16.1403 3.35337 16.1637 3.23676L16.1846 3.49548Z" fill="#2F4871" stroke="#2F4871" stroke-width="0.2"/>
<mask id="path-2-outside-1_312_237" maskUnits="userSpaceOnUse" x="0" y="0.0368042" width="26" height="28" fill="black">
<rect fill="white" y="0.0368042" width="26" height="28"/>
<path d="M9.60114 17.5107C9.06185 17.5107 8.54892 17.5169 8.03626 17.509C7.46142 17.5002 6.88274 17.5136 6.31353 17.4486C6.00525 17.4135 5.70685 17.2495 5.4171 17.1154C5.28766 17.0554 5.20586 17.0402 5.06435 17.0992C4.82867 17.1975 4.56939 17.2778 4.3167 17.2888C3.70659 17.3153 3.09455 17.299 2.48334 17.297C1.59611 17.2943 1.00274 16.7039 1.00233 15.8233C1.0015 14.1025 1.00109 12.3817 1.00288 10.6609C1.00329 10.307 1.28151 10.1019 1.56728 10.2415C1.75985 10.3355 1.79019 10.5065 1.78964 10.7036C1.7858 12.3632 1.78731 14.0229 1.78758 15.6824C1.78772 16.2934 1.99127 16.4962 2.60619 16.497C3.15632 16.4978 3.70645 16.5007 4.25658 16.4959C4.76553 16.4915 4.98446 16.2651 4.9846 15.7517C4.98528 13.175 4.98529 10.5983 4.98446 8.0215C4.98432 7.52008 4.75057 7.2901 4.2445 7.28928C3.65951 7.28818 3.07438 7.28708 2.48938 7.28969C2.03972 7.29161 1.79458 7.5345 1.7884 7.98456C1.78387 8.31642 1.79005 8.64841 1.78648 8.98026C1.7836 9.25294 1.61519 9.43623 1.38363 9.42827C1.1599 9.42058 1.00548 9.24525 1.00301 8.9841C0.999445 8.60859 0.998621 8.23294 1.00288 7.85729C1.01139 7.11848 1.61052 6.5134 2.35446 6.50379C3.04418 6.495 3.73459 6.48649 4.42362 6.50956C4.67536 6.51793 4.92421 6.61747 5.19666 6.68063C5.20133 6.67212 5.22878 6.62859 5.24992 6.58219C5.5254 5.97574 5.95035 5.50246 6.51997 5.15949C7.20667 4.74608 7.70712 4.17011 8.0401 3.44283C8.2287 3.03107 8.4188 2.61972 8.61961 2.21373C9.03591 1.37236 9.85878 0.943298 10.8249 1.05396C11.6334 1.1465 12.3319 1.78687 12.5419 2.64101C12.6606 3.12375 12.6041 3.59277 12.3923 4.04311C12.0586 4.75267 11.7255 5.46251 11.393 6.17262C11.3535 6.25706 11.3203 6.34425 11.2729 6.45656C12.2778 6.45656 13.254 6.45258 14.23 6.45779C14.9823 6.46191 15.6113 6.91418 15.8449 7.60713C16.0111 8.10017 15.9493 8.56891 15.688 9.01458C15.6485 9.082 15.6054 9.14749 15.5647 9.21436C15.5606 9.22108 15.5628 9.23152 15.5614 9.24964C16.2757 9.75408 16.5605 10.4244 16.2856 11.3292C16.4079 11.3292 16.5073 11.3292 16.6067 11.3292C18.5189 11.3292 20.4314 11.327 22.3436 11.3301C23.3002 11.3318 24.0087 11.9804 24.0819 12.93C24.1151 13.362 23.9678 13.7507 23.7032 14.0912C24.7538 14.8405 24.7109 15.9463 24.1604 16.6719C24.6776 17.0241 25.0007 17.4939 25 18.1435C24.9992 18.7855 24.6824 19.2486 24.1472 19.6085C24.4426 19.9849 24.5763 20.4044 24.5318 20.877C24.4868 21.3568 24.2647 21.7377 23.8937 22.0333C23.6918 22.1942 23.4553 22.1723 23.3092 21.9972C23.1625 21.8213 23.1841 21.5952 23.3863 21.4208C23.6933 21.1561 23.8269 20.8398 23.7011 20.4438C23.5718 20.037 23.2686 19.8538 22.8581 19.8151C22.6085 19.7915 22.4687 19.6365 22.4762 19.408C22.4836 19.1831 22.6397 19.0407 22.8891 19.0307C23.0804 19.023 23.2764 19.0381 23.4623 19.0017C23.9264 18.911 24.2411 18.5168 24.2114 18.0971C24.1791 17.636 23.8175 17.2876 23.3305 17.2547C23.1913 17.2454 23.0512 17.2538 22.9115 17.2505C22.6372 17.244 22.4813 17.1072 22.4758 16.871C22.4703 16.6361 22.6182 16.4896 22.8879 16.4624C23.5311 16.3977 23.918 15.8152 23.6826 15.2505C23.5293 14.8826 23.2332 14.708 22.8404 14.6927C22.6834 14.6867 22.5252 14.6971 22.3693 14.6824C22.1464 14.6614 22.0229 14.528 22.0161 14.3036C22.0094 14.076 22.1408 13.9502 22.3516 13.9016C22.4526 13.8783 22.5605 13.8814 22.6589 13.8516C23.0829 13.7234 23.3138 13.3653 23.2759 12.9088C23.2441 12.5246 22.9354 12.2078 22.5304 12.1489C22.4359 12.1351 22.3392 12.13 22.2436 12.13C20.1129 12.1291 17.9824 12.1291 15.8517 12.1299C15.7592 12.1299 15.6669 12.1394 15.564 12.1449C16.1294 13.4595 16.0335 13.9877 15.1605 14.6916C15.267 15.0684 15.4234 15.4149 15.4534 15.7722C15.5116 16.4634 15.177 16.9797 14.5762 17.3135C14.4426 17.3878 14.393 17.4659 14.3938 17.6165C14.3995 18.7258 14.3982 19.8352 14.3969 20.9444C14.396 21.8502 14.7848 22.5411 15.5538 23.0097C16.3857 23.5166 16.9865 24.2202 17.3931 25.0988C17.5651 25.4703 17.736 25.8424 17.9147 26.2108C18.2641 26.9312 19.0051 27.2146 19.6825 26.8918C20.3404 26.5782 20.5928 25.817 20.2642 25.1083C19.8318 24.1757 19.3908 23.2472 18.9549 22.3163C18.7395 21.8565 18.907 21.5963 19.4178 21.5959C20.2736 21.5951 21.1293 21.5948 21.9851 21.5962C22.2948 21.5967 22.4728 21.7359 22.4802 21.9762C22.4879 22.2258 22.2989 22.383 21.9829 22.3836C21.2938 22.3849 20.6044 22.384 19.8786 22.384C19.926 22.4937 19.9604 22.5795 19.9994 22.663C20.3242 23.3574 20.6518 24.0505 20.9745 24.7459C21.6228 26.1427 20.8643 27.5688 19.3483 27.808C18.5457 27.9346 17.649 27.4553 17.2516 26.6727C17.0467 26.2689 16.8583 25.8564 16.6712 25.444C16.3334 24.6993 15.8273 24.107 15.1233 23.6839C14.5135 23.3173 14.076 22.7978 13.8102 22.1511C12.7907 22.5129 11.7506 22.3675 10.7269 22.3118C10.0792 22.2765 9.60567 21.6162 9.60224 20.908C9.59716 19.8773 9.60087 18.8466 9.60087 17.8159C9.60114 17.7232 9.60114 17.6297 9.60114 17.5107ZM10.2589 16.7249C11.4028 16.7249 12.5468 16.7264 13.6908 16.7242C14.1436 16.7233 14.4713 16.5196 14.6131 16.1628C14.8396 15.5926 14.4712 15.0299 13.8161 14.9461C13.5374 14.9104 13.3944 14.7703 13.4014 14.5398C13.4087 14.3023 13.5794 14.1613 13.867 14.1574C14.0067 14.1556 14.1469 14.163 14.286 14.1548C14.7209 14.129 15.0486 13.8289 15.1262 13.3925C15.1932 13.0159 14.9715 12.6149 14.5993 12.466C14.4801 12.4184 14.3475 12.4019 14.2196 12.379C13.9959 12.339 13.8435 12.1747 13.8527 11.9743C13.862 11.77 14.0252 11.6071 14.2471 11.5924C14.3775 11.5837 14.5089 11.5902 14.6399 11.5895C15.1914 11.5865 15.5813 11.2313 15.5899 10.7244C15.5981 10.2344 15.2236 9.85774 14.6922 9.82575C14.5268 9.81586 14.3602 9.82369 14.1953 9.80886C13.9907 9.79046 13.8818 9.65001 13.8598 9.46314C13.8373 9.27092 13.9367 9.12593 14.1201 9.05495C14.1831 9.03065 14.2557 9.02873 14.3243 9.02186C14.8783 8.96735 15.2404 8.45427 15.1029 7.91701C14.9952 7.49674 14.6656 7.26511 14.1537 7.26374C13.036 7.26072 11.9182 7.26525 10.8005 7.26141C10.2885 7.25962 10.1255 6.99615 10.3427 6.53111C10.7779 5.59981 11.2135 4.66864 11.6536 3.73968C11.789 3.45368 11.8439 3.15931 11.7733 2.85053C11.6503 2.31341 11.2094 1.90357 10.6981 1.83877C10.1333 1.76723 9.61102 2.03098 9.35037 2.54325C9.14105 2.9546 8.95342 3.37707 8.75755 3.79528C8.37049 4.62183 7.815 5.30668 7.02769 5.77775C6.14882 6.30361 5.76477 7.07372 5.76944 8.08562C5.78097 10.6188 5.77383 13.152 5.77191 15.6853C5.77177 15.8591 5.73993 16.0335 5.74885 16.2063C5.75324 16.291 5.79415 16.4093 5.85811 16.4498C6.18328 16.6553 6.54975 16.7255 6.93174 16.7252C8.04079 16.7245 9.14983 16.7249 10.2589 16.7249ZM10.4144 17.5232C10.4144 18.6969 10.4062 19.8398 10.4192 20.9824C10.4233 21.3391 10.6716 21.5478 11.0377 21.5507C11.6571 21.5557 12.2767 21.554 12.8962 21.5519C13.3668 21.5503 13.5837 21.3346 13.5848 20.8633C13.587 19.8159 13.5859 18.7685 13.5846 17.7212C13.5845 17.6553 13.5717 17.5892 13.5647 17.523C12.5105 17.5232 11.4753 17.5232 10.4144 17.5232Z"/>
</mask>
<path d="M9.60114 17.5107C9.06185 17.5107 8.54892 17.5169 8.03626 17.509C7.46142 17.5002 6.88274 17.5136 6.31353 17.4486C6.00525 17.4135 5.70685 17.2495 5.4171 17.1154C5.28766 17.0554 5.20586 17.0402 5.06435 17.0992C4.82867 17.1975 4.56939 17.2778 4.3167 17.2888C3.70659 17.3153 3.09455 17.299 2.48334 17.297C1.59611 17.2943 1.00274 16.7039 1.00233 15.8233C1.0015 14.1025 1.00109 12.3817 1.00288 10.6609C1.00329 10.307 1.28151 10.1019 1.56728 10.2415C1.75985 10.3355 1.79019 10.5065 1.78964 10.7036C1.7858 12.3632 1.78731 14.0229 1.78758 15.6824C1.78772 16.2934 1.99127 16.4962 2.60619 16.497C3.15632 16.4978 3.70645 16.5007 4.25658 16.4959C4.76553 16.4915 4.98446 16.2651 4.9846 15.7517C4.98528 13.175 4.98529 10.5983 4.98446 8.0215C4.98432 7.52008 4.75057 7.2901 4.2445 7.28928C3.65951 7.28818 3.07438 7.28708 2.48938 7.28969C2.03972 7.29161 1.79458 7.5345 1.7884 7.98456C1.78387 8.31642 1.79005 8.64841 1.78648 8.98026C1.7836 9.25294 1.61519 9.43623 1.38363 9.42827C1.1599 9.42058 1.00548 9.24525 1.00301 8.9841C0.999445 8.60859 0.998621 8.23294 1.00288 7.85729C1.01139 7.11848 1.61052 6.5134 2.35446 6.50379C3.04418 6.495 3.73459 6.48649 4.42362 6.50956C4.67536 6.51793 4.92421 6.61747 5.19666 6.68063C5.20133 6.67212 5.22878 6.62859 5.24992 6.58219C5.5254 5.97574 5.95035 5.50246 6.51997 5.15949C7.20667 4.74608 7.70712 4.17011 8.0401 3.44283C8.2287 3.03107 8.4188 2.61972 8.61961 2.21373C9.03591 1.37236 9.85878 0.943298 10.8249 1.05396C11.6334 1.1465 12.3319 1.78687 12.5419 2.64101C12.6606 3.12375 12.6041 3.59277 12.3923 4.04311C12.0586 4.75267 11.7255 5.46251 11.393 6.17262C11.3535 6.25706 11.3203 6.34425 11.2729 6.45656C12.2778 6.45656 13.254 6.45258 14.23 6.45779C14.9823 6.46191 15.6113 6.91418 15.8449 7.60713C16.0111 8.10017 15.9493 8.56891 15.688 9.01458C15.6485 9.082 15.6054 9.14749 15.5647 9.21436C15.5606 9.22108 15.5628 9.23152 15.5614 9.24964C16.2757 9.75408 16.5605 10.4244 16.2856 11.3292C16.4079 11.3292 16.5073 11.3292 16.6067 11.3292C18.5189 11.3292 20.4314 11.327 22.3436 11.3301C23.3002 11.3318 24.0087 11.9804 24.0819 12.93C24.1151 13.362 23.9678 13.7507 23.7032 14.0912C24.7538 14.8405 24.7109 15.9463 24.1604 16.6719C24.6776 17.0241 25.0007 17.4939 25 18.1435C24.9992 18.7855 24.6824 19.2486 24.1472 19.6085C24.4426 19.9849 24.5763 20.4044 24.5318 20.877C24.4868 21.3568 24.2647 21.7377 23.8937 22.0333C23.6918 22.1942 23.4553 22.1723 23.3092 21.9972C23.1625 21.8213 23.1841 21.5952 23.3863 21.4208C23.6933 21.1561 23.8269 20.8398 23.7011 20.4438C23.5718 20.037 23.2686 19.8538 22.8581 19.8151C22.6085 19.7915 22.4687 19.6365 22.4762 19.408C22.4836 19.1831 22.6397 19.0407 22.8891 19.0307C23.0804 19.023 23.2764 19.0381 23.4623 19.0017C23.9264 18.911 24.2411 18.5168 24.2114 18.0971C24.1791 17.636 23.8175 17.2876 23.3305 17.2547C23.1913 17.2454 23.0512 17.2538 22.9115 17.2505C22.6372 17.244 22.4813 17.1072 22.4758 16.871C22.4703 16.6361 22.6182 16.4896 22.8879 16.4624C23.5311 16.3977 23.918 15.8152 23.6826 15.2505C23.5293 14.8826 23.2332 14.708 22.8404 14.6927C22.6834 14.6867 22.5252 14.6971 22.3693 14.6824C22.1464 14.6614 22.0229 14.528 22.0161 14.3036C22.0094 14.076 22.1408 13.9502 22.3516 13.9016C22.4526 13.8783 22.5605 13.8814 22.6589 13.8516C23.0829 13.7234 23.3138 13.3653 23.2759 12.9088C23.2441 12.5246 22.9354 12.2078 22.5304 12.1489C22.4359 12.1351 22.3392 12.13 22.2436 12.13C20.1129 12.1291 17.9824 12.1291 15.8517 12.1299C15.7592 12.1299 15.6669 12.1394 15.564 12.1449C16.1294 13.4595 16.0335 13.9877 15.1605 14.6916C15.267 15.0684 15.4234 15.4149 15.4534 15.7722C15.5116 16.4634 15.177 16.9797 14.5762 17.3135C14.4426 17.3878 14.393 17.4659 14.3938 17.6165C14.3995 18.7258 14.3982 19.8352 14.3969 20.9444C14.396 21.8502 14.7848 22.5411 15.5538 23.0097C16.3857 23.5166 16.9865 24.2202 17.3931 25.0988C17.5651 25.4703 17.736 25.8424 17.9147 26.2108C18.2641 26.9312 19.0051 27.2146 19.6825 26.8918C20.3404 26.5782 20.5928 25.817 20.2642 25.1083C19.8318 24.1757 19.3908 23.2472 18.9549 22.3163C18.7395 21.8565 18.907 21.5963 19.4178 21.5959C20.2736 21.5951 21.1293 21.5948 21.9851 21.5962C22.2948 21.5967 22.4728 21.7359 22.4802 21.9762C22.4879 22.2258 22.2989 22.383 21.9829 22.3836C21.2938 22.3849 20.6044 22.384 19.8786 22.384C19.926 22.4937 19.9604 22.5795 19.9994 22.663C20.3242 23.3574 20.6518 24.0505 20.9745 24.7459C21.6228 26.1427 20.8643 27.5688 19.3483 27.808C18.5457 27.9346 17.649 27.4553 17.2516 26.6727C17.0467 26.2689 16.8583 25.8564 16.6712 25.444C16.3334 24.6993 15.8273 24.107 15.1233 23.6839C14.5135 23.3173 14.076 22.7978 13.8102 22.1511C12.7907 22.5129 11.7506 22.3675 10.7269 22.3118C10.0792 22.2765 9.60567 21.6162 9.60224 20.908C9.59716 19.8773 9.60087 18.8466 9.60087 17.8159C9.60114 17.7232 9.60114 17.6297 9.60114 17.5107ZM10.2589 16.7249C11.4028 16.7249 12.5468 16.7264 13.6908 16.7242C14.1436 16.7233 14.4713 16.5196 14.6131 16.1628C14.8396 15.5926 14.4712 15.0299 13.8161 14.9461C13.5374 14.9104 13.3944 14.7703 13.4014 14.5398C13.4087 14.3023 13.5794 14.1613 13.867 14.1574C14.0067 14.1556 14.1469 14.163 14.286 14.1548C14.7209 14.129 15.0486 13.8289 15.1262 13.3925C15.1932 13.0159 14.9715 12.6149 14.5993 12.466C14.4801 12.4184 14.3475 12.4019 14.2196 12.379C13.9959 12.339 13.8435 12.1747 13.8527 11.9743C13.862 11.77 14.0252 11.6071 14.2471 11.5924C14.3775 11.5837 14.5089 11.5902 14.6399 11.5895C15.1914 11.5865 15.5813 11.2313 15.5899 10.7244C15.5981 10.2344 15.2236 9.85774 14.6922 9.82575C14.5268 9.81586 14.3602 9.82369 14.1953 9.80886C13.9907 9.79046 13.8818 9.65001 13.8598 9.46314C13.8373 9.27092 13.9367 9.12593 14.1201 9.05495C14.1831 9.03065 14.2557 9.02873 14.3243 9.02186C14.8783 8.96735 15.2404 8.45427 15.1029 7.91701C14.9952 7.49674 14.6656 7.26511 14.1537 7.26374C13.036 7.26072 11.9182 7.26525 10.8005 7.26141C10.2885 7.25962 10.1255 6.99615 10.3427 6.53111C10.7779 5.59981 11.2135 4.66864 11.6536 3.73968C11.789 3.45368 11.8439 3.15931 11.7733 2.85053C11.6503 2.31341 11.2094 1.90357 10.6981 1.83877C10.1333 1.76723 9.61102 2.03098 9.35037 2.54325C9.14105 2.9546 8.95342 3.37707 8.75755 3.79528C8.37049 4.62183 7.815 5.30668 7.02769 5.77775C6.14882 6.30361 5.76477 7.07372 5.76944 8.08562C5.78097 10.6188 5.77383 13.152 5.77191 15.6853C5.77177 15.8591 5.73993 16.0335 5.74885 16.2063C5.75324 16.291 5.79415 16.4093 5.85811 16.4498C6.18328 16.6553 6.54975 16.7255 6.93174 16.7252C8.04079 16.7245 9.14983 16.7249 10.2589 16.7249ZM10.4144 17.5232C10.4144 18.6969 10.4062 19.8398 10.4192 20.9824C10.4233 21.3391 10.6716 21.5478 11.0377 21.5507C11.6571 21.5557 12.2767 21.554 12.8962 21.5519C13.3668 21.5503 13.5837 21.3346 13.5848 20.8633C13.587 19.8159 13.5859 18.7685 13.5846 17.7212C13.5845 17.6553 13.5717 17.5892 13.5647 17.523C12.5105 17.5232 11.4753 17.5232 10.4144 17.5232Z" fill="#2F4871"/>
<path d="M9.60114 17.5107C9.06185 17.5107 8.54892 17.5169 8.03626 17.509C7.46142 17.5002 6.88274 17.5136 6.31353 17.4486C6.00525 17.4135 5.70685 17.2495 5.4171 17.1154C5.28766 17.0554 5.20586 17.0402 5.06435 17.0992C4.82867 17.1975 4.56939 17.2778 4.3167 17.2888C3.70659 17.3153 3.09455 17.299 2.48334 17.297C1.59611 17.2943 1.00274 16.7039 1.00233 15.8233C1.0015 14.1025 1.00109 12.3817 1.00288 10.6609C1.00329 10.307 1.28151 10.1019 1.56728 10.2415C1.75985 10.3355 1.79019 10.5065 1.78964 10.7036C1.7858 12.3632 1.78731 14.0229 1.78758 15.6824C1.78772 16.2934 1.99127 16.4962 2.60619 16.497C3.15632 16.4978 3.70645 16.5007 4.25658 16.4959C4.76553 16.4915 4.98446 16.2651 4.9846 15.7517C4.98528 13.175 4.98529 10.5983 4.98446 8.0215C4.98432 7.52008 4.75057 7.2901 4.2445 7.28928C3.65951 7.28818 3.07438 7.28708 2.48938 7.28969C2.03972 7.29161 1.79458 7.5345 1.7884 7.98456C1.78387 8.31642 1.79005 8.64841 1.78648 8.98026C1.7836 9.25294 1.61519 9.43623 1.38363 9.42827C1.1599 9.42058 1.00548 9.24525 1.00301 8.9841C0.999445 8.60859 0.998621 8.23294 1.00288 7.85729C1.01139 7.11848 1.61052 6.5134 2.35446 6.50379C3.04418 6.495 3.73459 6.48649 4.42362 6.50956C4.67536 6.51793 4.92421 6.61747 5.19666 6.68063C5.20133 6.67212 5.22878 6.62859 5.24992 6.58219C5.5254 5.97574 5.95035 5.50246 6.51997 5.15949C7.20667 4.74608 7.70712 4.17011 8.0401 3.44283C8.2287 3.03107 8.4188 2.61972 8.61961 2.21373C9.03591 1.37236 9.85878 0.943298 10.8249 1.05396C11.6334 1.1465 12.3319 1.78687 12.5419 2.64101C12.6606 3.12375 12.6041 3.59277 12.3923 4.04311C12.0586 4.75267 11.7255 5.46251 11.393 6.17262C11.3535 6.25706 11.3203 6.34425 11.2729 6.45656C12.2778 6.45656 13.254 6.45258 14.23 6.45779C14.9823 6.46191 15.6113 6.91418 15.8449 7.60713C16.0111 8.10017 15.9493 8.56891 15.688 9.01458C15.6485 9.082 15.6054 9.14749 15.5647 9.21436C15.5606 9.22108 15.5628 9.23152 15.5614 9.24964C16.2757 9.75408 16.5605 10.4244 16.2856 11.3292C16.4079 11.3292 16.5073 11.3292 16.6067 11.3292C18.5189 11.3292 20.4314 11.327 22.3436 11.3301C23.3002 11.3318 24.0087 11.9804 24.0819 12.93C24.1151 13.362 23.9678 13.7507 23.7032 14.0912C24.7538 14.8405 24.7109 15.9463 24.1604 16.6719C24.6776 17.0241 25.0007 17.4939 25 18.1435C24.9992 18.7855 24.6824 19.2486 24.1472 19.6085C24.4426 19.9849 24.5763 20.4044 24.5318 20.877C24.4868 21.3568 24.2647 21.7377 23.8937 22.0333C23.6918 22.1942 23.4553 22.1723 23.3092 21.9972C23.1625 21.8213 23.1841 21.5952 23.3863 21.4208C23.6933 21.1561 23.8269 20.8398 23.7011 20.4438C23.5718 20.037 23.2686 19.8538 22.8581 19.8151C22.6085 19.7915 22.4687 19.6365 22.4762 19.408C22.4836 19.1831 22.6397 19.0407 22.8891 19.0307C23.0804 19.023 23.2764 19.0381 23.4623 19.0017C23.9264 18.911 24.2411 18.5168 24.2114 18.0971C24.1791 17.636 23.8175 17.2876 23.3305 17.2547C23.1913 17.2454 23.0512 17.2538 22.9115 17.2505C22.6372 17.244 22.4813 17.1072 22.4758 16.871C22.4703 16.6361 22.6182 16.4896 22.8879 16.4624C23.5311 16.3977 23.918 15.8152 23.6826 15.2505C23.5293 14.8826 23.2332 14.708 22.8404 14.6927C22.6834 14.6867 22.5252 14.6971 22.3693 14.6824C22.1464 14.6614 22.0229 14.528 22.0161 14.3036C22.0094 14.076 22.1408 13.9502 22.3516 13.9016C22.4526 13.8783 22.5605 13.8814 22.6589 13.8516C23.0829 13.7234 23.3138 13.3653 23.2759 12.9088C23.2441 12.5246 22.9354 12.2078 22.5304 12.1489C22.4359 12.1351 22.3392 12.13 22.2436 12.13C20.1129 12.1291 17.9824 12.1291 15.8517 12.1299C15.7592 12.1299 15.6669 12.1394 15.564 12.1449C16.1294 13.4595 16.0335 13.9877 15.1605 14.6916C15.267 15.0684 15.4234 15.4149 15.4534 15.7722C15.5116 16.4634 15.177 16.9797 14.5762 17.3135C14.4426 17.3878 14.393 17.4659 14.3938 17.6165C14.3995 18.7258 14.3982 19.8352 14.3969 20.9444C14.396 21.8502 14.7848 22.5411 15.5538 23.0097C16.3857 23.5166 16.9865 24.2202 17.3931 25.0988C17.5651 25.4703 17.736 25.8424 17.9147 26.2108C18.2641 26.9312 19.0051 27.2146 19.6825 26.8918C20.3404 26.5782 20.5928 25.817 20.2642 25.1083C19.8318 24.1757 19.3908 23.2472 18.9549 22.3163C18.7395 21.8565 18.907 21.5963 19.4178 21.5959C20.2736 21.5951 21.1293 21.5948 21.9851 21.5962C22.2948 21.5967 22.4728 21.7359 22.4802 21.9762C22.4879 22.2258 22.2989 22.383 21.9829 22.3836C21.2938 22.3849 20.6044 22.384 19.8786 22.384C19.926 22.4937 19.9604 22.5795 19.9994 22.663C20.3242 23.3574 20.6518 24.0505 20.9745 24.7459C21.6228 26.1427 20.8643 27.5688 19.3483 27.808C18.5457 27.9346 17.649 27.4553 17.2516 26.6727C17.0467 26.2689 16.8583 25.8564 16.6712 25.444C16.3334 24.6993 15.8273 24.107 15.1233 23.6839C14.5135 23.3173 14.076 22.7978 13.8102 22.1511C12.7907 22.5129 11.7506 22.3675 10.7269 22.3118C10.0792 22.2765 9.60567 21.6162 9.60224 20.908C9.59716 19.8773 9.60087 18.8466 9.60087 17.8159C9.60114 17.7232 9.60114 17.6297 9.60114 17.5107ZM10.2589 16.7249C11.4028 16.7249 12.5468 16.7264 13.6908 16.7242C14.1436 16.7233 14.4713 16.5196 14.6131 16.1628C14.8396 15.5926 14.4712 15.0299 13.8161 14.9461C13.5374 14.9104 13.3944 14.7703 13.4014 14.5398C13.4087 14.3023 13.5794 14.1613 13.867 14.1574C14.0067 14.1556 14.1469 14.163 14.286 14.1548C14.7209 14.129 15.0486 13.8289 15.1262 13.3925C15.1932 13.0159 14.9715 12.6149 14.5993 12.466C14.4801 12.4184 14.3475 12.4019 14.2196 12.379C13.9959 12.339 13.8435 12.1747 13.8527 11.9743C13.862 11.77 14.0252 11.6071 14.2471 11.5924C14.3775 11.5837 14.5089 11.5902 14.6399 11.5895C15.1914 11.5865 15.5813 11.2313 15.5899 10.7244C15.5981 10.2344 15.2236 9.85774 14.6922 9.82575C14.5268 9.81586 14.3602 9.82369 14.1953 9.80886C13.9907 9.79046 13.8818 9.65001 13.8598 9.46314C13.8373 9.27092 13.9367 9.12593 14.1201 9.05495C14.1831 9.03065 14.2557 9.02873 14.3243 9.02186C14.8783 8.96735 15.2404 8.45427 15.1029 7.91701C14.9952 7.49674 14.6656 7.26511 14.1537 7.26374C13.036 7.26072 11.9182 7.26525 10.8005 7.26141C10.2885 7.25962 10.1255 6.99615 10.3427 6.53111C10.7779 5.59981 11.2135 4.66864 11.6536 3.73968C11.789 3.45368 11.8439 3.15931 11.7733 2.85053C11.6503 2.31341 11.2094 1.90357 10.6981 1.83877C10.1333 1.76723 9.61102 2.03098 9.35037 2.54325C9.14105 2.9546 8.95342 3.37707 8.75755 3.79528C8.37049 4.62183 7.815 5.30668 7.02769 5.77775C6.14882 6.30361 5.76477 7.07372 5.76944 8.08562C5.78097 10.6188 5.77383 13.152 5.77191 15.6853C5.77177 15.8591 5.73993 16.0335 5.74885 16.2063C5.75324 16.291 5.79415 16.4093 5.85811 16.4498C6.18328 16.6553 6.54975 16.7255 6.93174 16.7252C8.04079 16.7245 9.14983 16.7249 10.2589 16.7249ZM10.4144 17.5232C10.4144 18.6969 10.4062 19.8398 10.4192 20.9824C10.4233 21.3391 10.6716 21.5478 11.0377 21.5507C11.6571 21.5557 12.2767 21.554 12.8962 21.5519C13.3668 21.5503 13.5837 21.3346 13.5848 20.8633C13.587 19.8159 13.5859 18.7685 13.5846 17.7212C13.5845 17.6553 13.5717 17.5892 13.5647 17.523C12.5105 17.5232 11.4753 17.5232 10.4144 17.5232Z" stroke="#2F4871" stroke-width="0.4" mask="url(#path-2-outside-1_312_237)"/>
<path d="M2.70101 20.6246L2.70161 20.6109C2.7285 20.0002 3.12024 19.5072 3.73322 19.3728L3.73324 19.3728C4.15171 19.2812 4.57329 19.2035 4.99553 19.1352L4.99554 19.1352C5.65465 19.0286 6.23019 19.416 6.41904 20.0659L2.70101 20.6246ZM2.70101 20.6246L2.70413 20.638M2.70101 20.6246L2.70413 20.638M2.70413 20.638C2.71741 20.6949 2.73008 20.7536 2.74296 20.8133C2.77235 20.9495 2.8028 21.0906 2.84393 21.2257L2.70413 20.638ZM5.46265 20.3685L5.46264 20.3685C5.4427 20.2759 5.40926 20.2169 5.36064 20.1801C5.31228 20.1436 5.23321 20.1173 5.0969 20.1232C4.99742 20.1431 4.89287 20.1628 4.78479 20.1832C4.5075 20.2356 4.20696 20.2923 3.90918 20.3668L5.46265 20.3685ZM5.46265 20.3685C5.48283 20.4621 5.48155 20.5382 5.45995 20.5951M5.46265 20.3685L5.45995 20.5951M3.7726 20.8649C3.80983 20.9962 3.861 21.0731 3.91581 21.1117C3.96611 21.1471 4.03514 21.1611 4.13887 21.1299C4.53362 21.0114 4.92241 20.8697 5.31298 20.7262L3.7726 20.8649ZM3.7726 20.8649C3.72208 20.6867 3.71616 20.5717 3.73915 20.4993M3.7726 20.8649L3.73915 20.4993M3.73915 20.4993C3.75822 20.4392 3.80209 20.3937 3.90917 20.3669L3.73915 20.4993ZM5.45995 20.5951C5.44018 20.6473 5.39937 20.6943 5.31302 20.7261L5.45995 20.5951Z" fill="#2F4871" stroke="#2F4871" stroke-width="0.2"/>
<path d="M10.3015 25.2L10.3015 25.2C10.2102 25.176 10.1336 25.1723 10.0765 25.1888L10.3015 25.2ZM10.3015 25.2C10.3899 25.2233 10.4464 25.258 10.4827 25.3036C10.5179 25.3475 10.543 25.4125 10.5482 25.5141C10.5246 25.6293 10.5016 25.7463 10.4784 25.8646C10.4203 26.1611 10.3607 26.4652 10.2848 26.7667C10.2616 26.8591 10.22 26.8999 10.1657 26.919C10.1018 26.9416 10.0018 26.9407 9.85216 26.9021L9.85215 26.9021C9.6922 26.8608 9.60096 26.812 9.55545 26.7599C9.51745 26.7163 9.50058 26.6578 9.52959 26.5553L9.5296 26.5553M10.3015 25.2L9.5296 26.5553M9.5296 26.5553C9.64875 26.1339 9.79393 25.7177 9.95418 25.3084L9.5296 26.5553ZM11.5331 25.6743L11.5349 25.6655L11.5351 25.6565C11.5457 25.2575 11.4495 24.9294 11.2538 24.6808C11.0582 24.4323 10.7712 24.2737 10.4197 24.1982L10.4197 24.1982C9.83643 24.0731 9.21968 24.4053 8.99876 24.9822L8.99875 24.9822C8.84264 25.3901 8.69872 25.8044 8.57498 26.2243C8.5216 26.4051 8.49847 26.6185 8.53432 26.8098L8.53432 26.8099C8.60766 27.2008 8.78617 27.4654 9.03737 27.64C9.2847 27.8118 9.59371 27.8901 9.91859 27.9282C10.5147 27.9981 11.0691 27.66 11.2291 27.0949L11.2291 27.0949C11.3336 26.726 11.4052 26.3446 11.4657 26.0218C11.4894 25.8956 11.5114 25.7783 11.5331 25.6743Z" fill="#2F4871" stroke="#2F4871" stroke-width="0.2"/>
<path d="M21.6026 9.69577L21.5932 9.69576C21.2194 9.69518 20.9083 9.5901 20.6717 9.3904C20.4355 9.19106 20.2823 8.90481 20.2103 8.55718C20.0947 7.99879 20.4149 7.3866 20.9687 7.17031L21.6026 9.69577ZM21.6026 9.69577L21.6118 9.69404M21.6026 9.69577L21.6118 9.69404M21.6118 9.69404C21.7023 9.67707 21.8015 9.65798 21.9071 9.63767C22.1649 9.58808 22.4604 9.53124 22.7576 9.48041L22.7576 9.48041C23.2695 9.39273 23.7021 9.15248 23.8762 8.61248L23.8762 8.61246M21.6118 9.69404L23.8762 8.61246M23.8762 8.61246C24.0564 8.05294 23.907 7.5285 23.5496 7.09861C23.2284 6.71214 22.7782 6.57308 22.2856 6.72264C21.8434 6.85687 21.4012 7.00134 20.9687 7.1703L23.8762 8.61246ZM22.9429 8.14526L22.9429 8.14523C22.915 7.96188 22.8682 7.84373 22.8055 7.77245C22.7499 7.70918 22.6731 7.67291 22.5539 7.67176C22.4479 7.70967 22.338 7.74767 22.2255 7.78657C21.9244 7.89066 21.6047 8.00119 21.2923 8.13372C21.2286 8.16077 21.2023 8.20388 21.1936 8.26191C21.1839 8.32707 21.198 8.40968 21.2258 8.496L22.9429 8.14526ZM22.9429 8.14526C22.9564 8.23416 22.9424 8.30064 22.9136 8.34702C22.8854 8.39228 22.836 8.42999 22.7547 8.44901C22.342 8.54551 21.9262 8.63046 21.5088 8.69952C21.4359 8.71158 21.3798 8.69549 21.336 8.66349M22.9429 8.14526L21.336 8.66349M21.336 8.66349C21.2903 8.63013 21.2511 8.57403 21.2258 8.49601L21.336 8.66349Z" fill="#2F4871" stroke="#2F4871" stroke-width="0.2"/>
<path d="M7.21276 22.0025L7.24062 22.0059C7.83089 22.0772 8.22499 22.3753 8.46562 22.8514L8.46563 22.8514C8.58611 23.0899 8.62971 23.331 8.59751 23.5663C8.56537 23.8012 8.45868 24.0239 8.28911 24.2279L8.2891 24.2279C8.02629 24.5439 7.75622 24.8548 7.47863 25.1581L7.40938 25.0947L7.47863 25.1581C7.22416 25.4361 6.90469 25.585 6.57547 25.5976C6.24645 25.6102 5.91544 25.4864 5.63783 25.2334L5.63782 25.2334C5.25826 24.8874 4.9438 24.4611 5.10517 23.8744L5.10517 23.8743C5.17105 23.635 5.30749 23.39 5.48024 23.2105L5.48025 23.2105C5.77949 22.8998 6.10985 22.613 6.45791 22.3586L7.21276 22.0025ZM7.21276 22.0025L7.18722 22.0141M7.21276 22.0025L7.18722 22.0141M7.18722 22.0141C7.11465 22.0471 7.04279 22.0755 6.96838 22.105M7.18722 22.0141L6.96838 22.105M6.75288 24.4719L6.75289 24.4719C7.01051 24.1909 7.26146 23.9034 7.50533 23.6104L7.50534 23.6104C7.58496 23.5147 7.60865 23.442 7.60495 23.3833C7.60121 23.324 7.56811 23.2552 7.48147 23.1706L7.48146 23.1706C7.39793 23.0891 7.32915 23.0591 7.26931 23.0575C7.20905 23.0558 7.13523 23.0823 7.04049 23.1627C6.90638 23.2765 6.77414 23.3927 6.64114 23.5095L6.62796 23.5211C6.49075 23.6417 6.35269 23.7628 6.21224 23.8814L6.75288 24.4719ZM6.75288 24.4719C6.72651 24.5006 6.69143 24.5259 6.65138 24.5506M6.75288 24.4719L6.65138 24.5506M6.96838 22.105C6.92105 22.1237 6.87269 22.1428 6.82246 22.1638M6.96838 22.105L6.82246 22.1638M6.82246 22.1638C6.69813 22.2157 6.57135 22.2756 6.45792 22.3586L6.82246 22.1638ZM6.65138 24.5506C6.63434 24.561 6.61761 24.5707 6.60054 24.5805M6.65138 24.5506L6.60054 24.5805M6.60054 24.5805C6.59764 24.5822 6.59472 24.5839 6.59179 24.5855M6.60054 24.5805L6.59179 24.5855M6.59179 24.5855C6.58327 24.5905 6.57445 24.5956 6.56567 24.6008M6.59179 24.5855L6.56567 24.6008M6.56567 24.6008C6.31848 24.5686 6.19872 24.4156 6.09206 24.2339C6.05483 24.1704 6.05354 24.1146 6.07269 24.0611C6.09348 24.003 6.141 23.9416 6.21223 23.8814L6.56567 24.6008Z" fill="#2F4871" stroke="#2F4871" stroke-width="0.2"/>
<path d="M18.0214 5.37149L18.0337 5.3452C18.0675 5.27295 18.0968 5.20139 18.1271 5.12737C18.1464 5.08029 18.1661 5.03221 18.1876 4.98234L18.0214 5.37149ZM18.0214 5.37149L18.0251 5.40028M18.0214 5.37149L18.0251 5.40028M18.0251 5.40028C18.101 5.99005 18.3961 6.38613 18.8716 6.62843L18.8716 6.62845C19.1103 6.74992 19.3514 6.79354 19.5868 6.76098C19.8216 6.7285 20.0441 6.62116 20.2479 6.45142L20.2479 6.45141C20.5641 6.18803 20.8728 5.91593 21.178 5.6418C21.51 5.34378 21.645 4.96561 21.5946 4.52263L21.5946 4.5226C21.5423 4.06381 21.2487 3.76794 20.9462 3.51971L20.9462 3.51969M18.0251 5.40028L20.9462 3.51969M20.9462 3.51969C20.4246 3.0918 19.6852 3.14414 19.2271 3.63993L20.9462 3.51969ZM19.9138 4.37437L19.9139 4.37435C19.9435 4.34228 19.982 4.31418 20.0247 4.28716C20.0429 4.27567 20.0608 4.26505 20.0788 4.2543C20.0819 4.25245 20.085 4.2506 20.0881 4.24875C20.0975 4.24319 20.107 4.23746 20.1165 4.23162C20.2399 4.24921 20.3282 4.29478 20.3974 4.35381C20.4748 4.41985 20.5327 4.50631 20.5878 4.60376C20.6249 4.66953 20.6231 4.72385 20.6014 4.77596C20.5773 4.83397 20.5261 4.89387 20.4549 4.95465C20.3229 5.06742 20.1923 5.18159 20.0622 5.29532L20.0594 5.29773C19.9282 5.41238 19.7975 5.52658 19.6656 5.6392L19.6656 5.63922C19.5564 5.73245 19.4782 5.76437 19.4169 5.76515C19.3584 5.76589 19.2915 5.73835 19.2035 5.65298C19.1089 5.56114 19.0788 5.49251 19.0787 5.4335C19.0787 5.37157 19.1114 5.29142 19.2102 5.17683L19.2102 5.17681C19.2491 5.13167 19.2878 5.08654 19.3265 5.04148C19.5205 4.81557 19.7131 4.59123 19.9138 4.37437ZM19.2004 3.6688C18.9198 3.97219 18.6332 4.2822 18.385 4.61997L19.2004 3.6688Z" fill="#2F4871" stroke="#2F4871" stroke-width="0.2"/>
</svg>
