<svg width="31" height="31" viewBox="0 0 31 31" fill="none" xmlns="http://www.w3.org/2000/svg">
<path d="M0.872623 10.4592C1.32216 10.6136 1.77264 10.7685 2.22264 10.9233C-0.0816954 17.7646 3.09386 24.2984 8.08455 27.3965C13.13 30.5287 19.126 29.9384 23.1232 27.2402C22.3445 27.1869 21.6164 27.1373 20.8259 27.0835C20.9832 26.9446 21.1027 26.8393 21.2226 26.734C21.5715 26.4281 21.9177 26.1178 22.2723 25.8189C22.3431 25.7594 22.4508 25.7042 22.5377 25.7094C23.645 25.7759 24.7513 25.8543 25.8582 25.9299C25.8724 25.9308 25.8865 25.9412 25.9243 25.9568C25.8927 26.4715 25.862 26.9947 25.8275 27.5174C25.7888 28.1063 25.7482 28.6951 25.7033 29.2835C25.6976 29.3571 25.6854 29.4539 25.6377 29.4974C25.1494 29.9375 24.6527 30.3686 24.1177 30.8379C24.1743 29.9549 24.2272 29.1276 24.2825 28.2635C20.3032 30.8649 16.034 31.6388 11.4565 30.4389C8.41178 29.6409 5.86284 28.0052 3.79696 25.6324C-0.417902 20.7928 -0.681863 14.6849 0.872623 10.4592Z" fill="#2E446E"/>
<path d="M28.7746 20.052C29.8852 16.6559 29.82 13.3118 28.4294 10.0295C27.2588 7.26664 25.3724 5.09688 22.8168 3.52445C17.7855 0.429172 11.8263 1.06995 7.87969 3.73599C8.65882 3.78935 9.38649 3.83893 10.1746 3.89324C9.99374 4.05331 9.85066 4.18034 9.70711 4.30641C9.38176 4.59209 9.05972 4.88155 8.72824 5.15968C8.65741 5.21918 8.54975 5.27254 8.46239 5.26734C7.35508 5.20029 6.24871 5.12238 5.14187 5.04635C5.12771 5.04541 5.11401 5.03455 5.07812 5.01849C5.10929 4.5189 5.13904 4.01129 5.17257 3.50367C5.21223 2.89925 5.25095 2.29437 5.30148 1.69089C5.30903 1.60023 5.35389 1.48926 5.41953 1.43024C5.88606 1.00856 6.36251 0.597275 6.88429 0.140657C6.8281 1.02084 6.77522 1.85191 6.7195 2.72785C10.0263 0.530695 13.6193 -0.374514 17.5296 0.141129C21.446 0.657717 24.7354 2.41619 27.2701 5.43828C31.0142 9.90247 31.8467 14.9692 30.1836 20.536C29.6826 20.3636 29.2321 20.2092 28.7746 20.052Z" fill="#2E446E"/>
<path d="M20.7431 20.4941C20.7469 20.5475 20.7459 20.5753 20.7511 20.6022C20.8696 21.2619 20.7181 21.633 20.0154 21.9853C19.3241 22.3324 18.571 22.4991 17.8098 22.517C16.2458 22.5538 14.6805 22.5472 13.1166 22.5184C12.4668 22.5066 11.8251 22.3598 11.215 22.1175C11.0172 22.0391 10.8231 21.9409 10.6437 21.8266C10.2574 21.5811 10.0784 21.2303 10.1559 20.7656C10.1696 20.6839 10.1733 20.6013 10.1842 20.4931C10.0978 20.4931 10.0237 20.4941 9.94952 20.4931C8.82757 20.4799 7.70467 20.4865 6.58414 20.4455C5.8494 20.4185 5.12646 20.2774 4.43893 19.9988C3.52381 19.6276 3.28535 19.1559 3.54694 18.2025C3.8449 17.1183 4.57445 16.4058 5.55805 15.9279C6.1058 15.6621 6.68944 15.5067 7.29905 15.4977C8.25479 15.4836 9.21241 15.4576 10.1667 15.4987C11.6754 15.5643 12.9064 16.1668 13.7182 17.4966C13.7479 17.5447 13.8381 17.5806 13.9004 17.5811C14.9463 17.5868 15.9923 17.5872 17.0387 17.583C17.0953 17.583 17.177 17.5494 17.2044 17.5055C18.0199 16.1697 19.2542 15.5591 20.7724 15.4982C21.7611 15.4585 22.7556 15.4567 23.7434 15.5105C24.9315 15.5756 25.9534 16.0526 26.7391 16.9705C27.1693 17.4734 27.4082 18.0604 27.4753 18.7229C27.5229 19.1951 27.3388 19.5539 26.9384 19.7589C26.5483 19.9586 26.1328 20.1489 25.7069 20.2297C24.9957 20.3647 24.2695 20.4464 23.5465 20.4818C22.6895 20.5238 21.8287 20.4927 20.9697 20.4936C20.8999 20.4941 20.8314 20.4941 20.7431 20.4941ZM15.607 21.7908C16.4215 21.7393 17.3909 21.7105 18.3519 21.6023C18.8099 21.5509 19.2585 21.3691 19.6967 21.2062C19.9682 21.1056 19.9791 21.0234 19.9333 20.7335C19.8511 20.216 19.6131 19.7778 19.2429 19.4132C18.5908 18.771 17.7914 18.4471 16.889 18.4188C15.9413 18.389 14.9912 18.3999 14.0426 18.4164C13.4235 18.4273 12.8394 18.6043 12.31 18.9287C11.6202 19.3514 11.1314 19.9204 10.9921 20.7514C10.9501 21.0008 11.0398 21.125 11.2433 21.2241C11.7547 21.4734 12.3006 21.609 12.8597 21.6529C13.721 21.7199 14.5865 21.7421 15.607 21.7908ZM12.8776 17.7062C12.7653 17.5778 12.6463 17.4163 12.5018 17.2812C11.8015 16.6244 10.9544 16.3321 10.0062 16.3213C9.18219 16.3118 8.35867 16.3175 7.53468 16.3194C7.04501 16.3203 6.56809 16.4029 6.11713 16.5932C5.24073 16.963 4.5702 17.5334 4.33127 18.5C4.22408 18.9339 4.26894 19.0194 4.68117 19.197C5.2922 19.4609 5.941 19.5903 6.59831 19.6111C7.84303 19.6503 9.08964 19.6465 10.3353 19.6507C10.4099 19.6512 10.5138 19.5823 10.5549 19.5157C10.8203 19.085 11.1423 18.7011 11.5663 18.4301C11.9757 18.1676 12.4187 17.9565 12.8776 17.7062ZM18.027 17.7634C19.0517 18.0972 19.8686 18.6516 20.4073 19.5733C20.4357 19.6215 20.532 19.6517 20.5972 19.6531C21.0543 19.6616 21.5114 19.6644 21.968 19.6611C22.978 19.6536 23.9942 19.7258 24.9924 19.5294C25.4764 19.434 25.9463 19.2607 26.4175 19.1087C26.6173 19.044 26.6683 18.8867 26.6338 18.678C26.5478 18.1534 26.3174 17.7067 25.9439 17.3346C25.3178 16.7113 24.549 16.3746 23.6769 16.3406C22.6952 16.3024 21.7106 16.3213 20.728 16.3312C20.2019 16.3364 19.7024 16.4832 19.2325 16.7174C18.7495 16.9568 18.3377 17.2845 18.027 17.7634Z" fill="#2E446E" stroke="#2E446E" stroke-width="0.2" stroke-miterlimit="10"/>
<path d="M12.0696 11.8901C12.0681 13.7143 10.585 15.1899 8.75896 15.1837C6.94052 15.1776 5.47339 13.7058 5.47339 11.8878C5.47386 10.0632 6.94996 8.59323 8.78163 8.59418C10.5916 8.59465 12.0715 10.0783 12.0696 11.8901ZM8.76557 14.3498C10.1232 14.3536 11.2234 13.2642 11.2357 11.9043C11.2479 10.5453 10.1383 9.42808 8.77549 9.42667C7.41744 9.42525 6.31249 10.5203 6.30635 11.8741C6.30021 13.2416 7.39714 14.3461 8.76557 14.3498Z" fill="#2E446E" stroke="#2E446E" stroke-width="0.2" stroke-miterlimit="10"/>
<path d="M25.4543 11.9015C25.4477 13.727 23.9617 15.1965 22.1352 15.1842C20.3082 15.1715 18.852 13.6911 18.8624 11.8561C18.8723 10.0471 20.3621 8.58285 22.1805 8.59418C23.9971 8.60551 25.4609 10.084 25.4543 11.9015ZM24.6204 11.884C24.6171 10.5175 23.5126 9.42195 22.1423 9.4262C20.7889 9.43045 19.6939 10.5345 19.6944 11.8934C19.6948 13.2586 20.8026 14.3564 22.1725 14.3498C23.5305 14.3432 24.6232 13.2425 24.6204 11.884Z" fill="#2E446E" stroke="#2E446E" stroke-width="0.2" stroke-miterlimit="10"/>
<path d="M18.7623 13.9702C18.7646 15.7938 17.2824 17.2789 15.4611 17.2779C13.6502 17.277 12.1689 15.7957 12.168 13.9848C12.167 12.1574 13.6422 10.6794 15.4672 10.6799C17.2805 10.6803 18.7599 12.1579 18.7623 13.9702ZM17.9279 13.9749C17.9241 12.6093 16.8163 11.5076 15.4512 11.5124C14.1002 11.5171 12.9967 12.6282 13.0005 13.9806C13.0042 15.3443 14.1229 16.4572 15.4772 16.445C16.8347 16.4327 17.9317 15.3268 17.9279 13.9749Z" fill="#2E446E" stroke="#2E446E" stroke-width="0.2" stroke-miterlimit="10"/>
</svg>
