<?xml version="1.0" encoding="utf-8"?>
<!-- Generator: Adobe Illustrator 24.2.1, SVG Export Plug-In . SVG Version: 6.00 Build 0)  -->
<svg version="1.1" id="Layer_1" xmlns="http://www.w3.org/2000/svg" xmlns:xlink="http://www.w3.org/1999/xlink" x="0px" y="0px"
	 viewBox="0 0 28 27" style="enable-background:new 0 0 28 27;" xml:space="preserve">
<style type="text/css">
	.st0{fill:#2E446E;stroke:#2E446E;stroke-width:0.15;}
</style>
<g>
	<g>
		<g>
			<path class="st0" d="M14.1,22.9c2.1,0,4.1,0,6.2,0c0.6,0,0.9,0.2,1,0.9c0,0.4,0.3,0.7,0.7,0.7c0.6,0.1,0.8,0.3,0.8,0.9
				c0,0.2,0,0.5,0,0.7c0,0.5-0.3,0.8-0.8,0.8c-0.4,0-0.8-0.3-0.8-0.8c0-0.1,0-0.2-0.2-0.3c-0.5-0.2-0.9-0.6-1.2-1.2
				c-0.1-0.1-0.1-0.2-0.3-0.2c-3.7,0-7.4,0-11.1,0c-0.1,0-0.2,0-0.3,0.2c-0.2,0.6-0.6,1-1.2,1.2c-0.1,0.1-0.2,0.1-0.2,0.3
				c0,0.5-0.4,0.8-0.8,0.8c-0.4,0-0.8-0.3-0.8-0.8c0-0.3,0-0.5,0-0.8c0-0.4,0.3-0.7,0.7-0.8c0.6-0.1,0.8-0.3,0.8-0.8
				c0-0.4,0.4-0.7,0.9-0.7C9.9,22.9,12,22.9,14.1,22.9z"/>
		</g>
	</g>
	<path class="st0" d="M25.8,1.7c-0.5,0-1,0-1.6,0c0,0.7,0,1.4,0,2.1c0,0.4,0.4,0.7,0.8,0.7c0.4,0,0.8-0.3,0.8-0.7
		C25.8,3.1,25.8,2.4,25.8,1.7z M22.6,1.7c-0.5,0-1,0-1.6,0c0,0.7,0,1.4,0,2.1c0,0.4,0.4,0.7,0.8,0.7c0.4,0,0.8-0.3,0.8-0.7
		C22.7,3.1,22.6,2.4,22.6,1.7z M17.9,1.7c0,0.7,0,1.4,0,2.1c0,0.4,0.4,0.7,0.8,0.7c0.4,0,0.8-0.3,0.8-0.7c0-0.7,0-1.4,0-2.1
		C19,1.7,18.5,1.7,17.9,1.7z M14.8,1.7c0,0.7,0,1.3,0,2c0,0.5,0.3,0.8,0.8,0.8c0.4,0,0.8-0.4,0.8-0.8c0-0.5,0-1.1,0-1.6
		c0-0.1,0-0.2,0-0.4C15.8,1.7,15.3,1.7,14.8,1.7z M11.6,1.7c0,0.7,0,1.4,0,2.1c0,0.4,0.4,0.7,0.7,0.7c0.4,0,0.8-0.3,0.8-0.7
		c0-0.7,0-1.4,0-2.1C12.7,1.7,12.2,1.7,11.6,1.7z M8.5,1.7c0,0.7,0,1.4,0,2.1c0,0.4,0.3,0.7,0.7,0.7c0.4,0,0.7-0.2,0.8-0.5
		c0,0,0-0.1,0-0.1c0-0.7,0-1.4,0-2.2C9.5,1.7,9,1.7,8.5,1.7z M5.4,1.7c0,0.7,0,1.4,0,2.1c0,0.4,0.4,0.7,0.8,0.7
		c0.4,0,0.8-0.3,0.8-0.7c0-0.7,0-1.4,0-2.1C6.4,1.7,5.9,1.7,5.4,1.7z M2.2,1.7c0,0.7,0,1.4,0,2.1c0,0.4,0.4,0.8,0.8,0.8
		c0.4,0,0.8-0.3,0.8-0.8c0-0.3,0-0.6,0-0.8c0-0.4,0-0.8,0-1.2C3.3,1.7,2.8,1.7,2.2,1.7z M12.5,14.8c0,0.6,0,1.2,0,1.9c1,0,2,0,3,0
		c0-0.6,0-1.2,0-1.9C14.5,14.8,13.5,14.8,12.5,14.8z M16,11c0-1.1-0.9-2-2-2c-1.1,0-2,0.9-2,2c0,1.1,0.9,2,2,2
		C15.1,13,16,12.1,16,11z M17.1,14.9c0,0.4,0,0.8,0,1.2c0,0.4,0,0.8,0,1.2c0,0.5-0.3,0.8-0.8,0.8c-1.6,0-3.1,0-4.7,0
		c-0.4,0-0.7-0.3-0.8-0.8c0-0.2,0-0.4,0-0.5c0-0.7,0-1.3,0-1.9c0,0-0.1,0-0.1,0c0,0-0.1,0-0.1,0c-0.7,0.4-1.1,1-1.1,1.8
		c0,0.9,0,1.9,0,2.8c0,0.1,0,0.1,0,0.2c2.9,0,5.8,0,8.8,0c0-1,0-2.1,0-3.1C18.4,15.9,17.8,15.1,17.1,14.9z M17.1,5.5
		c-0.5,0.4-1,0.6-1.6,0.6c-0.6,0-1.1-0.2-1.6-0.6c-1.1,0.8-2.1,0.8-3.1,0c-1.1,0.8-2.1,0.8-3.2,0c-0.5,0.4-1,0.6-1.6,0.6
		C5.5,6.1,5,5.8,4.6,5.5C4.4,5.6,4.2,5.8,4,5.8C3.8,5.9,3.8,6,3.8,6.2c0,4.4,0,8.9,0,13.3c0,0.1,0,0.2,0,0.3c1.4,0,2.8,0,4.2,0
		c0-0.1,0-0.2,0-0.3c0-0.9,0-1.8,0-2.7c0-1.5,0.7-2.6,2.1-3.2c0.3-0.2,0.7-0.2,1-0.4c-0.6-1.2-0.8-1.8-0.7-2.5
		c0.1-0.9,0.5-1.7,1.2-2.3c1.3-1.1,3.1-1.2,4.5-0.2c0.7,0.5,1.1,1.1,1.3,1.9c0.3,1.1,0.1,2.2-0.6,3.1c0.1,0,0.1,0,0.1,0
		c1.8,0.3,3,1.8,3,3.7c0,0.9,0,1.7,0,2.6c0,0.1,0,0.2,0,0.3c1.4,0,2.8,0,4.2,0c0-0.1,0-0.1,0-0.2c0-4.5,0-8.9,0-13.4
		c0,0,0-0.1,0-0.1c0,0-0.1-0.1-0.1-0.1c-0.2-0.1-0.5-0.3-0.7-0.4c-1,0.8-2.1,0.8-3.1,0C19.2,6.3,18.2,6.3,17.1,5.5z M1.2,0.1
		c8.5,0,17,0,25.5,0c0.5,0.2,0.6,0.6,0.6,1.1c0,0.9,0,1.7,0,2.6c0,0.9-0.5,1.6-1.3,2.1c-0.2,0.1-0.3,0.2-0.3,0.4c0,4.4,0,8.8,0,13.3
		c0,0.1,0,0.2,0,0.3c0.6,0,1.3-0.2,1.6,0.6c0,0.1,0,0.3,0,0.4c-0.1,0.1-0.1,0.3-0.2,0.3C27,21.2,27,21.4,27,21.6c0,1.5,0,3,0,4.4
		c0,0.4-0.1,0.6-0.5,0.8c-0.5,0.3-1.1-0.1-1.1-0.8c0-1.5,0-2.9,0-4.4c0-0.1,0-0.2,0-0.3c-7.6,0-15.1,0-22.7,0c0,0.1,0,0.2,0,0.3
		c0,1.5,0,2.9,0,4.4c0,0.6-0.6,1-1.1,0.7c-0.3-0.2-0.4-0.4-0.4-0.8c0-1.5,0-3,0-4.5c0-0.1,0-0.2-0.1-0.3c-0.4-0.2-0.5-0.6-0.4-0.9
		C0.7,20,1,19.8,1.5,19.8c0.2,0,0.5,0,0.7,0c0-0.1,0-0.1,0-0.1c0-4.5,0-9.1,0-13.6c0-0.1-0.1-0.2-0.2-0.2C1.1,5.4,0.7,4.7,0.7,3.6
		c0-0.8,0-1.6,0-2.5C0.6,0.7,0.8,0.3,1.2,0.1z"/>
</g>
</svg>
