<svg width="15" height="24" viewBox="0 0 15 24" fill="none" xmlns="http://www.w3.org/2000/svg">
<path d="M8.30871 0.949707C8.70758 1.0632 9.13124 1.12545 9.50201 1.29899C11.0429 2.0207 11.8379 3.26303 11.855 4.95656C11.8803 7.50677 11.8704 10.057 11.8588 12.6072C11.85 14.5261 10.6452 16.0339 8.78691 16.4929C6.50664 17.0559 4.14044 15.326 3.99114 12.9802C3.96469 12.5637 3.9658 12.1455 3.96524 11.7279C3.96304 9.49285 3.96414 7.25776 3.96414 5.02212C3.96414 4.09326 4.20985 3.24374 4.78502 2.50275C5.43951 1.65984 6.29454 1.1574 7.34955 0.99323C7.4063 0.984415 7.46139 0.964582 7.51703 0.949707C7.78093 0.949707 8.04482 0.949707 8.30871 0.949707ZM10.2099 8.78546C10.2099 7.51063 10.2066 6.2358 10.211 4.96097C10.2138 4.20951 9.93668 3.58862 9.35326 3.11868C8.64753 2.55013 7.85034 2.42397 7.02451 2.78317C6.16452 3.1578 5.672 3.83929 5.62352 4.79349C5.59873 5.28325 5.61525 5.77523 5.61525 6.2661C5.61636 8.43453 5.60093 10.6035 5.62627 12.7719C5.64225 14.1118 6.97383 15.1574 8.29053 14.9161C9.42873 14.7073 10.2 13.7972 10.2072 12.632C10.216 11.35 10.2099 10.068 10.2099 8.78546Z" fill="black" fill-opacity="0.25"/>
<path d="M7.07517 21.8307C7.07517 21.12 7.07517 20.4413 7.07517 19.8077C6.47136 19.632 5.87416 19.5069 5.31442 19.2866C3.68975 18.6481 2.48158 17.528 1.66346 15.9866C1.01227 14.7602 0.820554 13.4407 0.875646 12.0728C0.893826 11.6255 1.24752 11.2861 1.68605 11.2833C2.13891 11.2806 2.48489 11.6178 2.50858 12.0816C2.53392 12.5857 2.51629 13.097 2.59562 13.5928C2.881 15.375 3.8363 16.716 5.43452 17.5368C7.56163 18.6288 9.89203 18.28 11.6351 16.6482C12.6439 15.7039 13.192 14.5206 13.2846 13.1366C13.3072 12.8006 13.305 12.4634 13.3144 12.1263C13.3287 11.6288 13.6686 11.2811 14.138 11.2839C14.6024 11.2861 14.9385 11.6431 14.9522 12.1389C14.9825 13.2545 14.8713 14.3476 14.4377 15.3899C13.7771 16.9788 12.6891 18.1825 11.1713 18.9929C10.4215 19.3935 9.61932 19.6381 8.75713 19.7449C8.75713 20.4314 8.75713 21.1156 8.75713 21.8318C8.84858 21.8318 8.94114 21.8313 9.03369 21.8318C9.40005 21.8335 9.76697 21.8236 10.1328 21.8406C10.5669 21.861 10.8991 22.2235 10.8991 22.6511C10.8991 23.0653 10.5741 23.4223 10.1548 23.4675C10.1185 23.4714 10.0815 23.4725 10.0452 23.4725C8.62325 23.4725 7.20133 23.4736 5.77995 23.4719C5.41524 23.4714 5.14419 23.3055 4.99709 22.9706C4.86046 22.6599 4.91776 22.3668 5.13592 22.11C5.30891 21.9062 5.5392 21.8302 5.80143 21.8318C6.21793 21.8329 6.63443 21.8307 7.07517 21.8307Z" fill="black" fill-opacity="0.25"/>
</svg>
