<svg width="23" height="25" viewBox="0 0 23 25" fill="none" xmlns="http://www.w3.org/2000/svg">
<path d="M9.98218 24.9998C9.72289 24.9298 9.45562 24.8808 9.2057 24.7861C7.94963 24.3095 7.12479 23.4292 6.76067 22.1284C6.74357 22.0674 6.72408 22.0072 6.70065 21.9294C6.61697 21.9294 6.52999 21.9294 6.44288 21.9294C4.98779 21.9294 3.53269 21.9299 2.0776 21.9292C1.28074 21.9287 0.613771 21.4768 0.349415 20.761C0.0830341 20.0398 0.298139 19.2757 0.901042 18.7475C2.49439 17.3516 3.28303 15.5827 3.31202 13.4731C3.32544 12.4978 3.31113 11.5223 3.31531 10.5469C3.32924 7.26504 5.78389 4.27914 9.00414 3.66535C9.60299 3.55115 10.2248 3.53925 10.8372 3.52076C11.2382 3.50861 11.5531 3.79639 11.6115 4.14253C11.6758 4.524 11.506 4.85495 11.1554 4.9989C11.0481 5.04296 10.9222 5.07309 10.8079 5.06512C8.37123 4.89369 6.04736 6.4088 5.19049 8.75698C4.95563 9.40065 4.8508 10.0684 4.84953 10.7524C4.84776 11.6798 4.85688 12.6073 4.84751 13.5347C4.82193 16.0626 3.84782 18.1631 1.9872 19.865C1.89529 19.949 1.79932 20.1021 1.81211 20.2105C1.83338 20.3901 2.01734 20.396 2.17673 20.396C7.70933 20.3947 13.2419 20.396 18.7745 20.3884C18.8975 20.3882 19.0679 20.3225 19.1323 20.2295C19.2417 20.0713 19.0847 19.958 18.9705 19.8564C17.5982 18.6347 16.7074 17.1297 16.2985 15.337C16.0758 14.3605 16.0843 13.37 16.1087 12.3798C16.1196 11.9396 16.4781 11.6253 16.8914 11.6379C17.3059 11.6506 17.638 11.983 17.6495 12.4155C17.6598 12.799 17.6471 13.1832 17.6535 13.5668C17.6882 15.6476 18.4941 17.3728 20.0536 18.747C20.597 19.2259 20.8283 19.8193 20.6695 20.5283C20.5225 21.1843 20.1116 21.6327 19.4676 21.8416C19.2891 21.8994 19.0926 21.925 18.904 21.9259C17.425 21.9326 15.9459 21.9308 14.4669 21.9276C14.3275 21.9274 14.2449 21.939 14.1957 22.1081C13.7323 23.6981 12.6874 24.6558 11.0519 24.958C11.0138 24.9651 10.9783 24.9857 10.9416 25C10.6218 24.9998 10.302 24.9998 9.98218 24.9998ZM12.6155 21.9536C11.1832 21.9536 9.76391 21.9536 8.3368 21.9536C8.63065 22.835 9.54235 23.4686 10.4837 23.4641C11.4311 23.4596 12.3376 22.8217 12.6155 21.9536Z" fill="#2F4871"/>
<path d="M22.7632 5.55547C22.7652 8.37602 20.4599 10.6812 17.6403 10.6781C14.8135 10.675 12.5251 8.38248 12.525 5.55395C12.525 2.72201 14.8093 0.438397 17.6417 0.438904C20.4718 0.43941 22.7611 2.72657 22.7632 5.55547ZM21.212 5.55332C21.2108 3.57597 19.6046 1.96895 17.6341 1.97363C15.6805 1.97819 14.0662 3.59142 14.0599 5.54496C14.0537 7.51395 15.6628 9.12503 17.637 9.12629C19.6196 9.12756 21.2131 7.53497 21.212 5.55332Z" fill="#2F4871"/>
</svg>
