<?xml version="1.0" encoding="utf-8"?>
<!-- Generator: Adobe Illustrator 24.2.1, SVG Export Plug-In . SVG Version: 6.00 Build 0)  -->
<svg version="1.1" id="Layer_1" xmlns="http://www.w3.org/2000/svg" xmlns:xlink="http://www.w3.org/1999/xlink" x="0px" y="0px"
	 viewBox="0 0 28 27" style="enable-background:new 0 0 28 27;" xml:space="preserve">
<style type="text/css">
	.st0{clip-path:url(#SVGID_2_);fill:#2E446E;stroke:#2E446E;stroke-width:0.15;}
</style>
<g>
	<defs>
		<rect id="SVGID_1_" x="2.8" y="2.3" width="22.4" height="22.4"/>
	</defs>
	<clipPath id="SVGID_2_">
		<use xlink:href="#SVGID_1_"  style="overflow:visible;"/>
	</clipPath>
	<path class="st0" d="M4.2,3.7c0,1.6,0,3.2,0,4.9c1.6,0,3.2,0,4.9,0c0-1.6,0-3.2,0-4.9C7.5,3.7,5.9,3.7,4.2,3.7z M10.3,6.2
		c0,0.9,0,1.9,0,2.8c0,0.6-0.2,0.8-0.8,0.8c-1.9,0-3.8,0-5.7,0C3.2,9.8,3,9.6,3,9c0-1.9,0-3.8,0-5.7c0-0.7,0.2-0.8,0.9-0.9
		c1.9,0,3.8,0,5.7,0c0.6,0,0.8,0.2,0.8,0.8C10.3,4.3,10.3,5.2,10.3,6.2z"/>
	<path class="st0" d="M18.9,8.6c1.6,0,3.2,0,4.9,0c0-1.6,0-3.2,0-4.9c-1.6,0-3.2,0-4.9,0C18.9,5.4,18.9,7,18.9,8.6z M17.7,6.2
		c0-1,0-1.9,0-2.9c0-0.6,0.2-0.8,0.8-0.8c1.9,0,3.8,0,5.8,0c0.6,0,0.8,0.2,0.8,0.8c0,1.9,0,3.9,0,5.8c0,0.6-0.2,0.8-0.8,0.8
		c-1.9,0-3.8,0-5.8,0c-0.6,0-0.8-0.2-0.8-0.8C17.7,8.1,17.7,7.1,17.7,6.2z"/>
	<path class="st0" d="M9.1,18.4c-1.6,0-3.2,0-4.8,0c0,1.6,0,3.2,0,4.9c1.6,0,3.2,0,4.8,0C9.1,21.6,9.1,20,9.1,18.4z M10.3,20.8
		c0,1,0,1.9,0,2.9c0,0.6-0.2,0.8-0.8,0.8c-1.9,0-3.8,0-5.8,0c-0.6,0-0.8-0.2-0.8-0.8c0-1.9,0-3.9,0-5.8c0-0.5,0.2-0.8,0.8-0.8
		c1.9,0,3.9,0,5.8,0c0.5,0,0.7,0.2,0.7,0.7C10.3,18.9,10.3,19.8,10.3,20.8z"/>
	<path class="st0" d="M20.1,14.7c0-1,0-1.9,0-2.8c0-0.7,0.2-0.9,0.8-0.9c0.3,0,0.7,0,1,0c0.4,0,0.6,0.2,0.6,0.6
		c0,0.4-0.2,0.6-0.5,0.6c-0.2,0-0.4,0-0.7,0c0,0.2,0,0.3,0,0.4c0,0.8,0,1.6,0,2.5c0,0.6-0.2,0.8-0.8,0.8c-0.5,0-1.1,0-1.7,0
		c0,0.5,0,1.1,0,1.6c0,0.7-0.2,0.9-0.9,0.9c-0.3,0-0.6,0-1,0c-0.4,0-0.6-0.2-0.6-0.6c0-0.3,0.2-0.6,0.6-0.6c0.2,0,0.4,0,0.6,0
		c0-0.5,0-1,0-1.5c0-0.7,0.2-0.9,0.9-0.9C19.1,14.7,19.6,14.7,20.1,14.7z"/>
	<path class="st0" d="M14,9.8c0,0.1,0,0.1,0,0.2c0,0.7,0,1.5,0,2.3c0.2,0,0.4,0,0.6,0c0.4,0,0.6,0.3,0.6,0.6c0,0.4-0.2,0.6-0.6,0.6
		c-0.8,0-1.6,0-2.4,0c-0.4,0-0.6-0.3-0.6-0.6c0-0.4,0.2-0.6,0.6-0.6c0.2,0,0.4,0,0.6,0c0-0.6,0-1.1,0-1.6c0-0.5,0-0.9,0-1.4
		c0-0.4,0.2-0.7,0.7-0.7c0.8,0,1.6,0,2.4,0c0.4,0,0.6,0.2,0.6,0.6c0,0.4-0.2,0.6-0.6,0.6c-0.5,0-0.9,0-1.4,0
		C14.3,9.8,14.2,9.8,14,9.8z"/>
	<path class="st0" d="M17.7,22.1c0,0.6,0,1.2,0,1.8c0,0.5-0.2,0.7-0.7,0.7c-1.2,0-2.4,0-3.5,0c-0.4,0-0.7-0.3-0.7-0.6
		c0-0.4,0.2-0.6,0.7-0.6c0.9,0,1.7,0,2.6,0c0.1,0,0.3,0,0.4,0c0-0.6,0-1.1,0-1.6c0-0.7,0.2-0.9,0.9-0.9c0.1,0,0.2,0,0.4,0
		c0-0.2,0-0.4,0-0.5c0-0.4,0.3-0.6,0.6-0.7c0.4,0,0.6,0.2,0.6,0.6c0,0.4,0,0.7,0,1.1c0,0.5-0.2,0.7-0.7,0.7
		C18,22.1,17.9,22.1,17.7,22.1z"/>
	<path class="st0" d="M9.1,14.7c0-0.6,0-1.2,0-1.7c0-0.4,0.2-0.7,0.6-0.7c0.4,0,0.6,0.2,0.6,0.7c0,0.6,0,1.1,0,1.7c0.5,0,1,0,1.5,0
		c0.1,0,0.3,0,0.4,0c0.3,0,0.5,0.3,0.5,0.6c0,0.3-0.2,0.6-0.6,0.6c-1.7,0-3.3,0-5,0c-0.4,0-0.6-0.3-0.6-0.6c0-0.3,0.2-0.6,0.6-0.6
		c0.5,0,1,0,1.4,0C8.8,14.7,8.9,14.7,9.1,14.7z"/>
	<path class="st0" d="M14,19.6c-0.4,0-0.8,0-1.2,0c0,0.2,0,0.4,0,0.6c0,0.4-0.3,0.6-0.6,0.6c-0.3,0-0.6-0.2-0.6-0.6
		c0-0.4,0-0.8,0-1.1c0-0.5,0.2-0.7,0.7-0.7c0.6,0,1.1,0,1.8,0c0-0.6,0-1.2,0-1.8c0-0.4,0.2-0.7,0.6-0.7c0.3,0,0.6,0.2,0.6,0.6
		c0,1.2,0,2.5,0,3.7c0,0.4-0.2,0.6-0.6,0.6c-0.4,0-0.6-0.2-0.6-0.6C14,20,14,19.9,14,19.6z"/>
	<path class="st0" d="M23.8,18.4c-1,0-2,0-3,0c-0.2,0-0.5-0.1-0.6-0.3c-0.3-0.4,0-0.9,0.5-0.9c1.3,0,2.5,0,3.8,0
		c0.3,0,0.6,0.3,0.6,0.6c0,0.8,0,1.6,0,2.4c0,0.4-0.3,0.6-0.6,0.6c-0.4,0-0.6-0.2-0.6-0.6C23.8,19.6,23.8,19,23.8,18.4z"/>
	<path class="st0" d="M15.2,4.9c0,0.6,0,1.1,0,1.7c0,0.5-0.2,0.8-0.8,0.8c-0.7,0-1.5,0-2.2,0c-0.2,0-0.4-0.1-0.5-0.2
		c-0.1-0.2-0.2-0.4-0.2-0.6c0-0.3,0.3-0.4,0.5-0.4c0.6,0,1.2,0,1.9,0c0-0.6,0-1.1,0-1.6c0-0.6,0.2-0.8,0.8-0.8c0.3,0,0.6,0,1,0
		c0.4,0,0.6,0.3,0.6,0.6c0,0.4-0.2,0.6-0.6,0.6C15.6,4.9,15.4,4.9,15.2,4.9z"/>
	<path class="st0" d="M4.2,12.3c0.6,0,1.1,0,1.7,0c0.5,0,0.7,0.2,0.7,0.6c0,0.4-0.3,0.6-0.7,0.6c-0.6,0-1.1,0-1.7,0c0,0.5,0,1,0,1.4
		c0,0.2,0,0.3,0,0.5c0,0.3-0.3,0.5-0.6,0.5c-0.3,0-0.6-0.2-0.6-0.5c0-0.3,0-0.7,0-1c0-0.9,0-1.8,0-2.6c0-0.5,0.2-0.7,0.6-0.7
		c0.3,0,0.6,0.2,0.6,0.5C4.2,11.8,4.2,12,4.2,12.3z"/>
	<path class="st0" d="M21.3,23.3c0-0.6,0-1.2,0-1.8c0-0.3,0.1-0.6,0.5-0.7c0.4-0.1,0.7,0.2,0.7,0.6c0,0.6,0,1.2,0,1.8
		c0.2,0,0.4,0,0.5,0c0.4,0,0.9,0,1.3,0c0.4,0,0.6,0.2,0.6,0.6c0,0.4-0.2,0.6-0.6,0.6c0,0,0,0,0,0c-1.2,0-2.4,0-3.6,0
		c-0.2,0-0.4-0.2-0.6-0.3c-0.3-0.4,0-0.8,0.5-0.9C20.9,23.3,21.1,23.3,21.3,23.3z"/>
	<path class="st0" d="M23.8,14.7c0-0.6,0-1.2,0-1.8c0-0.4,0.3-0.7,0.7-0.6c0.3,0.1,0.5,0.3,0.5,0.6c0,0.8,0,1.6,0,2.5
		c0,0.4-0.3,0.6-0.7,0.6c-0.4,0-0.8,0-1.2,0c-0.4,0-0.6-0.2-0.6-0.6c0-0.4,0.2-0.6,0.6-0.6C23.3,14.7,23.5,14.7,23.8,14.7z"/>
	<path class="st0" d="M17.7,12.3c0,0.2,0,0.4,0,0.6c0,0.4-0.3,0.6-0.6,0.6c-0.3,0-0.6-0.2-0.6-0.5c0-0.5,0-0.9,0-1.4
		c0-0.3,0.3-0.6,0.6-0.5c0.3,0,0.5,0.2,0.6,0.6C17.7,11.8,17.7,12.1,17.7,12.3z"/>
	<path class="st0" d="M11.6,3.7c0-0.2,0-0.4,0-0.6c0-0.4,0.3-0.6,0.6-0.6c0.3,0,0.6,0.2,0.6,0.6c0,0.4,0,0.9,0,1.3
		c0,0.4-0.3,0.6-0.6,0.6c-0.3,0-0.6-0.2-0.6-0.6C11.6,4.1,11.6,3.9,11.6,3.7C11.6,3.7,11.6,3.7,11.6,3.7z"/>
	<path class="st0" d="M5.4,6.1c0-1.1,0.1-1.2,1.2-1.2c0.2,0,0.4,0,0.6,0c0.4,0,0.6,0.2,0.6,0.6c0,0.4,0,0.8,0,1.2
		c0,0.4-0.3,0.6-0.7,0.6c-0.3,0-0.7,0-1,0c-0.5,0-0.7-0.2-0.7-0.7C5.4,6.5,5.4,6.3,5.4,6.1z"/>
	<path class="st0" d="M21.3,4.9c1.2,0,1.2,0,1.2,1.2c0,1.2,0,1.2-1.2,1.2c-1.1,0-1.2-0.1-1.2-1.2C20.1,5,20.2,4.9,21.3,4.9z"/>
	<path class="st0" d="M6.6,22.1c-1.1,0-1.2-0.1-1.2-1.2c0-0.2,0-0.4,0-0.5c0-0.5,0.2-0.7,0.7-0.7c0.4,0,0.7,0,1.1,0
		c0.5,0,0.7,0.2,0.7,0.7c0,0.3,0,0.6,0,1c0,0.6-0.2,0.8-0.8,0.8C7,22.1,6.8,22.1,6.6,22.1z"/>
</g>
</svg>
