<svg width="22" height="21" viewBox="0 0 22 21" fill="none" xmlns="http://www.w3.org/2000/svg">
<path d="M6.24706 14.1563C6.03448 14.3779 5.74616 14.5024 5.44553 14.5024C5.14491 14.5024 4.85659 14.3779 4.64401 14.1563C4.43144 13.9346 4.31201 13.634 4.31201 13.3206C4.31201 13.0072 4.43144 12.7066 4.64401 12.4849C4.85659 12.2633 5.14491 12.1388 5.44553 12.1388L7.71258 9.77515C7.71258 9.46172 7.832 9.16112 8.04458 8.93948C8.25716 8.71785 8.54547 8.59334 8.8461 8.59334C9.14673 8.59334 9.43505 8.71785 9.64762 8.93948C9.8602 9.16112 9.97963 9.46172 9.97963 9.77515L11.287 11.1618H11.4079L14.1359 8.31758C14.1322 8.27828 14.1322 8.2387 14.1359 8.1994C14.1359 7.96566 14.2024 7.73716 14.3269 7.54281C14.4515 7.34846 14.6285 7.19699 14.8356 7.10754C15.0427 7.01809 15.2707 6.99469 15.4905 7.04029C15.7104 7.08589 15.9124 7.19844 16.0709 7.36373C16.2294 7.52901 16.3374 7.73959 16.3811 7.96884C16.4249 8.19809 16.4024 8.43571 16.3166 8.65166C16.2308 8.86761 16.0856 9.05218 15.8991 9.18204C15.7127 9.3119 15.4936 9.38121 15.2694 9.38121L12.5187 12.2727V12.3358C12.5187 12.6492 12.3993 12.9498 12.1867 13.1714C11.9741 13.3931 11.6858 13.5176 11.3852 13.5176C11.0846 13.5176 10.7962 13.3931 10.5837 13.1714C10.3711 12.9498 10.2517 12.6492 10.2517 12.3358V12.2727L9.03502 11.0042H8.86122H8.68741L6.57906 13.2024C6.58275 13.2417 6.58275 13.2813 6.57906 13.3206C6.57906 13.634 6.45963 13.9346 6.24706 14.1563Z" fill="white" stroke="white"/>
<path d="M19.2565 2.01758H2.36757C1.7846 2.01758 1.31201 2.65184 1.31201 3.43424V17.6009C1.31201 18.3833 1.7846 19.0176 2.36757 19.0176H19.2565C19.8394 19.0176 20.312 18.3833 20.312 17.6009V3.43424C20.312 2.65184 19.8394 2.01758 19.2565 2.01758Z" stroke="white" stroke-width="2.5" stroke-linecap="round" stroke-linejoin="round"/>
</svg>
