<svg width="20" height="21" viewBox="0 0 20 21" fill="none" xmlns="http://www.w3.org/2000/svg">
<path d="M7.51771 2.86511H3.79429C3.13595 2.86511 2.50457 3.12664 2.03905 3.59215C1.57354 4.05767 1.31201 4.68905 1.31201 5.34739V16.5176C1.31201 17.176 1.57354 17.8074 2.03905 18.2729C2.50457 18.7384 3.13595 18.9999 3.79429 18.9999H14.9645C15.6229 18.9999 16.2543 18.7384 16.7198 18.2729C17.1853 17.8074 17.4468 17.176 17.4468 16.5176V12.7942" stroke="white" stroke-width="2.5" stroke-linecap="round" stroke-linejoin="round"/>
<path d="M7.26208 13.05H9.99694L17.7457 5.30126C18.1083 4.93859 18.3121 4.44672 18.3121 3.93383C18.3121 3.42095 18.1083 2.92907 17.7457 2.56641C17.383 2.20374 16.8911 2 16.3783 2C15.8654 2 15.3735 2.20374 15.0108 2.56641L7.26208 10.3151V13.05Z" stroke="white" stroke-width="2.5" stroke-linecap="round" stroke-linejoin="round"/>
<path d="M14.062 4.54996L15.762 6.24996" stroke="white" stroke-width="2.5" stroke-linecap="round" stroke-linejoin="round"/>
</svg>
