<svg width="24" height="23" viewBox="0 0 24 23" fill="none" xmlns="http://www.w3.org/2000/svg">
<path d="M9.9299 2.96333C10.4032 1.01222 13.1788 1.01222 13.6521 2.96333C13.7231 3.25644 13.8624 3.52864 14.0585 3.75778C14.2546 3.98691 14.502 4.1665 14.7806 4.28194C15.0593 4.39738 15.3612 4.44539 15.6619 4.42208C15.9626 4.39876 16.2535 4.30478 16.511 4.14778C18.2255 3.10333 20.1888 5.06556 19.1443 6.78111C18.9876 7.03851 18.8937 7.32926 18.8705 7.62975C18.8472 7.93023 18.8952 8.23197 19.0105 8.51042C19.1258 8.78888 19.3052 9.0362 19.534 9.23228C19.7629 9.42836 20.0348 9.56767 20.3277 9.63889C22.2788 10.1122 22.2788 12.8878 20.3277 13.3611C20.0346 13.4321 19.7624 13.5714 19.5332 13.7675C19.3041 13.9636 19.1245 14.211 19.0091 14.4896C18.8936 14.7682 18.8456 15.0702 18.8689 15.3709C18.8923 15.6716 18.9862 15.9625 19.1432 16.22C20.1877 17.9344 18.2255 19.8978 16.5099 18.8533C16.2525 18.6966 15.9618 18.6027 15.6613 18.5795C15.3608 18.5562 15.0591 18.6042 14.7806 18.7195C14.5021 18.8348 14.2548 19.0142 14.0587 19.243C13.8627 19.4719 13.7233 19.7438 13.6521 20.0367C13.1788 21.9878 10.4032 21.9878 9.9299 20.0367C9.85889 19.7436 9.71966 19.4714 9.52356 19.2422C9.32746 19.0131 9.08003 18.8335 8.8014 18.7181C8.52278 18.6026 8.22083 18.5546 7.92014 18.5779C7.61945 18.6012 7.32852 18.6952 7.07102 18.8522C5.35657 19.8967 3.39324 17.9344 4.43768 16.2189C4.59446 15.9615 4.68829 15.6707 4.71155 15.3703C4.73481 15.0698 4.68684 14.768 4.57154 14.4896C4.45624 14.2111 4.27686 13.9638 4.04799 13.7677C3.81911 13.5716 3.5472 13.4323 3.25435 13.3611C1.30324 12.8878 1.30324 10.1122 3.25435 9.63889C3.54746 9.56787 3.81966 9.42864 4.04879 9.23254C4.27793 9.03644 4.45752 8.78901 4.57296 8.51039C4.68839 8.23176 4.73641 7.92982 4.71309 7.62913C4.68978 7.32844 4.5958 7.0375 4.43879 6.78C3.39435 5.06556 5.35657 3.10222 7.07213 4.14667C8.18324 4.82222 9.62324 4.22444 9.9299 2.96333Z" stroke="#BABEC6" stroke-width="2.5" stroke-linecap="round" stroke-linejoin="round"/>
<path d="M11.791 14.8333C13.632 14.8333 15.1244 13.3409 15.1244 11.5C15.1244 9.65905 13.632 8.16667 11.791 8.16667C9.95009 8.16667 8.4577 9.65905 8.4577 11.5C8.4577 13.3409 9.95009 14.8333 11.791 14.8333Z" stroke="#BABEC6" stroke-width="2.5" stroke-linecap="round" stroke-linejoin="round"/>
</svg>
