<svg width="25" height="25" viewBox="0 0 25 25" fill="none" xmlns="http://www.w3.org/2000/svg">
<path d="M25.0001 12.4255C24.9475 15.6645 23.8454 18.3924 21.6275 20.6599C21.245 21.051 20.7536 21.0788 20.3939 20.7363C20.0467 20.4058 20.0493 19.8872 20.4247 19.4986C21.2328 18.6611 21.8967 17.7265 22.3896 16.671C22.8252 15.7379 23.1015 14.7593 23.2311 13.7391C23.4957 11.6544 23.1228 9.68143 22.1533 7.82488C21.7151 6.98591 21.1509 6.23195 20.4946 5.5458C20.3539 5.39906 20.2233 5.21133 20.1687 5.01955C20.0634 4.65117 20.2471 4.28938 20.5705 4.10974C20.9075 3.92302 21.2814 3.97464 21.5759 4.26408C22.2631 4.94011 22.8531 5.69406 23.349 6.51987C24.2223 7.97466 24.7435 9.54937 24.9282 11.2339C24.9738 11.6539 24.9798 12.0774 25.0001 12.4255Z" fill="#272727" fill-opacity="0.3"/>
<path d="M21.6639 12.3314C21.6289 14.7512 20.8431 16.7115 19.2517 18.3393C18.898 18.7011 18.4041 18.7208 18.0525 18.3945C17.7155 18.0812 17.6836 17.5762 18.0206 17.2144C18.5843 16.6093 19.0736 15.959 19.4086 15.1985C19.9434 13.9846 20.0957 12.7206 19.8908 11.4145C19.6768 10.0513 19.0787 8.87689 18.1238 7.88106C17.7701 7.51218 17.6993 7.15392 17.8865 6.80225C18.1572 6.2937 18.812 6.19402 19.2274 6.60996C20.0052 7.38871 20.6134 8.28486 21.0339 9.30295C21.4432 10.2942 21.6623 11.4328 21.6639 12.3314Z" fill="#272727" fill-opacity="0.3"/>
<path d="M0 6.75525C1.64125 6.7539 3.28295 6.7566 4.9242 6.74446C5.08837 6.74311 5.27548 6.68869 5.41221 6.59828C8.61645 4.47172 11.8153 2.33661 15.015 0.203301C15.1113 0.138982 15.2102 0.0787116 15.3339 0C15.3339 8.06546 15.3339 16.0994 15.3339 24.1775C15.2381 24.1172 15.1567 24.0691 15.0784 24.0169C11.8576 21.8697 8.63758 19.7206 5.41266 17.5797C5.27638 17.4893 5.08882 17.4344 4.92465 17.4335C3.28295 17.4209 1.6417 17.4236 0 17.4222C0 13.8667 0 10.3108 0 6.75525ZM13.8065 2.87005C13.7237 2.91998 13.6738 2.94786 13.6266 2.97935C11.2063 4.59271 8.78736 6.20787 6.36349 7.81584C6.21642 7.91344 6.19888 8.02409 6.19888 8.17431C6.20112 10.7817 6.20247 13.3891 6.19663 15.9969C6.19618 16.1773 6.24655 16.2848 6.39993 16.3869C8.79501 17.9768 11.1856 19.5735 13.5775 21.168C13.6436 21.2121 13.7147 21.249 13.8069 21.3025C13.8065 15.1491 13.8065 9.03159 13.8065 2.87005ZM4.65163 15.8925C4.65163 13.3612 4.65163 10.8307 4.65163 8.29575C3.61039 8.29575 2.57589 8.29575 1.54365 8.29575C1.54365 10.8375 1.54365 13.3616 1.54365 15.8925C2.58489 15.8925 3.60769 15.8925 4.65163 15.8925Z" fill="#272727" fill-opacity="0.3"/>
</svg>
