<svg width="26" height="25" viewBox="0 0 26 25" fill="none" xmlns="http://www.w3.org/2000/svg">
<path d="M0 6.75525C1.64125 6.7539 3.28295 6.7566 4.9242 6.74446C5.08837 6.74311 5.27548 6.68869 5.41221 6.59828C8.61645 4.47172 11.8153 2.33661 15.015 0.203301C15.1113 0.138982 15.2102 0.0787116 15.3339 0C15.3339 8.06546 15.3339 16.0994 15.3339 24.1775C15.2381 24.1172 15.1567 24.0691 15.0784 24.0169C11.8576 21.8697 8.63758 19.7206 5.41266 17.5797C5.27638 17.4893 5.08882 17.4344 4.92465 17.4335C3.28295 17.4209 1.6417 17.4236 0 17.4222C0 13.8667 0 10.3108 0 6.75525ZM13.8065 2.87005C13.7237 2.91998 13.6738 2.94786 13.6266 2.97935C11.2063 4.59271 8.78736 6.20787 6.36349 7.81584C6.21642 7.91344 6.19888 8.02409 6.19888 8.17431C6.20112 10.7817 6.20247 13.3891 6.19663 15.9969C6.19618 16.1773 6.24655 16.2848 6.39993 16.3869C8.79501 17.9768 11.1856 19.5735 13.5775 21.168C13.6436 21.2121 13.7147 21.249 13.8069 21.3025C13.8065 15.1491 13.8065 9.03159 13.8065 2.87005ZM4.65163 15.8925C4.65163 13.3612 4.65163 10.8307 4.65163 8.29575C3.61039 8.29575 2.57589 8.29575 1.54365 8.29575C1.54365 10.8375 1.54365 13.3616 1.54365 15.8925C2.58489 15.8925 3.60769 15.8925 4.65163 15.8925Z" fill="#272727" fill-opacity="0.3"/>
<path d="M21.662 13.1682C20.5587 14.2711 19.4783 15.3519 18.4137 16.4166C18.044 16.0477 17.6927 15.6974 17.323 15.329C18.3849 14.268 19.4658 13.1885 20.5655 12.0901C19.464 10.9931 18.3809 9.91498 17.3145 8.85349C17.69 8.47928 18.0413 8.12935 18.4092 7.76233C19.4743 8.82741 20.5551 9.90823 21.6539 11.007C22.7509 9.90868 23.8309 8.82741 24.8978 7.75873C25.263 8.1235 25.6147 8.47523 25.9691 8.82921C24.9076 9.89024 23.8259 10.9711 22.737 12.0591C23.8462 13.1678 24.9324 14.2531 26.0002 15.3204C25.6174 15.7023 25.2652 16.054 24.9018 16.4166C23.8349 15.3474 22.7559 14.2653 21.662 13.1682Z" fill="#272727" fill-opacity="0.3"/>
</svg>
