<svg width="274" height="176" viewBox="0 0 274 176" fill="none" xmlns="http://www.w3.org/2000/svg">
<g filter="url(#filter0_d_69_890)">
<path fill-rule="evenodd" clip-rule="evenodd" d="M9.94141 45C9.94141 39.4772 14.4186 35 19.9414 35H208.026C213.548 35 218.026 39.4772 218.026 45V91C218.026 96.5229 213.548 101 208.026 101H19.9414C14.4186 101 9.94141 96.5228 9.94141 91V45ZM65.215 63.0487H67.471C69.423 63.0487 70.399 64.7127 70.399 66.7127C70.399 68.6967 69.423 70.3287 67.471 70.3287H65.215V63.0487ZM67.471 72.2007C70.623 72.2007 72.447 69.8487 72.447 66.7127C72.447 63.5767 70.623 61.1767 67.471 61.1767H63.167V72.2007H67.471ZM79.9028 72.2007H81.8548V64.7287H79.9028V65.6567C79.3428 64.8407 78.2708 64.5687 77.5828 64.5687C75.6148 64.5687 73.7748 66.0727 73.7748 68.4567C73.7748 70.8407 75.6148 72.3447 77.5828 72.3447C78.3028 72.3447 79.4388 72.0087 79.9028 71.2407V72.2007ZM75.7908 68.4567C75.7908 67.2407 76.7668 66.4407 77.8548 66.4407C78.8788 66.4407 79.9028 67.1767 79.9028 68.4567C79.9028 69.7367 78.9268 70.4727 77.8548 70.4727C76.7668 70.4727 75.7908 69.6727 75.7908 68.4567ZM86.8989 69.3367C87.4589 69.4647 87.7309 69.6567 87.7149 70.0407C87.7149 70.4727 87.2989 70.7767 86.7389 70.7927C86.0189 70.8407 85.4109 70.3767 85.3629 69.8487H83.5389C83.5869 71.4487 85.0749 72.3607 86.5469 72.3607C88.0989 72.3607 89.6029 71.5927 89.6029 70.0567C89.6029 69.4487 89.3789 68.2967 87.6509 67.8167L86.4029 67.5127C85.9709 67.4007 85.6189 67.1927 85.6189 66.8887C85.6189 66.3287 86.0669 66.1527 86.5629 66.1527C87.0109 66.1527 87.5229 66.3607 87.5709 66.9207H89.4269C89.3469 65.2087 87.9389 64.5687 86.5149 64.5687C85.0429 64.5687 83.7629 65.5767 83.7629 66.7927C83.7629 67.6567 83.9389 68.5687 85.8749 69.0807L86.8989 69.3367ZM93.2845 68.2167C93.2845 66.9207 94.2605 66.4727 95.0765 66.4727C95.8765 66.4727 96.6605 67.0647 96.6605 68.1367V72.2007H98.6125V68.0407C98.6125 65.8487 97.5405 64.5687 95.6045 64.5687C94.8685 64.5687 93.6205 64.9847 93.2845 65.8807V60.6647H91.3325V72.2007H93.2845V68.2167ZM102.707 68.4407C102.707 67.1607 103.683 66.4247 104.691 66.4247C105.779 66.4247 106.659 67.2247 106.659 68.4407C106.659 69.6727 105.779 70.4887 104.691 70.4887C103.619 70.4887 102.707 69.6887 102.707 68.4407ZM102.675 72.2007V71.1927C103.075 71.9447 104.035 72.3607 105.011 72.3607C106.979 72.3607 108.675 70.8407 108.675 68.4727C108.675 66.0887 106.979 64.5687 105.011 64.5687C104.003 64.5687 103.075 64.9687 102.675 65.7207V60.6647H100.723V72.2007H102.675ZM113.85 70.4407C112.762 70.4407 111.898 69.6567 111.898 68.4407C111.898 67.2407 112.762 66.4887 113.85 66.4887C114.938 66.4887 115.802 67.2407 115.802 68.4407C115.802 69.6567 114.938 70.4407 113.85 70.4407ZM113.85 72.3447C115.962 72.3447 117.738 70.7927 117.738 68.4407C117.738 66.0727 115.962 64.5687 113.85 64.5687C111.738 64.5687 109.962 66.0727 109.962 68.4407C109.962 70.7927 111.738 72.3447 113.85 72.3447ZM125.153 72.2007H127.105V64.7287H125.153V65.6567C124.593 64.8407 123.521 64.5687 122.833 64.5687C120.865 64.5687 119.025 66.0727 119.025 68.4567C119.025 70.8407 120.865 72.3447 122.833 72.3447C123.553 72.3447 124.689 72.0087 125.153 71.2407V72.2007ZM121.041 68.4567C121.041 67.2407 122.017 66.4407 123.105 66.4407C124.129 66.4407 125.153 67.1767 125.153 68.4567C125.153 69.7367 124.177 70.4727 123.105 70.4727C122.017 70.4727 121.041 69.6727 121.041 68.4567ZM131.269 69.5607C131.269 67.5767 131.813 66.3927 133.141 66.3927C133.333 66.3927 133.813 66.3927 134.277 66.6007L134.613 64.8407C134.309 64.6647 133.909 64.5687 133.381 64.5687C132.533 64.5687 131.653 65.1287 131.269 66.4887V64.7287H129.317V72.2007H131.269V69.5607ZM141.291 72.2007H143.227V60.6647H141.291V65.7207C140.859 64.9687 139.947 64.5687 138.939 64.5687C136.971 64.5687 135.275 66.0887 135.275 68.4727C135.275 70.8407 136.971 72.3607 138.939 72.3607C139.915 72.3607 140.859 71.9447 141.291 71.1927V72.2007ZM141.259 68.4407C141.259 69.6887 140.331 70.4887 139.259 70.4887C138.171 70.4887 137.291 69.6727 137.291 68.4407C137.291 67.2247 138.171 66.4247 139.259 66.4247C140.283 66.4247 141.259 67.1607 141.259 68.4407ZM36.062 68.25C36.062 67.8358 36.3978 67.5 36.812 67.5C37.2262 67.5 37.562 67.8358 37.562 68.25C37.562 68.6642 37.2262 69 36.812 69C36.3978 69 36.062 68.6642 36.062 68.25ZM36.812 65C35.0171 65 33.562 66.4551 33.562 68.25C33.562 70.0449 35.0171 71.5 36.812 71.5C38.6069 71.5 40.062 70.0449 40.062 68.25C40.062 67.8116 39.9752 67.3935 39.8179 67.0119L41.6959 65.1339C42.1841 64.6457 42.1841 63.8543 41.6959 63.3661C41.2077 62.878 40.4163 62.878 39.9281 63.3661L38.0501 65.2441C37.6685 65.0868 37.2504 65 36.812 65ZM31.7504 61.1304C33.2304 60.0692 34.9994 59.5 36.812 59.5C38.6247 59.5 40.3936 60.0692 41.8737 61.1304C43.3539 62.1917 44.4725 63.693 45.0721 65.4278C45.6718 67.1626 45.7222 69.0433 45.2162 70.8086C44.7498 72.4358 43.8323 73.8891 42.5781 75H31.0459C29.7917 73.8891 28.8743 72.4358 28.4078 70.8086C27.9018 69.0433 27.9522 67.1626 28.5519 65.4278C29.1516 63.693 30.2701 62.1917 31.7504 61.1304ZM36.812 57C34.475 57 32.1969 57.734 30.2936 59.0986C28.3905 60.4631 26.9568 62.3901 26.1891 64.611C25.4214 66.8318 25.357 69.2383 26.0046 71.4975C26.6522 73.7568 27.9805 75.7588 29.8075 77.2249C30.0293 77.403 30.3053 77.5 30.5898 77.5H43.0342C43.3187 77.5 43.5947 77.403 43.8166 77.2249C45.6435 75.7588 46.9718 73.7568 47.6194 71.4975C48.267 69.2383 48.2026 66.8318 47.4349 64.611C46.6672 62.3901 45.2335 60.4631 43.3304 59.0986C41.4271 57.734 39.1491 57 36.812 57Z" fill="#FFDE32"/>
</g>
<defs>
<filter id="filter0_d_69_890" x="-45.0586" y="0" width="318.084" height="176" filterUnits="userSpaceOnUse" color-interpolation-filters="sRGB">
<feFlood flood-opacity="0" result="BackgroundImageFix"/>
<feColorMatrix in="SourceAlpha" type="matrix" values="0 0 0 0 0 0 0 0 0 0 0 0 0 0 0 0 0 0 127 0" result="hardAlpha"/>
<feOffset dy="20"/>
<feGaussianBlur stdDeviation="27.5"/>
<feColorMatrix type="matrix" values="0 0 0 0 0.933333 0 0 0 0 0.470588 0 0 0 0 0.423529 0 0 0 0.25 0"/>
<feBlend mode="normal" in2="BackgroundImageFix" result="effect1_dropShadow_69_890"/>
<feBlend mode="normal" in="SourceGraphic" in2="effect1_dropShadow_69_890" result="shape"/>
</filter>
</defs>
</svg>
