<svg width="19" height="18" viewBox="0 0 19 18" fill="none" xmlns="http://www.w3.org/2000/svg">
<path d="M17.4222 14.1367L17.4221 14.1367C17.1319 14.6558 16.6887 14.9328 16.158 15.0291C16.2703 15.3816 16.2805 15.7407 16.1859 16.1042L16.1859 16.1043C15.9765 16.9089 15.2883 17.4102 14.4428 17.4139H14.4427C13.7451 17.4167 13.0472 17.4161 12.35 17.4155C12.0631 17.4153 11.7764 17.4151 11.4899 17.4151C11.2803 17.4151 11.0712 17.4148 10.8622 17.4145C10.4153 17.4139 9.96937 17.4133 9.52283 17.4155C9.52281 17.4155 9.52279 17.4155 9.52277 17.4155L9.52155 17.1655C7.97067 17.1734 6.56429 16.7142 5.24415 15.9222L17.4222 14.1367ZM17.4222 14.1367C17.7228 13.5985 17.6837 13.0697 17.4705 12.5816C17.7888 12.4665 18.0407 12.2961 18.231 12.0839C18.4776 11.809 18.6074 11.4788 18.6555 11.1443C18.7506 10.4837 18.4515 9.89382 17.8939 9.49896C18.1258 9.11795 18.2134 8.6929 18.115 8.23161L18.1149 8.23138C17.937 7.40186 17.25 6.8512 16.3891 6.83734L16.3891 6.83734C15.7154 6.82664 15.0411 6.8258 14.3689 6.82497C14.1305 6.82468 13.8924 6.82438 13.6547 6.82365C13.3234 6.82252 12.992 6.82277 12.6626 6.82303C12.625 6.82306 12.5875 6.82309 12.55 6.82311C12.5979 6.60176 12.6466 6.37589 12.673 6.15511L12.673 6.15504C12.8262 4.87025 12.5436 3.67102 11.9667 2.5442L11.9667 2.5441C11.6296 1.88649 11.123 1.38502 10.3841 1.15651L10.3102 1.39534L17.4222 14.1367ZM11.2054 2.94861C10.9977 2.53277 10.6939 2.21657 10.268 2.02573M11.2054 2.94861L10.9817 3.06026C10.8072 2.71088 10.5627 2.44981 10.2281 2.28331C10.2281 2.34628 10.2278 2.40741 10.2267 2.46798M11.2054 2.94861L10.9817 3.06033M11.2054 2.94861C11.896 4.33233 12.1001 5.74859 11.5047 7.2227L10.9817 3.06033M10.268 2.02573L9.97796 2.20413C9.97827 2.29465 9.97825 2.37916 9.97676 2.46367M10.268 2.02573C10.2548 2.01977 10.2412 2.01448 10.2272 2.00965L10.268 2.02573ZM10.2267 2.46798L9.97676 2.46367M10.2267 2.46798C10.2267 2.46802 10.2267 2.46805 10.2267 2.46809L9.97676 2.46367M10.2267 2.46798C10.2234 2.65849 10.2226 2.85219 10.2218 3.04777C10.2198 3.52915 10.2177 4.0219 10.1785 4.50635L10.1785 4.50647C10.1303 5.09979 9.91394 5.69589 9.36432 6.0951C8.63793 6.6227 7.9644 7.21072 7.33778 7.85397L7.33775 7.854C6.62344 8.58705 5.95788 9.34784 5.39941 10.1934C5.29104 10.3578 5.24035 10.5139 5.24192 10.7073V10.7073C5.25237 12.0123 5.25559 13.3188 5.23909 14.625C5.23786 14.7222 5.25406 14.784 5.27687 14.8289C5.29975 14.874 5.33845 14.9202 5.41029 14.9726L5.41045 14.9727C6.52829 15.788 7.78256 16.2484 9.14553 16.2924C10.4165 16.3335 11.6867 16.3233 12.9628 16.313C13.4669 16.3089 13.9719 16.3049 14.4782 16.304L9.97676 2.46367M10.9817 3.06033C11.6488 4.39671 11.8352 5.73702 11.2729 7.12907C11.1984 7.31349 11.1912 7.52604 11.3224 7.69728C11.4477 7.86079 11.6497 7.92035 11.8455 7.92188L11.8456 7.92188C12.5278 7.92691 13.2101 7.93115 13.8923 7.93539C14.3012 7.93793 14.7101 7.94047 15.1189 7.94318C15.2423 7.94408 15.3648 7.94445 15.4867 7.94482C15.806 7.94579 16.121 7.94674 16.4372 7.95711L16.4373 7.95712C16.6981 7.96557 16.9333 8.15099 17.012 8.40193L17.012 8.40204C17.0907 8.65273 17.0118 8.91301 16.7968 9.07499C16.7321 9.12326 16.6459 9.1564 16.5191 9.20415L16.5191 9.20418C16.4094 9.24552 16.295 9.31246 16.2151 9.4235C16.1302 9.54146 16.1039 9.68218 16.128 9.82745L16.1281 9.82763C16.1504 9.96151 16.2117 10.0894 16.3271 10.1793C16.4413 10.2683 16.5796 10.2975 16.714 10.2913L16.7141 10.2913C16.9028 10.2825 17.0567 10.3039 17.1794 10.3579C17.2965 10.4094 17.3993 10.4968 17.4807 10.6494L17.4808 10.6495C17.6991 11.0583 17.4122 11.5504 16.9428 11.5606M10.9817 3.06033L16.9428 11.5606M5.23544 8.53849C5.37217 8.37125 5.5074 8.208 5.64549 8.04859L5.64551 8.04856C6.54586 7.00951 7.52684 6.04427 8.65842 5.23395L8.65848 5.23391C8.8835 5.07287 9.00782 4.83768 9.04335 4.55977L9.04335 4.55975C9.09913 4.12364 9.11699 3.67921 9.13186 3.22528C9.13804 3.03594 9.13421 2.84511 9.13017 2.64654L9.13011 2.64337C9.12613 2.44802 9.122 2.24506 9.12864 2.04141C9.12865 2.04137 9.12865 2.04133 9.12865 2.04128L9.37852 2.04943L5.23544 8.53849ZM5.23544 8.53849C5.16009 7.78973 4.60215 7.12667 3.83995 6.98875L3.83987 6.98874C3.53902 6.9344 3.22461 6.93696 2.9406 6.93926C2.88476 6.93972 2.83009 6.94016 2.77693 6.94016C1.79052 6.94016 0.98338 7.71268 0.980095 8.70521C0.972057 11.0759 0.973665 13.4461 0.979692 15.8164L5.23544 8.53849ZM15.1036 15.8485L15.1037 15.8483C15.1408 15.6164 15.1457 15.4717 15.1139 15.3713C15.0904 15.2972 15.0383 15.2196 14.8592 15.1524L14.8589 15.1522C14.7638 15.1164 14.6855 15.0509 14.6297 14.9886C14.573 14.9253 14.521 14.8448 14.4925 14.7572C14.4925 14.7571 14.4924 14.757 14.4924 14.7569L14.7302 14.6797L15.1036 15.8485ZM15.1036 15.8485C15.0658 16.0858 14.8023 16.3033 14.4782 16.304L15.1036 15.8485ZM16.9428 11.5606C16.9427 11.5606 16.9427 11.5606 16.9426 11.5606L16.948 11.8106L16.9428 11.5606ZM2.08878 12.0214V12.2714C2.08878 12.6124 2.08861 12.9532 2.08844 13.2939C2.08802 14.1113 2.0876 14.9281 2.08959 15.7454L2.08959 15.7454C2.09052 16.1663 2.35361 16.4526 2.74089 16.484C2.97985 16.5033 3.22314 16.503 3.46166 16.4828C3.6883 16.4636 3.85135 16.3783 3.95848 16.2584C4.06632 16.1377 4.13572 15.9612 4.13605 15.728C4.13633 15.493 4.13722 15.2588 4.1381 15.025C4.13972 14.5977 4.14134 14.1716 4.13926 13.7443L4.13926 13.7442C4.13768 13.3882 4.13366 13.028 4.12962 12.6667C4.12452 12.2101 4.11939 11.7519 4.11917 11.2986C4.11868 10.7858 4.12325 10.2711 4.12781 9.75773C4.13074 9.42662 4.13368 9.09612 4.13524 8.76715L4.13524 8.76708C4.1371 8.39806 3.92652 8.13312 3.58313 8.07005L3.58302 8.07003C3.40866 8.03792 3.23142 8.03985 3.02804 8.04205C2.97045 8.04268 2.91077 8.04332 2.84846 8.04323H2.84836C2.59747 8.04273 2.4127 8.12403 2.29082 8.24778C2.1685 8.37199 2.0876 8.56132 2.08758 8.81727L2.08878 12.0214ZM2.08878 12.0214H2.08758M2.08878 12.0214H2.08758M2.08758 12.0214C2.0876 11.721 2.08763 11.4205 2.08767 11.12C2.08776 10.3524 2.08785 9.58475 2.08758 8.81735L2.08758 12.0214ZM3.54654 17.5927C4.37545 17.5466 5.01401 16.9809 5.19704 16.185L0.979692 15.8165C0.981612 16.6999 1.61678 17.4369 2.49609 17.564C2.84828 17.6148 3.20713 17.6115 3.54654 17.5927ZM16.0028 13.9306C15.672 13.9716 15.3402 14.0139 15.009 14.0591L15.9263 12.4225L15.8948 12.6705C15.8948 12.6705 15.8949 12.6705 15.8949 12.6705C16.1543 12.7034 16.3263 12.8126 16.4214 12.9473C16.5158 13.0808 16.5563 13.2697 16.495 13.5075L16.4949 13.5077C16.4741 13.5885 16.409 13.6902 16.3063 13.779C16.2038 13.8675 16.0909 13.9197 16.0029 13.9305L16.0028 13.9306Z" fill="#1EA614" stroke="#1EA614" stroke-width="0.5"/>
</svg>
