<svg width="63" height="36" viewBox="0 0 63 36" fill="none" xmlns="http://www.w3.org/2000/svg">
<path d="M17.4222 20.1367L17.4221 20.1367C17.1319 20.6558 16.6887 20.9328 16.158 21.0291C16.2703 21.3816 16.2805 21.7407 16.1859 22.1042L16.1859 22.1043C15.9765 22.9089 15.2883 23.4102 14.4428 23.4139H14.4427C13.7451 23.4167 13.0472 23.4161 12.35 23.4155C12.0631 23.4153 11.7764 23.4151 11.4899 23.4151C11.2803 23.4151 11.0712 23.4148 10.8622 23.4145C10.4153 23.4139 9.96937 23.4133 9.52283 23.4155C9.52281 23.4155 9.52279 23.4155 9.52277 23.4155L9.52155 23.1655C7.97067 23.1734 6.56429 22.7142 5.24415 21.9222L17.4222 20.1367ZM17.4222 20.1367C17.7228 19.5985 17.6837 19.0697 17.4705 18.5816C17.7888 18.4665 18.0407 18.2961 18.231 18.0839C18.4776 17.809 18.6074 17.4788 18.6555 17.1443C18.7506 16.4837 18.4515 15.8938 17.8939 15.499C18.1258 15.1179 18.2134 14.6929 18.115 14.2316L18.1149 14.2314C17.937 13.4019 17.25 12.8512 16.3891 12.8373L16.3891 12.8373C15.7154 12.8266 15.0411 12.8258 14.3689 12.825C14.1305 12.8247 13.8924 12.8244 13.6547 12.8236C13.3234 12.8225 12.992 12.8228 12.6626 12.823C12.625 12.8231 12.5875 12.8231 12.55 12.8231C12.5979 12.6018 12.6466 12.3759 12.673 12.1551L12.673 12.155C12.8262 10.8702 12.5436 9.67102 11.9667 8.5442L11.9667 8.5441C11.6296 7.88649 11.123 7.38502 10.3841 7.15651L10.3102 7.39534L17.4222 20.1367ZM11.2054 8.94861C10.9977 8.53277 10.6939 8.21657 10.268 8.02573M11.2054 8.94861L10.9817 9.06026C10.8072 8.71088 10.5627 8.44981 10.2281 8.28331C10.2281 8.34628 10.2278 8.40741 10.2267 8.46798M11.2054 8.94861L10.9817 9.06033M11.2054 8.94861C11.896 10.3323 12.1001 11.7486 11.5047 13.2227L10.9817 9.06033M10.268 8.02573L9.97796 8.20413C9.97827 8.29465 9.97825 8.37916 9.97676 8.46367M10.268 8.02573C10.2548 8.01977 10.2412 8.01448 10.2272 8.00965L10.268 8.02573ZM10.2267 8.46798L9.97676 8.46367M10.2267 8.46798C10.2267 8.46802 10.2267 8.46805 10.2267 8.46809L9.97676 8.46367M10.2267 8.46798C10.2234 8.65849 10.2226 8.85219 10.2218 9.04777C10.2198 9.52915 10.2177 10.0219 10.1785 10.5064L10.1785 10.5065C10.1303 11.0998 9.91394 11.6959 9.36432 12.0951C8.63793 12.6227 7.9644 13.2107 7.33778 13.854L7.33775 13.854C6.62344 14.587 5.95788 15.3478 5.39941 16.1934C5.29104 16.3578 5.24035 16.5139 5.24192 16.7073V16.7073C5.25237 18.0123 5.25559 19.3188 5.23909 20.625C5.23786 20.7222 5.25406 20.784 5.27687 20.8289C5.29975 20.874 5.33845 20.9202 5.41029 20.9726L5.41045 20.9727C6.52829 21.788 7.78256 22.2484 9.14553 22.2924C10.4165 22.3335 11.6867 22.3233 12.9628 22.313C13.4669 22.3089 13.9719 22.3049 14.4782 22.304L9.97676 8.46367M10.9817 9.06033C11.6488 10.3967 11.8352 11.737 11.2729 13.1291C11.1984 13.3135 11.1912 13.526 11.3224 13.6973C11.4477 13.8608 11.6497 13.9203 11.8455 13.9219L11.8456 13.9219C12.5278 13.9269 13.2101 13.9311 13.8923 13.9354C14.3012 13.9379 14.7101 13.9405 15.1189 13.9432C15.2423 13.9441 15.3648 13.9444 15.4867 13.9448C15.806 13.9458 16.121 13.9467 16.4372 13.9571L16.4373 13.9571C16.6981 13.9656 16.9333 14.151 17.012 14.4019L17.012 14.402C17.0907 14.6527 17.0118 14.913 16.7968 15.075C16.7321 15.1233 16.6459 15.1564 16.5191 15.2041L16.5191 15.2042C16.4094 15.2455 16.295 15.3125 16.2151 15.4235C16.1302 15.5415 16.1039 15.6822 16.128 15.8274L16.1281 15.8276C16.1504 15.9615 16.2117 16.0894 16.3271 16.1793C16.4413 16.2683 16.5796 16.2975 16.714 16.2913L16.7141 16.2913C16.9028 16.2825 17.0567 16.3039 17.1794 16.3579C17.2965 16.4094 17.3993 16.4968 17.4807 16.6494L17.4808 16.6495C17.6991 17.0583 17.4122 17.5504 16.9428 17.5606M10.9817 9.06033L16.9428 17.5606M5.23544 14.5385C5.37217 14.3712 5.5074 14.208 5.64549 14.0486L5.64551 14.0486C6.54586 13.0095 7.52684 12.0443 8.65842 11.234L8.65848 11.2339C8.8835 11.0729 9.00782 10.8377 9.04335 10.5598L9.04335 10.5598C9.09913 10.1236 9.11699 9.67921 9.13186 9.22528C9.13804 9.03594 9.13421 8.84511 9.13017 8.64654L9.13011 8.64337C9.12613 8.44802 9.122 8.24506 9.12864 8.04141C9.12865 8.04137 9.12865 8.04133 9.12865 8.04128L9.37852 8.04943L5.23544 14.5385ZM5.23544 14.5385C5.16009 13.7897 4.60215 13.1267 3.83995 12.9888L3.83987 12.9887C3.53902 12.9344 3.22461 12.937 2.9406 12.9393C2.88476 12.9397 2.83009 12.9402 2.77693 12.9402C1.79052 12.9402 0.98338 13.7127 0.980095 14.7052C0.972057 17.0759 0.973665 19.4461 0.979692 21.8164L5.23544 14.5385ZM15.1036 21.8485L15.1037 21.8483C15.1408 21.6164 15.1457 21.4717 15.1139 21.3713C15.0904 21.2972 15.0383 21.2196 14.8592 21.1524L14.8589 21.1522C14.7638 21.1164 14.6855 21.0509 14.6297 20.9886C14.573 20.9253 14.521 20.8448 14.4925 20.7572C14.4925 20.7571 14.4924 20.757 14.4924 20.7569L14.7302 20.6797L15.1036 21.8485ZM15.1036 21.8485C15.0658 22.0858 14.8023 22.3033 14.4782 22.304L15.1036 21.8485ZM16.9428 17.5606C16.9427 17.5606 16.9427 17.5606 16.9426 17.5606L16.948 17.8106L16.9428 17.5606ZM2.08878 18.0214V18.2714C2.08878 18.6124 2.08861 18.9532 2.08844 19.2939C2.08802 20.1113 2.0876 20.9281 2.08959 21.7454L2.08959 21.7454C2.09052 22.1663 2.35361 22.4526 2.74089 22.484C2.97985 22.5033 3.22314 22.503 3.46166 22.4828C3.6883 22.4636 3.85135 22.3783 3.95848 22.2584C4.06632 22.1377 4.13572 21.9612 4.13605 21.728C4.13633 21.493 4.13722 21.2588 4.1381 21.025C4.13972 20.5977 4.14134 20.1716 4.13926 19.7443L4.13926 19.7442C4.13768 19.3882 4.13366 19.028 4.12962 18.6667C4.12452 18.2101 4.11939 17.7519 4.11917 17.2986C4.11868 16.7858 4.12325 16.2711 4.12781 15.7577C4.13074 15.4266 4.13368 15.0961 4.13524 14.7671L4.13524 14.7671C4.1371 14.3981 3.92652 14.1331 3.58313 14.0701L3.58302 14.07C3.40866 14.0379 3.23142 14.0398 3.02804 14.0421C2.97045 14.0427 2.91077 14.0433 2.84846 14.0432H2.84836C2.59747 14.0427 2.4127 14.124 2.29082 14.2478C2.1685 14.372 2.0876 14.5613 2.08758 14.8173L2.08878 18.0214ZM2.08878 18.0214H2.08758M2.08878 18.0214H2.08758M2.08758 18.0214C2.0876 17.721 2.08763 17.4205 2.08767 17.12C2.08776 16.3524 2.08785 15.5848 2.08758 14.8174L2.08758 18.0214ZM3.54654 23.5927C4.37545 23.5466 5.01401 22.9809 5.19704 22.185L0.979692 21.8165C0.981612 22.6999 1.61678 23.4369 2.49609 23.564C2.84828 23.6148 3.20713 23.6115 3.54654 23.5927ZM16.0028 19.9306C15.672 19.9716 15.3402 20.0139 15.009 20.0591L15.9263 18.4225L15.8948 18.6705C15.8948 18.6705 15.8949 18.6705 15.8949 18.6705C16.1543 18.7034 16.3263 18.8126 16.4214 18.9473C16.5158 19.0808 16.5563 19.2697 16.495 19.5075L16.4949 19.5077C16.4741 19.5885 16.409 19.6902 16.3063 19.779C16.2038 19.8675 16.0909 19.9197 16.0029 19.9305L16.0028 19.9306Z" fill="#1EA614" stroke="#1EA614" stroke-width="0.5"/>
<path d="M33.1909 17.8571L37.5409 11.0171V17.8571H33.1909ZM43.8109 21.0671V17.8571H41.2009V5.70715H37.6309L27.8509 21.0671H37.5409V25.3271H41.2009V21.0671H43.8109ZM52.8899 16.5971C55.5599 16.5071 55.9499 18.6071 55.9499 19.1171C55.9499 20.8271 54.5399 22.0271 52.6499 22.0271C51.2999 22.0271 50.0399 21.0071 49.4699 19.8371C49.2299 19.9871 46.4999 21.3071 46.2599 21.4571C47.2799 23.7371 49.6799 25.4471 52.3499 25.5971C56.1899 25.8371 59.5199 23.6171 59.9099 20.0171C60.1499 17.9171 58.6799 15.4571 56.6399 14.6771C58.0499 13.8671 59.0699 12.4871 59.0699 10.8371C59.0699 7.95715 56.7599 5.49715 53.3999 5.34715C50.8499 5.19715 48.5699 6.36715 47.4599 8.25715L50.3399 10.1471C51.1499 9.15715 52.1999 8.79715 53.3699 8.94715C54.7799 9.18715 55.1099 10.4771 55.1099 11.1671C55.1099 11.7071 54.7199 13.3271 52.8899 13.3271H50.7899V16.5971H52.8899Z" fill="#2E446E"/>
</svg>
