<svg width="19" height="18" viewBox="0 0 19 18" fill="none" xmlns="http://www.w3.org/2000/svg">
<path d="M16.7857 4.5658L16.7857 4.56573C16.4955 4.04665 16.0523 3.76965 15.5215 3.67335C15.6339 3.32087 15.644 2.96173 15.5494 2.59821L15.5494 2.5982C15.34 1.79354 14.6519 1.29227 13.8063 1.2886H13.8062C13.1086 1.28575 12.4107 1.28633 11.7135 1.28692C11.4266 1.28716 11.1399 1.2874 10.8534 1.2874C10.6439 1.2874 10.4347 1.28768 10.2258 1.28797C9.77887 1.28858 9.33289 1.28918 8.88636 1.287C8.88634 1.287 8.88632 1.287 8.8863 1.287L8.88507 1.53699C7.33419 1.52902 5.92782 1.98827 4.60768 2.78026L16.7857 4.5658ZM16.7857 4.5658C17.0863 5.104 17.0472 5.63277 16.834 6.12086C17.1523 6.23598 17.4042 6.40637 17.5945 6.61852C17.8411 6.89343 17.9709 7.22365 18.019 7.55812C18.1142 8.21876 17.815 8.80864 17.2574 9.2035C17.4893 9.58451 17.5769 10.0096 17.4785 10.4708L17.4784 10.4711C17.3005 11.3006 16.6136 11.8513 15.7526 11.8651L15.7526 11.8651C15.079 11.8758 14.4046 11.8767 13.7325 11.8775C13.4941 11.8778 13.2559 11.8781 13.0182 11.8788C12.6869 11.8799 12.3555 11.8797 12.0261 11.8794C11.9885 11.8794 11.951 11.8794 11.9135 11.8793C11.9615 12.1007 12.0102 12.3266 12.0365 12.5473L12.0366 12.5474C12.1897 13.8322 11.9071 15.0314 11.3302 16.1583L11.3302 16.1584C10.9931 16.816 10.4865 17.3174 9.74763 17.5459L9.67376 17.3071L16.7857 4.5658ZM10.5689 15.7538C10.3612 16.1697 10.0575 16.4859 9.63157 16.6767M10.5689 15.7538L10.3452 15.6422C10.1707 15.9916 9.92627 16.2526 9.59164 16.4191C9.59165 16.3562 9.59132 16.295 9.59025 16.2345M10.5689 15.7538L10.3453 15.6421M10.5689 15.7538C11.2596 14.3701 11.4637 12.9539 10.8682 11.4797L10.3453 15.6421M9.63157 16.6767L9.34149 16.4983C9.3418 16.4078 9.34178 16.3233 9.34029 16.2388M9.63157 16.6767C9.61831 16.6827 9.60474 16.688 9.59077 16.6928L9.63157 16.6767ZM9.59025 16.2345L9.34029 16.2388M9.59025 16.2345C9.59025 16.2344 9.59025 16.2344 9.59025 16.2344L9.34029 16.2388M9.59025 16.2345C9.58696 16.044 9.58614 15.8503 9.58532 15.6547C9.5833 15.1733 9.58123 14.6806 9.54206 14.1961L9.54205 14.196C9.4938 13.6027 9.27746 13.0066 8.72785 12.6074C8.00146 12.0798 7.32793 11.4917 6.7013 10.8485L6.70128 10.8485C5.98696 10.1154 5.32141 9.35462 4.76294 8.50905C4.65456 8.34464 4.60387 8.18858 4.60544 7.99516V7.99514C4.61589 6.69014 4.61912 5.38367 4.60262 4.07748C4.60139 3.98021 4.61758 3.91848 4.6404 3.87353C4.66327 3.82846 4.70197 3.78221 4.77382 3.72989L4.77397 3.72978C5.89182 2.91443 7.14608 2.45407 8.50905 2.41002C9.78002 2.36896 11.0502 2.37919 12.3263 2.38946C12.8304 2.39352 13.3354 2.39758 13.8417 2.3985L9.34029 16.2388M10.3453 15.6421C11.0123 14.3057 11.1987 12.9654 10.6364 11.5734C10.5619 11.389 10.5548 11.1764 10.686 11.0052C10.8112 10.8417 11.0132 10.7821 11.209 10.7806L11.2091 10.7806C11.8914 10.7755 12.5737 10.7713 13.2558 10.7671C13.6647 10.7645 14.0736 10.762 14.4824 10.7593C14.6058 10.7584 14.7284 10.758 14.8502 10.7576C15.1695 10.7567 15.4845 10.7557 15.8007 10.7453L15.8008 10.7453C16.0616 10.7369 16.2969 10.5515 16.3755 10.3005L16.3755 10.3004C16.4542 10.0497 16.3754 9.78944 16.1603 9.62746C16.0956 9.5792 16.0094 9.54605 15.8827 9.49831L15.8826 9.49827C15.773 9.45694 15.6585 9.38999 15.5786 9.27896C15.4938 9.16099 15.4674 9.02027 15.4916 8.87501L15.4916 8.87482C15.514 8.74095 15.5752 8.61302 15.6906 8.52313C15.8048 8.43418 15.9431 8.40496 16.0775 8.41115L16.0777 8.41116C16.2663 8.41995 16.4203 8.39858 16.5429 8.34459C16.66 8.29302 16.7628 8.20565 16.8443 8.05303L16.8443 8.05298C17.0626 7.64412 16.7757 7.15202 16.3063 7.14181M10.3453 15.6421L16.3063 7.14181M4.59896 10.164C4.7357 10.3312 4.87092 10.4944 5.00901 10.6539L5.00904 10.6539C5.90939 11.6929 6.89036 12.6582 8.02195 13.4685L8.022 13.4685C8.24702 13.6296 8.37135 13.8648 8.40687 14.1427L8.40688 14.1427C8.46266 14.5788 8.48051 15.0232 8.49539 15.4772C8.50156 15.6665 8.49774 15.8573 8.4937 16.0559L8.49364 16.0591C8.48966 16.2544 8.48553 16.4574 8.49217 16.661C8.49217 16.6611 8.49217 16.6611 8.49217 16.6612L8.74204 16.653L4.59896 10.164ZM4.59896 10.164C4.52361 10.9127 3.96567 11.5758 3.20347 11.7137L3.20339 11.7137C2.90255 11.768 2.58814 11.7655 2.30413 11.7632C2.24829 11.7627 2.19362 11.7623 2.14046 11.7623C1.15404 11.7623 0.346905 10.9898 0.34362 9.99724C0.335582 7.62654 0.33719 5.25637 0.343217 2.88603L4.59896 10.164ZM14.4672 2.85399L14.4672 2.85414C14.5043 3.08608 14.5092 3.23079 14.4774 3.33114C14.4539 3.40525 14.4018 3.48283 14.2227 3.5501L14.2224 3.55021C14.1273 3.5861 14.0491 3.65156 13.9932 3.71388C13.9365 3.77715 13.8845 3.85769 13.856 3.94527C13.856 3.94536 13.856 3.94545 13.8559 3.94553L14.0937 4.02278L14.4672 2.85399ZM14.4672 2.85399C14.4293 2.61664 14.1658 2.39913 13.8417 2.3985L14.4672 2.85399ZM16.3063 7.14181C16.3062 7.14181 16.3062 7.14181 16.3061 7.14181L16.3115 6.89187L16.3063 7.14181ZM1.45231 6.68103V6.43103C1.45231 6.09006 1.45214 5.74924 1.45196 5.40851C1.45154 4.59116 1.45113 3.77432 1.45311 2.95708L1.45311 2.95702C1.45405 2.53618 1.71714 2.24987 2.10441 2.21849C2.34338 2.19911 2.58667 2.19949 2.82519 2.21961C3.05183 2.23889 3.21487 2.32412 3.322 2.44406C3.42984 2.56479 3.49924 2.74121 3.49957 2.9745C3.49986 3.20944 3.50074 3.44362 3.50163 3.67742C3.50325 4.10478 3.50486 4.53089 3.50279 4.95811L3.50279 4.95821C3.50121 5.31422 3.49718 5.67446 3.49314 6.03573C3.48804 6.49231 3.48292 6.95053 3.4827 7.40389C3.48221 7.91661 3.48678 8.43139 3.49133 8.94472C3.49427 9.27583 3.4972 9.60634 3.49877 9.93531L3.49877 9.93537C3.50062 10.3044 3.29004 10.5693 2.94666 10.6324L2.94655 10.6324C2.77218 10.6645 2.59495 10.6626 2.39156 10.6604C2.33398 10.6598 2.2743 10.6591 2.21199 10.6592H2.21188C1.961 10.6597 1.77622 10.5784 1.65434 10.4547C1.53202 10.3305 1.45112 10.1411 1.4511 9.88519L1.45231 6.68103ZM1.45231 6.68103H1.45111M1.45231 6.68103H1.45111M1.45111 6.68103C1.45112 6.98149 1.45116 7.28197 1.45119 7.58245C1.45128 8.35007 1.45137 9.1177 1.4511 9.8851L1.45111 6.68103ZM2.91006 1.10979C3.73897 1.15584 4.37753 1.72152 4.56056 2.51747L0.343218 2.88592C0.345137 2.00258 0.980304 1.26558 1.85961 1.1385C2.2118 1.08763 2.57065 1.09094 2.91006 1.10979ZM15.3663 4.7719C15.0355 4.73085 14.7037 4.68853 14.3725 4.64334L15.2898 6.27996L15.2583 6.03195C15.2584 6.03194 15.2584 6.03194 15.2584 6.03194C15.5179 5.99901 15.6898 5.88981 15.785 5.75511C15.8793 5.62161 15.9198 5.43274 15.8585 5.19493L15.8585 5.19479C15.8377 5.11395 15.7726 5.01225 15.6698 4.92348C15.5673 4.835 15.4545 4.7828 15.3664 4.77191L15.3663 4.7719Z" fill="#F2383A" stroke="#F2383A" stroke-width="0.5"/>
</svg>
