<svg width="58" height="36" viewBox="0 0 58 36" fill="none" xmlns="http://www.w3.org/2000/svg">
<path d="M16.7857 10.5658L16.7857 10.5657C16.4955 10.0467 16.0523 9.76965 15.5215 9.67335C15.6339 9.32087 15.644 8.96173 15.5494 8.59821L15.5494 8.5982C15.34 7.79354 14.6519 7.29227 13.8063 7.2886H13.8062C13.1086 7.28575 12.4107 7.28633 11.7135 7.28692C11.4266 7.28716 11.1399 7.2874 10.8534 7.2874C10.6439 7.2874 10.4347 7.28768 10.2258 7.28797C9.77887 7.28858 9.33289 7.28918 8.88636 7.287C8.88634 7.287 8.88632 7.287 8.8863 7.287L8.88507 7.53699C7.33419 7.52902 5.92782 7.98827 4.60768 8.78026L16.7857 10.5658ZM16.7857 10.5658C17.0863 11.104 17.0472 11.6328 16.834 12.1209C17.1523 12.236 17.4042 12.4064 17.5945 12.6185C17.8411 12.8934 17.9709 13.2236 18.019 13.5581C18.1142 14.2188 17.815 14.8086 17.2574 15.2035C17.4893 15.5845 17.5769 16.0096 17.4785 16.4708L17.4784 16.4711C17.3005 17.3006 16.6136 17.8513 15.7526 17.8651L15.7526 17.8651C15.079 17.8758 14.4046 17.8767 13.7325 17.8775C13.4941 17.8778 13.2559 17.8781 13.0182 17.8788C12.6869 17.8799 12.3555 17.8797 12.0261 17.8794C11.9885 17.8794 11.951 17.8794 11.9135 17.8793C11.9615 18.1007 12.0102 18.3266 12.0365 18.5473L12.0366 18.5474C12.1897 19.8322 11.9071 21.0314 11.3302 22.1583L11.3302 22.1584C10.9931 22.816 10.4865 23.3174 9.74763 23.5459L9.67376 23.3071L16.7857 10.5658ZM10.5689 21.7538C10.3612 22.1697 10.0575 22.4859 9.63157 22.6767M10.5689 21.7538L10.3452 21.6422C10.1707 21.9916 9.92627 22.2526 9.59164 22.4191C9.59165 22.3562 9.59132 22.295 9.59025 22.2345M10.5689 21.7538L10.3453 21.6421M10.5689 21.7538C11.2596 20.3701 11.4637 18.9539 10.8682 17.4797L10.3453 21.6421M9.63157 22.6767L9.34149 22.4983C9.3418 22.4078 9.34178 22.3233 9.34029 22.2388M9.63157 22.6767C9.61831 22.6827 9.60474 22.688 9.59077 22.6928L9.63157 22.6767ZM9.59025 22.2345L9.34029 22.2388M9.59025 22.2345C9.59025 22.2344 9.59025 22.2344 9.59025 22.2344L9.34029 22.2388M9.59025 22.2345C9.58696 22.044 9.58614 21.8503 9.58532 21.6547C9.5833 21.1733 9.58123 20.6806 9.54206 20.1961L9.54205 20.196C9.4938 19.6027 9.27746 19.0066 8.72785 18.6074C8.00146 18.0798 7.32793 17.4917 6.7013 16.8485L6.70128 16.8485C5.98696 16.1154 5.32141 15.3546 4.76294 14.509C4.65456 14.3446 4.60387 14.1886 4.60544 13.9952V13.9951C4.61589 12.6901 4.61912 11.3837 4.60262 10.0775C4.60139 9.98021 4.61758 9.91848 4.6404 9.87353C4.66327 9.82846 4.70197 9.78221 4.77382 9.72989L4.77397 9.72978C5.89182 8.91443 7.14608 8.45407 8.50905 8.41002C9.78002 8.36896 11.0502 8.37919 12.3263 8.38946C12.8304 8.39352 13.3354 8.39758 13.8417 8.3985L9.34029 22.2388M10.3453 21.6421C11.0123 20.3057 11.1987 18.9654 10.6364 17.5734C10.5619 17.389 10.5548 17.1764 10.686 17.0052C10.8112 16.8417 11.0132 16.7821 11.209 16.7806L11.2091 16.7806C11.8914 16.7755 12.5737 16.7713 13.2558 16.7671C13.6647 16.7645 14.0736 16.762 14.4824 16.7593C14.6058 16.7584 14.7284 16.758 14.8502 16.7576C15.1695 16.7567 15.4845 16.7557 15.8007 16.7453L15.8008 16.7453C16.0616 16.7369 16.2969 16.5515 16.3755 16.3005L16.3755 16.3004C16.4542 16.0497 16.3754 15.7894 16.1603 15.6275C16.0956 15.5792 16.0094 15.5461 15.8827 15.4983L15.8826 15.4983C15.773 15.4569 15.6585 15.39 15.5786 15.279C15.4938 15.161 15.4674 15.0203 15.4916 14.875L15.4916 14.8748C15.514 14.7409 15.5752 14.613 15.6906 14.5231C15.8048 14.4342 15.9431 14.405 16.0775 14.4112L16.0777 14.4112C16.2663 14.42 16.4203 14.3986 16.5429 14.3446C16.66 14.293 16.7628 14.2057 16.8443 14.053L16.8443 14.053C17.0626 13.6441 16.7757 13.152 16.3063 13.1418M10.3453 21.6421L16.3063 13.1418M4.59896 16.164C4.7357 16.3312 4.87092 16.4944 5.00901 16.6539L5.00904 16.6539C5.90939 17.6929 6.89036 18.6582 8.02195 19.4685L8.022 19.4685C8.24702 19.6296 8.37135 19.8648 8.40687 20.1427L8.40688 20.1427C8.46266 20.5788 8.48051 21.0232 8.49539 21.4772C8.50156 21.6665 8.49774 21.8573 8.4937 22.0559L8.49364 22.0591C8.48966 22.2544 8.48553 22.4574 8.49217 22.661C8.49217 22.6611 8.49217 22.6611 8.49217 22.6612L8.74204 22.653L4.59896 16.164ZM4.59896 16.164C4.52361 16.9127 3.96567 17.5758 3.20347 17.7137L3.20339 17.7137C2.90255 17.768 2.58814 17.7655 2.30413 17.7632C2.24829 17.7627 2.19362 17.7623 2.14046 17.7623C1.15404 17.7623 0.346905 16.9898 0.34362 15.9972C0.335582 13.6265 0.33719 11.2564 0.343217 8.88603L4.59896 16.164ZM14.4672 8.85399L14.4672 8.85414C14.5043 9.08608 14.5092 9.23079 14.4774 9.33114C14.4539 9.40525 14.4018 9.48283 14.2227 9.5501L14.2224 9.55021C14.1273 9.5861 14.0491 9.65156 13.9932 9.71388C13.9365 9.77715 13.8845 9.85769 13.856 9.94527C13.856 9.94536 13.856 9.94545 13.8559 9.94553L14.0937 10.0228L14.4672 8.85399ZM14.4672 8.85399C14.4293 8.61664 14.1658 8.39913 13.8417 8.3985L14.4672 8.85399ZM16.3063 13.1418C16.3062 13.1418 16.3062 13.1418 16.3061 13.1418L16.3115 12.8919L16.3063 13.1418ZM1.45231 12.681V12.431C1.45231 12.0901 1.45214 11.7492 1.45196 11.4085C1.45154 10.5912 1.45113 9.77432 1.45311 8.95708L1.45311 8.95702C1.45405 8.53618 1.71714 8.24987 2.10441 8.21849C2.34338 8.19911 2.58667 8.19949 2.82519 8.21961C3.05183 8.23889 3.21487 8.32412 3.322 8.44406C3.42984 8.56479 3.49924 8.74121 3.49957 8.9745C3.49986 9.20944 3.50074 9.44362 3.50163 9.67742C3.50325 10.1048 3.50486 10.5309 3.50279 10.9581L3.50279 10.9582C3.50121 11.3142 3.49718 11.6745 3.49314 12.0357C3.48804 12.4923 3.48292 12.9505 3.4827 13.4039C3.48221 13.9166 3.48678 14.4314 3.49133 14.9447C3.49427 15.2758 3.4972 15.6063 3.49877 15.9353L3.49877 15.9354C3.50062 16.3044 3.29004 16.5693 2.94666 16.6324L2.94655 16.6324C2.77218 16.6645 2.59495 16.6626 2.39156 16.6604C2.33398 16.6598 2.2743 16.6591 2.21199 16.6592H2.21188C1.961 16.6597 1.77622 16.5784 1.65434 16.4547C1.53202 16.3305 1.45112 16.1411 1.4511 15.8852L1.45231 12.681ZM1.45231 12.681H1.45111M1.45231 12.681H1.45111M1.45111 12.681C1.45112 12.9815 1.45116 13.282 1.45119 13.5825C1.45128 14.3501 1.45137 15.1177 1.4511 15.8851L1.45111 12.681ZM2.91006 7.10979C3.73897 7.15584 4.37753 7.72152 4.56056 8.51747L0.343218 8.88592C0.345137 8.00258 0.980304 7.26558 1.85961 7.1385C2.2118 7.08763 2.57065 7.09094 2.91006 7.10979ZM15.3663 10.7719C15.0355 10.7309 14.7037 10.6885 14.3725 10.6433L15.2898 12.28L15.2583 12.0319C15.2584 12.0319 15.2584 12.0319 15.2584 12.0319C15.5179 11.999 15.6898 11.8898 15.785 11.7551C15.8793 11.6216 15.9198 11.4327 15.8585 11.1949L15.8585 11.1948C15.8377 11.1139 15.7726 11.0122 15.6698 10.9235C15.5673 10.835 15.4545 10.7828 15.3664 10.7719L15.3663 10.7719Z" fill="#F2383A" stroke="#F2383A" stroke-width="0.5"/>
<path d="M28.7244 8.55715V11.8571L32.0244 10.5371V25.3271H35.7144V5.46715L28.7244 8.55715ZM52.6136 25.3271V21.8171H45.9836L50.8436 16.2671C52.0736 14.8571 52.9436 13.1771 52.9436 11.2571C52.9436 7.77715 50.0636 5.34715 46.6136 5.34715C43.1336 5.34715 40.5536 7.56715 39.9836 11.1371L43.4036 11.7671C43.6436 10.0871 44.8736 8.91715 46.4636 8.91715C48.1436 8.91715 49.2836 9.93715 49.2836 11.2571C49.2836 12.1871 48.7736 13.0271 48.0836 13.8371L40.0736 23.4371V25.3271H52.6136Z" fill="#2E446E"/>
</svg>
