<svg width="22" height="20" viewBox="0 0 22 20" fill="none" xmlns="http://www.w3.org/2000/svg">
<path d="M18.687 14.2362V17.3044C18.687 17.5757 18.5685 17.8358 18.3575 18.0276C18.1465 18.2194 17.8604 18.3271 17.562 18.3271H4.06201C3.46527 18.3271 2.89298 18.1116 2.47102 17.728C2.04906 17.3444 1.81201 16.8242 1.81201 16.2817V4.00896M16.437 6.05441V2.98623C16.437 2.71498 16.3185 2.45485 16.1075 2.26305C15.8965 2.07125 15.6104 1.9635 15.312 1.9635H4.06201C3.46527 1.9635 2.89298 2.179 2.47102 2.5626C2.04906 2.9462 1.81201 3.46647 1.81201 4.00896C1.81201 4.55144 2.04906 5.07171 2.47102 5.45531C2.89298 5.83891 3.46527 6.05441 4.06201 6.05441H17.562C17.8604 6.05441 18.1465 6.16216 18.3575 6.35396C18.5685 6.54576 18.687 6.80589 18.687 7.07714V10.1453L16.437 6.05441Z" stroke="white" stroke-width="2.5" stroke-linecap="round" stroke-linejoin="round"/>
<path d="M19.812 10.1453V14.2362H15.312C14.7153 14.2362 14.143 14.0207 13.721 13.6371C13.2991 13.2535 13.062 12.7333 13.062 12.1908C13.062 11.6483 13.2991 11.128 13.721 10.7444C14.143 10.3608 14.7153 10.1453 15.312 10.1453H19.812Z" stroke="white" stroke-width="2.5" stroke-linecap="round" stroke-linejoin="round"/>
</svg>
