<svg width="512" height="512" viewBox="0 0 512 512" fill="none" xmlns="http://www.w3.org/2000/svg">
<mask id="path-1-outside-1_315_1111" maskUnits="userSpaceOnUse" x="-0.589844" y="-0.401001" width="512" height="512" fill="black">
<rect fill="white" x="-0.589844" y="-0.401001" width="512" height="512"/>
<path d="M1.03837 0.598999C9.55352 0.598999 18.0686 0.598999 26.5837 0.598999C27.0351 0.808595 27.1812 1.1662 27.1666 1.65322C27.1408 2.51555 27.1762 3.37966 27.1539 4.2421C27.1295 5.18406 26.6818 5.88535 25.8411 6.31423C25.6552 6.40901 25.5833 6.50356 25.5836 6.71794C25.5909 11.138 25.5891 15.558 25.5891 19.978C25.5891 20.0713 25.5891 20.1645 25.5891 20.2751C26.2017 20.3148 26.8899 20.099 27.212 20.8572C27.212 20.9968 27.212 21.1364 27.212 21.276C27.1358 21.3898 27.083 21.5377 26.9782 21.61C26.7959 21.7357 26.7902 21.8942 26.7908 22.0824C26.795 23.5653 26.7915 25.0483 26.7942 26.5311C26.7949 26.8853 26.6663 27.1621 26.3405 27.3199C25.8076 27.5781 25.2261 27.1894 25.2242 26.5693C25.2198 25.0952 25.2228 23.621 25.2228 22.1468C25.2228 22.0542 25.2228 21.9618 25.2228 21.8705C17.6498 21.8705 10.1101 21.8705 2.55666 21.8705C2.55666 21.9929 2.55666 22.0967 2.55666 22.2005C2.55666 23.6572 2.56011 25.114 2.55499 26.5707C2.55276 27.2034 1.94869 27.5898 1.41424 27.3071C1.10485 27.1435 0.98424 26.8727 0.98502 26.5294C0.988249 25.0377 0.988472 23.5461 0.981456 22.0545C0.98101 21.962 0.935015 21.8299 0.865632 21.7845C0.497892 21.5437 0.337632 21.2207 0.440982 20.8646C0.551238 20.4844 0.84514 20.2833 1.2954 20.2816C1.53607 20.2806 1.77685 20.2813 2.00783 20.2813C2.02175 20.2308 2.03022 20.2146 2.03022 20.1984C2.03166 15.6624 2.03334 11.1265 2.02688 6.59065C2.02676 6.5157 1.94524 6.40689 1.8733 6.37125C0.935126 5.90785 0.46604 5.15677 0.463145 4.11358C0.460806 3.29368 0.481966 2.473 0.455349 1.65389C0.439535 1.16598 0.587321 0.809041 1.03837 0.598999ZM16.9495 5.97856C16.4982 6.34419 15.9791 6.56604 15.3806 6.56593C14.7823 6.56581 14.2634 6.34408 13.8158 5.98113C12.7481 6.76995 11.7056 6.76004 10.6689 5.98558C9.6121 6.77474 8.561 6.76093 7.51781 5.97934C7.05362 6.36312 6.53631 6.56726 5.94573 6.56537C5.35647 6.56347 4.84362 6.3472 4.40416 5.9858C4.19957 6.11054 4.02506 6.25008 3.82649 6.32871C3.63571 6.40422 3.59918 6.51102 3.59941 6.69901C3.60464 11.13 3.60353 15.5611 3.60353 19.9921C3.60353 20.0841 3.60353 20.176 3.60353 20.2691C5.03295 20.2691 6.42517 20.2691 7.84356 20.2691C7.84356 20.1637 7.84356 20.0703 7.84356 19.9769C7.84356 19.0784 7.82252 18.1794 7.84846 17.2817C7.89168 15.7894 8.59341 14.6954 9.93507 14.0368C10.2635 13.8755 10.6305 13.7927 10.979 13.6739C10.3503 12.5008 10.1784 11.8956 10.2651 11.1456C10.3726 10.215 10.7633 9.42811 11.4724 8.81045C12.7497 7.69799 14.5857 7.62683 15.937 8.63594C16.5955 9.12774 17.0395 9.77424 17.2478 10.568C17.5448 11.7004 17.3022 12.7374 16.612 13.6951C16.6726 13.7144 16.7026 13.7274 16.7339 13.7333C18.5753 14.0771 19.7762 15.5224 19.7784 17.3998C19.7794 18.2633 19.7786 19.1269 19.7786 19.9903C19.7786 20.0824 19.7786 20.1745 19.7786 20.2603C21.2131 20.2603 22.6115 20.2603 24.0187 20.2603C24.0187 20.1784 24.0187 20.1176 24.0187 20.0569C24.0187 15.591 24.0187 11.125 24.0187 6.65914C24.0187 6.61548 24.0301 6.56715 24.0151 6.52951C23.9955 6.48028 23.9643 6.42348 23.9215 6.39776C23.6917 6.26011 23.4567 6.13114 23.2178 5.99594C22.1755 6.77441 21.1242 6.76115 20.0868 5.98413C18.9914 6.76316 18.0496 6.76294 16.9495 5.97856ZM16.8995 15.4199C16.8995 15.8509 16.8995 16.2604 16.8995 16.6698C16.8995 17.0795 16.9041 17.4893 16.898 17.8989C16.8913 18.3541 16.5809 18.7032 16.1423 18.706C14.5906 18.7158 13.0388 18.7152 11.4871 18.7067C11.0578 18.7044 10.7399 18.3648 10.7241 17.9326C10.7174 17.7497 10.7226 17.5665 10.7226 17.3834C10.7225 16.733 10.7226 16.0825 10.7226 15.4335C10.6811 15.4304 10.663 15.4243 10.6482 15.429C10.6152 15.4395 10.5827 15.4531 10.5522 15.4694C9.83061 15.8562 9.43369 16.4573 9.41832 17.2768C9.40061 18.218 9.41364 19.1599 9.41498 20.1014C9.41509 20.1586 9.42946 20.2157 9.43558 20.2604C12.3693 20.2604 15.2845 20.2604 18.2051 20.2604C18.2051 19.2196 18.2206 18.1994 18.2001 17.1802C18.1844 16.396 17.6187 15.6468 16.8995 15.4199ZM15.7993 11.4761C15.7946 10.389 14.9017 9.50005 13.8132 9.49894C12.7145 9.49782 11.8183 10.3979 11.8227 11.4979C11.827 12.5837 12.722 13.4748 13.8089 13.4755C14.9078 13.4763 15.804 12.5761 15.7993 11.4761ZM12.3117 15.2676C12.3117 15.9014 12.3117 16.5144 12.3117 17.1199C13.3269 17.1199 14.3235 17.1199 15.3151 17.1199C15.3151 16.4923 15.3151 15.8856 15.3151 15.2676C14.3109 15.2676 13.3206 15.2676 12.3117 15.2676ZM2.03456 2.17955C2.03456 2.88629 2.02454 3.56475 2.03824 4.24277C2.04681 4.66898 2.40586 4.99707 2.82105 4.99562C3.23634 4.99406 3.58225 4.66475 3.6003 4.23765C3.61199 3.95956 3.60341 3.68069 3.60353 3.40216C3.60375 2.99655 3.60353 2.59083 3.60353 2.17966C3.06728 2.17955 2.56557 2.17955 2.03456 2.17955ZM5.17728 2.18155C5.17728 2.89487 5.16236 3.58992 5.18307 4.28386C5.19499 4.68279 5.55694 4.99117 5.95074 4.99551C6.34409 4.99985 6.71863 4.6986 6.73255 4.30046C6.75716 3.59894 6.73945 2.89587 6.73945 2.18155C6.21602 2.18155 5.71419 2.18155 5.17728 2.18155ZM8.31677 2.17899C8.31677 2.89197 8.30575 3.5789 8.32111 4.26515C8.32969 4.64492 8.64687 4.95163 9.0204 4.9925C9.38179 5.03204 9.72414 4.80396 9.84252 4.44468C9.85344 4.41172 9.87259 4.37842 9.87271 4.34534C9.87449 3.62634 9.87404 2.90745 9.87404 2.1791C9.3515 2.17899 8.84978 2.17899 8.31677 2.17899ZM11.459 2.18033C11.459 2.89754 11.4442 3.59293 11.4648 4.28732C11.4763 4.67521 11.8261 4.97925 12.2096 4.99518C12.6017 5.01144 12.9925 4.72076 13.0096 4.32284C13.0401 3.61342 13.0182 2.90177 13.0182 2.18033C12.4951 2.18033 11.9934 2.18033 11.459 2.18033ZM14.5963 2.18077C14.5963 2.86302 14.593 3.51553 14.5974 4.16793C14.6007 4.64826 14.9408 4.99919 15.3874 4.99551C15.8336 4.99184 16.1622 4.64136 16.1657 4.15579C16.1696 3.6161 16.1666 3.0764 16.1667 2.53671C16.1667 2.41877 16.1667 2.30083 16.1667 2.18066C15.628 2.18077 15.1262 2.18077 14.5963 2.18077ZM17.7405 2.18144C17.7405 2.8952 17.7256 3.59026 17.7462 4.28431C17.758 4.6829 18.1204 4.9915 18.514 4.99562C18.9076 4.99974 19.2813 4.69927 19.2954 4.30023C19.3204 3.59872 19.3024 2.89576 19.3024 2.18155C18.7789 2.18144 18.2772 2.18144 17.7405 2.18144ZM22.4428 2.18255C21.9058 2.18255 21.4041 2.18255 20.8824 2.18255C20.8824 2.89821 20.8654 3.60151 20.8892 4.30335C20.9024 4.68936 21.2646 4.98794 21.6476 4.99562C22.0403 5.00353 22.4203 4.70528 22.4353 4.30725C22.462 3.60518 22.4428 2.90144 22.4428 2.18255ZM25.5836 2.18333C25.0451 2.18333 24.5433 2.18333 24.0232 2.18333C24.0232 2.89999 24.0058 3.6034 24.0301 4.30547C24.0435 4.69103 24.408 4.98905 24.7905 4.99562C25.1835 5.0023 25.5614 4.70361 25.5762 4.30502C25.6026 3.60318 25.5836 2.89977 25.5836 2.18333Z"/>
</mask>
<path d="M1.03837 0.598999C9.55352 0.598999 18.0686 0.598999 26.5837 0.598999C27.0351 0.808595 27.1812 1.1662 27.1666 1.65322C27.1408 2.51555 27.1762 3.37966 27.1539 4.2421C27.1295 5.18406 26.6818 5.88535 25.8411 6.31423C25.6552 6.40901 25.5833 6.50356 25.5836 6.71794C25.5909 11.138 25.5891 15.558 25.5891 19.978C25.5891 20.0713 25.5891 20.1645 25.5891 20.2751C26.2017 20.3148 26.8899 20.099 27.212 20.8572C27.212 20.9968 27.212 21.1364 27.212 21.276C27.1358 21.3898 27.083 21.5377 26.9782 21.61C26.7959 21.7357 26.7902 21.8942 26.7908 22.0824C26.795 23.5653 26.7915 25.0483 26.7942 26.5311C26.7949 26.8853 26.6663 27.1621 26.3405 27.3199C25.8076 27.5781 25.2261 27.1894 25.2242 26.5693C25.2198 25.0952 25.2228 23.621 25.2228 22.1468C25.2228 22.0542 25.2228 21.9618 25.2228 21.8705C17.6498 21.8705 10.1101 21.8705 2.55666 21.8705C2.55666 21.9929 2.55666 22.0967 2.55666 22.2005C2.55666 23.6572 2.56011 25.114 2.55499 26.5707C2.55276 27.2034 1.94869 27.5898 1.41424 27.3071C1.10485 27.1435 0.98424 26.8727 0.98502 26.5294C0.988249 25.0377 0.988472 23.5461 0.981456 22.0545C0.98101 21.962 0.935015 21.8299 0.865632 21.7845C0.497892 21.5437 0.337632 21.2207 0.440982 20.8646C0.551238 20.4844 0.84514 20.2833 1.2954 20.2816C1.53607 20.2806 1.77685 20.2813 2.00783 20.2813C2.02175 20.2308 2.03022 20.2146 2.03022 20.1984C2.03166 15.6624 2.03334 11.1265 2.02688 6.59065C2.02676 6.5157 1.94524 6.40689 1.8733 6.37125C0.935126 5.90785 0.46604 5.15677 0.463145 4.11358C0.460806 3.29368 0.481966 2.473 0.455349 1.65389C0.439535 1.16598 0.587321 0.809041 1.03837 0.598999ZM16.9495 5.97856C16.4982 6.34419 15.9791 6.56604 15.3806 6.56593C14.7823 6.56581 14.2634 6.34408 13.8158 5.98113C12.7481 6.76995 11.7056 6.76004 10.6689 5.98558C9.6121 6.77474 8.561 6.76093 7.51781 5.97934C7.05362 6.36312 6.53631 6.56726 5.94573 6.56537C5.35647 6.56347 4.84362 6.3472 4.40416 5.9858C4.19957 6.11054 4.02506 6.25008 3.82649 6.32871C3.63571 6.40422 3.59918 6.51102 3.59941 6.69901C3.60464 11.13 3.60353 15.5611 3.60353 19.9921C3.60353 20.0841 3.60353 20.176 3.60353 20.2691C5.03295 20.2691 6.42517 20.2691 7.84356 20.2691C7.84356 20.1637 7.84356 20.0703 7.84356 19.9769C7.84356 19.0784 7.82252 18.1794 7.84846 17.2817C7.89168 15.7894 8.59341 14.6954 9.93507 14.0368C10.2635 13.8755 10.6305 13.7927 10.979 13.6739C10.3503 12.5008 10.1784 11.8956 10.2651 11.1456C10.3726 10.215 10.7633 9.42811 11.4724 8.81045C12.7497 7.69799 14.5857 7.62683 15.937 8.63594C16.5955 9.12774 17.0395 9.77424 17.2478 10.568C17.5448 11.7004 17.3022 12.7374 16.612 13.6951C16.6726 13.7144 16.7026 13.7274 16.7339 13.7333C18.5753 14.0771 19.7762 15.5224 19.7784 17.3998C19.7794 18.2633 19.7786 19.1269 19.7786 19.9903C19.7786 20.0824 19.7786 20.1745 19.7786 20.2603C21.2131 20.2603 22.6115 20.2603 24.0187 20.2603C24.0187 20.1784 24.0187 20.1176 24.0187 20.0569C24.0187 15.591 24.0187 11.125 24.0187 6.65914C24.0187 6.61548 24.0301 6.56715 24.0151 6.52951C23.9955 6.48028 23.9643 6.42348 23.9215 6.39776C23.6917 6.26011 23.4567 6.13114 23.2178 5.99594C22.1755 6.77441 21.1242 6.76115 20.0868 5.98413C18.9914 6.76316 18.0496 6.76294 16.9495 5.97856ZM16.8995 15.4199C16.8995 15.8509 16.8995 16.2604 16.8995 16.6698C16.8995 17.0795 16.9041 17.4893 16.898 17.8989C16.8913 18.3541 16.5809 18.7032 16.1423 18.706C14.5906 18.7158 13.0388 18.7152 11.4871 18.7067C11.0578 18.7044 10.7399 18.3648 10.7241 17.9326C10.7174 17.7497 10.7226 17.5665 10.7226 17.3834C10.7225 16.733 10.7226 16.0825 10.7226 15.4335C10.6811 15.4304 10.663 15.4243 10.6482 15.429C10.6152 15.4395 10.5827 15.4531 10.5522 15.4694C9.83061 15.8562 9.43369 16.4573 9.41832 17.2768C9.40061 18.218 9.41364 19.1599 9.41498 20.1014C9.41509 20.1586 9.42946 20.2157 9.43558 20.2604C12.3693 20.2604 15.2845 20.2604 18.2051 20.2604C18.2051 19.2196 18.2206 18.1994 18.2001 17.1802C18.1844 16.396 17.6187 15.6468 16.8995 15.4199ZM15.7993 11.4761C15.7946 10.389 14.9017 9.50005 13.8132 9.49894C12.7145 9.49782 11.8183 10.3979 11.8227 11.4979C11.827 12.5837 12.722 13.4748 13.8089 13.4755C14.9078 13.4763 15.804 12.5761 15.7993 11.4761ZM12.3117 15.2676C12.3117 15.9014 12.3117 16.5144 12.3117 17.1199C13.3269 17.1199 14.3235 17.1199 15.3151 17.1199C15.3151 16.4923 15.3151 15.8856 15.3151 15.2676C14.3109 15.2676 13.3206 15.2676 12.3117 15.2676ZM2.03456 2.17955C2.03456 2.88629 2.02454 3.56475 2.03824 4.24277C2.04681 4.66898 2.40586 4.99707 2.82105 4.99562C3.23634 4.99406 3.58225 4.66475 3.6003 4.23765C3.61199 3.95956 3.60341 3.68069 3.60353 3.40216C3.60375 2.99655 3.60353 2.59083 3.60353 2.17966C3.06728 2.17955 2.56557 2.17955 2.03456 2.17955ZM5.17728 2.18155C5.17728 2.89487 5.16236 3.58992 5.18307 4.28386C5.19499 4.68279 5.55694 4.99117 5.95074 4.99551C6.34409 4.99985 6.71863 4.6986 6.73255 4.30046C6.75716 3.59894 6.73945 2.89587 6.73945 2.18155C6.21602 2.18155 5.71419 2.18155 5.17728 2.18155ZM8.31677 2.17899C8.31677 2.89197 8.30575 3.5789 8.32111 4.26515C8.32969 4.64492 8.64687 4.95163 9.0204 4.9925C9.38179 5.03204 9.72414 4.80396 9.84252 4.44468C9.85344 4.41172 9.87259 4.37842 9.87271 4.34534C9.87449 3.62634 9.87404 2.90745 9.87404 2.1791C9.3515 2.17899 8.84978 2.17899 8.31677 2.17899ZM11.459 2.18033C11.459 2.89754 11.4442 3.59293 11.4648 4.28732C11.4763 4.67521 11.8261 4.97925 12.2096 4.99518C12.6017 5.01144 12.9925 4.72076 13.0096 4.32284C13.0401 3.61342 13.0182 2.90177 13.0182 2.18033C12.4951 2.18033 11.9934 2.18033 11.459 2.18033ZM14.5963 2.18077C14.5963 2.86302 14.593 3.51553 14.5974 4.16793C14.6007 4.64826 14.9408 4.99919 15.3874 4.99551C15.8336 4.99184 16.1622 4.64136 16.1657 4.15579C16.1696 3.6161 16.1666 3.0764 16.1667 2.53671C16.1667 2.41877 16.1667 2.30083 16.1667 2.18066C15.628 2.18077 15.1262 2.18077 14.5963 2.18077ZM17.7405 2.18144C17.7405 2.8952 17.7256 3.59026 17.7462 4.28431C17.758 4.6829 18.1204 4.9915 18.514 4.99562C18.9076 4.99974 19.2813 4.69927 19.2954 4.30023C19.3204 3.59872 19.3024 2.89576 19.3024 2.18155C18.7789 2.18144 18.2772 2.18144 17.7405 2.18144ZM22.4428 2.18255C21.9058 2.18255 21.4041 2.18255 20.8824 2.18255C20.8824 2.89821 20.8654 3.60151 20.8892 4.30335C20.9024 4.68936 21.2646 4.98794 21.6476 4.99562C22.0403 5.00353 22.4203 4.70528 22.4353 4.30725C22.462 3.60518 22.4428 2.90144 22.4428 2.18255ZM25.5836 2.18333C25.0451 2.18333 24.5433 2.18333 24.0232 2.18333C24.0232 2.89999 24.0058 3.6034 24.0301 4.30547C24.0435 4.69103 24.408 4.98905 24.7905 4.99562C25.1835 5.0023 25.5614 4.70361 25.5762 4.30502C25.6026 3.60318 25.5836 2.89977 25.5836 2.18333Z" fill="white"/>
<path d="M1.03837 0.598999C9.55352 0.598999 18.0686 0.598999 26.5837 0.598999C27.0351 0.808595 27.1812 1.1662 27.1666 1.65322C27.1408 2.51555 27.1762 3.37966 27.1539 4.2421C27.1295 5.18406 26.6818 5.88535 25.8411 6.31423C25.6552 6.40901 25.5833 6.50356 25.5836 6.71794C25.5909 11.138 25.5891 15.558 25.5891 19.978C25.5891 20.0713 25.5891 20.1645 25.5891 20.2751C26.2017 20.3148 26.8899 20.099 27.212 20.8572C27.212 20.9968 27.212 21.1364 27.212 21.276C27.1358 21.3898 27.083 21.5377 26.9782 21.61C26.7959 21.7357 26.7902 21.8942 26.7908 22.0824C26.795 23.5653 26.7915 25.0483 26.7942 26.5311C26.7949 26.8853 26.6663 27.1621 26.3405 27.3199C25.8076 27.5781 25.2261 27.1894 25.2242 26.5693C25.2198 25.0952 25.2228 23.621 25.2228 22.1468C25.2228 22.0542 25.2228 21.9618 25.2228 21.8705C17.6498 21.8705 10.1101 21.8705 2.55666 21.8705C2.55666 21.9929 2.55666 22.0967 2.55666 22.2005C2.55666 23.6572 2.56011 25.114 2.55499 26.5707C2.55276 27.2034 1.94869 27.5898 1.41424 27.3071C1.10485 27.1435 0.98424 26.8727 0.98502 26.5294C0.988249 25.0377 0.988472 23.5461 0.981456 22.0545C0.98101 21.962 0.935015 21.8299 0.865632 21.7845C0.497892 21.5437 0.337632 21.2207 0.440982 20.8646C0.551238 20.4844 0.84514 20.2833 1.2954 20.2816C1.53607 20.2806 1.77685 20.2813 2.00783 20.2813C2.02175 20.2308 2.03022 20.2146 2.03022 20.1984C2.03166 15.6624 2.03334 11.1265 2.02688 6.59065C2.02676 6.5157 1.94524 6.40689 1.8733 6.37125C0.935126 5.90785 0.46604 5.15677 0.463145 4.11358C0.460806 3.29368 0.481966 2.473 0.455349 1.65389C0.439535 1.16598 0.587321 0.809041 1.03837 0.598999ZM16.9495 5.97856C16.4982 6.34419 15.9791 6.56604 15.3806 6.56593C14.7823 6.56581 14.2634 6.34408 13.8158 5.98113C12.7481 6.76995 11.7056 6.76004 10.6689 5.98558C9.6121 6.77474 8.561 6.76093 7.51781 5.97934C7.05362 6.36312 6.53631 6.56726 5.94573 6.56537C5.35647 6.56347 4.84362 6.3472 4.40416 5.9858C4.19957 6.11054 4.02506 6.25008 3.82649 6.32871C3.63571 6.40422 3.59918 6.51102 3.59941 6.69901C3.60464 11.13 3.60353 15.5611 3.60353 19.9921C3.60353 20.0841 3.60353 20.176 3.60353 20.2691C5.03295 20.2691 6.42517 20.2691 7.84356 20.2691C7.84356 20.1637 7.84356 20.0703 7.84356 19.9769C7.84356 19.0784 7.82252 18.1794 7.84846 17.2817C7.89168 15.7894 8.59341 14.6954 9.93507 14.0368C10.2635 13.8755 10.6305 13.7927 10.979 13.6739C10.3503 12.5008 10.1784 11.8956 10.2651 11.1456C10.3726 10.215 10.7633 9.42811 11.4724 8.81045C12.7497 7.69799 14.5857 7.62683 15.937 8.63594C16.5955 9.12774 17.0395 9.77424 17.2478 10.568C17.5448 11.7004 17.3022 12.7374 16.612 13.6951C16.6726 13.7144 16.7026 13.7274 16.7339 13.7333C18.5753 14.0771 19.7762 15.5224 19.7784 17.3998C19.7794 18.2633 19.7786 19.1269 19.7786 19.9903C19.7786 20.0824 19.7786 20.1745 19.7786 20.2603C21.2131 20.2603 22.6115 20.2603 24.0187 20.2603C24.0187 20.1784 24.0187 20.1176 24.0187 20.0569C24.0187 15.591 24.0187 11.125 24.0187 6.65914C24.0187 6.61548 24.0301 6.56715 24.0151 6.52951C23.9955 6.48028 23.9643 6.42348 23.9215 6.39776C23.6917 6.26011 23.4567 6.13114 23.2178 5.99594C22.1755 6.77441 21.1242 6.76115 20.0868 5.98413C18.9914 6.76316 18.0496 6.76294 16.9495 5.97856ZM16.8995 15.4199C16.8995 15.8509 16.8995 16.2604 16.8995 16.6698C16.8995 17.0795 16.9041 17.4893 16.898 17.8989C16.8913 18.3541 16.5809 18.7032 16.1423 18.706C14.5906 18.7158 13.0388 18.7152 11.4871 18.7067C11.0578 18.7044 10.7399 18.3648 10.7241 17.9326C10.7174 17.7497 10.7226 17.5665 10.7226 17.3834C10.7225 16.733 10.7226 16.0825 10.7226 15.4335C10.6811 15.4304 10.663 15.4243 10.6482 15.429C10.6152 15.4395 10.5827 15.4531 10.5522 15.4694C9.83061 15.8562 9.43369 16.4573 9.41832 17.2768C9.40061 18.218 9.41364 19.1599 9.41498 20.1014C9.41509 20.1586 9.42946 20.2157 9.43558 20.2604C12.3693 20.2604 15.2845 20.2604 18.2051 20.2604C18.2051 19.2196 18.2206 18.1994 18.2001 17.1802C18.1844 16.396 17.6187 15.6468 16.8995 15.4199ZM15.7993 11.4761C15.7946 10.389 14.9017 9.50005 13.8132 9.49894C12.7145 9.49782 11.8183 10.3979 11.8227 11.4979C11.827 12.5837 12.722 13.4748 13.8089 13.4755C14.9078 13.4763 15.804 12.5761 15.7993 11.4761ZM12.3117 15.2676C12.3117 15.9014 12.3117 16.5144 12.3117 17.1199C13.3269 17.1199 14.3235 17.1199 15.3151 17.1199C15.3151 16.4923 15.3151 15.8856 15.3151 15.2676C14.3109 15.2676 13.3206 15.2676 12.3117 15.2676ZM2.03456 2.17955C2.03456 2.88629 2.02454 3.56475 2.03824 4.24277C2.04681 4.66898 2.40586 4.99707 2.82105 4.99562C3.23634 4.99406 3.58225 4.66475 3.6003 4.23765C3.61199 3.95956 3.60341 3.68069 3.60353 3.40216C3.60375 2.99655 3.60353 2.59083 3.60353 2.17966C3.06728 2.17955 2.56557 2.17955 2.03456 2.17955ZM5.17728 2.18155C5.17728 2.89487 5.16236 3.58992 5.18307 4.28386C5.19499 4.68279 5.55694 4.99117 5.95074 4.99551C6.34409 4.99985 6.71863 4.6986 6.73255 4.30046C6.75716 3.59894 6.73945 2.89587 6.73945 2.18155C6.21602 2.18155 5.71419 2.18155 5.17728 2.18155ZM8.31677 2.17899C8.31677 2.89197 8.30575 3.5789 8.32111 4.26515C8.32969 4.64492 8.64687 4.95163 9.0204 4.9925C9.38179 5.03204 9.72414 4.80396 9.84252 4.44468C9.85344 4.41172 9.87259 4.37842 9.87271 4.34534C9.87449 3.62634 9.87404 2.90745 9.87404 2.1791C9.3515 2.17899 8.84978 2.17899 8.31677 2.17899ZM11.459 2.18033C11.459 2.89754 11.4442 3.59293 11.4648 4.28732C11.4763 4.67521 11.8261 4.97925 12.2096 4.99518C12.6017 5.01144 12.9925 4.72076 13.0096 4.32284C13.0401 3.61342 13.0182 2.90177 13.0182 2.18033C12.4951 2.18033 11.9934 2.18033 11.459 2.18033ZM14.5963 2.18077C14.5963 2.86302 14.593 3.51553 14.5974 4.16793C14.6007 4.64826 14.9408 4.99919 15.3874 4.99551C15.8336 4.99184 16.1622 4.64136 16.1657 4.15579C16.1696 3.6161 16.1666 3.0764 16.1667 2.53671C16.1667 2.41877 16.1667 2.30083 16.1667 2.18066C15.628 2.18077 15.1262 2.18077 14.5963 2.18077ZM17.7405 2.18144C17.7405 2.8952 17.7256 3.59026 17.7462 4.28431C17.758 4.6829 18.1204 4.9915 18.514 4.99562C18.9076 4.99974 19.2813 4.69927 19.2954 4.30023C19.3204 3.59872 19.3024 2.89576 19.3024 2.18155C18.7789 2.18144 18.2772 2.18144 17.7405 2.18144ZM22.4428 2.18255C21.9058 2.18255 21.4041 2.18255 20.8824 2.18255C20.8824 2.89821 20.8654 3.60151 20.8892 4.30335C20.9024 4.68936 21.2646 4.98794 21.6476 4.99562C22.0403 5.00353 22.4203 4.70528 22.4353 4.30725C22.462 3.60518 22.4428 2.90144 22.4428 2.18255ZM25.5836 2.18333C25.0451 2.18333 24.5433 2.18333 24.0232 2.18333C24.0232 2.89999 24.0058 3.6034 24.0301 4.30547C24.0435 4.69103 24.408 4.98905 24.7905 4.99562C25.1835 5.0023 25.5614 4.70361 25.5762 4.30502C25.6026 3.60318 25.5836 2.89977 25.5836 2.18333Z" stroke="white" stroke-width="0.4" mask="url(#path-1-outside-1_315_1111)"/>
<path d="M21.8287 24.8911L21.8287 24.8911C22.1349 24.9229 22.3726 25.0112 22.5321 25.1849C22.692 25.359 22.7575 25.6014 22.7583 25.905C22.7585 25.9587 22.7588 26.0126 22.7591 26.0667C22.76 26.2395 22.761 26.4139 22.7574 26.5878C22.7468 27.1037 22.3747 27.4967 21.8774 27.4992C21.3924 27.5018 21.0105 27.1283 20.993 26.6228C20.9908 26.5586 20.981 26.5271 20.9681 26.507C20.956 26.488 20.9327 26.4665 20.875 26.4414C20.3107 26.1956 19.8968 25.7829 19.6446 25.2227L19.7358 25.1817L19.6446 25.2227C19.6163 25.1599 19.5934 25.1311 19.5712 25.1154C19.5506 25.1008 19.5182 25.0889 19.4513 25.089C15.744 25.0938 12.0367 25.0932 8.32952 25.0903H8.32952C8.26549 25.0903 8.23263 25.0972 8.211 25.1089C8.19265 25.1189 8.17015 25.1392 8.14551 25.1965L8.1455 25.1965C7.89846 25.7713 7.47987 26.1917 6.90651 26.4423C6.84899 26.4675 6.82541 26.4888 6.81291 26.508C6.79995 26.5278 6.78981 26.5591 6.78752 26.6231L21.8287 24.8911ZM21.8287 24.8911C21.4873 24.8557 21.2319 24.6065 21.1906 24.2718L21.0914 24.284M21.8287 24.8911L21.0914 24.284M21.0914 24.284L21.1906 24.2718C21.1499 23.9421 21.0647 23.6961 20.8847 23.5365C20.7046 23.3769 20.4504 23.3223 20.1186 23.3223C18.7403 23.3222 17.3622 23.3222 15.984 23.3222C15.2949 23.3222 14.6058 23.3223 13.9166 23.3223C13.3665 23.3223 12.8162 23.3222 12.266 23.3221C10.6966 23.322 9.12715 23.3218 7.55775 23.3229C7.29466 23.3231 7.06618 23.3997 6.896 23.5442C6.72529 23.6891 6.62064 23.8962 6.59534 24.1427L6.59534 24.1427C6.56746 24.4144 6.50136 24.5838 6.39252 24.6932C6.28388 24.8024 6.11652 24.8681 5.84811 24.8947L5.84811 24.8947C5.37879 24.9413 5.03856 25.2962 5.02445 25.7713L5.12439 25.7743L5.02445 25.7713C5.01636 26.0438 5.01873 26.3164 5.02353 26.5871M21.0914 24.284L5.90302 27.4992M5.90302 27.4992H5.90301C5.40552 27.4966 5.03264 27.103 5.02353 26.5871M5.90302 27.4992C6.38797 27.5018 6.76964 27.1296 6.78752 26.6231L5.90302 27.4992ZM5.02353 26.5871L5.12351 26.5854L5.02353 26.5871Z" fill="white" stroke="white" stroke-width="0.2"/>
</svg>
