<?xml version="1.0" encoding="utf-8"?>
<!-- Generator: Adobe Illustrator 25.0.0, SVG Export Plug-In . SVG Version: 6.00 Build 0)  -->
<svg version="1.1" id="Layer_1" xmlns="http://www.w3.org/2000/svg" xmlns:xlink="http://www.w3.org/1999/xlink" x="0px" y="0px"
	 viewBox="0 0 341.2 153.4" style="enable-background:new 0 0 341.2 153.4;" xml:space="preserve">
<style type="text/css">
	.st0{fill:#7078B8;}
	.st1{fill-rule:evenodd;clip-rule:evenodd;fill:#E83E63;}
	.st2{fill:#010202;}
	.st3{fill-rule:evenodd;clip-rule:evenodd;fill:#FFD703;}
	.st4{fill-rule:evenodd;clip-rule:evenodd;fill:#7078B8;}
	.st5{fill-rule:evenodd;clip-rule:evenodd;fill:#FFFFFF;}
	.st6{fill:#FFFFFF;}
	.st7{fill:#E83E63;}
	.st8{fill:#FFD703;}
	.st9{fill:#392873;}
	.st10{fill-rule:evenodd;clip-rule:evenodd;fill:#392873;}
	.st11{fill-rule:evenodd;clip-rule:evenodd;fill:#010202;}
</style>
<rect x="-4.4" y="-5.4" class="st2" width="350.4" height="163.6"/>
<g>
	<path class="st5" d="M71.3,101.2c1.7,0,3.3-0.7,4.6-2l29.4-30.7c0,0,0,0,0,0c0,0,0,0,0,0c1.2-1.2,2-2.8,2.3-4.6
		c0.3-1.7,0.2-3.5-0.5-5.1c-0.6-1.6-1.7-3-3.1-4c-1.4-1-3.1-1.5-4.7-1.5c0,0,0,0,0,0c0,0,0,0,0,0H96c-1.7,0-3.3,0.7-4.6,2L61.9,86
		c0,0,0,0,0,0c0,0,0,0,0,0c-1.2,1.2-2,2.8-2.3,4.6c-0.3,1.7-0.2,3.5,0.5,5.1c0.6,1.6,1.7,3,3.1,4c1.4,1,3.1,1.5,4.7,1.5c0,0,0,0,0,0
		s0,0,0,0H71.3z M51.9,44.4c-0.5,0-1,0.5-1,1v6.9c0,0.6,0.4,1,1,1h13.8c5.7,0,8.6,7.2,4.6,11.5l-14.4,15c0,0,0,0,0,0c0,0,0,0,0,0
		c-2.3,2.5-3.9,5.6-4.6,9c-0.7,3.5-0.3,7,1,10.3c1.3,3.3,3.5,6,6.3,8s6.1,3,9.5,3h47.4c0.5,0,1-0.5,1-1v-6.9c0-0.6-0.4-1-1-1h-13.8
		c-5.7,0-8.6-7.2-4.6-11.5l14.4-15c0,0,0,0,0,0c0,0,0,0,0,0c2.3-2.5,3.9-5.6,4.6-9c0.7-3.5,0.3-7-1-10.3c-1.3-3.3-3.5-6-6.3-8
		c-2.8-2-6.1-3-9.5-3H51.9z"/>
	<path class="st6" d="M277.4,78.8c-1.2,1.1-1.8,2.5-1.8,4.2c0,1.7,0.6,3.2,1.8,4.3c1.2,1.1,2.7,1.6,4.3,1.6c1.6,0,3-0.5,4.2-1.6
		c1.2-1.1,1.8-2.5,1.8-4.3c0-1.8-0.6-3.3-1.8-4.3c-1.2-1.1-2.6-1.6-4.2-1.6C280,77.1,278.6,77.7,277.4,78.8z M287.7,94.1v-2.8
		c-0.7,1-1.7,1.8-3,2.4c-1.3,0.6-2.6,0.8-3.8,0.8c-3,0-5.6-1.1-7.9-3.2c-2.2-2.1-3.3-4.9-3.3-8.3c0-3.4,1.1-6.1,3.3-8.2
		c2.2-2.1,4.9-3.2,7.9-3.2c1.2,0,2.5,0.3,3.8,0.8c1.3,0.5,2.3,1.3,3.1,2.4v-2.7h5.7v22H287.7z M257.8,86.3v7.8h-5.7v-22h5.7v5.2
		c0.5-1.9,1.4-3.3,2.5-4.2c1.1-0.9,2.4-1.4,3.7-1.4c1.4,0,2.6,0.3,3.6,0.8l-1,5.2c-0.9-0.4-2-0.6-3.3-0.6
		C259.7,77,257.8,80.1,257.8,86.3z M229.5,78.8c-1.2,1.1-1.8,2.5-1.8,4.2c0,1.7,0.6,3.2,1.8,4.3c1.2,1.1,2.7,1.6,4.3,1.6
		c1.6,0,3-0.5,4.2-1.6c1.2-1.1,1.8-2.5,1.8-4.3c0-1.8-0.6-3.3-1.8-4.3c-1.2-1.1-2.6-1.6-4.2-1.6C232.2,77.1,230.8,77.7,229.5,78.8z
		 M239.8,94.1v-2.8c-0.7,1-1.7,1.8-3,2.4c-1.3,0.6-2.6,0.8-3.8,0.8c-3,0-5.6-1.1-7.9-3.2c-2.2-2.1-3.3-4.9-3.3-8.3
		c0-3.4,1.1-6.1,3.3-8.2c2.2-2.1,4.9-3.2,7.9-3.2c1.2,0,2.5,0.3,3.8,0.8c1.3,0.5,2.3,1.3,3.1,2.4v-2.7h5.7v22H239.8z M201.3,82.4
		v11.7h-5.7v-34h5.7v15.4c0.5-1.2,1.4-2.2,2.8-2.8c1.4-0.7,2.8-1,4.1-1c2.8,0,5,0.9,6.5,2.7c1.5,1.8,2.3,4.3,2.3,7.5v12.2h-5.7v-12
		c0-1.5-0.5-2.7-1.4-3.6c-0.9-0.9-2-1.3-3.2-1.3c-1.4,0-2.7,0.4-3.7,1.3C201.8,79.3,201.3,80.6,201.3,82.4z M186.6,63.7v8.4h4.7v4.6
		h-4.7v17.4h-5.7V76.7h-4v-4.6h4v-8.4H186.6z M167.1,66.1c-0.7-0.7-1.1-1.5-1.1-2.5c0-1,0.4-1.8,1.1-2.4c0.8-0.7,1.6-1,2.6-1
		s1.9,0.3,2.5,1c0.7,0.7,1.1,1.5,1.1,2.4c0,1-0.4,1.8-1.1,2.5c-0.7,0.7-1.5,1-2.5,1C168.7,67.1,167.8,66.7,167.1,66.1z M172.5,72.1
		v22h-5.7v-22H172.5z M137.9,89.4l15.6-22.3h-15v-5.4h22.8v4.8l-15.8,22.3h15.8v5.4h-23.4V89.4z"/>
</g>
</svg>
