<svg width="140" height="39" viewBox="0 0 140 39" fill="none" xmlns="http://www.w3.org/2000/svg">
<path fill-rule="evenodd" clip-rule="evenodd" d="M14.7884 31.9747C14.0986 32.7076 13.1599 33.1193 12.1806 33.1193V33.122H10.2951C9.32659 33.122 8.38247 32.8174 7.57902 32.2492C6.77557 31.681 6.15067 30.8713 5.78005 29.9271C5.40944 28.9829 5.31205 27.9399 5.50141 26.938C5.68807 25.9362 6.15337 25.0139 6.83509 24.2921C6.83779 24.2893 6.83779 24.2866 6.83509 24.2838C6.83238 24.2811 6.83238 24.2783 6.83509 24.2756L23.694 6.43447C24.3838 5.70161 25.3225 5.28989 26.3018 5.28989H28.1874C29.1531 5.28989 30.0973 5.59456 30.9007 6.16273C31.7069 6.73091 32.3318 7.54062 32.7024 8.48483C33.073 9.42903 33.1704 10.4721 32.981 11.4739C32.7944 12.4757 32.3291 13.398 31.6474 14.1199C31.6446 14.1199 31.6446 14.1254 31.6474 14.1254C31.6501 14.1281 31.6501 14.1309 31.6474 14.1336L14.7884 31.9747ZM0.518402 0.700607C0.518402 0.379466 0.767282 0.115967 1.07297 0.115967H28.1874C30.1189 0.115967 32.0098 0.722565 33.614 1.8644C35.2209 3.00074 36.4762 4.61742 37.2147 6.50858C37.9559 8.39974 38.148 10.4803 37.772 12.4895C37.3986 14.4685 36.4897 16.2883 35.1533 17.7265V17.732C35.156 17.732 35.156 17.7348 35.1533 17.7375L26.9159 26.4577C24.5921 28.917 26.2369 33.122 29.5238 33.122H37.4068C37.7152 33.122 37.9613 33.3828 37.9613 33.7067V37.7086C37.9613 38.0325 37.7125 38.2932 37.4068 38.2932H10.2924C8.36083 38.2932 6.46988 37.6839 4.86298 36.5475C3.25608 35.4112 2.00357 33.7945 1.26234 31.9034C0.521107 30.0095 0.329037 27.9289 0.705062 25.9225C1.07838 23.9435 1.98734 22.1209 3.32371 20.6854C3.32642 20.6854 3.32642 20.6827 3.32371 20.6799C3.32101 20.6772 3.32101 20.6744 3.32371 20.6717L11.5638 11.9515C13.8903 9.49216 12.2428 5.28715 8.95598 5.28715H1.07297C0.767282 5.28715 0.518402 5.02365 0.518402 4.70251V0.700607ZM129.129 22.5903C129.129 21.5857 129.473 20.7678 130.154 20.1282C130.855 19.4695 131.672 19.1428 132.608 19.1401C133.525 19.1401 134.326 19.4503 135.007 20.0706C135.708 20.6909 136.06 21.5308 136.06 22.5876C136.06 23.6251 135.716 24.465 135.034 25.1045C134.35 25.7249 133.541 26.035 132.608 26.035C131.672 26.035 130.855 25.7166 130.154 25.0798C129.47 24.4238 129.129 23.5922 129.129 22.5903ZM136.057 27.3498V28.9857H139.347V16.2114H136.057V17.7979C135.643 17.1611 135.059 16.6945 134.304 16.4036C133.568 16.0961 132.849 15.9397 132.148 15.9397C130.406 15.9397 128.896 16.56 127.619 17.8006C126.359 19.0221 125.731 20.6195 125.731 22.5876C125.731 24.5583 126.37 26.1613 127.646 27.4019C128.921 28.6234 130.422 29.2354 132.148 29.2354C132.849 29.2354 133.576 29.0735 134.331 28.7441C135.105 28.4175 135.678 27.9509 136.057 27.3498ZM118.982 28.9911V24.476C118.982 20.8666 120.034 19.0605 122.133 19.0605C122.891 19.0605 123.526 19.1785 124.049 19.4146L124.614 16.4063C124.04 16.0989 123.348 15.9424 122.539 15.9424C121.768 15.9424 121.057 16.2169 120.41 16.7631C119.763 17.3121 119.287 18.13 118.982 19.2252V16.2169H115.692V28.9911H118.982ZM101.749 22.5903C101.749 21.5857 102.09 20.7678 102.772 20.1282C103.473 19.4695 104.292 19.1428 105.223 19.1401C106.14 19.1401 106.941 19.4503 107.622 20.0706C108.323 20.6909 108.675 21.5308 108.675 22.5876C108.675 23.6251 108.334 24.465 107.652 25.1045C106.968 25.7249 106.159 26.035 105.226 26.035C104.292 26.035 103.473 25.7166 102.772 25.0798C102.09 24.4238 101.749 23.5922 101.749 22.5903ZM108.678 27.3498V28.9857H111.967V16.2114H108.678V17.7979C108.264 17.1611 107.679 16.6945 106.925 16.4036C106.189 16.0961 105.469 15.9397 104.768 15.9397C103.026 15.9397 101.517 16.56 100.24 17.8006C98.9793 19.0221 98.3517 20.6195 98.3517 22.5876C98.3517 24.5583 98.9901 26.1613 100.267 27.4019C101.541 28.6234 103.043 29.2354 104.768 29.2354C105.469 29.2354 106.197 29.0735 106.952 28.7441C107.725 28.4175 108.299 27.9509 108.678 27.3498ZM86.5975 28.9911V22.1786C86.5975 21.1575 86.8951 20.4109 87.4875 19.9333C88.0989 19.442 88.8104 19.195 89.6192 19.195C90.3361 19.195 90.9556 19.4503 91.4777 19.9608C92.0161 20.4713 92.2866 21.1658 92.2866 22.0413V28.9911H95.5761V21.8794C95.5761 19.9992 95.1352 18.5417 94.2533 17.5015C93.3741 16.4612 92.1243 15.9424 90.5066 15.9424C89.7708 15.9424 88.9971 16.1401 88.1882 16.5435C87.3983 16.9278 86.868 17.474 86.5975 18.1849V9.2671H83.308V28.9911H86.5975ZM78.1708 16.2142V11.3449H74.9083V16.2169H72.617V18.8958H74.9083V28.9884H78.1708V18.8931H80.8408V16.2142H78.1708ZM66.395 11.2653C66.395 11.8307 66.6006 12.3138 67.0145 12.7146C67.4284 13.0961 67.9315 13.2882 68.524 13.2882C69.1002 13.2882 69.5844 13.0961 69.9794 12.7146C70.3906 12.3138 70.5989 11.8307 70.5989 11.2653C70.5989 10.6999 70.3933 10.2278 69.9794 9.84351C69.5844 9.46198 69.1002 9.26985 68.524 9.26985C67.9478 9.26985 67.4446 9.46198 67.0145 9.84351C66.6006 10.225 66.395 10.6999 66.395 11.2653ZM66.8792 28.9911H70.1417V16.2169H66.8792V28.9911ZM59.2802 13.2882L50.3287 26.2546V28.9911H63.7276V25.8429H54.6949L63.7276 12.9067V10.1427H50.6803V13.2882H59.2802Z" fill="white"/>
</svg>
