<svg width="60" height="60" viewBox="0 0 60 60" fill="none" xmlns="http://www.w3.org/2000/svg">
<g opacity="0.3">
<path d="M58.9775 25.4569H1.02267C0.795342 25.4569 0.577324 25.3666 0.416579 25.2058C0.255833 25.0451 0.165527 24.8271 0.165527 24.5998V18.3478C0.165525 18.2002 0.203634 18.0551 0.276165 17.9265C0.348695 17.798 0.453189 17.6903 0.579527 17.614L29.551 0.123182C29.6846 0.0425915 29.8376 0 29.9937 0C30.1497 0 30.3028 0.0425915 30.4364 0.123182L59.4198 17.614C59.5462 17.6903 59.6507 17.798 59.7232 17.9265C59.7957 18.0551 59.8338 18.2002 59.8338 18.3478V24.5998C59.8338 24.8269 59.7436 25.0448 59.5831 25.2055C59.4225 25.3663 59.2047 25.4567 58.9775 25.4569ZM1.88067 23.7426H58.1204V18.8312L29.995 1.85804L1.88067 18.8295V23.7426Z" fill="black"/>
<path d="M30.0001 19.1252C28.9862 19.1252 27.995 18.8245 27.1519 18.2612C26.3089 17.6979 25.6518 16.8973 25.2638 15.9605C24.8758 15.0237 24.7742 13.993 24.972 12.9985C25.1699 12.004 25.6581 11.0906 26.3751 10.3736C27.092 9.65665 28.0055 9.16839 29 8.97058C29.9944 8.77277 31.0252 8.87429 31.962 9.26231C32.8987 9.65033 33.6994 10.3074 34.2627 11.1505C34.826 11.9935 35.1267 12.9847 35.1267 13.9986C35.1251 15.3578 34.5845 16.6609 33.6234 17.6219C32.6623 18.583 31.3593 19.1236 30.0001 19.1252ZM30.0001 10.5855C29.3252 10.5855 28.6655 10.7856 28.1043 11.1606C27.5432 11.5355 27.1058 12.0684 26.8476 12.692C26.5893 13.3155 26.5217 14.0016 26.6534 14.6635C26.7851 15.3254 27.11 15.9334 27.5873 16.4106C28.0645 16.8879 28.6725 17.2128 29.3344 17.3445C29.9963 17.4762 30.6824 17.4086 31.3059 17.1503C31.9295 16.8921 32.4624 16.4547 32.8373 15.8936C33.2123 15.3324 33.4124 14.6727 33.4124 13.9978C33.4113 13.0931 33.0514 12.2259 32.4117 11.5862C31.772 10.9465 30.9048 10.5866 30.0001 10.5855Z" fill="black"/>
<path d="M53.9757 30.8715H44.8548C44.3639 30.8709 43.8932 30.6755 43.5461 30.3282C43.199 29.981 43.0039 29.5102 43.0034 29.0192V24.5998C43.0034 24.3725 43.0937 24.1545 43.2545 23.9937C43.4152 23.833 43.6332 23.7427 43.8606 23.7427H54.97C55.1973 23.7427 55.4153 23.833 55.5761 23.9937C55.7368 24.1545 55.8271 24.3725 55.8271 24.5998V29.0218C55.826 29.5123 55.6305 29.9824 55.2835 30.3291C54.9365 30.6758 54.4662 30.8709 53.9757 30.8715ZM44.7186 25.4544V29.0192C44.7186 29.0557 44.733 29.0907 44.7587 29.1165C44.7844 29.1424 44.8193 29.157 44.8557 29.1572H53.9757C54.0121 29.157 54.047 29.1424 54.0727 29.1165C54.0984 29.0907 54.1128 29.0557 54.1128 29.0192V25.457L44.7186 25.4544Z" fill="black"/>
<path d="M53.1977 48.1851H45.6325C45.4052 48.1851 45.1872 48.0948 45.0264 47.934C44.8657 47.7733 44.7754 47.5553 44.7754 47.3279V30.0136C44.7754 29.7863 44.8657 29.5683 45.0264 29.4075C45.1872 29.2468 45.4052 29.1565 45.6325 29.1565H53.1977C53.425 29.1565 53.643 29.2468 53.8038 29.4075C53.9645 29.5683 54.0548 29.7863 54.0548 30.0136V47.3279C54.0548 47.5553 53.9645 47.7733 53.8038 47.934C53.643 48.0948 53.425 48.1851 53.1977 48.1851ZM46.4897 46.4708H52.3405V30.8708H46.4897V46.4708Z" fill="black"/>
<path d="M54.97 53.6021H43.8606C43.6332 53.6021 43.4152 53.5118 43.2545 53.3511C43.0937 53.1903 43.0034 52.9723 43.0034 52.745V48.323C43.0039 47.832 43.199 47.3613 43.5461 47.014C43.8932 46.6668 44.3639 46.4714 44.8548 46.4707H53.9757C54.4667 46.4714 54.9373 46.6668 55.2844 47.014C55.6315 47.3613 55.8267 47.832 55.8271 48.323V52.745C55.8271 52.9723 55.7368 53.1903 55.5761 53.3511C55.4153 53.5118 55.1973 53.6021 54.97 53.6021ZM44.7177 51.8878H54.1128V48.323C54.1128 48.2865 54.0984 48.2516 54.0727 48.2257C54.047 48.1999 54.0121 48.1852 53.9757 48.185H44.8548C44.8184 48.1852 44.7835 48.1999 44.7578 48.2257C44.7321 48.2516 44.7177 48.2865 44.7177 48.323V51.8878Z" fill="black"/>
<path d="M34.5598 30.8715H25.4398C24.9488 30.8709 24.4782 30.6755 24.1311 30.3282C23.784 29.981 23.5888 29.5102 23.5884 29.0192V24.5998C23.5884 24.3725 23.6787 24.1545 23.8394 23.9937C24.0002 23.833 24.2182 23.7427 24.4455 23.7427H35.5541C35.7814 23.7427 35.9994 23.833 36.1602 23.9937C36.3209 24.1545 36.4112 24.3725 36.4112 24.5998V29.0218C36.4101 29.5123 36.2146 29.9824 35.8676 30.3291C35.5206 30.6758 35.0503 30.8709 34.5598 30.8715ZM25.3027 25.457V29.0218C25.3027 29.0583 25.3171 29.0932 25.3428 29.1191C25.3685 29.145 25.4034 29.1596 25.4398 29.1598H34.5598C34.5963 29.1596 34.6311 29.145 34.6568 29.1191C34.6825 29.0932 34.697 29.0583 34.697 29.0218V25.457H25.3027Z" fill="black"/>
<path d="M33.7716 48.1851H26.2287C26.0014 48.1851 25.7834 48.0948 25.6226 47.934C25.4619 47.7733 25.3716 47.5553 25.3716 47.3279V30.0136C25.3716 29.7863 25.4619 29.5683 25.6226 29.4075C25.7834 29.2468 26.0014 29.1565 26.2287 29.1565H33.7716C33.9989 29.1565 34.2169 29.2468 34.3777 29.4075C34.5384 29.5683 34.6287 29.7863 34.6287 30.0136V47.3279C34.6287 47.5553 34.5384 47.7733 34.3777 47.934C34.2169 48.0948 33.9989 48.1851 33.7716 48.1851ZM27.0859 46.4708H32.9144V30.8708H27.0859V46.4708Z" fill="black"/>
<path d="M35.5541 53.6021H24.4455C24.2182 53.6021 24.0002 53.5118 23.8394 53.3511C23.6787 53.1903 23.5884 52.9723 23.5884 52.745V48.323C23.5888 47.832 23.784 47.3613 24.1311 47.014C24.4782 46.6668 24.9488 46.4714 25.4398 46.4707H34.5598C35.0508 46.4714 35.5214 46.6668 35.8685 47.014C36.2156 47.3613 36.4108 47.832 36.4112 48.323V52.745C36.4112 52.9723 36.3209 53.1903 36.1602 53.3511C35.9994 53.5118 35.7814 53.6021 35.5541 53.6021ZM25.3018 51.8878H34.697V48.323C34.697 48.2865 34.6825 48.2516 34.6568 48.2257C34.6311 48.1999 34.5963 48.1852 34.5598 48.185H25.4398C25.4034 48.1852 25.3685 48.1999 25.3428 48.2257C25.3171 48.2516 25.3027 48.2865 25.3027 48.323L25.3018 51.8878Z" fill="black"/>
<path d="M16.0021 30.8715H6.88121C6.39024 30.8709 5.91959 30.6755 5.5725 30.3282C5.22542 29.981 5.03024 29.5102 5.02979 29.0192V24.5998C5.02979 24.3725 5.12009 24.1545 5.28084 23.9937C5.44158 23.833 5.6596 23.7427 5.88693 23.7427H16.9964C17.2237 23.7427 17.4417 23.833 17.6024 23.9937C17.7632 24.1545 17.8535 24.3725 17.8535 24.5998V29.0218C17.8524 29.5123 17.6569 29.9824 17.3099 30.3291C16.9629 30.6758 16.4926 30.8709 16.0021 30.8715ZM6.74407 25.457V29.0218C6.74407 29.0583 6.75849 29.0932 6.78419 29.1191C6.80988 29.145 6.84476 29.1596 6.88121 29.1598H16.0021C16.0385 29.1596 16.0734 29.145 16.0991 29.1191C16.1248 29.0932 16.1392 29.0583 16.1392 29.0218V25.457H6.74407Z" fill="black"/>
<path d="M15.2572 48.1851H7.62863C7.4013 48.1851 7.18328 48.0948 7.02254 47.934C6.86179 47.7733 6.77148 47.5553 6.77148 47.3279V30.0136C6.77148 29.7863 6.86179 29.5683 7.02254 29.4075C7.18328 29.2468 7.4013 29.1565 7.62863 29.1565H15.2572C15.4845 29.1565 15.7025 29.2468 15.8633 29.4075C16.024 29.5683 16.1143 29.7863 16.1143 30.0136V47.3279C16.1143 47.5553 16.024 47.7733 15.8633 47.934C15.7025 48.0948 15.4845 48.1851 15.2572 48.1851ZM8.48577 46.4708H14.4001V30.8708H8.48577V46.4708Z" fill="black"/>
<path d="M16.9964 53.6021H5.88693C5.6596 53.6021 5.44158 53.5118 5.28084 53.3511C5.12009 53.1903 5.02979 52.9723 5.02979 52.745V48.323C5.03024 47.832 5.22542 47.3613 5.5725 47.014C5.91959 46.6668 6.39024 46.4714 6.88121 46.4707H16.0021C16.493 46.4714 16.9637 46.6668 17.3108 47.014C17.6579 47.3613 17.853 47.832 17.8535 48.323V52.745C17.8535 52.9723 17.7632 53.1903 17.6024 53.3511C17.4417 53.5118 17.2237 53.6021 16.9964 53.6021ZM6.74407 51.8878H16.1392V48.323C16.1392 48.2865 16.1248 48.2516 16.0991 48.2257C16.0734 48.1999 16.0385 48.1852 16.0021 48.185H6.88121C6.84476 48.1852 6.80988 48.1999 6.78419 48.2257C6.75849 48.2516 6.74407 48.2865 6.74407 48.323V51.8878Z" fill="black"/>
<path d="M59.1429 59.9997H0.857143C0.629814 59.9997 0.411797 59.9094 0.251051 59.7486C0.0903058 59.5879 0 59.3699 0 59.1426V52.7448C0 52.5175 0.0903058 52.2995 0.251051 52.1387C0.411797 51.978 0.629814 51.8877 0.857143 51.8877H59.1429C59.3702 51.8877 59.5882 51.978 59.749 52.1387C59.9097 52.2995 60 52.5175 60 52.7448V59.1426C60 59.3699 59.9097 59.5879 59.749 59.7486C59.5882 59.9094 59.3702 59.9997 59.1429 59.9997ZM1.71429 58.2854H58.2857V53.602H1.71429V58.2854Z" fill="black"/>
</g>
</svg>
