<svg width="31" height="31" viewBox="0 0 31 31" fill="none" xmlns="http://www.w3.org/2000/svg">
<g clip-path="url(#clip0)">
<path d="M22.814 13.9258C23.4609 13.9258 23.9853 13.3836 23.9853 12.7148C23.9853 12.0461 23.4609 11.5039 22.814 11.5039C22.1671 11.5039 21.6426 12.0461 21.6426 12.7148C21.6426 13.3836 22.1671 13.9258 22.814 13.9258Z" fill="url(#paint0_linear)"/>
<path d="M25.5081 2.42188H23.9854V1.21094C23.9854 0.542137 23.4609 0 22.814 0C22.1671 0 21.6427 0.542137 21.6427 1.21094V2.42188H16.3131V1.21094C16.3131 0.542137 15.7886 0 15.1417 0C14.4948 0 13.9704 0.542137 13.9704 1.21094V2.42188H8.69933V1.21094C8.69933 0.542137 8.17492 0 7.52798 0C6.88105 0 6.35664 0.542137 6.35664 1.21094V2.42188H4.89246C2.30895 2.42188 0.207092 4.59478 0.207092 7.26562V26.1562C0.207092 28.8271 2.30895 31 4.89246 31H13.8532C14.5002 31 15.0246 30.4579 15.0246 29.7891C15.0246 29.1203 14.5002 28.5781 13.8532 28.5781H4.89246C3.60071 28.5781 2.54978 27.4917 2.54978 26.1562V7.26562C2.54978 5.9302 3.60071 4.84375 4.89246 4.84375H6.35664V6.05469C6.35664 6.72349 6.88105 7.26562 7.52798 7.26562C8.17492 7.26562 8.69933 6.72349 8.69933 6.05469V4.84375H13.9704V6.05469C13.9704 6.72349 14.4948 7.26562 15.1417 7.26562C15.7886 7.26562 16.3131 6.72349 16.3131 6.05469V4.84375H21.6427V6.05469C21.6427 6.72349 22.1671 7.26562 22.814 7.26562C23.4609 7.26562 23.9854 6.72349 23.9854 6.05469V4.84375H25.5081C26.7999 4.84375 27.8508 5.9302 27.8508 7.26562V14.168C27.8508 14.8368 28.3752 15.3789 29.0221 15.3789C29.6691 15.3789 30.1935 14.8368 30.1935 14.168V7.26562C30.1935 4.59478 28.0916 2.42188 25.5081 2.42188Z" fill="url(#paint1_linear)"/>
<path d="M23.1068 16.3477C19.1992 16.3477 16.0202 19.6341 16.0202 23.6738C16.0202 27.7135 19.1992 31 23.1068 31C27.0144 31 30.1935 27.7135 30.1935 23.6738C30.1935 19.6341 27.0144 16.3477 23.1068 16.3477ZM23.1068 28.5781C20.491 28.5781 18.3629 26.3781 18.3629 23.6738C18.3629 20.9696 20.491 18.7695 23.1068 18.7695C25.7226 18.7695 27.8508 20.9696 27.8508 23.6738C27.8508 26.3781 25.7226 28.5781 23.1068 28.5781Z" fill="url(#paint2_linear)"/>
<path d="M24.8053 22.4629H24.2782V21.1914C24.2782 20.5226 23.7538 19.9805 23.1068 19.9805C22.4599 19.9805 21.9355 20.5226 21.9355 21.1914V23.6738C21.9355 24.3426 22.4599 24.8848 23.1068 24.8848H24.8053C25.4522 24.8848 25.9766 24.3426 25.9766 23.6738C25.9766 23.005 25.4522 22.4629 24.8053 22.4629Z" fill="url(#paint3_linear)"/>
<path d="M17.7186 13.9258C18.3656 13.9258 18.89 13.3836 18.89 12.7148C18.89 12.0461 18.3656 11.5039 17.7186 11.5039C17.0717 11.5039 16.5473 12.0461 16.5473 12.7148C16.5473 13.3836 17.0717 13.9258 17.7186 13.9258Z" fill="url(#paint4_linear)"/>
<path d="M12.6233 19.1934C13.2702 19.1934 13.7947 18.6512 13.7947 17.9824C13.7947 17.3136 13.2702 16.7715 12.6233 16.7715C11.9764 16.7715 11.452 17.3136 11.452 17.9824C11.452 18.6512 11.9764 19.1934 12.6233 19.1934Z" fill="url(#paint5_linear)"/>
<path d="M7.52797 13.9258C8.17489 13.9258 8.69931 13.3836 8.69931 12.7148C8.69931 12.0461 8.17489 11.5039 7.52797 11.5039C6.88106 11.5039 6.35663 12.0461 6.35663 12.7148C6.35663 13.3836 6.88106 13.9258 7.52797 13.9258Z" fill="url(#paint6_linear)"/>
<path d="M7.52797 19.1934C8.17489 19.1934 8.69931 18.6512 8.69931 17.9824C8.69931 17.3136 8.17489 16.7715 7.52797 16.7715C6.88106 16.7715 6.35663 17.3136 6.35663 17.9824C6.35663 18.6512 6.88106 19.1934 7.52797 19.1934Z" fill="url(#paint7_linear)"/>
<path d="M7.52797 24.4609C8.17489 24.4609 8.69931 23.9188 8.69931 23.25C8.69931 22.5812 8.17489 22.0391 7.52797 22.0391C6.88106 22.0391 6.35663 22.5812 6.35663 23.25C6.35663 23.9188 6.88106 24.4609 7.52797 24.4609Z" fill="url(#paint8_linear)"/>
<path d="M12.6233 24.4609C13.2702 24.4609 13.7947 23.9188 13.7947 23.25C13.7947 22.5812 13.2702 22.0391 12.6233 22.0391C11.9764 22.0391 11.452 22.5812 11.452 23.25C11.452 23.9188 11.9764 24.4609 12.6233 24.4609Z" fill="url(#paint9_linear)"/>
<path d="M12.6233 13.9258C13.2702 13.9258 13.7947 13.3836 13.7947 12.7148C13.7947 12.0461 13.2702 11.5039 12.6233 11.5039C11.9764 11.5039 11.452 12.0461 11.452 12.7148C11.452 13.3836 11.9764 13.9258 12.6233 13.9258Z" fill="url(#paint10_linear)"/>
</g>
<defs>
<linearGradient id="paint0_linear" x1="23.9853" y1="13.3203" x2="21.6887" y2="12.9076" gradientUnits="userSpaceOnUse">
<stop stop-color="#E5223C"/>
<stop offset="1" stop-color="#2F4666"/>
</linearGradient>
<linearGradient id="paint1_linear" x1="30.1935" y1="23.25" x2="0.797101" y2="17.9668" gradientUnits="userSpaceOnUse">
<stop stop-color="#E5223C"/>
<stop offset="1" stop-color="#2F4666"/>
</linearGradient>
<linearGradient id="paint2_linear" x1="30.1935" y1="27.3369" x2="16.2991" y2="24.8398" gradientUnits="userSpaceOnUse">
<stop stop-color="#E5223C"/>
<stop offset="1" stop-color="#2F4666"/>
</linearGradient>
<linearGradient id="paint3_linear" x1="25.9766" y1="23.6587" x2="21.9807" y2="23.0469" gradientUnits="userSpaceOnUse">
<stop stop-color="#E5223C"/>
<stop offset="1" stop-color="#2F4666"/>
</linearGradient>
<linearGradient id="paint4_linear" x1="18.89" y1="13.3203" x2="16.5934" y2="12.9076" gradientUnits="userSpaceOnUse">
<stop stop-color="#E5223C"/>
<stop offset="1" stop-color="#2F4666"/>
</linearGradient>
<linearGradient id="paint5_linear" x1="13.7947" y1="18.5879" x2="11.4981" y2="18.1751" gradientUnits="userSpaceOnUse">
<stop stop-color="#E5223C"/>
<stop offset="1" stop-color="#2F4666"/>
</linearGradient>
<linearGradient id="paint6_linear" x1="8.69931" y1="13.3203" x2="6.40272" y2="12.9076" gradientUnits="userSpaceOnUse">
<stop stop-color="#E5223C"/>
<stop offset="1" stop-color="#2F4666"/>
</linearGradient>
<linearGradient id="paint7_linear" x1="8.69931" y1="18.5879" x2="6.40272" y2="18.1751" gradientUnits="userSpaceOnUse">
<stop stop-color="#E5223C"/>
<stop offset="1" stop-color="#2F4666"/>
</linearGradient>
<linearGradient id="paint8_linear" x1="8.69931" y1="23.8555" x2="6.40272" y2="23.4427" gradientUnits="userSpaceOnUse">
<stop stop-color="#E5223C"/>
<stop offset="1" stop-color="#2F4666"/>
</linearGradient>
<linearGradient id="paint9_linear" x1="13.7947" y1="23.8555" x2="11.4981" y2="23.4427" gradientUnits="userSpaceOnUse">
<stop stop-color="#E5223C"/>
<stop offset="1" stop-color="#2F4666"/>
</linearGradient>
<linearGradient id="paint10_linear" x1="13.7947" y1="13.3203" x2="11.4981" y2="12.9076" gradientUnits="userSpaceOnUse">
<stop stop-color="#E5223C"/>
<stop offset="1" stop-color="#2F4666"/>
</linearGradient>
<clipPath id="clip0">
<rect width="29.9864" height="31" fill="white" transform="translate(0.207092)"/>
</clipPath>
</defs>
</svg>
