<svg width="44" height="29" viewBox="0 0 44 29" fill="none" xmlns="http://www.w3.org/2000/svg">
<path d="M37.9595 12.7604C39.2342 11.8205 40.0782 10.2571 40.0782 8.49486C40.0782 5.61203 37.8561 3.28046 35.1087 3.28046C32.3612 3.28046 30.1392 5.61203 30.1392 8.49486C30.1392 10.2571 30.9746 11.8205 32.2579 12.7604C31.1641 13.158 30.165 13.7725 29.3209 14.5678C28.1582 13.5285 26.7888 12.7333 25.2902 12.2633C27.1075 11.1066 28.3305 9.00094 28.3305 6.60611C28.3305 2.95513 25.5141 0 22.0346 0C18.5551 0 15.7387 2.96416 15.7387 6.60611C15.7387 9.00094 16.9531 11.1066 18.779 12.2633C17.2976 12.7333 15.9454 13.5195 14.7913 14.5407C13.9473 13.7635 12.9654 13.158 11.8888 12.7694C13.1635 11.8295 14.0076 10.2661 14.0076 8.5039C14.0076 5.62107 11.7855 3.2895 9.03802 3.2895C6.29057 3.2895 4.06849 5.62107 4.06849 8.5039C4.06849 10.2661 4.90393 11.8295 6.18722 12.7694C2.76798 14.0075 0.313354 17.4145 0.313354 21.4179V22.0143C0.313354 22.0324 0.33058 22.0505 0.347805 22.0505H10.8811C10.8209 22.5475 10.7864 23.0626 10.7864 23.5777V24.1923C10.7864 26.8492 12.8362 29 15.3684 29H28.7181C31.2502 29 33.3 26.8492 33.3 24.1923V23.5777C33.3 23.0626 33.2656 22.5475 33.2053 22.0505H43.8075C43.8247 22.0505 43.842 22.0324 43.842 22.0143V21.4179C43.8247 17.4054 41.3787 13.9984 37.9595 12.7604ZM31.5172 8.48582C31.5172 6.40729 33.1278 4.71736 35.1087 4.71736C37.0896 4.71736 38.7002 6.40729 38.7002 8.48582C38.7002 10.5372 37.1241 12.2091 35.1776 12.2543C35.1517 12.2543 35.1345 12.2543 35.1087 12.2543C35.0828 12.2543 35.0656 12.2543 35.0398 12.2543C33.0847 12.2181 31.5172 10.5463 31.5172 8.48582ZM17.0995 6.60611C17.0995 3.75943 19.3044 1.44593 22.0174 1.44593C24.7304 1.44593 26.9352 3.75943 26.9352 6.60611C26.9352 9.35338 24.8768 11.6036 22.3016 11.7572C22.2069 11.7572 22.1121 11.7572 22.0174 11.7572C21.9226 11.7572 21.8279 11.7572 21.7332 11.7572C19.158 11.6036 17.0995 9.35338 17.0995 6.60611ZM5.42069 8.48582C5.42069 6.40729 7.03126 4.71736 9.01219 4.71736C10.9931 4.71736 12.6037 6.40729 12.6037 8.48582C12.6037 10.5372 11.0276 12.2091 9.08109 12.2543C9.05525 12.2543 9.03803 12.2543 9.01219 12.2543C8.98635 12.2543 8.96912 12.2543 8.94328 12.2543C6.99681 12.2181 5.42069 10.5463 5.42069 8.48582ZM11.1223 20.5955H1.70861C2.09618 16.7457 5.19676 13.7273 8.96051 13.7002C8.97774 13.7002 8.99496 13.7002 9.01219 13.7002C9.02941 13.7002 9.04664 13.7002 9.06386 13.7002C10.8553 13.7093 12.4917 14.4051 13.7578 15.5347C12.5176 16.9445 11.596 18.6797 11.1223 20.5955ZM31.9048 24.1923C31.9048 26.0449 30.4664 27.5541 28.7008 27.5541H15.3511C13.5855 27.5541 12.1472 26.0449 12.1472 24.1923V23.5777C12.1472 17.9657 16.4191 13.3749 21.7332 13.2122C21.8279 13.2213 21.9312 13.2213 22.026 13.2213C22.1207 13.2213 22.2241 13.2213 22.3188 13.2122C27.6329 13.3749 31.9048 17.9657 31.9048 23.5777V24.1923V24.1923ZM32.9297 20.5955C32.456 18.6887 31.5516 16.9807 30.32 15.5709C31.5947 14.4141 33.2483 13.7183 35.057 13.7002C35.0742 13.7002 35.0915 13.7002 35.1087 13.7002C35.1259 13.7002 35.1431 13.7002 35.1604 13.7002C38.9241 13.7273 42.0247 16.7457 42.4123 20.5955H32.9297Z" fill="url(#paint0_linear)"/>
<defs>
<linearGradient id="paint0_linear" x1="43.842" y1="21.75" x2="2.97026" y2="10.3517" gradientUnits="userSpaceOnUse">
<stop stop-color="#E5223C"/>
<stop offset="1" stop-color="#2F4666"/>
</linearGradient>
</defs>
</svg>
