<svg width="28" height="28" viewBox="0 0 28 28" fill="none" xmlns="http://www.w3.org/2000/svg">
<g clip-path="url(#clip0)">
<rect x="16" y="16" width="5" height="9" fill="#FD9F32"/>
<rect x="7" y="16" width="6" height="5" fill="#FD9F32"/>
<path d="M8.10711 15.0901H11.9118C12.9531 15.0901 13.7998 15.9368 13.7998 16.9781V19.896C13.7998 20.9373 12.9531 21.784 11.9118 21.784H8.10711C7.06584 21.784 6.21908 20.9373 6.21908 19.896V16.9781C6.21908 15.9368 7.06584 15.0901 8.10711 15.0901ZM7.5922 19.896C7.5922 20.182 7.82677 20.4109 8.10711 20.4109H11.9118C12.1978 20.4109 12.4267 20.1763 12.4267 19.896V16.9781C12.4267 16.6921 12.1921 16.4632 11.9118 16.4632H8.10711C7.82105 16.4632 7.5922 16.6978 7.5922 16.9781V19.896Z" fill="#6FE3FF"/>
<path d="M-8.34465e-07 9.78642C-8.34465e-07 9.66627 0.028605 9.55185 0.0915392 9.44886L4.25664 2.12561C4.37679 1.91392 4.60564 1.77661 4.85165 1.77661H23.1541C23.4001 1.77661 23.6289 1.9082 23.7491 2.12561L27.9085 9.44886C27.9657 9.55185 28 9.66627 28 9.78642C28 11.4284 27.0102 12.8359 25.5971 13.4595V25.5371C25.5971 25.9147 25.2881 26.2237 24.9105 26.2237H21.1173C21.1116 26.2237 21.1058 26.2237 21.1001 26.2237H15.7793C15.7736 26.2237 15.7679 26.2237 15.7622 26.2237H3.09522C2.71761 26.2237 2.40866 25.9147 2.40866 25.5371V13.5453C2.40866 13.5167 2.40866 13.4938 2.41438 13.4709C0.995502 12.8473 -8.34465e-07 11.4342 -8.34465e-07 9.78642ZM22.7536 3.15544H5.25214L1.99673 8.88245H26.0033L22.7536 3.15544ZM8.07274 10.2498C8.29015 11.4856 9.37148 12.4239 10.6702 12.4239C11.9689 12.4239 13.0503 11.4856 13.2677 10.2498H8.07274ZM14.7266 10.2498C14.944 11.4856 16.0253 12.4239 17.3241 12.4239C18.6228 12.4239 19.7041 11.4856 19.9273 10.2498H14.7266ZM26.5811 10.2498H21.3805C21.5979 11.4856 22.6849 12.4239 23.9837 12.4239C25.2824 12.4297 26.3637 11.4856 26.5811 10.2498ZM16.4659 24.8506H20.4136V17.4415C20.4136 16.9037 19.9787 16.4632 19.4352 16.4632H17.4385C16.9007 16.4632 16.4602 16.898 16.4602 17.4415V24.8506H16.4659ZM3.78177 24.8506H15.0928V17.4415C15.0928 16.1485 16.1455 15.0901 17.4442 15.0901H19.4409C20.734 15.0901 21.7924 16.1428 21.7924 17.4415V24.8563H24.2239V13.797C24.1438 13.8028 24.0638 13.8028 23.9837 13.8028C22.5991 13.8028 21.3747 13.099 20.6539 12.0292C19.933 13.099 18.7086 13.8028 17.3241 13.8028C15.9395 13.8028 14.7209 13.099 13.9943 12.0292C13.2734 13.099 12.049 13.8028 10.6702 13.8028C9.28566 13.8028 8.06702 13.099 7.34614 12.0292C6.62525 13.099 5.4009 13.8028 4.01634 13.8028C3.93625 13.8028 3.86187 13.797 3.78177 13.797V24.8506ZM4.01634 12.4297C5.31508 12.4297 6.3964 11.4914 6.61381 10.2556H1.41316C1.63629 11.4856 2.71761 12.4297 4.01634 12.4297Z" fill="#6FE3FF"/>
</g>
<defs>
<clipPath id="clip0">
<rect width="28" height="28" fill="white" transform="matrix(-1 0 0 1 28 0)"/>
</clipPath>
</defs>
</svg>
