<svg width="28" height="28" viewBox="0 0 28 28" fill="none" xmlns="http://www.w3.org/2000/svg">
<g clip-path="url(#clip0)">
<rect x="13" y="21" width="10" height="3" rx="1.5" fill="#FD9F32"/>
<rect x="13" y="24" width="10" height="2" rx="1" fill="#FD9F32"/>
<rect x="22.9297" y="16.9727" width="10.1818" height="2.2663" rx="1.13315" transform="rotate(59.7918 22.9297 16.9727)" fill="#FD9F32"/>
<path d="M3 19.5C3 18.7 6.33333 13.5 8 11H13C13.8333 12.1667 16 15.5 18 19.5C20 23.5 15.5 24.5 13 24.5C11.6667 24.5 8.2 24.4 5 24C1 23.5 3 20.5 3 19.5Z" fill="#FD9F32"/>
<path d="M7.85254 15.9627C7.85254 16.1893 8.03613 16.3729 8.2627 16.3729H10.8415C10.6693 16.8675 10.2011 17.2234 9.65165 17.2234H8.80005C8.54084 17.2234 8.30978 17.3684 8.19702 17.6018C8.0843 17.8353 8.11444 18.1064 8.27571 18.3094L10.7798 21.4617C10.8608 21.5636 10.9804 21.6168 11.1013 21.6168C11.1907 21.6168 11.2807 21.5877 11.3561 21.5278C11.5334 21.3869 11.563 21.1288 11.4222 20.9515L9.11232 18.0437H9.65165C10.6564 18.0437 11.4971 17.3251 11.6906 16.373H12.4094C12.636 16.373 12.8196 16.1893 12.8196 15.9628C12.8196 15.7363 12.636 15.5526 12.4094 15.5526H11.7004C11.6455 15.2441 11.5206 14.9541 11.3329 14.7022H12.4095C12.6361 14.7022 12.8196 14.5186 12.8196 14.292C12.8196 14.0655 12.6361 13.8819 12.4095 13.8819L8.26275 13.8818C8.03618 13.8818 7.85259 14.0655 7.85259 14.292C7.85259 14.5185 8.03618 14.7021 8.26275 14.7021H9.14737L9.14841 14.7022H9.70262C10.0256 14.7025 10.3292 14.8283 10.5577 15.0567C10.6987 15.1977 10.8003 15.3675 10.8577 15.5527H8.2627C8.03613 15.5526 7.85254 15.7362 7.85254 15.9627V15.9627Z" fill="#1D1B1B"/>
<path d="M27.7677 24.1414L25.7797 20.6981C25.6665 20.5019 25.4155 20.4347 25.2195 20.548C25.0233 20.6612 24.9561 20.9121 25.0694 21.1083L27.0573 24.5515C27.3098 24.9888 27.1594 25.55 26.7221 25.8025C26.2848 26.0549 25.7236 25.9046 25.4711 25.4673L21.8903 19.2652C21.768 19.0533 21.7355 18.8066 21.7988 18.5703C21.8621 18.334 22.0137 18.1365 22.2255 18.0142C22.4373 17.8919 22.684 17.8593 22.9205 17.9227C23.1567 17.986 23.3542 18.1376 23.4765 18.3494L24.1123 19.4506C24.2255 19.6468 24.4763 19.714 24.6725 19.6007C24.8687 19.4875 24.9359 19.2366 24.8227 19.0405L24.1869 17.9392C23.9551 17.5376 23.5806 17.2503 23.1327 17.1303C22.6847 17.0104 22.217 17.0719 21.8153 17.3038C21.4137 17.5356 21.1264 17.91 21.0065 18.3579C20.8864 18.8059 20.948 19.2737 21.1799 19.6753L21.7262 20.6215H20.6665C20.5761 19.1353 19.3973 16.7518 17.1579 13.5299C16.0036 11.8691 14.8394 10.3832 14.1979 9.58483C14.5958 9.47327 14.9264 9.19978 15.1139 8.83999C16.0392 8.95417 16.7767 9.83311 17.0524 10.7187C17.1085 10.8984 17.1586 11.0802 17.2118 11.2726C17.4162 12.0134 17.6277 12.7796 18.1763 13.3854C18.2573 13.4748 18.3687 13.5202 18.4805 13.5202C18.5787 13.5202 18.6772 13.4851 18.7557 13.4141C18.9236 13.262 18.9365 13.0026 18.7844 12.8347C18.3666 12.3733 18.1897 11.7326 18.0025 11.0543C17.95 10.8639 17.8956 10.667 17.8356 10.4747C17.6265 9.80303 17.2368 9.18835 16.7383 8.74379C16.2973 8.35048 15.7992 8.11024 15.2759 8.03395C15.2561 7.7936 15.1789 7.56932 15.0578 7.37496C15.6527 7.01518 16.2162 6.95978 16.7706 7.20642C17.0194 7.31732 17.2554 7.48735 17.5053 7.66743C17.9226 7.9681 18.3542 8.27906 18.9138 8.36689C18.9354 8.37028 18.9568 8.37192 18.9779 8.37192C19.1764 8.37192 19.3509 8.22754 19.3827 8.02525C19.4178 7.80147 19.2649 7.59158 19.0411 7.55647C18.6748 7.499 18.3397 7.2575 17.9849 7.00183C17.7124 6.80545 17.4305 6.60239 17.1044 6.45703C16.2363 6.07072 15.3135 6.19404 14.4208 6.81092C14.2916 6.75092 14.1525 6.70893 14.0065 6.68831C14.225 6.42893 14.43 6.1387 14.6154 5.82364C14.7198 5.6458 14.8134 5.46807 14.8935 5.29542C14.9889 5.08996 14.8996 4.84605 14.6941 4.75067C14.4887 4.65535 14.2448 4.7446 14.1494 4.95007C14.0803 5.09898 13.9991 5.25314 13.9082 5.40802C13.6047 5.92378 13.2467 6.35821 12.8673 6.67338H11.862C11.9127 6.49247 11.9605 6.29817 12.0049 6.09046C12.0946 5.67014 12.1557 5.26567 12.1865 4.88816C12.205 4.66235 12.0369 4.46439 11.8111 4.44596C11.5859 4.42709 11.3875 4.59558 11.369 4.82133C11.3409 5.16384 11.285 5.53325 11.2027 5.91918C11.1435 6.19623 11.0766 6.45151 11.0057 6.67332H9.66744C9.59711 6.45304 9.53023 6.19782 9.47073 5.91924C9.38804 5.53183 9.33237 5.16264 9.30513 4.82199C9.28703 4.59618 9.09021 4.4278 8.86353 4.44585C8.63773 4.46395 8.46934 4.66159 8.48739 4.88739C8.51752 5.26348 8.57844 5.66822 8.66857 6.09052C8.71309 6.29882 8.76083 6.49302 8.8113 6.67327H7.8056C7.42612 6.35805 7.06819 5.92361 6.7649 5.40807C6.01612 4.13407 6.03291 3.0978 6.81362 2.41109C7.08258 2.17413 7.5023 1.89735 8.03895 2.22663C8.55816 2.54464 9.16169 2.56099 9.65338 2.27054C10.0918 2.01176 10.5809 2.01143 11.0196 2.27049C11.5113 2.56088 12.115 2.54453 12.6351 2.22646C12.8916 2.06885 13.2981 1.9166 13.8599 2.41098C14.1568 2.6726 14.3454 2.98629 14.4205 3.34335C14.4671 3.56505 14.6845 3.70685 14.9063 3.66026C15.128 3.61361 15.2699 3.39612 15.2232 3.17442C15.1109 2.64056 14.8347 2.17664 14.4021 1.79536C13.7045 1.1816 12.9246 1.08634 12.2065 1.52701C11.9465 1.68599 11.666 1.69949 11.4369 1.5642C11.0895 1.35907 10.7195 1.2551 10.3369 1.2551C9.95405 1.2551 9.58377 1.35907 9.23634 1.5642C9.00719 1.69949 8.72703 1.6861 8.46781 1.52728C7.74884 1.08612 6.96883 1.18133 6.27173 1.79531C5.76505 2.24101 5.46563 2.81955 5.40597 3.46847C5.34012 4.18346 5.55948 4.97588 6.0579 5.82392C6.24312 6.13881 6.44804 6.42893 6.66662 6.68825C5.94716 6.79003 5.39191 7.40953 5.39191 8.15661C5.39191 8.83583 5.85096 9.4095 6.475 9.58461C6.08119 10.0746 5.49112 10.8226 4.83022 11.7076C4.69465 11.8891 4.73189 12.1461 4.9134 12.2816C4.98712 12.3367 5.0732 12.3632 5.15856 12.3632C5.28352 12.3632 5.40695 12.3062 5.48751 12.1984C6.41249 10.9598 7.19573 9.99422 7.48672 9.6399H13.1866C13.6068 10.1517 15.053 11.9381 16.4846 13.9979C19.0933 17.7512 19.7705 19.6608 19.8454 20.6214H14.6683C13.7112 20.6214 12.9325 21.4003 12.9325 22.3578C12.9325 22.8889 13.1725 23.3648 13.5495 23.6835C13.1724 24.0022 12.9323 24.4783 12.9323 25.0096C12.9323 25.3454 13.0285 25.6591 13.1943 25.9251H5.50058C4.47114 25.9251 3.28196 25.2901 2.55998 24.6608C1.76635 23.9691 0.820312 22.7381 0.820312 20.8026C0.820312 19.885 1.4333 17.9188 4.35356 13.762C4.48377 13.5766 4.43909 13.3208 4.25376 13.1907C4.06831 13.0604 3.81254 13.1051 3.68238 13.2905C1.23895 16.7685 0 19.2959 0 20.8026C0 23.0465 1.099 24.4756 2.02098 25.2793C3.04281 26.17 4.40863 26.7456 5.50058 26.7456L21.8298 26.7458C22.787 26.7458 23.5659 25.967 23.5659 25.0097C23.5659 24.4784 23.3258 24.0024 22.9487 23.6837C23.0758 23.5762 23.1873 23.451 23.2793 23.3116L24.7607 25.8775C25.0819 26.4338 25.6666 26.7452 26.2671 26.7452C26.5614 26.7452 26.8595 26.6704 27.1323 26.513C27.9613 26.0343 28.2464 24.9705 27.7677 24.1414V24.1414ZM6.21201 8.15678C6.21201 7.79119 6.50945 7.4938 6.87498 7.4938H13.798C14.1636 7.4938 14.461 7.79125 14.461 8.15678C14.461 8.52236 14.1635 8.81975 13.798 8.81975H6.87498C6.50945 8.81975 6.21201 8.52231 6.21201 8.15678V8.15678ZM22.7455 25.0097C22.7455 25.5146 22.3347 25.9254 21.8298 25.9254H15.1759C15.1747 25.9254 15.1735 25.9252 15.1722 25.9252H14.6645C14.1612 25.9232 13.7523 25.5134 13.7523 25.0097C13.7523 24.5046 14.1631 24.0938 14.6681 24.0938H21.8296C22.3347 24.0938 22.7455 24.5047 22.7455 25.0097V25.0097ZM21.8296 23.2735H14.6681C14.1632 23.2735 13.7525 22.8628 13.7525 22.3579C13.7525 21.8528 14.1632 21.4419 14.668 21.4419H21.8295C21.9821 21.4419 22.1302 21.4798 22.263 21.5513L22.7442 22.3848C22.7298 22.8771 22.3256 23.2735 21.8296 23.2735Z" fill="#65CAE3"/>
</g>
<defs>
<clipPath id="clip0">
<rect width="28" height="28" fill="white"/>
</clipPath>
</defs>
</svg>
