<svg width="28" height="28" viewBox="0 0 28 28" fill="none" xmlns="http://www.w3.org/2000/svg">
<g clip-path="url(#clip0)">
<path d="M23.7489 14.2316C23.7489 19.7812 19.2502 24.2799 13.7006 24.2799C8.15113 24.2799 3.65234 19.7812 3.65234 14.2316C3.65234 8.68214 8.15113 4.18335 13.7006 4.18335C19.2502 4.18335 23.7489 8.68214 23.7489 14.2316V14.2316Z" fill="#FD9F32"/>
<path d="M18.4596 8.2355C18.4535 7.93598 18.2059 7.69776 17.9067 7.70349H10.0936C9.89858 7.69625 9.71531 7.79589 9.61567 7.96346C9.51604 8.13103 9.51604 8.33967 9.61567 8.50754C9.71531 8.67511 9.89858 8.77475 10.0936 8.7672H12.3288C13.6833 8.7672 14.8161 9.69716 15.0737 10.9281H10.0936C9.89828 10.9203 9.71471 11.0199 9.61477 11.1878C9.51513 11.3554 9.51513 11.5643 9.61477 11.7322C9.71471 11.8998 9.89828 11.9994 10.0936 11.9918H15.0743C14.9641 12.5163 14.6972 12.9949 14.3086 13.3641C13.7763 13.8744 13.0661 14.1576 12.3288 14.1531H10.0936C9.8702 14.151 9.66761 14.2832 9.57974 14.4885C9.49611 14.6917 9.54985 14.9254 9.7138 15.0716L15.3023 20.1507C15.5269 20.3524 15.8702 20.343 16.0837 20.1292C16.1842 20.0284 16.2385 19.8907 16.2343 19.7488C16.2301 19.6066 16.1676 19.4722 16.0616 19.3774L11.4837 15.2168H12.3288C13.3578 15.2228 14.3485 14.8279 15.0909 14.1156C15.6857 13.5507 16.0746 12.8028 16.1954 11.9915H17.9067C18.1018 11.9991 18.2853 11.8995 18.3853 11.7319C18.4849 11.564 18.4849 11.3551 18.3853 11.1875C18.2853 11.0196 18.1018 10.92 17.9067 10.9278H16.1948C16.0686 10.0984 15.6643 9.33635 15.048 8.7669H17.9067C18.2059 8.77264 18.4535 8.53472 18.4596 8.2355Z" fill="#1D1D1B"/>
<path d="M26.9241 8.7331C26.7985 8.45895 26.4794 8.33304 26.2007 8.44747C26.0672 8.4982 25.9601 8.60085 25.9042 8.7322C25.8483 8.86354 25.848 9.01178 25.9039 9.14312C26.5594 10.648 26.8967 12.2723 26.8942 13.9137C26.8942 20.7424 21.1186 26.298 14.0196 26.298C11.4181 26.3095 8.87191 25.5468 6.70525 24.1066L8.45615 21.821C8.58749 21.6513 8.59957 21.4179 8.48695 21.2355C8.3704 21.0501 8.15664 20.9496 7.93955 20.978L3.60078 21.5205C3.45284 21.5383 3.31817 21.6147 3.22699 21.7325C3.13792 21.8478 3.10169 21.9952 3.12705 22.1389L3.87433 26.2856C3.9154 26.4988 4.07995 26.6667 4.29221 26.7122C4.33387 26.7216 4.37645 26.7264 4.41902 26.7264C4.59293 26.7273 4.75748 26.6473 4.86407 26.51L6.04945 24.9629C8.40784 26.5389 11.1832 27.3741 14.0196 27.3617C21.7285 27.3617 27.9999 21.3291 27.9999 13.914C28.0026 12.1313 27.6364 10.3672 26.9241 8.7331V8.7331Z" fill="#6FE3FF"/>
<path d="M1.10569 14.0858C1.10569 7.25703 6.88135 1.70149 13.9804 1.70149C16.5818 1.69001 19.1277 2.45299 21.2944 3.89321L19.5435 6.17883C19.4124 6.34852 19.4001 6.58161 19.5127 6.76428C19.615 6.92823 19.7953 7.02726 19.9888 7.02605C20.0127 7.02605 20.0365 7.02454 20.0601 7.02152L24.3994 6.47895C24.5474 6.46144 24.6821 6.38505 24.7735 6.2673C24.8626 6.15196 24.8985 6.00432 24.8732 5.8609L24.1259 1.71417C24.0848 1.501 23.9206 1.33313 23.7086 1.28724C23.4949 1.23772 23.2717 1.31652 23.1365 1.48953L21.9514 3.03663C19.5927 1.46054 16.817 0.625401 13.9804 0.638082C6.27145 0.638082 1.4999e-05 6.67068 1.4999e-05 14.0858C-0.00270239 15.8684 0.363843 17.6323 1.0761 19.2667C1.16608 19.4672 1.36626 19.5952 1.58606 19.5934C1.65913 19.5934 1.7316 19.5792 1.79923 19.552C1.93268 19.5013 2.03957 19.3986 2.09573 19.2673C2.15158 19.1359 2.15158 18.9877 2.09603 18.8563C1.44023 17.3515 1.10327 15.7271 1.10569 14.0858V14.0858Z" fill="#6FE3FF"/>
</g>
<defs>
<clipPath id="clip0">
<rect width="28" height="28" fill="white"/>
</clipPath>
</defs>
</svg>
