<svg width="28" height="28" viewBox="0 0 28 28" fill="none" xmlns="http://www.w3.org/2000/svg">
<path d="M27.125 7.875C26.6417 7.875 26.25 7.48322 26.25 7V2.51562C26.25 2.09344 25.9066 1.75 25.4844 1.75H21C20.5167 1.75 20.125 1.35822 20.125 0.875C20.125 0.391781 20.5167 0 21 0H25.4844C26.8715 0 28 1.12853 28 2.51562V7C28 7.48322 27.6083 7.875 27.125 7.875Z" fill="#6FE3FF"/>
<path d="M0.875 7.875C0.391727 7.875 0 7.48322 0 7V2.51562C0 1.12853 1.12853 0 2.51562 0H7C7.48327 0 7.875 0.391781 7.875 0.875C7.875 1.35822 7.48327 1.75 7 1.75H2.51562C2.09344 1.75 1.75 2.09344 1.75 2.51562V7C1.75 7.48322 1.35827 7.875 0.875 7.875Z" fill="#6FE3FF"/>
<path d="M7 28H2.51562C1.12853 28 0 26.8715 0 25.4844V21C0 20.5168 0.391727 20.125 0.875 20.125C1.35827 20.125 1.75 20.5168 1.75 21V25.4844C1.75 25.9066 2.09344 26.25 2.51562 26.25H7C7.48327 26.25 7.875 26.6418 7.875 27.125C7.875 27.6082 7.48327 28 7 28Z" fill="#6FE3FF"/>
<path d="M25.4844 28H21C20.5167 28 20.125 27.6082 20.125 27.125C20.125 26.6418 20.5167 26.25 21 26.25H25.4844C25.9066 26.25 26.25 25.9066 26.25 25.4844V21C26.25 20.5168 26.6417 20.125 27.125 20.125C27.6083 20.125 28 20.5168 28 21V25.4844C28 26.8715 26.8715 28 25.4844 28Z" fill="#6FE3FF"/>
<path d="M10.6094 13.125H6.01562C4.62853 13.125 3.5 11.9965 3.5 10.6094V6.01562C3.5 4.62853 4.62853 3.5 6.01562 3.5H10.6094C11.9965 3.5 13.125 4.62853 13.125 6.01562V10.6094C13.125 11.9965 11.9965 13.125 10.6094 13.125ZM6.01562 5.25C5.59344 5.25 5.25 5.59344 5.25 6.01562V10.6094C5.25 11.0316 5.59344 11.375 6.01562 11.375H10.6094C11.0316 11.375 11.375 11.0316 11.375 10.6094V6.01562C11.375 5.59344 11.0316 5.25 10.6094 5.25H6.01562Z" fill="#FD9F32"/>
<path d="M10.6094 24.5H6.01562C4.62853 24.5 3.5 23.3715 3.5 21.9844V17.3906C3.5 16.0035 4.62853 14.875 6.01562 14.875H10.6094C11.9965 14.875 13.125 16.0035 13.125 17.3906V21.9844C13.125 23.3715 11.9965 24.5 10.6094 24.5ZM6.01562 16.625C5.59344 16.625 5.25 16.9684 5.25 17.3906V21.9844C5.25 22.4066 5.59344 22.75 6.01562 22.75H10.6094C11.0316 22.75 11.375 22.4066 11.375 21.9844V17.3906C11.375 16.9684 11.0316 16.625 10.6094 16.625H6.01562Z" fill="#FD9F32"/>
<path d="M21.9844 13.125H17.3906C16.0035 13.125 14.875 11.9965 14.875 10.6094V6.01562C14.875 4.62853 16.0035 3.5 17.3906 3.5H21.9844C23.3715 3.5 24.5 4.62853 24.5 6.01562V10.6094C24.5 11.9965 23.3715 13.125 21.9844 13.125ZM17.3906 5.25C16.9684 5.25 16.625 5.59344 16.625 6.01562V10.6094C16.625 11.0316 16.9684 11.375 17.3906 11.375H21.9844C22.4066 11.375 22.75 11.0316 22.75 10.6094V6.01562C22.75 5.59344 22.4066 5.25 21.9844 5.25H17.3906Z" fill="#FD9F32"/>
<path d="M23.0781 19.25H21V16.2969C21 15.5129 20.3622 14.875 19.5781 14.875H16.2969C15.5128 14.875 14.875 15.5129 14.875 16.2969V19.5781C14.875 20.3621 15.5128 21 16.2969 21H19.25V23.0781C19.25 23.8621 19.8878 24.5 20.6719 24.5H23.0781C23.8622 24.5 24.5 23.8621 24.5 23.0781V20.6719C24.5 19.8879 23.8622 19.25 23.0781 19.25ZM16.625 16.625H19.25V19.25H16.625V16.625ZM22.75 22.75H21V21H22.75V22.75Z" fill="#6FE3FF"/>
<path d="M8.75 9.625H7.875C7.39173 9.625 7 9.23322 7 8.75V7.875C7 7.39178 7.39173 7 7.875 7H8.75C9.23327 7 9.625 7.39178 9.625 7.875V8.75C9.625 9.23322 9.23327 9.625 8.75 9.625Z" fill="#6FE3FF"/>
<path d="M20.125 9.625H19.25C18.7667 9.625 18.375 9.23322 18.375 8.75V7.875C18.375 7.39178 18.7667 7 19.25 7H20.125C20.6083 7 21 7.39178 21 7.875V8.75C21 9.23322 20.6083 9.625 20.125 9.625Z" fill="#6FE3FF"/>
<path d="M8.75 21H7.875C7.39173 21 7 20.6082 7 20.125V19.25C7 18.7668 7.39173 18.375 7.875 18.375H8.75C9.23327 18.375 9.625 18.7668 9.625 19.25V20.125C9.625 20.6082 9.23327 21 8.75 21Z" fill="#6FE3FF"/>
</svg>
