<svg width="28" height="28" viewBox="0 0 28 28" fill="none" xmlns="http://www.w3.org/2000/svg">
<g clip-path="url(#clip0)">
<path d="M27.7874 13.0676L22.6212 8.6558C22.6272 8.62563 22.6332 8.59545 22.6393 8.55924V2.78949C22.6332 2.44548 22.3616 2.16786 22.0176 2.15579H19.1327C18.8008 2.15579 18.5292 2.45152 18.5292 2.78949V5.17947L14.395 1.65486C14.1717 1.46173 13.8398 1.46173 13.6104 1.65486L0.21811 13.0616C-0.041408 13.2728 -0.0715845 13.653 0.139651 13.9125C0.350887 14.1721 0.731111 14.2022 0.990629 13.991C0.996664 13.985 0.996664 13.985 1.0027 13.9789L14.0027 2.9102L18.656 6.87539L21.4382 9.24123L27.0088 13.985C27.2623 14.2022 27.6425 14.1721 27.8598 13.9186C28.071 13.6651 28.0409 13.2849 27.7874 13.0676ZM21.4262 7.63584L19.7363 6.21151V3.36888H21.4262V7.63584Z" fill="#FD9F32"/>
<rect x="10.6211" y="18.3447" width="5.79311" height="7.72414" fill="#FD9F32"/>
<path d="M25.1257 14.2866L23.4298 12.8381L14.3949 5.11897C14.1716 4.92584 13.8397 4.92584 13.6103 5.11897L4.57547 12.8381L2.87955 14.2866C2.62607 14.5039 2.59589 14.8841 2.81316 15.1376C3.0244 15.3911 3.39859 15.4212 3.64603 15.21L3.65207 15.204L4.40648 14.5521V25.8683C4.41252 26.2063 4.69014 26.4839 5.02812 26.49H22.9711C23.309 26.4839 23.5867 26.2124 23.5927 25.8683V14.5521L24.3471 15.204C24.4558 15.2945 24.5885 15.3488 24.7334 15.3488C24.9084 15.3488 25.0774 15.2703 25.1921 15.1376C25.4154 14.8781 25.3792 14.4978 25.1257 14.2866ZM16.4167 25.2769H11.5885V18.7588H16.4167V25.2769ZM17.6238 25.2769V18.1733C17.6238 17.8414 17.3763 17.5517 17.0444 17.5517H10.9608C10.6289 17.5517 10.3814 17.8414 10.3814 18.1733V25.2769H5.61354V13.5201L14.0026 6.37431L22.3917 13.5201V25.2769H17.6238Z" fill="#6FE3FF"/>
</g>
<defs>
<clipPath id="clip0">
<rect width="28" height="28" fill="white"/>
</clipPath>
</defs>
</svg>
