<svg width="36" height="36" viewBox="0 0 36 36" fill="none" xmlns="http://www.w3.org/2000/svg">
<g clip-path="url(#clip0)">
<path d="M31.1435 18.9053C30.2542 17.4741 29.0013 16.3289 27.5203 15.5936C27.1813 15.4252 26.7745 15.5726 26.6117 15.9226C26.4488 16.2726 26.5914 16.6927 26.9303 16.8609C29.5112 18.1423 31.1787 20.8802 31.1787 23.836C31.1787 25.1008 30.8769 26.3551 30.3059 27.4635C30.1293 27.8062 30.2552 28.2321 30.5871 28.4144C30.689 28.4704 30.7984 28.497 30.9063 28.497C31.1499 28.497 31.3855 28.3616 31.5079 28.124C32.1833 26.8131 32.5403 25.3303 32.5403 23.836C32.5403 22.081 32.0573 20.376 31.1435 18.9053Z" fill="url(#paint0_linear)"/>
<path d="M24.7572 14.6954L24.7114 14.6953C24.3355 14.6953 24.0306 15.0101 24.0306 15.3984C24.0306 15.7868 24.3355 16.1016 24.7114 16.1016L24.7508 16.1016C24.7519 16.1016 24.7529 16.1016 24.7541 16.1016C25.1286 16.1016 25.433 15.789 25.4348 15.4018C25.4365 15.0135 25.1332 14.6972 24.7572 14.6954Z" fill="url(#paint1_linear)"/>
<path d="M20.4502 30.8111C17.8694 29.5296 16.2019 26.7918 16.2019 23.836C16.2019 22.5713 16.5037 21.317 17.0747 20.2086C17.2513 19.8658 17.1254 19.44 16.7935 19.2576C16.4617 19.0752 16.0492 19.2052 15.8727 19.548C15.1973 20.859 14.8403 22.3418 14.8403 23.836C14.8403 25.591 15.3233 27.296 16.2371 28.7667C17.1264 30.1979 18.3793 31.3431 19.8603 32.0785C19.9554 32.1258 20.0559 32.1481 20.1548 32.1481C20.4084 32.1481 20.6517 32.0012 20.7689 31.7495C20.9317 31.3995 20.7891 30.9793 20.4502 30.8111Z" fill="url(#paint2_linear)"/>
<path d="M22.6692 31.5705L22.6298 31.5703C22.2521 31.5696 21.9476 31.8817 21.9459 32.2701C21.9442 32.6585 22.2476 32.9747 22.6236 32.9766L22.6692 32.9767C23.0451 32.9767 23.35 32.6618 23.35 32.2736C23.35 31.8853 23.0451 31.5705 22.6692 31.5705Z" fill="url(#paint3_linear)"/>
<path d="M26.7816 12.3165C26.6987 12.1126 26.5972 11.9204 26.4791 11.7422H28.2514C29.9781 11.7422 31.383 10.2912 31.383 8.5078C31.383 6.72439 29.9781 5.27343 28.2514 5.27343H22.7998C23.1464 4.75298 23.3498 4.12333 23.3498 3.44531C23.3498 1.6619 21.945 0.210938 20.2183 0.210938H3.53939C1.81268 0.210938 0.407837 1.6619 0.407837 3.44531C0.407837 5.22871 1.81268 6.67968 3.53939 6.67968H8.99101C8.64443 7.20013 8.44095 7.82977 8.44095 8.5078C8.44095 9.18582 8.64436 9.81547 8.99101 10.3359H7.21556C5.48885 10.3359 4.08401 11.7869 4.08401 13.5703C4.08401 14.5945 4.54788 15.5085 5.26957 16.1015C4.54788 16.6945 4.08401 17.6085 4.08401 18.6328C4.08401 19.657 4.54788 20.571 5.26957 21.164C4.54788 21.757 4.08401 22.671 4.08401 23.6953C4.08401 24.7195 4.54788 25.6335 5.26957 26.2265C4.54788 26.8195 4.08401 27.7335 4.08401 28.7578C4.08401 30.5412 5.48885 31.9921 7.21556 31.9921H15.2385C17.352 34.327 20.3587 35.7891 23.6903 35.7891C30.0717 35.7891 35.2634 30.4269 35.2634 23.836C35.2634 18.3504 31.6669 13.7167 26.7816 12.3165ZM28.2514 6.67968C29.2274 6.67968 30.0214 7.4998 30.0214 8.5078C30.0214 9.51579 29.2274 10.3359 28.2514 10.3359H23.8945H11.5725C10.5965 10.3359 9.80249 9.51579 9.80249 8.5078C9.80249 7.4998 10.5965 6.67968 11.5725 6.67968H28.2514ZM3.53939 5.27343C2.56336 5.27343 1.76938 4.4533 1.76938 3.44531C1.76938 2.43731 2.56336 1.61718 3.53939 1.61718H20.2183C21.1943 1.61718 21.9883 2.43731 21.9883 3.44531C21.9883 4.4533 21.1943 5.27343 20.2183 5.27343H3.53939ZM7.21556 11.7422H23.8945C24.1687 11.7422 24.4313 11.808 24.6668 11.9258C24.3448 11.8979 24.0193 11.8829 23.6903 11.8829C20.4944 11.8829 17.5971 13.2279 15.5007 15.3984H7.21556C6.2396 15.3984 5.44555 14.5783 5.44555 13.5703C5.44555 12.5623 6.2396 11.7422 7.21556 11.7422ZM7.21556 16.8047H14.3375C13.5646 17.8982 12.9671 19.1316 12.5877 20.4609H7.21556C6.23953 20.4609 5.44555 19.6408 5.44555 18.6328C5.44555 17.6248 6.23953 16.8047 7.21556 16.8047ZM7.21556 21.8671H12.2751C12.1718 22.5079 12.1172 23.1654 12.1172 23.836C12.1172 24.4087 12.1573 24.9719 12.233 25.5234H7.21556C6.23953 25.5234 5.44555 24.7033 5.44555 23.6953C5.44555 22.6872 6.23953 21.8671 7.21556 21.8671ZM7.21556 30.5859C6.23953 30.5859 5.44555 29.7658 5.44555 28.7578C5.44555 27.7497 6.23953 26.9296 7.21556 26.9296H12.511C12.8545 28.2524 13.4126 29.4852 14.1444 30.5859H7.21556ZM23.6903 34.3828C18.0596 34.3828 13.4787 29.6515 13.4787 23.836C13.4787 18.0204 18.0596 13.2891 23.6903 13.2891C29.321 13.2891 33.9019 18.0204 33.9019 23.836C33.9019 29.6515 29.321 34.3828 23.6903 34.3828Z" fill="url(#paint4_linear)"/>
<path d="M27.4292 22.1795H25.9536C25.848 21.4181 25.5004 20.7147 24.9654 20.1797H27.4292C27.6925 20.1797 27.9057 19.9594 27.9057 19.6875C27.9057 19.4159 27.6925 19.1953 27.4292 19.1953H20.6949C20.4319 19.1953 20.2183 19.4159 20.2183 19.6875C20.2183 19.9594 20.4319 20.1797 20.6949 20.1797H22.6215C23.77 20.1811 24.759 21.0168 24.9874 22.1795H20.6949C20.4319 22.1795 20.2183 22.3997 20.2183 22.6717C20.2183 22.9436 20.4319 23.1638 20.6949 23.1638H24.988C24.7601 24.327 23.7706 25.1636 22.6215 25.1642H20.6949C20.4997 25.1642 20.3242 25.2872 20.2521 25.4745C20.18 25.6619 20.2258 25.8758 20.3675 26.0142L25.184 30.7145C25.3754 30.9007 25.6765 30.8913 25.857 30.6941C26.0376 30.4969 26.0293 30.1857 25.8387 29.999L21.8931 26.1485H22.6215C24.2966 26.1483 25.7169 24.8763 25.9544 23.1638H27.4292C27.6925 23.1638 27.9057 22.9436 27.9057 22.6717C27.9057 22.3997 27.6925 22.1795 27.4292 22.1795Z" fill="url(#paint5_linear)"/>
</g>
<defs>
<linearGradient id="paint0_linear" x1="32.5403" y1="25.2537" x2="26.5168" y2="24.7365" gradientUnits="userSpaceOnUse">
<stop stop-color="#E5223C"/>
<stop offset="1" stop-color="#2F4666"/>
</linearGradient>
<linearGradient id="paint1_linear" x1="25.4348" y1="15.7501" x2="24.0611" y2="15.4952" gradientUnits="userSpaceOnUse">
<stop stop-color="#E5223C"/>
<stop offset="1" stop-color="#2F4666"/>
</linearGradient>
<linearGradient id="paint2_linear" x1="20.8362" y1="28.9048" x2="14.8129" y2="28.3876" gradientUnits="userSpaceOnUse">
<stop stop-color="#E5223C"/>
<stop offset="1" stop-color="#2F4666"/>
</linearGradient>
<linearGradient id="paint3_linear" x1="23.35" y1="32.6251" x2="21.9763" y2="32.3703" gradientUnits="userSpaceOnUse">
<stop stop-color="#E5223C"/>
<stop offset="1" stop-color="#2F4666"/>
</linearGradient>
<linearGradient id="paint4_linear" x1="35.2634" y1="26.8945" x2="1.12119" y2="20.6798" gradientUnits="userSpaceOnUse">
<stop stop-color="#E5223C"/>
<stop offset="1" stop-color="#2F4666"/>
</linearGradient>
<linearGradient id="paint5_linear" x1="27.9057" y1="27.935" x2="20.2413" y2="26.9956" gradientUnits="userSpaceOnUse">
<stop stop-color="#E5223C"/>
<stop offset="1" stop-color="#2F4666"/>
</linearGradient>
<clipPath id="clip0">
<rect width="34.8556" height="36" fill="white" transform="translate(0.407837)"/>
</clipPath>
</defs>
</svg>
