<svg width="91" height="91" viewBox="0 0 91 91" fill="none" xmlns="http://www.w3.org/2000/svg">
<path d="M45.5011 0C20.3712 0 0 20.3712 0 45.4989C0 70.6288 20.3712 90.9977 45.4989 90.9977C70.6266 90.9977 91 70.6288 91 45.4989C91 20.3712 70.6288 0 45.5011 0Z" fill="#673AB7"/>
<path d="M66.3055 33.1709V34.7269C66.3055 35.1851 66.1898 35.5276 65.9607 35.7567C65.7316 35.9858 65.3891 36.1015 64.9309 36.1015H62.5447H60.1585C59.8931 36.1015 59.6958 36.1718 59.5619 36.317C59.4304 36.4622 59.3646 36.6799 59.3646 36.968V55.4792V73.9858C59.3646 74.444 59.2489 74.7888 59.0221 75.0156C58.793 75.2447 58.4482 75.3604 57.99 75.3604H56.0734H54.159C53.7008 75.3604 53.356 75.2447 53.1269 75.0156C52.9001 74.7888 52.7844 74.4463 52.7844 73.9858V67.2968V60.61H52.6438H52.4986C51.9179 61.6216 51.0741 62.3792 49.965 62.8873C48.8581 63.3931 47.4858 63.6449 45.8436 63.6449H44.7956H43.7477C42.0851 63.6449 40.588 63.3999 39.2566 62.9123C37.9228 62.4268 36.7569 61.6942 35.7566 60.7166C34.7563 59.7435 34.0078 58.5867 33.5065 57.2575C33.0075 55.9238 32.7557 54.4131 32.7557 52.7301V44.8479V36.968C32.7557 36.7049 32.7013 36.4985 32.5924 36.3533C32.4858 36.2081 32.3225 36.1242 32.1048 36.1015H30.0066H27.9108C27.4526 36.1015 27.1101 35.979 26.881 35.7386C26.6519 35.4982 26.5362 35.1398 26.5362 34.6544V33.1369V31.6172C26.5362 31.1839 26.6519 30.8573 26.881 30.6441C27.1101 30.4263 27.4526 30.3175 27.9108 30.3175H38.5602H49.2096C47.6695 28.7138 46.177 27.0172 44.7344 25.223C43.2918 23.4265 41.9013 21.5371 40.5631 19.5455L38.5375 16.5424L36.5165 13.5437C36.4212 13.3782 36.3509 13.2012 36.301 13.022C36.2534 12.8406 36.2262 12.6546 36.2262 12.4618C36.2262 12.1011 36.3169 11.8289 36.4984 11.6475C36.6775 11.4683 36.9497 11.3776 37.3104 11.3776H39.5151H41.7199C42.1531 11.3776 42.5274 11.4683 42.8427 11.6475C43.1557 11.8289 43.4097 12.1011 43.6025 12.4618L48.7719 20.7772L53.9412 29.0903C54.2089 29.5009 54.4969 29.8094 54.8122 30.0113C55.1252 30.2154 55.4632 30.3175 55.8239 30.3175H56.0053H56.1868H60.56H64.9332C65.3914 30.3175 65.7339 30.4241 65.9629 30.6441C66.192 30.8596 66.3077 31.1839 66.3077 31.6172V33.1709H66.3055Z" fill="white"/>
<path d="M51.9906 36.0994H46.0614H40.1322C39.8645 36.0994 39.6649 36.1697 39.5333 36.3148C39.4018 36.46 39.336 36.6778 39.336 36.9658V44.5237V52.0769C39.336 53.9573 39.7942 55.3659 40.7106 56.305C41.6269 57.2463 43.0015 57.7158 44.832 57.7158H45.8073H46.7827C47.7966 57.7158 48.6789 57.5865 49.4297 57.3279C50.1828 57.0694 50.8065 56.6792 51.2988 56.1621C51.7932 55.6426 52.1652 55.0325 52.4125 54.3293C52.6597 53.6216 52.7845 52.8255 52.7845 51.934V44.4511V36.9681C52.7845 36.68 52.7187 36.46 52.5849 36.3171C52.4533 36.1697 52.256 36.0994 51.9906 36.0994Z" fill="#673AB7"/>
</svg>
