<svg width="129" height="129" viewBox="0 0 129 129" fill="none" xmlns="http://www.w3.org/2000/svg">
<path d="M64.5011 19C39.3712 19 19 39.3712 19 64.4989C19 89.6288 39.3712 109.998 64.4989 109.998C89.6266 109.998 110 89.6288 110 64.4989C110 39.3712 89.6288 19 64.5011 19Z" fill="#673AB7"/>
<path d="M85.3055 52.1709V53.7269C85.3055 54.1851 85.1898 54.5276 84.9607 54.7567C84.7316 54.9858 84.3891 55.1015 83.9309 55.1015H81.5447H79.1585C78.8931 55.1015 78.6958 55.1718 78.5619 55.317C78.4304 55.4622 78.3646 55.6799 78.3646 55.968V74.4792V92.9858C78.3646 93.444 78.2489 93.7888 78.0221 94.0156C77.793 94.2447 77.4482 94.3604 76.99 94.3604H75.0734H73.159C72.7008 94.3604 72.356 94.2447 72.1269 94.0156C71.9001 93.7888 71.7844 93.4463 71.7844 92.9858V86.2968V79.61H71.6438H71.4986C70.9179 80.6216 70.0741 81.3792 68.965 81.8873C67.8581 82.3931 66.4858 82.6449 64.8436 82.6449H63.7956H62.7477C61.0851 82.6449 59.588 82.3999 58.2566 81.9123C56.9228 81.4268 55.7569 80.6942 54.7566 79.7166C53.7563 78.7435 53.0078 77.5867 52.5065 76.2575C52.0075 74.9238 51.7557 73.4131 51.7557 71.7301V63.8479V55.968C51.7557 55.7049 51.7013 55.4985 51.5924 55.3533C51.4858 55.2081 51.3225 55.1242 51.1048 55.1015H49.0066H46.9108C46.4526 55.1015 46.1101 54.979 45.881 54.7386C45.6519 54.4982 45.5362 54.1398 45.5362 53.6544V52.1369V50.6172C45.5362 50.1839 45.6519 49.8573 45.881 49.6441C46.1101 49.4263 46.4526 49.3175 46.9108 49.3175H57.5602H68.2096C66.6695 47.7138 65.177 46.0172 63.7344 44.223C62.2918 42.4265 60.9013 40.5371 59.5631 38.5455L57.5375 35.5424L55.5165 32.5437C55.4212 32.3782 55.3509 32.2012 55.301 32.022C55.2534 31.8406 55.2262 31.6546 55.2262 31.4618C55.2262 31.1011 55.3169 30.8289 55.4984 30.6475C55.6775 30.4683 55.9497 30.3776 56.3104 30.3776H58.5151H60.7199C61.1531 30.3776 61.5274 30.4683 61.8427 30.6475C62.1557 30.8289 62.4097 31.1011 62.6025 31.4618L67.7719 39.7772L72.9412 48.0903C73.2089 48.5009 73.4969 48.8094 73.8122 49.0113C74.1252 49.2154 74.4632 49.3175 74.8239 49.3175H75.0053H75.1868H79.56H83.9332C84.3914 49.3175 84.7339 49.4241 84.9629 49.6441C85.192 49.8596 85.3077 50.1839 85.3077 50.6172V52.1709H85.3055Z" fill="white"/>
<path d="M70.9906 55.0994H65.0614H59.1322C58.8645 55.0994 58.6649 55.1697 58.5333 55.3148C58.4018 55.46 58.336 55.6778 58.336 55.9658V63.5237V71.0769C58.336 72.9573 58.7942 74.3659 59.7106 75.305C60.6269 76.2463 62.0015 76.7158 63.832 76.7158H64.8073H65.7827C66.7966 76.7158 67.6789 76.5865 68.4297 76.3279C69.1828 76.0694 69.8065 75.6792 70.2988 75.1621C70.7932 74.6426 71.1652 74.0325 71.4125 73.3293C71.6597 72.6216 71.7845 71.8255 71.7845 70.934V63.4511V55.9681C71.7845 55.68 71.7187 55.46 71.5849 55.3171C71.4533 55.1697 71.256 55.0994 70.9906 55.0994Z" fill="#673AB7"/>
</svg>
