<svg width="61" height="59" viewBox="0 0 61 59" fill="none" xmlns="http://www.w3.org/2000/svg">
<path d="M30.5412 55.819L42.255 52.8609C48.9411 47.309 53.1998 38.9348 53.1998 29.5649C53.1998 15.1124 43.0703 3.02589 29.5235 0.017334C13.6653 0.552155 0.973633 13.5763 0.973633 29.5648C0.973633 37.7773 4.32276 45.2071 9.72894 50.5645L30.5412 55.819Z" fill="#CBE2FF"/>
<path d="M52.5864 29.5647C52.5864 39.2558 47.9229 47.8568 40.7184 53.2487L51.3468 50.5646C56.7533 45.2072 60.103 37.7774 60.103 29.5647C60.103 13.2366 46.8665 0 30.5383 0C29.2652 0 28.0108 0.08061 26.78 0.236749C41.3336 2.08316 52.5864 14.5098 52.5864 29.5647Z" fill="#BED8FB"/>
<path d="M37.8858 10.0673C37.8858 8.5573 36.6617 7.33325 35.1517 7.33325H25.7301C22.2549 7.33325 19.4377 10.1504 19.4377 13.6256V20.6117H41.6354V13.7247C41.6354 12.2147 40.4114 10.9906 38.9014 10.9906H38.8092C38.2992 10.9906 37.8858 10.5773 37.8858 10.0673Z" fill="#365E7D"/>
<path d="M38.9013 10.9905H38.8092C38.2992 10.9905 37.8857 10.577 37.8857 10.067C37.8857 8.55706 36.6617 7.33301 35.1517 7.33301H34.1187V20.6115H41.6353V13.7244C41.6354 12.2146 40.4112 10.9905 38.9013 10.9905Z" fill="#2B4D66"/>
<path d="M50 41.7639C49.2772 41.0001 48.383 40.4093 47.368 40.0656L39.2964 37.3315L30.4791 37L21.658 37.3315L13.5864 40.0656C10.8558 40.9906 9 43.7017 9 46.766V49.1252C14.1726 54.973 21.4094 58.7094 29.4626 59C38.4855 56.8559 45.9924 50.4033 50 41.7639Z" fill="#4A80AA"/>
<path d="M52 49.5064V47.2424C52 45.1631 51.0799 43.2542 49.5847 42C45.3376 50.9671 36.9478 57.446 27 58.7561C28.2007 58.9137 29.4237 58.9977 30.6651 59C31.858 58.9981 33.035 58.9265 34.1927 58.7887C41.1772 57.9336 47.409 54.5327 52 49.5064Z" fill="#407093"/>
<path d="M31.2078 57.5573C32.9966 54.006 37.6545 43.9221 36.3263 37.6232L30.5403 35.3713L24.7488 37.6233C23.3796 44.1166 28.3717 54.6319 30.0244 57.8671C30.4219 57.7717 30.8165 57.6683 31.2078 57.5573Z" fill="#E4F6FF"/>
<path d="M34.2567 54.7418L31.9107 45.5125H29.1659L26.8257 54.7167L29.7196 57.9384C30.4542 57.7701 31.1786 57.5751 31.8919 57.3544L34.2567 54.7418Z" fill="#E28086"/>
<path d="M29.7648 57.9889C30.0045 57.9951 30.2446 57.9994 30.4856 57.9999C30.7645 57.9994 31.0425 57.9946 31.3197 57.9868L32.8102 56.3401C31.637 56.7517 30.4301 57.0915 29.1945 57.354L29.7648 57.9889Z" fill="#DD636E"/>
<path d="M35.4782 36.7714V31.5669H25.5948V36.7714C25.5948 39.5006 30.5365 42.4818 30.5365 42.4818C30.5365 42.4818 35.4782 39.5006 35.4782 36.7714Z" fill="#FFDDCE"/>
<path d="M41.6354 19.6949H39.7462C38.6955 19.6949 37.8437 18.8432 37.8437 17.7925V16.7514C37.8437 15.3827 36.5047 14.4151 35.2052 14.8446C32.1745 15.8463 28.902 15.8465 25.8712 14.8452L25.8676 14.8441C24.5681 14.4148 23.2293 15.3825 23.2293 16.751V17.7926C23.2293 18.8433 22.3776 19.695 21.3269 19.695H19.4377V22.806C19.4377 23.6009 20.0822 24.2454 20.8772 24.2454C21.128 24.2454 21.3321 24.4419 21.3479 24.6922C21.6514 29.5044 25.6481 33.3138 30.5366 33.3138C35.4252 33.3138 39.4219 29.5044 39.7254 24.6922C39.7412 24.442 39.9453 24.2454 40.1961 24.2454C40.991 24.2454 41.6355 23.601 41.6355 22.806V19.6949H41.6354Z" fill="#FFDDCE"/>
<path d="M39.7462 19.6948C38.6955 19.6948 37.8438 18.8431 37.8438 17.7924V16.7512C37.8438 15.3826 36.5047 14.4149 35.2052 14.8444C34.8463 14.963 34.4838 15.0665 34.1189 15.1571V25.4322C34.0683 28.7753 32.2364 31.6849 29.5311 33.2574C29.8615 33.2933 30.1967 33.3135 30.5366 33.3135C35.4251 33.3135 39.4218 29.504 39.7253 24.6919C39.7411 24.4416 39.9452 24.2451 40.196 24.2451C40.9909 24.2451 41.6355 23.6007 41.6355 22.8057V19.6947H39.7462V19.6948Z" fill="#FFCBBE"/>
<path d="M25.5949 35.3713L21.7194 38.5203L25.7836 43.5455C26.278 44.0269 27.0561 44.0564 27.5858 43.6141L30.6421 41.061L25.5949 35.3713Z" fill="#F4FBFF"/>
<path d="M35.4801 35.3713L30.6421 41.061L33.5147 43.5172C34.041 43.9672 34.8228 43.9445 35.3222 43.4649L39.3573 38.5203L35.4801 35.3713Z" fill="#F4FBFF"/>
<path d="M25.5949 35.3713L19.9064 38.166C19.4733 38.3787 19.2994 38.9056 19.5206 39.3344L20.635 41.4952C20.9239 42.055 20.8173 42.7373 20.3715 43.1824C20.142 43.4114 19.8935 43.6595 19.6781 43.8745C19.2926 44.2593 19.1541 44.8279 19.3239 45.3455C20.6694 49.4473 27.1453 55.7195 29.596 57.9888C29.7608 57.9932 29.926 57.9962 30.0915 57.998C28.3142 54.5412 22.0164 41.4077 25.5949 35.3713Z" fill="#365E7D"/>
<path d="M40.7033 43.1823C40.2574 42.7372 40.151 42.0549 40.4398 41.495L41.5542 39.3343C41.7754 38.9055 41.6015 38.3786 41.1684 38.1659L35.48 35.3713C39.0575 41.4061 32.7641 54.534 30.9849 57.9953C31.1521 57.9924 31.319 57.9882 31.4855 57.9827C33.9413 55.7082 40.4066 49.4436 41.7509 45.3456C41.9207 44.828 41.7822 44.2595 41.3967 43.8747C41.1813 43.6595 40.9328 43.4113 40.7033 43.1823Z" fill="#365E7D"/>
<path d="M30.642 41.061L27.6324 43.5745L29.1659 45.5125H31.9107L33.4442 43.4602L30.642 41.061Z" fill="#DD636E"/>
</svg>
