<svg width="40" height="40" viewBox="0 0 40 40" fill="none" xmlns="http://www.w3.org/2000/svg">
<path d="M26.6118 19.081C27.173 19.081 27.6279 18.6106 27.6279 18.0305C27.6279 17.4503 27.173 16.98 26.6118 16.98C26.0506 16.98 25.5956 17.4503 25.5956 18.0305C25.5956 18.6106 26.0506 19.081 26.6118 19.081Z" fill="url(#paint0_linear)"/>
<path d="M28.9489 9.10101H27.628V8.05051C27.628 7.47031 27.173 7 26.6118 7C26.0506 7 25.5957 7.47031 25.5957 8.05051V9.10101H20.9722V8.05051C20.9722 7.47031 20.5172 7 19.956 7C19.3948 7 18.9398 7.47031 18.9398 8.05051V9.10101H14.3671V8.05051C14.3671 7.47031 13.9122 7 13.351 7C12.7897 7 12.3348 7.47031 12.3348 8.05051V9.10101H11.0646C8.82339 9.10101 7 10.986 7 13.303V29.6908C7 32.0079 8.82339 33.8929 11.0646 33.8929H18.8382C19.3995 33.8929 19.8544 33.4226 19.8544 32.8424C19.8544 32.2622 19.3995 31.7919 18.8382 31.7919H11.0646C9.94401 31.7919 9.03231 30.8494 9.03231 29.6908V13.303C9.03231 12.1445 9.94401 11.202 11.0646 11.202H12.3348V12.2525C12.3348 12.8327 12.7897 13.303 13.351 13.303C13.9122 13.303 14.3671 12.8327 14.3671 12.2525V11.202H18.9398V12.2525C18.9398 12.8327 19.3948 13.303 19.956 13.303C20.5172 13.303 20.9722 12.8327 20.9722 12.2525V11.202H25.5957V12.2525C25.5957 12.8327 26.0506 13.303 26.6118 13.303C27.173 13.303 27.628 12.8327 27.628 12.2525V11.202H28.9489C30.0696 11.202 30.9813 12.1445 30.9813 13.303V19.2909C30.9813 19.8711 31.4362 20.3414 31.9974 20.3414C32.5587 20.3414 33.0136 19.8711 33.0136 19.2909V13.303C33.0136 10.986 31.1902 9.10101 28.9489 9.10101Z" fill="url(#paint1_linear)"/>
<path d="M26.8658 21.1816C23.4759 21.1816 20.7181 24.0326 20.7181 27.5371C20.7181 31.0416 23.4759 33.8927 26.8658 33.8927C30.2557 33.8927 33.0136 31.0416 33.0136 27.5371C33.0136 24.0326 30.2557 21.1816 26.8658 21.1816ZM26.8658 31.7917C24.5966 31.7917 22.7504 29.8831 22.7504 27.5371C22.7504 25.1912 24.5966 23.2826 26.8658 23.2826C29.135 23.2826 30.9813 25.1912 30.9813 27.5371C30.9813 29.8831 29.135 31.7917 26.8658 31.7917Z" fill="url(#paint2_linear)"/>
<path d="M28.3393 26.487H27.882V25.384C27.882 24.8038 27.4271 24.3335 26.8658 24.3335C26.3046 24.3335 25.8497 24.8038 25.8497 25.384V27.5375C25.8497 28.1177 26.3046 28.588 26.8658 28.588H28.3393C28.9005 28.588 29.3554 28.1177 29.3554 27.5375C29.3554 26.9573 28.9005 26.487 28.3393 26.487Z" fill="url(#paint3_linear)"/>
<path d="M22.1915 19.081C22.7527 19.081 23.2077 18.6106 23.2077 18.0305C23.2077 17.4503 22.7527 16.98 22.1915 16.98C21.6303 16.98 21.1753 17.4503 21.1753 18.0305C21.1753 18.6106 21.6303 19.081 22.1915 19.081Z" fill="url(#paint4_linear)"/>
<path d="M17.7712 23.6503C18.3324 23.6503 18.7874 23.18 18.7874 22.5998C18.7874 22.0196 18.3324 21.5493 17.7712 21.5493C17.21 21.5493 16.7551 22.0196 16.7551 22.5998C16.7551 23.18 17.21 23.6503 17.7712 23.6503Z" fill="url(#paint5_linear)"/>
<path d="M13.3509 19.081C13.9122 19.081 14.3671 18.6106 14.3671 18.0305C14.3671 17.4503 13.9122 16.98 13.3509 16.98C12.7897 16.98 12.3348 17.4503 12.3348 18.0305C12.3348 18.6106 12.7897 19.081 13.3509 19.081Z" fill="url(#paint6_linear)"/>
<path d="M13.3509 23.6503C13.9122 23.6503 14.3671 23.18 14.3671 22.5998C14.3671 22.0196 13.9122 21.5493 13.3509 21.5493C12.7897 21.5493 12.3348 22.0196 12.3348 22.5998C12.3348 23.18 12.7897 23.6503 13.3509 23.6503Z" fill="url(#paint7_linear)"/>
<path d="M13.3509 28.2201C13.9122 28.2201 14.3671 27.7498 14.3671 27.1696C14.3671 26.5894 13.9122 26.1191 13.3509 26.1191C12.7897 26.1191 12.3348 26.5894 12.3348 27.1696C12.3348 27.7498 12.7897 28.2201 13.3509 28.2201Z" fill="url(#paint8_linear)"/>
<path d="M17.7712 28.2201C18.3324 28.2201 18.7874 27.7498 18.7874 27.1696C18.7874 26.5894 18.3324 26.1191 17.7712 26.1191C17.21 26.1191 16.7551 26.5894 16.7551 27.1696C16.7551 27.7498 17.21 28.2201 17.7712 28.2201Z" fill="url(#paint9_linear)"/>
<path d="M17.7712 19.081C18.3324 19.081 18.7874 18.6106 18.7874 18.0305C18.7874 17.4503 18.3324 16.98 17.7712 16.98C17.21 16.98 16.7551 17.4503 16.7551 18.0305C16.7551 18.6106 17.21 19.081 17.7712 19.081Z" fill="url(#paint10_linear)"/>
<defs>
<linearGradient id="paint0_linear" x1="27.6279" y1="18.5557" x2="25.6356" y2="18.1977" gradientUnits="userSpaceOnUse">
<stop stop-color="#E5223C"/>
<stop offset="1" stop-color="#2F4666"/>
</linearGradient>
<linearGradient id="paint1_linear" x1="33.0136" y1="27.1697" x2="7.51184" y2="22.5864" gradientUnits="userSpaceOnUse">
<stop stop-color="#E5223C"/>
<stop offset="1" stop-color="#2F4666"/>
</linearGradient>
<linearGradient id="paint2_linear" x1="33.0136" y1="30.7149" x2="20.96" y2="28.5486" gradientUnits="userSpaceOnUse">
<stop stop-color="#E5223C"/>
<stop offset="1" stop-color="#2F4666"/>
</linearGradient>
<linearGradient id="paint3_linear" x1="29.3554" y1="27.5244" x2="25.8889" y2="26.9936" gradientUnits="userSpaceOnUse">
<stop stop-color="#E5223C"/>
<stop offset="1" stop-color="#2F4666"/>
</linearGradient>
<linearGradient id="paint4_linear" x1="23.2077" y1="18.5557" x2="21.2153" y2="18.1977" gradientUnits="userSpaceOnUse">
<stop stop-color="#E5223C"/>
<stop offset="1" stop-color="#2F4666"/>
</linearGradient>
<linearGradient id="paint5_linear" x1="18.7874" y1="23.1251" x2="16.7951" y2="22.767" gradientUnits="userSpaceOnUse">
<stop stop-color="#E5223C"/>
<stop offset="1" stop-color="#2F4666"/>
</linearGradient>
<linearGradient id="paint6_linear" x1="14.3671" y1="18.5557" x2="12.3748" y2="18.1977" gradientUnits="userSpaceOnUse">
<stop stop-color="#E5223C"/>
<stop offset="1" stop-color="#2F4666"/>
</linearGradient>
<linearGradient id="paint7_linear" x1="14.3671" y1="23.1251" x2="12.3748" y2="22.767" gradientUnits="userSpaceOnUse">
<stop stop-color="#E5223C"/>
<stop offset="1" stop-color="#2F4666"/>
</linearGradient>
<linearGradient id="paint8_linear" x1="14.3671" y1="27.6949" x2="12.3748" y2="27.3368" gradientUnits="userSpaceOnUse">
<stop stop-color="#E5223C"/>
<stop offset="1" stop-color="#2F4666"/>
</linearGradient>
<linearGradient id="paint9_linear" x1="18.7874" y1="27.6949" x2="16.7951" y2="27.3368" gradientUnits="userSpaceOnUse">
<stop stop-color="#E5223C"/>
<stop offset="1" stop-color="#2F4666"/>
</linearGradient>
<linearGradient id="paint10_linear" x1="18.7874" y1="18.5557" x2="16.7951" y2="18.1977" gradientUnits="userSpaceOnUse">
<stop stop-color="#E5223C"/>
<stop offset="1" stop-color="#2F4666"/>
</linearGradient>
</defs>
</svg>
