<?xml version="1.0" encoding="utf-8"?>
<!-- Generator: Adobe Illustrator 22.0.0, SVG Export Plug-In . SVG Version: 6.00 Build 0)  -->
<svg version="1.1" id="Layer_1" xmlns="http://www.w3.org/2000/svg" xmlns:xlink="http://www.w3.org/1999/xlink" x="0px" y="0px"
	 viewBox="0 0 40 40" style="enable-background:new 0 0 40 40;" xml:space="preserve">
<style type="text/css">
	.st0{fill:#FFFFFF;}
</style>
<path class="st0" d="M32.3,19.1c1-0.7,1.7-2,1.7-3.4c0-2.3-1.8-4.1-4-4.1s-4,1.8-4,4.1c0,1.4,0.7,2.6,1.7,3.4
	c-0.9,0.3-1.7,0.8-2.4,1.4c-0.9-0.8-2-1.5-3.2-1.8c1.5-0.9,2.4-2.6,2.4-4.5c0-2.9-2.3-5.2-5.1-5.2c-2.8,0-5.1,2.4-5.1,5.2
	c0,1.9,1,3.6,2.4,4.5c-1.2,0.4-2.3,1-3.2,1.8c-0.7-0.6-1.5-1.1-2.3-1.4c1-0.7,1.7-2,1.7-3.4c0-2.3-1.8-4.1-4-4.1c-2.2,0-4,1.8-4,4.1
	c0,1.4,0.7,2.6,1.7,3.4C4,20.1,2,22.8,2,26v0.5c0,0,0,0,0,0h8.5c0,0.4-0.1,0.8-0.1,1.2v0.5c0,2.1,1.6,3.8,3.7,3.8h10.7
	c2,0,3.7-1.7,3.7-3.8v-0.5c0-0.4,0-0.8-0.1-1.2H37c0,0,0,0,0,0V26C37,22.8,35,20.1,32.3,19.1z M27.1,15.7c0-1.6,1.3-3,2.9-3
	c1.6,0,2.9,1.3,2.9,3c0,1.6-1.3,3-2.8,3c0,0,0,0-0.1,0s0,0-0.1,0C28.4,18.7,27.1,17.4,27.1,15.7z M15.5,14.2c0-2.3,1.8-4.1,4-4.1
	c2.2,0,4,1.8,4,4.1c0,2.2-1.7,4-3.7,4.1c-0.1,0-0.2,0-0.2,0s-0.2,0-0.2,0C17.2,18.2,15.5,16.4,15.5,14.2z M6.1,15.7
	c0-1.6,1.3-3,2.9-3c1.6,0,2.9,1.3,2.9,3c0,1.6-1.3,3-2.8,3c0,0,0,0-0.1,0c0,0,0,0-0.1,0C7.4,18.7,6.1,17.4,6.1,15.7z M10.7,25.3H3.1
	c0.3-3.1,2.8-5.4,5.8-5.5c0,0,0,0,0,0c0,0,0,0,0,0c1.4,0,2.8,0.6,3.8,1.5C11.8,22.4,11.1,23.8,10.7,25.3z M27.4,28.2
	c0,1.5-1.2,2.7-2.6,2.7H14.1c-1.4,0-2.6-1.2-2.6-2.7v-0.5c0-4.5,3.4-8.1,7.7-8.2c0.1,0,0.2,0,0.2,0c0.1,0,0.2,0,0.2,0
	c4.3,0.1,7.7,3.8,7.7,8.2V28.2z M28.2,25.3c-0.4-1.5-1.1-2.9-2.1-4c1-0.9,2.4-1.5,3.8-1.5c0,0,0,0,0,0c0,0,0,0,0,0
	c3,0,5.5,2.4,5.8,5.5H28.2z"/>
</svg>
