<svg width="40" height="40" viewBox="0 0 40 40" fill="none" xmlns="http://www.w3.org/2000/svg">
<path d="M32.2701 19.1203C33.295 18.3749 33.9736 17.1349 33.9736 15.7373C33.9736 13.4509 32.1869 11.6017 29.9778 11.6017C27.7687 11.6017 25.982 13.4509 25.982 15.7373C25.982 17.1349 26.6537 18.3749 27.6856 19.1203C26.8061 19.4357 26.0028 19.923 25.324 20.5538C24.3892 19.7295 23.2881 19.0988 22.0831 18.7261C23.5443 17.8087 24.5277 16.1387 24.5277 14.2393C24.5277 11.3437 22.2631 9 19.4654 9C16.6676 9 14.403 11.3509 14.403 14.2393C14.403 16.1387 15.3795 17.8087 16.8476 18.7261C15.6565 19.0988 14.5692 19.7224 13.6413 20.5323C12.9626 19.9159 12.1731 19.4357 11.3074 19.1275C12.3324 18.382 13.0111 17.1421 13.0111 15.7445C13.0111 13.4581 11.2244 11.6089 9.01523 11.6089C6.80609 11.6089 5.01939 13.4581 5.01939 15.7445C5.01939 17.1421 5.69114 18.382 6.72299 19.1275C3.97369 20.1094 2 22.8115 2 25.9866V26.4596C2 26.474 2.01385 26.4883 2.0277 26.4883H10.4972C10.4488 26.8825 10.421 27.291 10.421 27.6996V28.187C10.421 30.2942 12.0692 32 14.1053 32H24.8394C26.8753 32 28.5235 30.2942 28.5235 28.187V27.6996C28.5235 27.291 28.4959 26.8825 28.4474 26.4883H36.9723C36.9861 26.4883 37 26.474 37 26.4596V25.9866C36.9861 22.8043 35.0193 20.1022 32.2701 19.1203ZM27.09 15.7301C27.09 14.0816 28.3851 12.7414 29.9778 12.7414C31.5706 12.7414 32.8656 14.0816 32.8656 15.7301C32.8656 17.3571 31.5984 18.6831 30.0332 18.7189C30.0124 18.7189 29.9986 18.7189 29.9778 18.7189C29.957 18.7189 29.9432 18.7189 29.9224 18.7189C28.3504 18.6902 27.09 17.3643 27.09 15.7301ZM15.4972 14.2393C15.4972 11.9816 17.2701 10.1468 19.4515 10.1468C21.633 10.1468 23.4058 11.9816 23.4058 14.2393C23.4058 16.4182 21.7507 18.2029 19.68 18.3247C19.6039 18.3247 19.5277 18.3247 19.4515 18.3247C19.3753 18.3247 19.2992 18.3247 19.223 18.3247C17.1524 18.2029 15.4972 16.4182 15.4972 14.2393ZM6.10665 15.7301C6.10665 14.0816 7.40165 12.7414 8.99446 12.7414C10.5872 12.7414 11.8823 14.0816 11.8823 15.7301C11.8823 17.3571 10.615 18.6831 9.04986 18.7189C9.02908 18.7189 9.01523 18.7189 8.99446 18.7189C8.97368 18.7189 8.95983 18.7189 8.93905 18.7189C7.37396 18.6902 6.10665 17.3643 6.10665 15.7301ZM10.6911 25.3344H3.12188C3.43351 22.2811 5.92659 19.8872 8.9529 19.8657C8.96676 19.8657 8.9806 19.8657 8.99446 19.8657C9.0083 19.8657 9.02216 19.8657 9.036 19.8657C10.4764 19.8729 11.7922 20.4247 12.8103 21.3206C11.813 22.4387 11.072 23.8149 10.6911 25.3344ZM27.4017 28.187C27.4017 29.6563 26.2451 30.8533 24.8254 30.8533H14.0914C12.6717 30.8533 11.5152 29.6563 11.5152 28.187V27.6996C11.5152 23.2487 14.9501 19.6077 19.223 19.4786C19.2992 19.4859 19.3822 19.4859 19.4584 19.4859C19.5346 19.4859 19.6177 19.4859 19.6939 19.4786C23.9668 19.6077 27.4017 23.2487 27.4017 27.6996V28.187ZM28.2258 25.3344C27.8449 23.8221 27.1177 22.4675 26.1274 21.3493C27.1523 20.4319 28.4819 19.88 29.9363 19.8657C29.9501 19.8657 29.964 19.8657 29.9778 19.8657C29.9917 19.8657 30.0055 19.8657 30.0194 19.8657C33.0457 19.8872 35.5388 22.2811 35.8504 25.3344H28.2258Z" fill="url(#paint0_linear)"/>
<defs>
<linearGradient id="paint0_linear" x1="37" y1="26.25" x2="4.20223" y2="16.9769" gradientUnits="userSpaceOnUse">
<stop stop-color="#E5223C"/>
<stop offset="1" stop-color="#2F4666"/>
</linearGradient>
</defs>
</svg>
