<svg width="40" height="40" viewBox="0 0 40 40" fill="none" xmlns="http://www.w3.org/2000/svg">
<path d="M30.7915 20.4941C30.099 19.3796 29.1233 18.4877 27.9699 17.9151C27.7059 17.7839 27.3891 17.8987 27.2623 18.1713C27.1355 18.4439 27.2465 18.771 27.5104 18.902C29.5204 19.8999 30.819 22.0321 30.819 24.334C30.819 25.319 30.5839 26.2958 30.1392 27.159C30.0017 27.4259 30.0998 27.7576 30.3582 27.8995C30.4376 27.9431 30.5228 27.9639 30.6068 27.9639C30.7965 27.9639 30.98 27.8584 31.0753 27.6734C31.6013 26.6525 31.8793 25.4977 31.8793 24.334C31.8793 22.9673 31.5032 21.6395 30.7915 20.4941Z" fill="url(#paint0_linear)"/>
<path d="M25.8181 17.2154L25.7824 17.2153C25.4897 17.2153 25.2522 17.4605 25.2522 17.7629C25.2522 18.0654 25.4897 18.3105 25.7824 18.3105H25.8131C25.814 18.3105 25.8147 18.3105 25.8157 18.3105C26.1073 18.3105 26.3444 18.0671 26.3458 17.7655C26.3471 17.4631 26.1109 17.2168 25.8181 17.2154Z" fill="url(#paint1_linear)"/>
<path d="M22.4639 29.7664C20.4541 28.7684 19.1555 26.6363 19.1555 24.3344C19.1555 23.3495 19.3905 22.3727 19.8352 21.5095C19.9727 21.2425 19.8747 20.9109 19.6162 20.7689C19.3578 20.6268 19.0366 20.7281 18.8991 20.995C18.3731 22.016 18.0951 23.1708 18.0951 24.3344C18.0951 25.7011 18.4713 27.0289 19.1829 28.1743C19.8755 29.2888 20.8512 30.1807 22.0045 30.7534C22.0786 30.7902 22.1569 30.8076 22.2339 30.8076C22.4314 30.8076 22.6209 30.6932 22.7121 30.4972C22.8389 30.2246 22.7279 29.8974 22.4639 29.7664Z" fill="url(#paint2_linear)"/>
<path d="M24.192 30.3576L24.1613 30.3574C23.8672 30.3569 23.6301 30.5999 23.6287 30.9024C23.6274 31.2049 23.8637 31.4511 24.1565 31.4526L24.192 31.4527C24.4848 31.4527 24.7222 31.2075 24.7222 30.9051C24.7222 30.6027 24.4848 30.3576 24.192 30.3576Z" fill="url(#paint3_linear)"/>
<path d="M27.3946 15.363C27.3301 15.2042 27.251 15.0545 27.1591 14.9157H28.5393C29.884 14.9157 30.9781 13.7857 30.9781 12.3969C30.9781 11.008 29.884 9.87806 28.5393 9.87806H24.2937C24.5637 9.47275 24.7221 8.9824 24.7221 8.45438C24.7221 7.06551 23.628 5.93555 22.2833 5.93555H9.29432C7.94961 5.93555 6.85556 7.06551 6.85556 8.45438C6.85556 9.84323 7.94961 10.9732 9.29432 10.9732H13.5399C13.27 11.3785 13.1115 11.8689 13.1115 12.3969C13.1115 12.9249 13.2699 13.4153 13.5399 13.8206H12.1572C10.8125 13.8206 9.71845 14.9505 9.71845 16.3394C9.71845 17.137 10.0797 17.8488 10.6417 18.3106C10.0797 18.7724 9.71845 19.4842 9.71845 20.2819C9.71845 21.0795 10.0797 21.7913 10.6417 22.2531C10.0797 22.715 9.71845 23.4267 9.71845 24.2244C9.71845 25.0221 10.0797 25.7339 10.6417 26.1957C10.0797 26.6575 9.71845 27.3693 9.71845 28.167C9.71845 29.5558 10.8125 30.6857 12.1572 30.6857H18.4052C20.0512 32.5041 22.3927 33.6427 24.9872 33.6427C29.9569 33.6427 34 29.4668 34 24.334C34 20.062 31.1992 16.4534 27.3946 15.363ZM28.5393 10.9732C29.2993 10.9732 29.9177 11.6119 29.9177 12.3969C29.9177 13.1819 29.2993 13.8206 28.5393 13.8206H25.1462H15.5503C14.7902 13.8206 14.1718 13.1819 14.1718 12.3969C14.1718 11.6119 14.7902 10.9732 15.5503 10.9732H28.5393ZM9.29432 9.87806C8.53422 9.87806 7.91589 9.23937 7.91589 8.45438C7.91589 7.66938 8.53422 7.03068 9.29432 7.03068H22.2833C23.0434 7.03068 23.6618 7.66938 23.6618 8.45438C23.6618 9.23937 23.0434 9.87806 22.2833 9.87806H9.29432ZM12.1572 14.9157H25.1462C25.3598 14.9157 25.5643 14.967 25.7477 15.0587C25.4969 15.037 25.2434 15.0253 24.9872 15.0253C22.4984 15.0253 20.242 16.0728 18.6094 17.7631H12.1572C11.3972 17.7631 10.7788 17.1244 10.7788 16.3394C10.7788 15.5544 11.3972 14.9157 12.1572 14.9157ZM12.1572 18.8583H17.7036C17.1016 19.7098 16.6363 20.6704 16.3409 21.7056H12.1572C11.3971 21.7056 10.7788 21.0669 10.7788 20.2819C10.7788 19.4969 11.3971 18.8583 12.1572 18.8583ZM12.1572 22.8007H16.0974C16.017 23.2997 15.9745 23.8118 15.9745 24.334C15.9745 24.78 16.0057 25.2186 16.0646 25.6481H12.1572C11.3971 25.6481 10.7788 25.0094 10.7788 24.2244C10.7788 23.4394 11.3971 22.8007 12.1572 22.8007ZM12.1572 29.5906C11.3971 29.5906 10.7788 28.952 10.7788 28.167C10.7788 27.3819 11.3971 26.7432 12.1572 26.7432H16.2811C16.5486 27.7734 16.9833 28.7334 17.5532 29.5906H12.1572ZM24.9872 32.5475C20.6022 32.5475 17.0347 28.8629 17.0347 24.334C17.0347 19.805 20.6022 16.1204 24.9872 16.1204C29.3722 16.1204 32.9397 19.805 32.9397 24.334C32.9397 28.8629 29.3722 32.5475 24.9872 32.5475Z" fill="url(#paint4_linear)"/>
<path d="M27.899 23.0442H26.7498C26.6676 22.4513 26.3969 21.9035 25.9802 21.4868H27.899C28.104 21.4868 28.27 21.3153 28.27 21.1035C28.27 20.892 28.104 20.7202 27.899 20.7202H22.6545C22.4497 20.7202 22.2833 20.892 22.2833 21.1035C22.2833 21.3153 22.4497 21.4868 22.6545 21.4868H24.1549C25.0493 21.4879 25.8195 22.1387 25.9974 23.0442H22.6545C22.4497 23.0442 22.2833 23.2157 22.2833 23.4275C22.2833 23.6393 22.4497 23.8108 22.6545 23.8108H25.9978C25.8203 24.7166 25.0498 25.3681 24.1549 25.3686H22.6545C22.5025 25.3686 22.3658 25.4644 22.3097 25.6103C22.2535 25.7562 22.2892 25.9228 22.3995 26.0306L26.1505 29.691C26.2995 29.836 26.534 29.8287 26.6746 29.6751C26.8152 29.5216 26.8088 29.2792 26.6603 29.1338L23.5876 26.1352H24.1549C25.4594 26.135 26.5655 25.1444 26.7504 23.8108H27.899C28.104 23.8108 28.27 23.6393 28.27 23.4275C28.27 23.2157 28.104 23.0442 27.899 23.0442Z" fill="url(#paint5_linear)"/>
<defs>
<linearGradient id="paint0_linear" x1="31.8793" y1="25.4381" x2="27.1884" y2="25.0353" gradientUnits="userSpaceOnUse">
<stop stop-color="#E5223C"/>
<stop offset="1" stop-color="#2F4666"/>
</linearGradient>
<linearGradient id="paint1_linear" x1="26.3458" y1="18.0368" x2="25.276" y2="17.8383" gradientUnits="userSpaceOnUse">
<stop stop-color="#E5223C"/>
<stop offset="1" stop-color="#2F4666"/>
</linearGradient>
<linearGradient id="paint2_linear" x1="22.7645" y1="28.2818" x2="18.0738" y2="27.879" gradientUnits="userSpaceOnUse">
<stop stop-color="#E5223C"/>
<stop offset="1" stop-color="#2F4666"/>
</linearGradient>
<linearGradient id="paint3_linear" x1="24.7222" y1="31.1789" x2="23.6524" y2="30.9804" gradientUnits="userSpaceOnUse">
<stop stop-color="#E5223C"/>
<stop offset="1" stop-color="#2F4666"/>
</linearGradient>
<linearGradient id="paint4_linear" x1="34" y1="26.7159" x2="7.4111" y2="21.8761" gradientUnits="userSpaceOnUse">
<stop stop-color="#E5223C"/>
<stop offset="1" stop-color="#2F4666"/>
</linearGradient>
<linearGradient id="paint5_linear" x1="28.27" y1="27.5264" x2="22.3012" y2="26.7948" gradientUnits="userSpaceOnUse">
<stop stop-color="#E5223C"/>
<stop offset="1" stop-color="#2F4666"/>
</linearGradient>
</defs>
</svg>
