<?xml version="1.0" encoding="utf-8"?>
<!-- Generator: Adobe Illustrator 22.0.0, SVG Export Plug-In . SVG Version: 6.00 Build 0)  -->
<svg version="1.1" id="Layer_1" xmlns="http://www.w3.org/2000/svg" xmlns:xlink="http://www.w3.org/1999/xlink" x="0px" y="0px"
	 viewBox="0 0 40 40" style="enable-background:new 0 0 40 40;" xml:space="preserve">
<style type="text/css">
	.st0{fill:#FFFFFF;}
</style>
<path class="st0" d="M30.8,20.5c-0.7-1.1-1.7-2-2.8-2.6c-0.3-0.1-0.6,0-0.7,0.3c-0.1,0.3,0,0.6,0.2,0.7c2,1,3.3,3.1,3.3,5.4
	c0,1-0.2,2-0.7,2.8c-0.1,0.3,0,0.6,0.2,0.7c0.1,0,0.2,0.1,0.2,0.1c0.2,0,0.4-0.1,0.5-0.3c0.5-1,0.8-2.2,0.8-3.3
	C31.9,23,31.5,21.6,30.8,20.5z"/>
<path class="st0" d="M25.8,17.2L25.8,17.2c-0.3,0-0.6,0.2-0.6,0.5c0,0.3,0.2,0.5,0.5,0.5h0c0,0,0,0,0,0c0.3,0,0.5-0.2,0.5-0.5
	C26.3,17.5,26.1,17.2,25.8,17.2z"/>
<path class="st0" d="M22.5,29.8c-2-1-3.3-3.1-3.3-5.4c0-1,0.2-2,0.7-2.8c0.1-0.3,0-0.6-0.2-0.7c-0.3-0.1-0.6,0-0.7,0.2
	c-0.5,1-0.8,2.2-0.8,3.3c0,1.4,0.4,2.7,1.1,3.8c0.7,1.1,1.7,2,2.8,2.6c0.1,0,0.2,0.1,0.2,0.1c0.2,0,0.4-0.1,0.5-0.3
	C22.8,30.2,22.7,29.9,22.5,29.8z"/>
<path class="st0" d="M24.2,30.4L24.2,30.4c-0.3,0-0.6,0.2-0.6,0.5c0,0.3,0.2,0.5,0.5,0.6l0,0c0.3,0,0.5-0.2,0.5-0.5
	S24.5,30.4,24.2,30.4z"/>
<path class="st0" d="M27.4,15.4c-0.1-0.2-0.1-0.3-0.2-0.4h1.4c1.3,0,2.4-1.1,2.4-2.5c0-1.4-1.1-2.5-2.4-2.5h-4.2
	c0.3-0.4,0.4-0.9,0.4-1.4c0-1.4-1.1-2.5-2.4-2.5h-13c-1.3,0-2.4,1.1-2.4,2.5c0,1.4,1.1,2.5,2.4,2.5h4.2c-0.3,0.4-0.4,0.9-0.4,1.4
	s0.2,1,0.4,1.4h-1.4c-1.3,0-2.4,1.1-2.4,2.5c0,0.8,0.4,1.5,0.9,2c-0.6,0.5-0.9,1.2-0.9,2c0,0.8,0.4,1.5,0.9,2
	c-0.6,0.5-0.9,1.2-0.9,2c0,0.8,0.4,1.5,0.9,2c-0.6,0.5-0.9,1.2-0.9,2c0,1.4,1.1,2.5,2.4,2.5h6.2c1.6,1.8,4,3,6.6,3c5,0,9-4.2,9-9.3
	C34,20.1,31.2,16.5,27.4,15.4z M28.5,11c0.8,0,1.4,0.6,1.4,1.4s-0.6,1.4-1.4,1.4h-3.4h-9.6c-0.8,0-1.4-0.6-1.4-1.4s0.6-1.4,1.4-1.4
	H28.5z M9.3,9.9c-0.8,0-1.4-0.6-1.4-1.4C7.9,7.7,8.5,7,9.3,7h13c0.8,0,1.4,0.6,1.4,1.4c0,0.8-0.6,1.4-1.4,1.4H9.3z M12.2,14.9h13
	c0.2,0,0.4,0.1,0.6,0.1c-0.3,0-0.5,0-0.8,0c-2.5,0-4.7,1-6.4,2.7h-6.5c-0.8,0-1.4-0.6-1.4-1.4C10.8,15.6,11.4,14.9,12.2,14.9z
	 M12.2,18.9h5.5c-0.6,0.9-1.1,1.8-1.4,2.8h-4.2c-0.8,0-1.4-0.6-1.4-1.4S11.4,18.9,12.2,18.9z M12.2,22.8h3.9c-0.1,0.5-0.1,1-0.1,1.5
	c0,0.4,0,0.9,0.1,1.3h-3.9c-0.8,0-1.4-0.6-1.4-1.4S11.4,22.8,12.2,22.8z M12.2,29.6c-0.8,0-1.4-0.6-1.4-1.4c0-0.8,0.6-1.4,1.4-1.4
	h4.1c0.3,1,0.7,2,1.3,2.8H12.2z M25,32.5c-4.4,0-8-3.7-8-8.2c0-4.5,3.6-8.2,8-8.2s8,3.7,8,8.2C32.9,28.9,29.4,32.5,25,32.5z"/>
<path class="st0" d="M27.9,23h-1.1c-0.1-0.6-0.4-1.1-0.8-1.6h1.9c0.2,0,0.4-0.2,0.4-0.4c0-0.2-0.2-0.4-0.4-0.4h-5.2
	c-0.2,0-0.4,0.2-0.4,0.4c0,0.2,0.2,0.4,0.4,0.4h1.5c0.9,0,1.7,0.7,1.8,1.6h-3.3c-0.2,0-0.4,0.2-0.4,0.4s0.2,0.4,0.4,0.4H26
	c-0.2,0.9-0.9,1.6-1.8,1.6h-1.5c-0.2,0-0.3,0.1-0.3,0.2c-0.1,0.1,0,0.3,0.1,0.4l3.8,3.7c0.1,0.1,0.4,0.1,0.5,0
	c0.1-0.2,0.1-0.4,0-0.5l-3.1-3h0.6c1.3,0,2.4-1,2.6-2.3h1.1c0.2,0,0.4-0.2,0.4-0.4S28.1,23,27.9,23z"/>
</svg>
